# Faceted flat-bottom gemstone for Tabletop Simulator
o 05_Round_Cut_Topaz
v 0.140000 -0.180000 0.000000
v 0.137310 -0.180000 0.027313
v 0.129343 -0.180000 0.053576
v 0.116406 -0.180000 0.077780
v 0.098995 -0.180000 0.098995
v 0.077780 -0.180000 0.116406
v 0.053576 -0.180000 0.129343
v 0.027313 -0.180000 0.137310
v 0.000000 -0.180000 0.140000
v -0.027313 -0.180000 0.137310
v -0.053576 -0.180000 0.129343
v -0.077780 -0.180000 0.116406
v -0.098995 -0.180000 0.098995
v -0.116406 -0.180000 0.077780
v -0.129343 -0.180000 0.053576
v -0.137310 -0.180000 0.027313
v -0.140000 -0.180000 0.000000
v -0.137310 -0.180000 -0.027313
v -0.129343 -0.180000 -0.053576
v -0.116406 -0.180000 -0.077780
v -0.098995 -0.180000 -0.098995
v -0.077780 -0.180000 -0.116406
v -0.053576 -0.180000 -0.129343
v -0.027313 -0.180000 -0.137310
v -0.000000 -0.180000 -0.140000
v 0.027313 -0.180000 -0.137310
v 0.053576 -0.180000 -0.129343
v 0.077780 -0.180000 -0.116406
v 0.098995 -0.180000 -0.098995
v 0.116406 -0.180000 -0.077780
v 0.129343 -0.180000 -0.053576
v 0.137310 -0.180000 -0.027313
v 0.487641 -0.095000 0.048028
v 0.468901 -0.095000 0.142239
v 0.432141 -0.095000 0.230984
v 0.378775 -0.095000 0.310853
v 0.310853 -0.095000 0.378775
v 0.230984 -0.095000 0.432141
v 0.142239 -0.095000 0.468901
v 0.048028 -0.095000 0.487641
v -0.048028 -0.095000 0.487641
v -0.142239 -0.095000 0.468901
v -0.230984 -0.095000 0.432141
v -0.310853 -0.095000 0.378775
v -0.378775 -0.095000 0.310853
v -0.432141 -0.095000 0.230984
v -0.468901 -0.095000 0.142239
v -0.487641 -0.095000 0.048028
v -0.487641 -0.095000 -0.048028
v -0.468901 -0.095000 -0.142239
v -0.432141 -0.095000 -0.230984
v -0.378775 -0.095000 -0.310853
v -0.310853 -0.095000 -0.378775
v -0.230984 -0.095000 -0.432141
v -0.142239 -0.095000 -0.468901
v -0.048028 -0.095000 -0.487641
v 0.048028 -0.095000 -0.487641
v 0.142239 -0.095000 -0.468901
v 0.230984 -0.095000 -0.432141
v 0.310853 -0.095000 -0.378775
v 0.378775 -0.095000 -0.310853
v 0.432141 -0.095000 -0.230984
v 0.468901 -0.095000 -0.142239
v 0.487641 -0.095000 -0.048028
v 0.800000 0.006000 0.000000
v 0.784628 0.006000 0.156072
v 0.739104 0.006000 0.306147
v 0.665176 0.006000 0.444456
v 0.565685 0.006000 0.565685
v 0.444456 0.006000 0.665176
v 0.306147 0.006000 0.739104
v 0.156072 0.006000 0.784628
v 0.000000 0.006000 0.800000
v -0.156072 0.006000 0.784628
v -0.306147 0.006000 0.739104
v -0.444456 0.006000 0.665176
v -0.565685 0.006000 0.565685
v -0.665176 0.006000 0.444456
v -0.739104 0.006000 0.306147
v -0.784628 0.006000 0.156072
v -0.800000 0.006000 0.000000
v -0.784628 0.006000 -0.156072
v -0.739104 0.006000 -0.306147
v -0.665176 0.006000 -0.444456
v -0.565685 0.006000 -0.565685
v -0.444456 0.006000 -0.665176
v -0.306147 0.006000 -0.739104
v -0.156072 0.006000 -0.784628
v -0.000000 0.006000 -0.800000
v 0.156072 0.006000 -0.784628
v 0.306147 0.006000 -0.739104
v 0.444456 0.006000 -0.665176
v 0.565685 0.006000 -0.565685
v 0.665176 0.006000 -0.444456
v 0.739104 0.006000 -0.306147
v 0.784628 0.006000 -0.156072
v 1.000000 0.055000 0.000000
v 0.980785 0.055000 0.195090
v 0.923880 0.055000 0.382683
v 0.831470 0.055000 0.555570
v 0.707107 0.055000 0.707107
v 0.555570 0.055000 0.831470
v 0.382683 0.055000 0.923880
v 0.195090 0.055000 0.980785
v 0.000000 0.055000 1.000000
v -0.195090 0.055000 0.980785
v -0.382683 0.055000 0.923880
v -0.555570 0.055000 0.831470
v -0.707107 0.055000 0.707107
v -0.831470 0.055000 0.555570
v -0.923880 0.055000 0.382683
v -0.980785 0.055000 0.195090
v -1.000000 0.055000 0.000000
v -0.980785 0.055000 -0.195090
v -0.923880 0.055000 -0.382683
v -0.831470 0.055000 -0.555570
v -0.707107 0.055000 -0.707107
v -0.555570 0.055000 -0.831470
v -0.382683 0.055000 -0.923880
v -0.195090 0.055000 -0.980785
v -0.000000 0.055000 -1.000000
v 0.195090 0.055000 -0.980785
v 0.382683 0.055000 -0.923880
v 0.555570 0.055000 -0.831470
v 0.707107 0.055000 -0.707107
v 0.831470 0.055000 -0.555570
v 0.923880 0.055000 -0.382683
v 0.980785 0.055000 -0.195090
v 1.000000 0.091000 0.000000
v 0.980785 0.091000 0.195090
v 0.923880 0.091000 0.382683
v 0.831470 0.091000 0.555570
v 0.707107 0.091000 0.707107
v 0.555570 0.091000 0.831470
v 0.382683 0.091000 0.923880
v 0.195090 0.091000 0.980785
v 0.000000 0.091000 1.000000
v -0.195090 0.091000 0.980785
v -0.382683 0.091000 0.923880
v -0.555570 0.091000 0.831470
v -0.707107 0.091000 0.707107
v -0.831470 0.091000 0.555570
v -0.923880 0.091000 0.382683
v -0.980785 0.091000 0.195090
v -1.000000 0.091000 0.000000
v -0.980785 0.091000 -0.195090
v -0.923880 0.091000 -0.382683
v -0.831470 0.091000 -0.555570
v -0.707107 0.091000 -0.707107
v -0.555570 0.091000 -0.831470
v -0.382683 0.091000 -0.923880
v -0.195090 0.091000 -0.980785
v -0.000000 0.091000 -1.000000
v 0.195090 0.091000 -0.980785
v 0.382683 0.091000 -0.923880
v 0.555570 0.091000 -0.831470
v 0.707107 0.091000 -0.707107
v 0.831470 0.091000 -0.555570
v 0.923880 0.091000 -0.382683
v 0.980785 0.091000 -0.195090
v 0.776244 0.215000 0.076453
v 0.746413 0.215000 0.226422
v 0.687899 0.215000 0.367689
v 0.602948 0.215000 0.494827
v 0.494827 0.215000 0.602948
v 0.367689 0.215000 0.687899
v 0.226422 0.215000 0.746413
v 0.076453 0.215000 0.776244
v -0.076453 0.215000 0.776244
v -0.226422 0.215000 0.746413
v -0.367689 0.215000 0.687899
v -0.494827 0.215000 0.602948
v -0.602948 0.215000 0.494827
v -0.687899 0.215000 0.367689
v -0.746413 0.215000 0.226422
v -0.776244 0.215000 0.076453
v -0.776244 0.215000 -0.076453
v -0.746413 0.215000 -0.226422
v -0.687899 0.215000 -0.367689
v -0.602948 0.215000 -0.494827
v -0.494827 0.215000 -0.602948
v -0.367689 0.215000 -0.687899
v -0.226422 0.215000 -0.746413
v -0.076453 0.215000 -0.776244
v 0.076453 0.215000 -0.776244
v 0.226422 0.215000 -0.746413
v 0.367689 0.215000 -0.687899
v 0.494827 0.215000 -0.602948
v 0.602948 0.215000 -0.494827
v 0.687899 0.215000 -0.367689
v 0.746413 0.215000 -0.226422
v 0.776244 0.215000 -0.076453
v 0.520000 0.294000 0.000000
v 0.510008 0.294000 0.101447
v 0.480417 0.294000 0.198995
v 0.432364 0.294000 0.288897
v 0.367696 0.294000 0.367696
v 0.288897 0.294000 0.432364
v 0.198995 0.294000 0.480417
v 0.101447 0.294000 0.510008
v 0.000000 0.294000 0.520000
v -0.101447 0.294000 0.510008
v -0.198995 0.294000 0.480417
v -0.288897 0.294000 0.432364
v -0.367696 0.294000 0.367696
v -0.432364 0.294000 0.288897
v -0.480417 0.294000 0.198995
v -0.510008 0.294000 0.101447
v -0.520000 0.294000 0.000000
v -0.510008 0.294000 -0.101447
v -0.480417 0.294000 -0.198995
v -0.432364 0.294000 -0.288897
v -0.367696 0.294000 -0.367696
v -0.288897 0.294000 -0.432364
v -0.198995 0.294000 -0.480417
v -0.101447 0.294000 -0.510008
v -0.000000 0.294000 -0.520000
v 0.101447 0.294000 -0.510008
v 0.198995 0.294000 -0.480417
v 0.288897 0.294000 -0.432364
v 0.367696 0.294000 -0.367696
v 0.432364 0.294000 -0.288897
v 0.480417 0.294000 -0.198995
v 0.510008 0.294000 -0.101447
v 0.430000 0.320000 0.000000
v 0.421738 0.320000 0.083889
v 0.397268 0.320000 0.164554
v 0.357532 0.320000 0.238895
v 0.304056 0.320000 0.304056
v 0.238895 0.320000 0.357532
v 0.164554 0.320000 0.397268
v 0.083889 0.320000 0.421738
v 0.000000 0.320000 0.430000
v -0.083889 0.320000 0.421738
v -0.164554 0.320000 0.397268
v -0.238895 0.320000 0.357532
v -0.304056 0.320000 0.304056
v -0.357532 0.320000 0.238895
v -0.397268 0.320000 0.164554
v -0.421738 0.320000 0.083889
v -0.430000 0.320000 0.000000
v -0.421738 0.320000 -0.083889
v -0.397268 0.320000 -0.164554
v -0.357532 0.320000 -0.238895
v -0.304056 0.320000 -0.304056
v -0.238895 0.320000 -0.357532
v -0.164554 0.320000 -0.397268
v -0.083889 0.320000 -0.421738
v -0.000000 0.320000 -0.430000
v 0.083889 0.320000 -0.421738
v 0.164554 0.320000 -0.397268
v 0.238895 0.320000 -0.357532
v 0.304056 0.320000 -0.304056
v 0.357532 0.320000 -0.238895
v 0.397268 0.320000 -0.164554
v 0.421738 0.320000 -0.083889
v 0.000000 -0.180000 0.000000
v 0.000000 0.320000 0.000000
vt 0.146250 0.977500
vt 0.227500 0.975000
vt 0.187500 0.900000
vt 0.521250 0.727500
vt 0.602500 0.725000
vt 0.562500 0.650000
vt 0.771250 0.477500
vt 0.852500 0.475000
vt 0.812500 0.400000
vt 0.146250 0.102500
vt 0.227500 0.100000
vt 0.187500 0.025000
vt 0.396250 0.852500
vt 0.477500 0.850000
vt 0.437500 0.775000
vt 0.771250 0.602500
vt 0.852500 0.600000
vt 0.812500 0.525000
vt 0.021250 0.227500
vt 0.102500 0.225000
vt 0.062500 0.150000
vt 0.396250 0.977500
vt 0.477500 0.975000
vt 0.437500 0.900000
vt 0.646250 0.727500
vt 0.727500 0.725000
vt 0.687500 0.650000
vt 0.021250 0.352500
vt 0.102500 0.350000
vt 0.062500 0.275000
vt 0.271250 0.102500
vt 0.352500 0.100000
vt 0.312500 0.025000
vt 0.646250 0.852500
vt 0.727500 0.850000
vt 0.687500 0.775000
vt 0.896250 0.602500
vt 0.977500 0.600000
vt 0.937500 0.525000
vt 0.271250 0.227500
vt 0.352500 0.225000
vt 0.312500 0.150000
vt 0.521250 0.977500
vt 0.602500 0.975000
vt 0.562500 0.900000
vt 0.896250 0.727500
vt 0.977500 0.725000
vt 0.937500 0.650000
vt 0.146250 0.352500
vt 0.227500 0.350000
vt 0.187500 0.275000
vt 0.521250 0.102500
vt 0.602500 0.100000
vt 0.562500 0.025000
vt 0.771250 0.852500
vt 0.852500 0.850000
vt 0.812500 0.775000
vt 0.146250 0.477500
vt 0.227500 0.475000
vt 0.187500 0.400000
vt 0.396250 0.227500
vt 0.477500 0.225000
vt 0.437500 0.150000
vt 0.771250 0.977500
vt 0.852500 0.975000
vt 0.812500 0.900000
vt 0.021250 0.602500
vt 0.102500 0.600000
vt 0.062500 0.525000
vt 0.396250 0.352500
vt 0.477500 0.350000
vt 0.437500 0.275000
vt 0.646250 0.102500
vt 0.727500 0.100000
vt 0.687500 0.025000
vt 0.021250 0.727500
vt 0.102500 0.725000
vt 0.062500 0.650000
vt 0.271250 0.477500
vt 0.352500 0.475000
vt 0.312500 0.400000
vt 0.646250 0.227500
vt 0.727500 0.225000
vt 0.687500 0.150000
vt 0.896250 0.977500
vt 0.977500 0.975000
vt 0.937500 0.900000
vt 0.271250 0.602500
vt 0.352500 0.600000
vt 0.312500 0.525000
vt 0.521250 0.352500
vt 0.602500 0.350000
vt 0.562500 0.275000
vt 0.896250 0.102500
vt 0.977500 0.100000
vt 0.937500 0.025000
vt 0.146250 0.727500
vt 0.227500 0.725000
vt 0.187500 0.650000
vt 0.521250 0.477500
vt 0.602500 0.475000
vt 0.562500 0.400000
vt 0.771250 0.227500
vt 0.852500 0.225000
vt 0.812500 0.150000
vt 0.146250 0.852500
vt 0.227500 0.850000
vt 0.187500 0.775000
vt 0.396250 0.602500
vt 0.477500 0.600000
vt 0.437500 0.525000
vt 0.771250 0.352500
vt 0.852500 0.350000
vt 0.812500 0.275000
vt 0.021250 0.977500
vt 0.102500 0.975000
vt 0.062500 0.900000
vt 0.396250 0.727500
vt 0.477500 0.725000
vt 0.437500 0.650000
vt 0.646250 0.477500
vt 0.727500 0.475000
vt 0.687500 0.400000
vt 0.021250 0.102500
vt 0.102500 0.100000
vt 0.062500 0.025000
vt 0.271250 0.852500
vt 0.352500 0.850000
vt 0.312500 0.775000
vt 0.646250 0.602500
vt 0.727500 0.600000
vt 0.687500 0.525000
vt 0.896250 0.352500
vt 0.977500 0.350000
vt 0.937500 0.275000
vt 0.271250 0.977500
vt 0.352500 0.975000
vt 0.312500 0.900000
vt 0.521250 0.727500
vt 0.602500 0.725000
vt 0.562500 0.650000
vt 0.896250 0.477500
vt 0.977500 0.475000
vt 0.937500 0.400000
vt 0.146250 0.102500
vt 0.227500 0.100000
vt 0.187500 0.025000
vt 0.521250 0.852500
vt 0.602500 0.850000
vt 0.562500 0.775000
vt 0.771250 0.602500
vt 0.852500 0.600000
vt 0.812500 0.525000
vt 0.146250 0.227500
vt 0.227500 0.225000
vt 0.187500 0.150000
vt 0.396250 0.977500
vt 0.477500 0.975000
vt 0.437500 0.900000
vt 0.771250 0.727500
vt 0.852500 0.725000
vt 0.812500 0.650000
vt 0.021250 0.352500
vt 0.102500 0.350000
vt 0.062500 0.275000
vt 0.396250 0.102500
vt 0.477500 0.100000
vt 0.437500 0.025000
vt 0.646250 0.852500
vt 0.727500 0.850000
vt 0.687500 0.775000
vt 0.021250 0.477500
vt 0.102500 0.475000
vt 0.062500 0.400000
vt 0.271250 0.227500
vt 0.352500 0.225000
vt 0.312500 0.150000
vt 0.646250 0.977500
vt 0.727500 0.975000
vt 0.687500 0.900000
vt 0.896250 0.727500
vt 0.977500 0.725000
vt 0.937500 0.650000
vt 0.271250 0.352500
vt 0.352500 0.350000
vt 0.312500 0.275000
vt 0.521250 0.102500
vt 0.602500 0.100000
vt 0.562500 0.025000
vt 0.896250 0.352500
vt 0.977500 0.350000
vt 0.937500 0.275000
vt 0.271250 0.352500
vt 0.352500 0.350000
vt 0.312500 0.275000
vt 0.646250 0.102500
vt 0.727500 0.100000
vt 0.687500 0.025000
vt 0.896250 0.852500
vt 0.977500 0.850000
vt 0.937500 0.775000
vt 0.271250 0.477500
vt 0.352500 0.475000
vt 0.312500 0.400000
vt 0.521250 0.227500
vt 0.602500 0.225000
vt 0.562500 0.150000
vt 0.896250 0.977500
vt 0.977500 0.975000
vt 0.937500 0.900000
vt 0.146250 0.602500
vt 0.227500 0.600000
vt 0.187500 0.525000
vt 0.521250 0.352500
vt 0.602500 0.350000
vt 0.562500 0.275000
vt 0.771250 0.102500
vt 0.852500 0.100000
vt 0.812500 0.025000
vt 0.146250 0.727500
vt 0.227500 0.725000
vt 0.187500 0.650000
vt 0.396250 0.477500
vt 0.477500 0.475000
vt 0.437500 0.400000
vt 0.771250 0.227500
vt 0.852500 0.225000
vt 0.812500 0.150000
vt 0.021250 0.852500
vt 0.102500 0.850000
vt 0.062500 0.775000
vt 0.396250 0.602500
vt 0.477500 0.600000
vt 0.437500 0.525000
vt 0.646250 0.352500
vt 0.727500 0.350000
vt 0.687500 0.275000
vt 0.021250 0.977500
vt 0.102500 0.975000
vt 0.062500 0.900000
vt 0.271250 0.727500
vt 0.352500 0.725000
vt 0.312500 0.650000
vt 0.646250 0.477500
vt 0.727500 0.475000
vt 0.687500 0.400000
vt 0.896250 0.227500
vt 0.977500 0.225000
vt 0.937500 0.150000
vt 0.271250 0.852500
vt 0.352500 0.850000
vt 0.312500 0.775000
vt 0.521250 0.602500
vt 0.602500 0.600000
vt 0.562500 0.525000
vt 0.896250 0.352500
vt 0.977500 0.350000
vt 0.937500 0.275000
vt 0.146250 0.977500
vt 0.227500 0.975000
vt 0.187500 0.900000
vt 0.521250 0.727500
vt 0.602500 0.725000
vt 0.562500 0.650000
vt 0.771250 0.477500
vt 0.852500 0.475000
vt 0.812500 0.400000
vt 0.146250 0.102500
vt 0.227500 0.100000
vt 0.187500 0.025000
vt 0.396250 0.852500
vt 0.477500 0.850000
vt 0.437500 0.775000
vt 0.771250 0.602500
vt 0.852500 0.600000
vt 0.812500 0.525000
vt 0.021250 0.227500
vt 0.102500 0.225000
vt 0.062500 0.150000
vt 0.396250 0.977500
vt 0.477500 0.975000
vt 0.437500 0.900000
vt 0.646250 0.727500
vt 0.727500 0.725000
vt 0.687500 0.650000
vt 0.021250 0.352500
vt 0.102500 0.350000
vt 0.062500 0.275000
vt 0.271250 0.102500
vt 0.352500 0.100000
vt 0.312500 0.025000
vt 0.646250 0.852500
vt 0.727500 0.850000
vt 0.687500 0.775000
vt 0.896250 0.602500
vt 0.977500 0.600000
vt 0.937500 0.525000
vt 0.271250 0.227500
vt 0.352500 0.225000
vt 0.312500 0.150000
vt 0.521250 0.977500
vt 0.602500 0.975000
vt 0.562500 0.900000
vt 0.896250 0.727500
vt 0.977500 0.725000
vt 0.937500 0.650000
vt 0.146250 0.352500
vt 0.227500 0.350000
vt 0.187500 0.275000
vt 0.521250 0.102500
vt 0.602500 0.100000
vt 0.562500 0.025000
vt 0.771250 0.852500
vt 0.852500 0.850000
vt 0.812500 0.775000
vt 0.146250 0.477500
vt 0.227500 0.475000
vt 0.187500 0.400000
vt 0.396250 0.227500
vt 0.477500 0.225000
vt 0.437500 0.150000
vt 0.771250 0.977500
vt 0.852500 0.975000
vt 0.812500 0.900000
vt 0.021250 0.602500
vt 0.102500 0.600000
vt 0.062500 0.525000
vt 0.396250 0.352500
vt 0.477500 0.350000
vt 0.437500 0.275000
vt 0.646250 0.102500
vt 0.727500 0.100000
vt 0.687500 0.025000
vt 0.021250 0.727500
vt 0.102500 0.725000
vt 0.062500 0.650000
vt 0.271250 0.477500
vt 0.352500 0.475000
vt 0.312500 0.400000
vt 0.646250 0.227500
vt 0.727500 0.225000
vt 0.687500 0.150000
vt 0.896250 0.977500
vt 0.977500 0.975000
vt 0.937500 0.900000
vt 0.271250 0.602500
vt 0.352500 0.600000
vt 0.312500 0.525000
vt 0.521250 0.352500
vt 0.602500 0.350000
vt 0.562500 0.275000
vt 0.896250 0.102500
vt 0.977500 0.100000
vt 0.937500 0.025000
vt 0.146250 0.727500
vt 0.227500 0.725000
vt 0.187500 0.650000
vt 0.521250 0.477500
vt 0.602500 0.475000
vt 0.562500 0.400000
vt 0.771250 0.227500
vt 0.852500 0.225000
vt 0.812500 0.150000
vt 0.146250 0.852500
vt 0.227500 0.850000
vt 0.187500 0.775000
vt 0.396250 0.602500
vt 0.477500 0.600000
vt 0.437500 0.525000
vt 0.771250 0.352500
vt 0.852500 0.350000
vt 0.812500 0.275000
vt 0.021250 0.977500
vt 0.102500 0.975000
vt 0.062500 0.900000
vt 0.396250 0.727500
vt 0.477500 0.725000
vt 0.437500 0.650000
vt 0.646250 0.477500
vt 0.727500 0.475000
vt 0.687500 0.400000
vt 0.021250 0.602500
vt 0.102500 0.600000
vt 0.062500 0.525000
vt 0.396250 0.727500
vt 0.477500 0.725000
vt 0.437500 0.650000
vt 0.771250 0.477500
vt 0.852500 0.475000
vt 0.812500 0.400000
vt 0.021250 0.102500
vt 0.102500 0.100000
vt 0.062500 0.025000
vt 0.396250 0.852500
vt 0.477500 0.850000
vt 0.437500 0.775000
vt 0.646250 0.602500
vt 0.727500 0.600000
vt 0.687500 0.525000
vt 0.021250 0.227500
vt 0.102500 0.225000
vt 0.062500 0.150000
vt 0.271250 0.977500
vt 0.352500 0.975000
vt 0.312500 0.900000
vt 0.646250 0.727500
vt 0.727500 0.725000
vt 0.687500 0.650000
vt 0.896250 0.477500
vt 0.977500 0.475000
vt 0.937500 0.400000
vt 0.271250 0.102500
vt 0.352500 0.100000
vt 0.312500 0.025000
vt 0.521250 0.852500
vt 0.602500 0.850000
vt 0.562500 0.775000
vt 0.896250 0.602500
vt 0.977500 0.600000
vt 0.937500 0.525000
vt 0.146250 0.227500
vt 0.227500 0.225000
vt 0.187500 0.150000
vt 0.521250 0.977500
vt 0.602500 0.975000
vt 0.562500 0.900000
vt 0.771250 0.727500
vt 0.852500 0.725000
vt 0.812500 0.650000
vt 0.146250 0.352500
vt 0.227500 0.350000
vt 0.187500 0.275000
vt 0.396250 0.102500
vt 0.477500 0.100000
vt 0.437500 0.025000
vt 0.771250 0.852500
vt 0.852500 0.850000
vt 0.812500 0.775000
vt 0.021250 0.477500
vt 0.102500 0.475000
vt 0.062500 0.400000
vt 0.396250 0.227500
vt 0.477500 0.225000
vt 0.437500 0.150000
vt 0.646250 0.977500
vt 0.727500 0.975000
vt 0.687500 0.900000
vt 0.021250 0.602500
vt 0.102500 0.600000
vt 0.062500 0.525000
vt 0.271250 0.352500
vt 0.352500 0.350000
vt 0.312500 0.275000
vt 0.646250 0.102500
vt 0.727500 0.100000
vt 0.687500 0.025000
vt 0.896250 0.852500
vt 0.977500 0.850000
vt 0.937500 0.775000
vt 0.271250 0.477500
vt 0.352500 0.475000
vt 0.312500 0.400000
vt 0.521250 0.227500
vt 0.602500 0.225000
vt 0.562500 0.150000
vt 0.896250 0.977500
vt 0.977500 0.975000
vt 0.937500 0.900000
vt 0.146250 0.602500
vt 0.227500 0.600000
vt 0.187500 0.525000
vt 0.521250 0.352500
vt 0.602500 0.350000
vt 0.562500 0.275000
vt 0.771250 0.102500
vt 0.852500 0.100000
vt 0.812500 0.025000
vt 0.146250 0.727500
vt 0.227500 0.725000
vt 0.187500 0.650000
vt 0.396250 0.477500
vt 0.477500 0.475000
vt 0.437500 0.400000
vt 0.771250 0.227500
vt 0.852500 0.225000
vt 0.812500 0.150000
vt 0.021250 0.852500
vt 0.102500 0.850000
vt 0.062500 0.775000
vt 0.396250 0.602500
vt 0.477500 0.600000
vt 0.437500 0.525000
vt 0.646250 0.352500
vt 0.727500 0.350000
vt 0.687500 0.275000
vt 0.021250 0.977500
vt 0.102500 0.975000
vt 0.062500 0.900000
vt 0.271250 0.727500
vt 0.352500 0.725000
vt 0.312500 0.650000
vt 0.646250 0.477500
vt 0.727500 0.475000
vt 0.687500 0.400000
vt 0.896250 0.227500
vt 0.977500 0.225000
vt 0.937500 0.150000
vt 0.271250 0.852500
vt 0.352500 0.850000
vt 0.312500 0.775000
vt 0.521250 0.602500
vt 0.602500 0.600000
vt 0.562500 0.525000
vt 0.896250 0.352500
vt 0.977500 0.350000
vt 0.937500 0.275000
vt 0.146250 0.977500
vt 0.227500 0.975000
vt 0.187500 0.900000
vt 0.521250 0.727500
vt 0.602500 0.725000
vt 0.562500 0.650000
vt 0.771250 0.477500
vt 0.852500 0.475000
vt 0.812500 0.400000
vt 0.146250 0.102500
vt 0.227500 0.100000
vt 0.187500 0.025000
vt 0.396250 0.852500
vt 0.477500 0.850000
vt 0.437500 0.775000
vt 0.771250 0.602500
vt 0.852500 0.600000
vt 0.812500 0.525000
vt 0.021250 0.227500
vt 0.102500 0.225000
vt 0.062500 0.150000
vt 0.396250 0.977500
vt 0.477500 0.975000
vt 0.437500 0.900000
vt 0.646250 0.727500
vt 0.727500 0.725000
vt 0.687500 0.650000
vt 0.021250 0.352500
vt 0.102500 0.350000
vt 0.062500 0.275000
vt 0.271250 0.102500
vt 0.352500 0.100000
vt 0.312500 0.025000
vt 0.646250 0.852500
vt 0.727500 0.850000
vt 0.687500 0.775000
vt 0.896250 0.602500
vt 0.977500 0.600000
vt 0.937500 0.525000
vt 0.271250 0.227500
vt 0.352500 0.225000
vt 0.312500 0.150000
vt 0.521250 0.977500
vt 0.602500 0.975000
vt 0.562500 0.900000
vt 0.896250 0.727500
vt 0.977500 0.725000
vt 0.937500 0.650000
vt 0.146250 0.352500
vt 0.227500 0.350000
vt 0.187500 0.275000
vt 0.521250 0.102500
vt 0.602500 0.100000
vt 0.562500 0.025000
vt 0.771250 0.852500
vt 0.852500 0.850000
vt 0.812500 0.775000
vt 0.146250 0.977500
vt 0.227500 0.975000
vt 0.187500 0.900000
vt 0.521250 0.102500
vt 0.602500 0.100000
vt 0.562500 0.025000
vt 0.896250 0.852500
vt 0.977500 0.850000
vt 0.937500 0.775000
vt 0.146250 0.477500
vt 0.227500 0.475000
vt 0.187500 0.400000
vt 0.521250 0.227500
vt 0.602500 0.225000
vt 0.562500 0.150000
vt 0.771250 0.977500
vt 0.852500 0.975000
vt 0.812500 0.900000
vt 0.146250 0.602500
vt 0.227500 0.600000
vt 0.187500 0.525000
vt 0.396250 0.352500
vt 0.477500 0.350000
vt 0.437500 0.275000
vt 0.771250 0.102500
vt 0.852500 0.100000
vt 0.812500 0.025000
vt 0.021250 0.727500
vt 0.102500 0.725000
vt 0.062500 0.650000
vt 0.396250 0.477500
vt 0.477500 0.475000
vt 0.437500 0.400000
vt 0.646250 0.227500
vt 0.727500 0.225000
vt 0.687500 0.150000
vt 0.021250 0.852500
vt 0.102500 0.850000
vt 0.062500 0.775000
vt 0.271250 0.602500
vt 0.352500 0.600000
vt 0.312500 0.525000
vt 0.646250 0.352500
vt 0.727500 0.350000
vt 0.687500 0.275000
vt 0.896250 0.102500
vt 0.977500 0.100000
vt 0.937500 0.025000
vt 0.271250 0.727500
vt 0.352500 0.725000
vt 0.312500 0.650000
vt 0.521250 0.477500
vt 0.602500 0.475000
vt 0.562500 0.400000
vt 0.896250 0.227500
vt 0.977500 0.225000
vt 0.937500 0.150000
vt 0.146250 0.852500
vt 0.227500 0.850000
vt 0.187500 0.775000
vt 0.521250 0.602500
vt 0.602500 0.600000
vt 0.562500 0.525000
vt 0.771250 0.352500
vt 0.852500 0.350000
vt 0.812500 0.275000
vt 0.146250 0.977500
vt 0.227500 0.975000
vt 0.187500 0.900000
vt 0.396250 0.727500
vt 0.477500 0.725000
vt 0.437500 0.650000
vt 0.771250 0.477500
vt 0.852500 0.475000
vt 0.812500 0.400000
vt 0.021250 0.102500
vt 0.102500 0.100000
vt 0.062500 0.025000
vt 0.396250 0.852500
vt 0.477500 0.850000
vt 0.437500 0.775000
vt 0.646250 0.602500
vt 0.727500 0.600000
vt 0.687500 0.525000
vt 0.021250 0.227500
vt 0.102500 0.225000
vt 0.062500 0.150000
vt 0.271250 0.977500
vt 0.352500 0.975000
vt 0.312500 0.900000
vt 0.646250 0.727500
vt 0.727500 0.725000
vt 0.687500 0.650000
vt 0.896250 0.477500
vt 0.977500 0.475000
vt 0.937500 0.400000
vt 0.271250 0.102500
vt 0.352500 0.100000
vt 0.312500 0.025000
vt 0.521250 0.852500
vt 0.602500 0.850000
vt 0.562500 0.775000
vt 0.896250 0.602500
vt 0.977500 0.600000
vt 0.937500 0.525000
vt 0.146250 0.227500
vt 0.227500 0.225000
vt 0.187500 0.150000
vt 0.521250 0.977500
vt 0.602500 0.975000
vt 0.562500 0.900000
vt 0.771250 0.727500
vt 0.852500 0.725000
vt 0.812500 0.650000
vt 0.146250 0.352500
vt 0.227500 0.350000
vt 0.187500 0.275000
vt 0.396250 0.102500
vt 0.477500 0.100000
vt 0.437500 0.025000
vt 0.771250 0.852500
vt 0.852500 0.850000
vt 0.812500 0.775000
vt 0.021250 0.477500
vt 0.102500 0.475000
vt 0.062500 0.400000
vt 0.396250 0.227500
vt 0.477500 0.225000
vt 0.437500 0.150000
vt 0.646250 0.977500
vt 0.727500 0.975000
vt 0.687500 0.900000
vt 0.021250 0.602500
vt 0.102500 0.600000
vt 0.062500 0.525000
vt 0.271250 0.352500
vt 0.352500 0.350000
vt 0.312500 0.275000
vt 0.646250 0.102500
vt 0.727500 0.100000
vt 0.687500 0.025000
vt 0.896250 0.852500
vt 0.977500 0.850000
vt 0.937500 0.775000
vt 0.271250 0.477500
vt 0.352500 0.475000
vt 0.312500 0.400000
vt 0.521250 0.227500
vt 0.602500 0.225000
vt 0.562500 0.150000
vt 0.896250 0.977500
vt 0.977500 0.975000
vt 0.937500 0.900000
vt 0.146250 0.602500
vt 0.227500 0.600000
vt 0.187500 0.525000
vt 0.521250 0.352500
vt 0.602500 0.350000
vt 0.562500 0.275000
vt 0.771250 0.102500
vt 0.852500 0.100000
vt 0.812500 0.025000
vt 0.146250 0.727500
vt 0.227500 0.725000
vt 0.187500 0.650000
vt 0.396250 0.477500
vt 0.477500 0.475000
vt 0.437500 0.400000
vt 0.771250 0.227500
vt 0.852500 0.225000
vt 0.812500 0.150000
vt 0.021250 0.852500
vt 0.102500 0.850000
vt 0.062500 0.775000
vt 0.396250 0.602500
vt 0.477500 0.600000
vt 0.437500 0.525000
vt 0.646250 0.352500
vt 0.727500 0.350000
vt 0.687500 0.275000
vt 0.021250 0.977500
vt 0.102500 0.975000
vt 0.062500 0.900000
vt 0.271250 0.727500
vt 0.352500 0.725000
vt 0.312500 0.650000
vt 0.646250 0.477500
vt 0.727500 0.475000
vt 0.687500 0.400000
vt 0.896250 0.227500
vt 0.977500 0.225000
vt 0.937500 0.150000
vt 0.271250 0.352500
vt 0.352500 0.350000
vt 0.312500 0.275000
vt 0.646250 0.477500
vt 0.727500 0.475000
vt 0.687500 0.400000
vt 0.021250 0.102500
vt 0.102500 0.100000
vt 0.062500 0.025000
vt 0.271250 0.852500
vt 0.352500 0.850000
vt 0.312500 0.775000
vt 0.646250 0.602500
vt 0.727500 0.600000
vt 0.687500 0.525000
vt 0.896250 0.352500
vt 0.977500 0.350000
vt 0.937500 0.275000
vt 0.271250 0.977500
vt 0.352500 0.975000
vt 0.312500 0.900000
vt 0.521250 0.727500
vt 0.602500 0.725000
vt 0.562500 0.650000
vt 0.896250 0.477500
vt 0.977500 0.475000
vt 0.937500 0.400000
vt 0.146250 0.102500
vt 0.227500 0.100000
vt 0.187500 0.025000
vt 0.521250 0.852500
vt 0.602500 0.850000
vt 0.562500 0.775000
vt 0.771250 0.602500
vt 0.852500 0.600000
vt 0.812500 0.525000
vt 0.146250 0.227500
vt 0.227500 0.225000
vt 0.187500 0.150000
vt 0.396250 0.977500
vt 0.477500 0.975000
vt 0.437500 0.900000
vt 0.771250 0.727500
vt 0.852500 0.725000
vt 0.812500 0.650000
vt 0.021250 0.352500
vt 0.102500 0.350000
vt 0.062500 0.275000
vt 0.396250 0.102500
vt 0.477500 0.100000
vt 0.437500 0.025000
vt 0.646250 0.852500
vt 0.727500 0.850000
vt 0.687500 0.775000
vt 0.021250 0.477500
vt 0.102500 0.475000
vt 0.062500 0.400000
vt 0.271250 0.227500
vt 0.352500 0.225000
vt 0.312500 0.150000
vt 0.646250 0.977500
vt 0.727500 0.975000
vt 0.687500 0.900000
vt 0.896250 0.727500
vt 0.977500 0.725000
vt 0.937500 0.650000
vt 0.271250 0.352500
vt 0.352500 0.350000
vt 0.312500 0.275000
vt 0.521250 0.102500
vt 0.602500 0.100000
vt 0.562500 0.025000
vt 0.896250 0.852500
vt 0.977500 0.850000
vt 0.937500 0.775000
vt 0.146250 0.477500
vt 0.227500 0.475000
vt 0.187500 0.400000
vt 0.521250 0.227500
vt 0.602500 0.225000
vt 0.562500 0.150000
vt 0.771250 0.977500
vt 0.852500 0.975000
vt 0.812500 0.900000
vt 0.146250 0.602500
vt 0.227500 0.600000
vt 0.187500 0.525000
vt 0.396250 0.352500
vt 0.477500 0.350000
vt 0.437500 0.275000
vt 0.771250 0.102500
vt 0.852500 0.100000
vt 0.812500 0.025000
vt 0.021250 0.727500
vt 0.102500 0.725000
vt 0.062500 0.650000
vt 0.396250 0.477500
vt 0.477500 0.475000
vt 0.437500 0.400000
vt 0.646250 0.227500
vt 0.727500 0.225000
vt 0.687500 0.150000
vt 0.021250 0.852500
vt 0.102500 0.850000
vt 0.062500 0.775000
vt 0.271250 0.602500
vt 0.352500 0.600000
vt 0.312500 0.525000
vt 0.646250 0.352500
vt 0.727500 0.350000
vt 0.687500 0.275000
vt 0.896250 0.102500
vt 0.977500 0.100000
vt 0.937500 0.025000
vt 0.271250 0.727500
vt 0.352500 0.725000
vt 0.312500 0.650000
vt 0.521250 0.477500
vt 0.602500 0.475000
vt 0.562500 0.400000
vt 0.896250 0.227500
vt 0.977500 0.225000
vt 0.937500 0.150000
vt 0.146250 0.852500
vt 0.227500 0.850000
vt 0.187500 0.775000
vt 0.521250 0.602500
vt 0.602500 0.600000
vt 0.562500 0.525000
vt 0.771250 0.352500
vt 0.852500 0.350000
vt 0.812500 0.275000
vt 0.146250 0.977500
vt 0.227500 0.975000
vt 0.187500 0.900000
vt 0.396250 0.727500
vt 0.477500 0.725000
vt 0.437500 0.650000
vt 0.771250 0.477500
vt 0.852500 0.475000
vt 0.812500 0.400000
vt 0.021250 0.102500
vt 0.102500 0.100000
vt 0.062500 0.025000
vt 0.396250 0.852500
vt 0.477500 0.850000
vt 0.437500 0.775000
vt 0.646250 0.602500
vt 0.727500 0.600000
vt 0.687500 0.525000
vt 0.021250 0.227500
vt 0.102500 0.225000
vt 0.062500 0.150000
vt 0.271250 0.977500
vt 0.352500 0.975000
vt 0.312500 0.900000
vt 0.646250 0.727500
vt 0.727500 0.725000
vt 0.687500 0.650000
vt 0.896250 0.477500
vt 0.977500 0.475000
vt 0.937500 0.400000
vt 0.271250 0.102500
vt 0.352500 0.100000
vt 0.312500 0.025000
vt 0.521250 0.852500
vt 0.602500 0.850000
vt 0.562500 0.775000
vt 0.896250 0.602500
vt 0.977500 0.600000
vt 0.937500 0.525000
vt 0.146250 0.227500
vt 0.227500 0.225000
vt 0.187500 0.150000
vt 0.521250 0.977500
vt 0.602500 0.975000
vt 0.562500 0.900000
vt 0.771250 0.727500
vt 0.852500 0.725000
vt 0.812500 0.650000
vt 0.146250 0.352500
vt 0.227500 0.350000
vt 0.187500 0.275000
vt 0.396250 0.102500
vt 0.477500 0.100000
vt 0.437500 0.025000
vt 0.771250 0.852500
vt 0.852500 0.850000
vt 0.812500 0.775000
vt 0.021250 0.477500
vt 0.102500 0.475000
vt 0.062500 0.400000
vt 0.396250 0.727500
vt 0.477500 0.725000
vt 0.437500 0.650000
vt 0.771250 0.852500
vt 0.852500 0.850000
vt 0.812500 0.775000
vt 0.146250 0.477500
vt 0.227500 0.475000
vt 0.187500 0.400000
vt 0.396250 0.227500
vt 0.477500 0.225000
vt 0.437500 0.150000
vt 0.771250 0.977500
vt 0.852500 0.975000
vt 0.812500 0.900000
vt 0.021250 0.602500
vt 0.102500 0.600000
vt 0.062500 0.525000
vt 0.396250 0.352500
vt 0.477500 0.350000
vt 0.437500 0.275000
vt 0.646250 0.102500
vt 0.727500 0.100000
vt 0.687500 0.025000
vt 0.021250 0.727500
vt 0.102500 0.725000
vt 0.062500 0.650000
vt 0.271250 0.477500
vt 0.352500 0.475000
vt 0.312500 0.400000
vt 0.646250 0.227500
vt 0.727500 0.225000
vt 0.687500 0.150000
vt 0.896250 0.977500
vt 0.977500 0.975000
vt 0.937500 0.900000
vt 0.271250 0.602500
vt 0.352500 0.600000
vt 0.312500 0.525000
vt 0.521250 0.352500
vt 0.602500 0.350000
vt 0.562500 0.275000
vt 0.896250 0.102500
vt 0.977500 0.100000
vt 0.937500 0.025000
vt 0.146250 0.727500
vt 0.227500 0.725000
vt 0.187500 0.650000
vt 0.521250 0.477500
vt 0.602500 0.475000
vt 0.562500 0.400000
vt 0.771250 0.227500
vt 0.852500 0.225000
vt 0.812500 0.150000
vt 0.146250 0.852500
vt 0.227500 0.850000
vt 0.187500 0.775000
vt 0.396250 0.602500
vt 0.477500 0.600000
vt 0.437500 0.525000
vt 0.771250 0.352500
vt 0.852500 0.350000
vt 0.812500 0.275000
vt 0.021250 0.977500
vt 0.102500 0.975000
vt 0.062500 0.900000
vt 0.396250 0.727500
vt 0.477500 0.725000
vt 0.437500 0.650000
vt 0.646250 0.477500
vt 0.727500 0.475000
vt 0.687500 0.400000
vt 0.021250 0.102500
vt 0.102500 0.100000
vt 0.062500 0.025000
vt 0.271250 0.852500
vt 0.352500 0.850000
vt 0.312500 0.775000
vt 0.646250 0.602500
vt 0.727500 0.600000
vt 0.687500 0.525000
vt 0.896250 0.352500
vt 0.977500 0.350000
vt 0.937500 0.275000
vt 0.271250 0.977500
vt 0.352500 0.975000
vt 0.312500 0.900000
vt 0.521250 0.727500
vt 0.602500 0.725000
vt 0.562500 0.650000
vt 0.896250 0.477500
vt 0.977500 0.475000
vt 0.937500 0.400000
vt 0.146250 0.102500
vt 0.227500 0.100000
vt 0.187500 0.025000
vt 0.521250 0.852500
vt 0.602500 0.850000
vt 0.562500 0.775000
vt 0.771250 0.602500
vt 0.852500 0.600000
vt 0.812500 0.525000
vt 0.146250 0.227500
vt 0.227500 0.225000
vt 0.187500 0.150000
vt 0.396250 0.977500
vt 0.477500 0.975000
vt 0.437500 0.900000
vt 0.771250 0.727500
vt 0.852500 0.725000
vt 0.812500 0.650000
vt 0.021250 0.352500
vt 0.102500 0.350000
vt 0.062500 0.275000
vt 0.396250 0.102500
vt 0.477500 0.100000
vt 0.437500 0.025000
vt 0.646250 0.852500
vt 0.727500 0.850000
vt 0.687500 0.775000
vt 0.021250 0.477500
vt 0.102500 0.475000
vt 0.062500 0.400000
vt 0.271250 0.227500
vt 0.352500 0.225000
vt 0.312500 0.150000
vt 0.646250 0.977500
vt 0.727500 0.975000
vt 0.687500 0.900000
vt 0.896250 0.727500
vt 0.977500 0.725000
vt 0.937500 0.650000
vt 0.271250 0.352500
vt 0.352500 0.350000
vt 0.312500 0.275000
vt 0.521250 0.102500
vt 0.602500 0.100000
vt 0.562500 0.025000
vt 0.896250 0.852500
vt 0.977500 0.850000
vt 0.937500 0.775000
vt 0.146250 0.477500
vt 0.227500 0.475000
vt 0.187500 0.400000
vt 0.521250 0.227500
vt 0.602500 0.225000
vt 0.562500 0.150000
vt 0.771250 0.977500
vt 0.852500 0.975000
vt 0.812500 0.900000
vt 0.146250 0.602500
vt 0.227500 0.600000
vt 0.187500 0.525000
vt 0.396250 0.352500
vt 0.477500 0.350000
vt 0.437500 0.275000
vt 0.771250 0.102500
vt 0.852500 0.100000
vt 0.812500 0.025000
vt 0.021250 0.727500
vt 0.102500 0.725000
vt 0.062500 0.650000
vt 0.396250 0.477500
vt 0.477500 0.475000
vt 0.437500 0.400000
vt 0.646250 0.227500
vt 0.727500 0.225000
vt 0.687500 0.150000
vt 0.021250 0.852500
vt 0.102500 0.850000
vt 0.062500 0.775000
vt 0.271250 0.602500
vt 0.352500 0.600000
vt 0.312500 0.525000
vt 0.646250 0.352500
vt 0.727500 0.350000
vt 0.687500 0.275000
vt 0.896250 0.102500
vt 0.977500 0.100000
vt 0.937500 0.025000
vt 0.271250 0.727500
vt 0.352500 0.725000
vt 0.312500 0.650000
vt 0.521250 0.477500
vt 0.602500 0.475000
vt 0.562500 0.400000
vt 0.896250 0.227500
vt 0.977500 0.225000
vt 0.937500 0.150000
vt 0.146250 0.852500
vt 0.227500 0.850000
vt 0.187500 0.775000
vt 0.521250 0.102500
vt 0.602500 0.100000
vt 0.562500 0.025000
vt 0.896250 0.227500
vt 0.977500 0.225000
vt 0.937500 0.150000
vt 0.271250 0.852500
vt 0.352500 0.850000
vt 0.312500 0.775000
vt 0.521250 0.602500
vt 0.602500 0.600000
vt 0.562500 0.525000
vt 0.896250 0.352500
vt 0.977500 0.350000
vt 0.937500 0.275000
vt 0.146250 0.977500
vt 0.227500 0.975000
vt 0.187500 0.900000
vt 0.521250 0.727500
vt 0.602500 0.725000
vt 0.562500 0.650000
vt 0.771250 0.477500
vt 0.852500 0.475000
vt 0.812500 0.400000
vt 0.146250 0.102500
vt 0.227500 0.100000
vt 0.187500 0.025000
vt 0.396250 0.852500
vt 0.477500 0.850000
vt 0.437500 0.775000
vt 0.771250 0.602500
vt 0.852500 0.600000
vt 0.812500 0.525000
vt 0.021250 0.227500
vt 0.102500 0.225000
vt 0.062500 0.150000
vt 0.396250 0.977500
vt 0.477500 0.975000
vt 0.437500 0.900000
vt 0.646250 0.727500
vt 0.727500 0.725000
vt 0.687500 0.650000
vt 0.021250 0.352500
vt 0.102500 0.350000
vt 0.062500 0.275000
vt 0.271250 0.102500
vt 0.352500 0.100000
vt 0.312500 0.025000
vt 0.646250 0.852500
vt 0.727500 0.850000
vt 0.687500 0.775000
vt 0.896250 0.602500
vt 0.977500 0.600000
vt 0.937500 0.525000
vt 0.271250 0.227500
vt 0.352500 0.225000
vt 0.312500 0.150000
vt 0.521250 0.977500
vt 0.602500 0.975000
vt 0.562500 0.900000
vt 0.896250 0.727500
vt 0.977500 0.725000
vt 0.937500 0.650000
vt 0.146250 0.352500
vt 0.227500 0.350000
vt 0.187500 0.275000
vt 0.521250 0.102500
vt 0.602500 0.100000
vt 0.562500 0.025000
vt 0.771250 0.852500
vt 0.852500 0.850000
vt 0.812500 0.775000
vt 0.146250 0.477500
vt 0.227500 0.475000
vt 0.187500 0.400000
vt 0.396250 0.227500
vt 0.477500 0.225000
vt 0.437500 0.150000
vt 0.771250 0.977500
vt 0.852500 0.975000
vt 0.812500 0.900000
vt 0.021250 0.602500
vt 0.102500 0.600000
vt 0.062500 0.525000
vt 0.396250 0.352500
vt 0.477500 0.350000
vt 0.437500 0.275000
vt 0.646250 0.102500
vt 0.727500 0.100000
vt 0.687500 0.025000
vt 0.021250 0.727500
vt 0.102500 0.725000
vt 0.062500 0.650000
vt 0.271250 0.477500
vt 0.352500 0.475000
vt 0.312500 0.400000
vt 0.646250 0.227500
vt 0.727500 0.225000
vt 0.687500 0.150000
vt 0.896250 0.977500
vt 0.977500 0.975000
vt 0.937500 0.900000
vt 0.271250 0.602500
vt 0.352500 0.600000
vt 0.312500 0.525000
vt 0.521250 0.352500
vt 0.602500 0.350000
vt 0.562500 0.275000
vt 0.896250 0.102500
vt 0.977500 0.100000
vt 0.937500 0.025000
vt 0.146250 0.727500
vt 0.227500 0.725000
vt 0.187500 0.650000
vt 0.521250 0.477500
vt 0.602500 0.475000
vt 0.562500 0.400000
vt 0.771250 0.227500
vt 0.852500 0.225000
vt 0.812500 0.150000
vt 0.146250 0.852500
vt 0.227500 0.850000
vt 0.187500 0.775000
vt 0.396250 0.602500
vt 0.477500 0.600000
vt 0.437500 0.525000
vt 0.771250 0.352500
vt 0.852500 0.350000
vt 0.812500 0.275000
vt 0.021250 0.977500
vt 0.102500 0.975000
vt 0.062500 0.900000
vt 0.396250 0.727500
vt 0.477500 0.725000
vt 0.437500 0.650000
vt 0.646250 0.477500
vt 0.727500 0.475000
vt 0.687500 0.400000
vt 0.021250 0.102500
vt 0.102500 0.100000
vt 0.062500 0.025000
vt 0.271250 0.852500
vt 0.352500 0.850000
vt 0.312500 0.775000
vt 0.646250 0.602500
vt 0.727500 0.600000
vt 0.687500 0.525000
vt 0.896250 0.352500
vt 0.977500 0.350000
vt 0.937500 0.275000
vt 0.271250 0.977500
vt 0.352500 0.975000
vt 0.312500 0.900000
vt 0.521250 0.727500
vt 0.602500 0.725000
vt 0.562500 0.650000
vt 0.896250 0.477500
vt 0.977500 0.475000
vt 0.937500 0.400000
vt 0.146250 0.102500
vt 0.227500 0.100000
vt 0.187500 0.025000
vt 0.521250 0.852500
vt 0.602500 0.850000
vt 0.562500 0.775000
vt 0.771250 0.602500
vt 0.852500 0.600000
vt 0.812500 0.525000
vt 0.146250 0.227500
vt 0.227500 0.225000
vt 0.187500 0.150000
vt 0.396250 0.977500
vt 0.477500 0.975000
vt 0.437500 0.900000
vt 0.771250 0.727500
vt 0.852500 0.725000
vt 0.812500 0.650000
vt 0.021250 0.352500
vt 0.102500 0.350000
vt 0.062500 0.275000
vt 0.396250 0.102500
vt 0.477500 0.100000
vt 0.437500 0.025000
vt 0.646250 0.852500
vt 0.727500 0.850000
vt 0.687500 0.775000
vt 0.021250 0.477500
vt 0.102500 0.475000
vt 0.062500 0.400000
vt 0.271250 0.227500
vt 0.352500 0.225000
vt 0.312500 0.150000
vt 0.646250 0.477500
vt 0.727500 0.475000
vt 0.687500 0.400000
vt 0.521250 0.727500
vt 0.602500 0.725000
vt 0.562500 0.650000
vt 0.271250 0.227500
vt 0.352500 0.225000
vt 0.312500 0.150000
vt 0.021250 0.727500
vt 0.102500 0.725000
vt 0.062500 0.650000
vt 0.771250 0.352500
vt 0.852500 0.350000
vt 0.812500 0.275000
vt 0.521250 0.852500
vt 0.602500 0.850000
vt 0.562500 0.775000
vt 0.271250 0.352500
vt 0.352500 0.350000
vt 0.312500 0.275000
vt 0.021250 0.852500
vt 0.102500 0.850000
vt 0.062500 0.775000
vt 0.771250 0.477500
vt 0.852500 0.475000
vt 0.812500 0.400000
vt 0.521250 0.977500
vt 0.602500 0.975000
vt 0.562500 0.900000
vt 0.271250 0.477500
vt 0.352500 0.475000
vt 0.312500 0.400000
vt 0.021250 0.977500
vt 0.102500 0.975000
vt 0.062500 0.900000
vt 0.771250 0.602500
vt 0.852500 0.600000
vt 0.812500 0.525000
vt 0.521250 0.102500
vt 0.602500 0.100000
vt 0.562500 0.025000
vt 0.271250 0.602500
vt 0.352500 0.600000
vt 0.312500 0.525000
vt 0.021250 0.102500
vt 0.102500 0.100000
vt 0.062500 0.025000
vt 0.771250 0.727500
vt 0.852500 0.725000
vt 0.812500 0.650000
vt 0.521250 0.227500
vt 0.602500 0.225000
vt 0.562500 0.150000
vt 0.271250 0.727500
vt 0.352500 0.725000
vt 0.312500 0.650000
vt 0.021250 0.227500
vt 0.102500 0.225000
vt 0.062500 0.150000
vt 0.771250 0.852500
vt 0.852500 0.850000
vt 0.812500 0.775000
vt 0.521250 0.352500
vt 0.602500 0.350000
vt 0.562500 0.275000
vt 0.271250 0.852500
vt 0.352500 0.850000
vt 0.312500 0.775000
vt 0.021250 0.352500
vt 0.102500 0.350000
vt 0.062500 0.275000
vt 0.771250 0.977500
vt 0.852500 0.975000
vt 0.812500 0.900000
vt 0.521250 0.477500
vt 0.602500 0.475000
vt 0.562500 0.400000
vt 0.271250 0.977500
vt 0.352500 0.975000
vt 0.312500 0.900000
vt 0.021250 0.477500
vt 0.102500 0.475000
vt 0.062500 0.400000
vt 0.771250 0.102500
vt 0.852500 0.100000
vt 0.812500 0.025000
vt 0.521250 0.602500
vt 0.602500 0.600000
vt 0.562500 0.525000
vt 0.271250 0.102500
vt 0.352500 0.100000
vt 0.312500 0.025000
vt 0.021250 0.602500
vt 0.102500 0.600000
vt 0.062500 0.525000
vt 0.771250 0.727500
vt 0.852500 0.725000
vt 0.812500 0.650000
vt 0.646250 0.852500
vt 0.727500 0.850000
vt 0.687500 0.775000
vt 0.396250 0.352500
vt 0.477500 0.350000
vt 0.437500 0.275000
vt 0.146250 0.852500
vt 0.227500 0.850000
vt 0.187500 0.775000
vt 0.896250 0.477500
vt 0.977500 0.475000
vt 0.937500 0.400000
vt 0.646250 0.977500
vt 0.727500 0.975000
vt 0.687500 0.900000
vt 0.396250 0.477500
vt 0.477500 0.475000
vt 0.437500 0.400000
vt 0.146250 0.977500
vt 0.227500 0.975000
vt 0.187500 0.900000
vt 0.896250 0.602500
vt 0.977500 0.600000
vt 0.937500 0.525000
vt 0.646250 0.102500
vt 0.727500 0.100000
vt 0.687500 0.025000
vt 0.396250 0.602500
vt 0.477500 0.600000
vt 0.437500 0.525000
vt 0.146250 0.102500
vt 0.227500 0.100000
vt 0.187500 0.025000
vt 0.896250 0.727500
vt 0.977500 0.725000
vt 0.937500 0.650000
vt 0.646250 0.227500
vt 0.727500 0.225000
vt 0.687500 0.150000
vt 0.396250 0.727500
vt 0.477500 0.725000
vt 0.437500 0.650000
vt 0.146250 0.227500
vt 0.227500 0.225000
vt 0.187500 0.150000
vt 0.896250 0.852500
vt 0.977500 0.850000
vt 0.937500 0.775000
vt 0.646250 0.352500
vt 0.727500 0.350000
vt 0.687500 0.275000
vt 0.396250 0.852500
vt 0.477500 0.850000
vt 0.437500 0.775000
vt 0.146250 0.352500
vt 0.227500 0.350000
vt 0.187500 0.275000
vt 0.896250 0.977500
vt 0.977500 0.975000
vt 0.937500 0.900000
vt 0.646250 0.477500
vt 0.727500 0.475000
vt 0.687500 0.400000
vt 0.396250 0.977500
vt 0.477500 0.975000
vt 0.437500 0.900000
vt 0.146250 0.477500
vt 0.227500 0.475000
vt 0.187500 0.400000
vt 0.896250 0.102500
vt 0.977500 0.100000
vt 0.937500 0.025000
vt 0.646250 0.602500
vt 0.727500 0.600000
vt 0.687500 0.525000
vt 0.396250 0.102500
vt 0.477500 0.100000
vt 0.437500 0.025000
vt 0.146250 0.602500
vt 0.227500 0.600000
vt 0.187500 0.525000
vt 0.896250 0.227500
vt 0.977500 0.225000
vt 0.937500 0.150000
vt 0.646250 0.727500
vt 0.727500 0.725000
vt 0.687500 0.650000
vt 0.396250 0.227500
vt 0.477500 0.225000
vt 0.437500 0.150000
vt 0.146250 0.727500
vt 0.227500 0.725000
vt 0.187500 0.650000
vt 0.896250 0.852500
vt 0.977500 0.850000
vt 0.937500 0.775000
vn 0.240529 -0.970353 0.023690
vn 0.231256 -0.971805 0.046000
vn 0.231286 -0.970353 0.070160
vn 0.217839 -0.971805 0.090232
vn 0.213154 -0.970353 0.113933
vn 0.196050 -0.971805 0.130996
vn 0.186831 -0.970353 0.153329
vn 0.166727 -0.971805 0.166727
vn 0.153329 -0.970353 0.186831
vn 0.130996 -0.971805 0.196050
vn 0.113933 -0.970353 0.213154
vn 0.090232 -0.971805 0.217839
vn 0.070160 -0.970353 0.231286
vn 0.046000 -0.971805 0.231256
vn 0.023690 -0.970353 0.240529
vn 0.000000 -0.971805 0.235787
vn -0.023690 -0.970353 0.240529
vn -0.046000 -0.971805 0.231256
vn -0.070160 -0.970353 0.231286
vn -0.090232 -0.971805 0.217839
vn -0.113933 -0.970353 0.213154
vn -0.130996 -0.971805 0.196050
vn -0.153329 -0.970353 0.186831
vn -0.166727 -0.971805 0.166727
vn -0.186831 -0.970353 0.153329
vn -0.196050 -0.971805 0.130996
vn -0.213154 -0.970353 0.113933
vn -0.217839 -0.971805 0.090232
vn -0.231286 -0.970353 0.070160
vn -0.231256 -0.971805 0.046000
vn -0.240529 -0.970353 0.023690
vn -0.235787 -0.971805 0.000000
vn -0.240529 -0.970353 -0.023690
vn -0.231256 -0.971805 -0.046000
vn -0.231286 -0.970353 -0.070160
vn -0.217839 -0.971805 -0.090232
vn -0.213154 -0.970353 -0.113933
vn -0.196050 -0.971805 -0.130996
vn -0.186831 -0.970353 -0.153329
vn -0.166727 -0.971805 -0.166727
vn -0.153329 -0.970353 -0.186831
vn -0.130996 -0.971805 -0.196050
vn -0.113933 -0.970353 -0.213154
vn -0.090232 -0.971805 -0.217839
vn -0.070160 -0.970353 -0.231286
vn -0.046000 -0.971805 -0.231256
vn -0.023690 -0.970353 -0.240529
vn 0.000000 -0.971805 -0.235787
vn 0.023690 -0.970353 -0.240529
vn 0.046000 -0.971805 -0.231256
vn 0.070160 -0.970353 -0.231286
vn 0.090232 -0.971805 -0.217839
vn 0.113933 -0.970353 -0.213154
vn 0.130996 -0.971805 -0.196050
vn 0.153329 -0.970353 -0.186831
vn 0.166727 -0.971805 -0.166727
vn 0.186831 -0.970353 -0.153329
vn 0.196050 -0.971805 -0.130996
vn 0.213154 -0.970353 -0.113933
vn 0.217839 -0.971805 -0.090232
vn 0.231286 -0.970353 -0.070160
vn 0.231256 -0.971805 -0.046000
vn 0.240529 -0.970353 -0.023690
vn 0.235787 -0.971805 0.000000
vn 0.301750 -0.951496 0.060022
vn 0.311788 -0.949655 0.030708
vn 0.284242 -0.951496 0.117737
vn 0.299807 -0.949655 0.090945
vn 0.255811 -0.951496 0.170928
vn 0.276303 -0.949655 0.147687
vn 0.217550 -0.951496 0.217550
vn 0.242182 -0.949655 0.198754
vn 0.170928 -0.951496 0.255811
vn 0.198754 -0.949655 0.242182
vn 0.117737 -0.951496 0.284242
vn 0.147687 -0.949655 0.276303
vn 0.060022 -0.951496 0.301750
vn 0.090945 -0.949655 0.299807
vn 0.000000 -0.951496 0.307662
vn 0.030708 -0.949655 0.311788
vn -0.060022 -0.951496 0.301750
vn -0.030708 -0.949655 0.311788
vn -0.117737 -0.951496 0.284242
vn -0.090945 -0.949655 0.299807
vn -0.170928 -0.951496 0.255811
vn -0.147687 -0.949655 0.276303
vn -0.217550 -0.951496 0.217550
vn -0.198754 -0.949655 0.242182
vn -0.255811 -0.951496 0.170928
vn -0.242182 -0.949655 0.198754
vn -0.284242 -0.951496 0.117737
vn -0.276303 -0.949655 0.147687
vn -0.301750 -0.951496 0.060022
vn -0.299807 -0.949655 0.090945
vn -0.307662 -0.951496 0.000000
vn -0.311788 -0.949655 0.030708
vn -0.301750 -0.951496 -0.060022
vn -0.311788 -0.949655 -0.030708
vn -0.284242 -0.951496 -0.117737
vn -0.299807 -0.949655 -0.090945
vn -0.255811 -0.951496 -0.170928
vn -0.276303 -0.949655 -0.147687
vn -0.217550 -0.951496 -0.217550
vn -0.242182 -0.949655 -0.198754
vn -0.170928 -0.951496 -0.255811
vn -0.198754 -0.949655 -0.242182
vn -0.117737 -0.951496 -0.284242
vn -0.147687 -0.949655 -0.276303
vn -0.060022 -0.951496 -0.301750
vn -0.090945 -0.949655 -0.299807
vn 0.000000 -0.951496 -0.307662
vn -0.030708 -0.949655 -0.311788
vn 0.060022 -0.951496 -0.301750
vn 0.030708 -0.949655 -0.311788
vn 0.117737 -0.951496 -0.284242
vn 0.090945 -0.949655 -0.299807
vn 0.170928 -0.951496 -0.255811
vn 0.147687 -0.949655 -0.276303
vn 0.217550 -0.951496 -0.217550
vn 0.198754 -0.949655 -0.242182
vn 0.255811 -0.951496 -0.170928
vn 0.242182 -0.949655 -0.198754
vn 0.284242 -0.951496 -0.117737
vn 0.276303 -0.949655 -0.147687
vn 0.301750 -0.951496 -0.060022
vn 0.299807 -0.949655 -0.090945
vn 0.307662 -0.951496 0.000000
vn 0.311788 -0.949655 -0.030708
vn 0.237897 -0.971008 0.023431
vn 0.237897 -0.971008 0.023431
vn 0.228755 -0.971008 0.069392
vn 0.228755 -0.971008 0.069392
vn 0.210821 -0.971008 0.112686
vn 0.210821 -0.971008 0.112686
vn 0.184787 -0.971008 0.151650
vn 0.184787 -0.971008 0.151650
vn 0.151650 -0.971008 0.184787
vn 0.151650 -0.971008 0.184787
vn 0.112686 -0.971008 0.210821
vn 0.112686 -0.971008 0.210821
vn 0.069392 -0.971008 0.228755
vn 0.069392 -0.971008 0.228755
vn 0.023431 -0.971008 0.237897
vn 0.023431 -0.971008 0.237897
vn -0.023431 -0.971008 0.237897
vn -0.023431 -0.971008 0.237897
vn -0.069392 -0.971008 0.228755
vn -0.069392 -0.971008 0.228755
vn -0.112686 -0.971008 0.210821
vn -0.112686 -0.971008 0.210821
vn -0.151650 -0.971008 0.184787
vn -0.151650 -0.971008 0.184787
vn -0.184787 -0.971008 0.151650
vn -0.184787 -0.971008 0.151650
vn -0.210821 -0.971008 0.112686
vn -0.210821 -0.971008 0.112686
vn -0.228755 -0.971008 0.069392
vn -0.228755 -0.971008 0.069392
vn -0.237897 -0.971008 0.023431
vn -0.237897 -0.971008 0.023431
vn -0.237897 -0.971008 -0.023431
vn -0.237897 -0.971008 -0.023431
vn -0.228755 -0.971008 -0.069392
vn -0.228755 -0.971008 -0.069392
vn -0.210821 -0.971008 -0.112686
vn -0.210821 -0.971008 -0.112686
vn -0.184787 -0.971008 -0.151650
vn -0.184787 -0.971008 -0.151650
vn -0.151650 -0.971008 -0.184787
vn -0.151650 -0.971008 -0.184787
vn -0.112686 -0.971008 -0.210821
vn -0.112686 -0.971008 -0.210821
vn -0.069392 -0.971008 -0.228755
vn -0.069392 -0.971008 -0.228755
vn -0.023431 -0.971008 -0.237897
vn -0.023431 -0.971008 -0.237897
vn 0.023431 -0.971008 -0.237897
vn 0.023431 -0.971008 -0.237897
vn 0.069392 -0.971008 -0.228755
vn 0.069392 -0.971008 -0.228755
vn 0.112686 -0.971008 -0.210821
vn 0.112686 -0.971008 -0.210821
vn 0.151650 -0.971008 -0.184787
vn 0.151650 -0.971008 -0.184787
vn 0.184787 -0.971008 -0.151650
vn 0.184787 -0.971008 -0.151650
vn 0.210821 -0.971008 -0.112686
vn 0.210821 -0.971008 -0.112686
vn 0.228755 -0.971008 -0.069392
vn 0.228755 -0.971008 -0.069392
vn 0.237897 -0.971008 -0.023431
vn 0.237897 -0.971008 -0.023431
vn 0.995185 0.000000 0.098017
vn 0.995185 -0.000000 0.098017
vn 0.956940 0.000000 0.290285
vn 0.956940 -0.000000 0.290285
vn 0.881921 0.000000 0.471397
vn 0.881921 -0.000000 0.471397
vn 0.773010 0.000000 0.634393
vn 0.773010 -0.000000 0.634393
vn 0.634393 0.000000 0.773010
vn 0.634393 -0.000000 0.773010
vn 0.471397 0.000000 0.881921
vn 0.471397 -0.000000 0.881921
vn 0.290285 0.000000 0.956940
vn 0.290285 -0.000000 0.956940
vn 0.098017 0.000000 0.995185
vn 0.098017 -0.000000 0.995185
vn -0.098017 0.000000 0.995185
vn -0.098017 0.000000 0.995185
vn -0.290285 0.000000 0.956940
vn -0.290285 0.000000 0.956940
vn -0.471397 0.000000 0.881921
vn -0.471397 0.000000 0.881921
vn -0.634393 0.000000 0.773010
vn -0.634393 0.000000 0.773010
vn -0.773010 0.000000 0.634393
vn -0.773010 0.000000 0.634393
vn -0.881921 0.000000 0.471397
vn -0.881921 0.000000 0.471397
vn -0.956940 0.000000 0.290285
vn -0.956940 0.000000 0.290285
vn -0.995185 0.000000 0.098017
vn -0.995185 0.000000 0.098017
vn -0.995185 0.000000 -0.098017
vn -0.995185 0.000000 -0.098017
vn -0.956940 0.000000 -0.290285
vn -0.956940 0.000000 -0.290285
vn -0.881921 0.000000 -0.471397
vn -0.881921 0.000000 -0.471397
vn -0.773010 0.000000 -0.634393
vn -0.773010 0.000000 -0.634393
vn -0.634393 0.000000 -0.773010
vn -0.634393 0.000000 -0.773010
vn -0.471397 0.000000 -0.881921
vn -0.471397 0.000000 -0.881921
vn -0.290285 0.000000 -0.956940
vn -0.290285 0.000000 -0.956940
vn -0.098017 0.000000 -0.995185
vn -0.098017 0.000000 -0.995185
vn 0.098017 0.000000 -0.995185
vn 0.098017 0.000000 -0.995185
vn 0.290285 0.000000 -0.956940
vn 0.290285 0.000000 -0.956940
vn 0.471397 0.000000 -0.881921
vn 0.471397 0.000000 -0.881921
vn 0.634393 0.000000 -0.773010
vn 0.634393 0.000000 -0.773010
vn 0.773010 0.000000 -0.634393
vn 0.773010 0.000000 -0.634393
vn 0.881921 0.000000 -0.471397
vn 0.881921 0.000000 -0.471397
vn 0.956940 0.000000 -0.290285
vn 0.956940 0.000000 -0.290285
vn 0.995185 0.000000 -0.098017
vn 0.995185 0.000000 -0.098017
vn 0.471997 0.880373 0.046488
vn 0.508450 0.855132 0.101137
vn 0.453859 0.880373 0.137677
vn 0.478949 0.855132 0.198387
vn 0.418279 0.880373 0.223575
vn 0.431043 0.855132 0.288014
vn 0.366624 0.880373 0.300881
vn 0.366572 0.855132 0.366572
vn 0.300881 0.880373 0.366624
vn 0.288014 0.855132 0.431043
vn 0.223575 0.880373 0.418279
vn 0.198387 0.855132 0.478949
vn 0.137677 0.880373 0.453859
vn 0.101137 0.855132 0.508450
vn 0.046488 0.880373 0.471997
vn 0.000000 0.855132 0.518411
vn -0.046488 0.880373 0.471997
vn -0.101137 0.855132 0.508450
vn -0.137677 0.880373 0.453859
vn -0.198387 0.855132 0.478949
vn -0.223575 0.880373 0.418279
vn -0.288014 0.855132 0.431043
vn -0.300881 0.880373 0.366624
vn -0.366572 0.855132 0.366572
vn -0.366624 0.880373 0.300881
vn -0.431043 0.855132 0.288014
vn -0.418279 0.880373 0.223575
vn -0.478949 0.855132 0.198387
vn -0.453859 0.880373 0.137677
vn -0.508450 0.855132 0.101137
vn -0.471997 0.880373 0.046488
vn -0.518411 0.855132 0.000000
vn -0.471997 0.880373 -0.046488
vn -0.508450 0.855132 -0.101137
vn -0.453859 0.880373 -0.137677
vn -0.478949 0.855132 -0.198387
vn -0.418279 0.880373 -0.223575
vn -0.431043 0.855132 -0.288014
vn -0.366624 0.880373 -0.300881
vn -0.366572 0.855132 -0.366572
vn -0.300881 0.880373 -0.366624
vn -0.288014 0.855132 -0.431043
vn -0.223575 0.880373 -0.418279
vn -0.198387 0.855132 -0.478949
vn -0.137677 0.880373 -0.453859
vn -0.101137 0.855132 -0.508450
vn -0.046488 0.880373 -0.471997
vn 0.000000 0.855132 -0.518411
vn 0.046488 0.880373 -0.471997
vn 0.101137 0.855132 -0.508450
vn 0.137677 0.880373 -0.453859
vn 0.198387 0.855132 -0.478949
vn 0.223575 0.880373 -0.418279
vn 0.288014 0.855132 -0.431043
vn 0.300881 0.880373 -0.366624
vn 0.366572 0.855132 -0.366572
vn 0.366624 0.880373 -0.300881
vn 0.431043 0.855132 -0.288014
vn 0.418279 0.880373 -0.223575
vn 0.478949 0.855132 -0.198387
vn 0.453859 0.880373 -0.137677
vn 0.508450 0.855132 -0.101137
vn 0.471997 0.880373 -0.046488
vn 0.518411 0.855132 0.000000
vn 0.288955 0.955616 0.057477
vn 0.286793 0.957576 0.028247
vn 0.272190 0.955616 0.112745
vn 0.275772 0.957576 0.083654
vn 0.244964 0.955616 0.163680
vn 0.254152 0.957576 0.135847
vn 0.208325 0.955616 0.208325
vn 0.222767 0.957576 0.182820
vn 0.163680 0.955616 0.244964
vn 0.182820 0.957576 0.222767
vn 0.112745 0.955616 0.272190
vn 0.135847 0.957576 0.254152
vn 0.057477 0.955616 0.288955
vn 0.083654 0.957576 0.275772
vn 0.000000 0.955616 0.294616
vn 0.028247 0.957576 0.286793
vn -0.057477 0.955616 0.288955
vn -0.028247 0.957576 0.286793
vn -0.112745 0.955616 0.272190
vn -0.083654 0.957576 0.275772
vn -0.163680 0.955616 0.244964
vn -0.135847 0.957576 0.254152
vn -0.208325 0.955616 0.208325
vn -0.182820 0.957576 0.222767
vn -0.244964 0.955616 0.163680
vn -0.222767 0.957576 0.182820
vn -0.272190 0.955616 0.112745
vn -0.254152 0.957576 0.135847
vn -0.288955 0.955616 0.057477
vn -0.275772 0.957576 0.083654
vn -0.294616 0.955616 0.000000
vn -0.286793 0.957576 0.028247
vn -0.288955 0.955616 -0.057477
vn -0.286793 0.957576 -0.028247
vn -0.272190 0.955616 -0.112745
vn -0.275772 0.957576 -0.083654
vn -0.244964 0.955616 -0.163680
vn -0.254152 0.957576 -0.135847
vn -0.208325 0.955616 -0.208325
vn -0.222767 0.957576 -0.182820
vn -0.163680 0.955616 -0.244964
vn -0.182820 0.957576 -0.222767
vn -0.112745 0.955616 -0.272190
vn -0.135847 0.957576 -0.254152
vn -0.057477 0.955616 -0.288955
vn -0.083654 0.957576 -0.275772
vn 0.000000 0.955616 -0.294616
vn -0.028247 0.957576 -0.286793
vn 0.057477 0.955616 -0.288955
vn 0.028247 0.957576 -0.286793
vn 0.112745 0.955616 -0.272190
vn 0.083654 0.957576 -0.275772
vn 0.163680 0.955616 -0.244964
vn 0.135847 0.957576 -0.254152
vn 0.208325 0.955616 -0.208325
vn 0.182820 0.957576 -0.222767
vn 0.244964 0.955616 -0.163680
vn 0.222767 0.957576 -0.182820
vn 0.272190 0.955616 -0.112745
vn 0.254152 0.957576 -0.135847
vn 0.288955 0.955616 -0.057477
vn 0.275772 0.957576 -0.083654
vn 0.294616 0.955616 -0.000000
vn 0.286793 0.957576 -0.028247
vn 0.277436 0.960355 0.027325
vn 0.277436 0.960355 0.027325
vn 0.266774 0.960355 0.080925
vn 0.266774 0.960355 0.080925
vn 0.245861 0.960355 0.131415
vn 0.245861 0.960355 0.131415
vn 0.215499 0.960355 0.176855
vn 0.215499 0.960355 0.176855
vn 0.176855 0.960355 0.215499
vn 0.176855 0.960355 0.215499
vn 0.131415 0.960355 0.245861
vn 0.131415 0.960355 0.245861
vn 0.080925 0.960355 0.266774
vn 0.080925 0.960355 0.266774
vn 0.027325 0.960355 0.277436
vn 0.027325 0.960355 0.277436
vn -0.027325 0.960355 0.277436
vn -0.027325 0.960355 0.277436
vn -0.080925 0.960355 0.266774
vn -0.080925 0.960355 0.266774
vn -0.131415 0.960355 0.245861
vn -0.131415 0.960355 0.245861
vn -0.176855 0.960355 0.215499
vn -0.176855 0.960355 0.215499
vn -0.215499 0.960355 0.176855
vn -0.215499 0.960355 0.176855
vn -0.245861 0.960355 0.131415
vn -0.245861 0.960355 0.131415
vn -0.266774 0.960355 0.080925
vn -0.266774 0.960355 0.080925
vn -0.277436 0.960355 0.027325
vn -0.277436 0.960355 0.027325
vn -0.277436 0.960355 -0.027325
vn -0.277436 0.960355 -0.027325
vn -0.266774 0.960355 -0.080925
vn -0.266774 0.960355 -0.080925
vn -0.245861 0.960355 -0.131415
vn -0.245861 0.960355 -0.131415
vn -0.215499 0.960355 -0.176855
vn -0.215499 0.960355 -0.176855
vn -0.176855 0.960355 -0.215499
vn -0.176855 0.960355 -0.215499
vn -0.131415 0.960355 -0.245861
vn -0.131415 0.960355 -0.245861
vn -0.080925 0.960355 -0.266774
vn -0.080925 0.960355 -0.266774
vn -0.027325 0.960355 -0.277436
vn -0.027325 0.960355 -0.277436
vn 0.027325 0.960355 -0.277436
vn 0.027325 0.960355 -0.277436
vn 0.080925 0.960355 -0.266774
vn 0.080925 0.960355 -0.266774
vn 0.131415 0.960355 -0.245861
vn 0.131415 0.960355 -0.245861
vn 0.176855 0.960355 -0.215499
vn 0.176855 0.960355 -0.215499
vn 0.215499 0.960355 -0.176855
vn 0.215499 0.960355 -0.176855
vn 0.245861 0.960355 -0.131415
vn 0.245861 0.960355 -0.131415
vn 0.266774 0.960355 -0.080925
vn 0.266774 0.960355 -0.080925
vn 0.277436 0.960355 -0.027325
vn 0.277436 0.960355 -0.027325
vn 0.000000 -1.000000 0.000000
vn 0.000000 -1.000000 0.000000
vn 0.000000 -1.000000 0.000000
vn 0.000000 -1.000000 0.000000
vn 0.000000 -1.000000 0.000000
vn 0.000000 -1.000000 0.000000
vn 0.000000 -1.000000 0.000000
vn 0.000000 -1.000000 0.000000
vn 0.000000 -1.000000 0.000000
vn 0.000000 -1.000000 0.000000
vn 0.000000 -1.000000 0.000000
vn 0.000000 -1.000000 0.000000
vn 0.000000 -1.000000 0.000000
vn 0.000000 -1.000000 0.000000
vn 0.000000 -1.000000 0.000000
vn 0.000000 -1.000000 0.000000
vn -0.000000 -1.000000 0.000000
vn 0.000000 -1.000000 0.000000
vn 0.000000 -1.000000 0.000000
vn 0.000000 -1.000000 0.000000
vn 0.000000 -1.000000 0.000000
vn 0.000000 -1.000000 0.000000
vn 0.000000 -1.000000 0.000000
vn 0.000000 -1.000000 0.000000
vn 0.000000 -1.000000 -0.000000
vn 0.000000 -1.000000 0.000000
vn 0.000000 -1.000000 0.000000
vn 0.000000 -1.000000 0.000000
vn 0.000000 -1.000000 0.000000
vn 0.000000 -1.000000 0.000000
vn 0.000000 -1.000000 0.000000
vn 0.000000 -1.000000 0.000000
vn 0.000000 1.000000 0.000000
vn 0.000000 1.000000 0.000000
vn 0.000000 1.000000 0.000000
vn 0.000000 1.000000 0.000000
vn 0.000000 1.000000 0.000000
vn 0.000000 1.000000 0.000000
vn 0.000000 1.000000 0.000000
vn 0.000000 1.000000 0.000000
vn 0.000000 1.000000 -0.000000
vn 0.000000 1.000000 0.000000
vn 0.000000 1.000000 0.000000
vn 0.000000 1.000000 0.000000
vn 0.000000 1.000000 0.000000
vn 0.000000 1.000000 0.000000
vn 0.000000 1.000000 0.000000
vn 0.000000 1.000000 0.000000
vn 0.000000 1.000000 0.000000
vn 0.000000 1.000000 0.000000
vn 0.000000 1.000000 0.000000
vn 0.000000 1.000000 0.000000
vn 0.000000 1.000000 0.000000
vn 0.000000 1.000000 0.000000
vn 0.000000 1.000000 0.000000
vn 0.000000 1.000000 0.000000
vn 0.000000 1.000000 0.000000
vn 0.000000 1.000000 0.000000
vn 0.000000 1.000000 0.000000
vn 0.000000 1.000000 0.000000
vn 0.000000 1.000000 0.000000
vn 0.000000 1.000000 0.000000
vn 0.000000 1.000000 0.000000
vn -0.000000 1.000000 0.000000
f 1/1/1 34/2/1 2/3/1
f 1/4/2 33/5/2 34/6/2
f 2/7/3 35/8/3 3/9/3
f 2/10/4 34/11/4 35/12/4
f 3/13/5 36/14/5 4/15/5
f 3/16/6 35/17/6 36/18/6
f 4/19/7 37/20/7 5/21/7
f 4/22/8 36/23/8 37/24/8
f 5/25/9 38/26/9 6/27/9
f 5/28/10 37/29/10 38/30/10
f 6/31/11 39/32/11 7/33/11
f 6/34/12 38/35/12 39/36/12
f 7/37/13 40/38/13 8/39/13
f 7/40/14 39/41/14 40/42/14
f 8/43/15 41/44/15 9/45/15
f 8/46/16 40/47/16 41/48/16
f 9/49/17 42/50/17 10/51/17
f 9/52/18 41/53/18 42/54/18
f 10/55/19 43/56/19 11/57/19
f 10/58/20 42/59/20 43/60/20
f 11/61/21 44/62/21 12/63/21
f 11/64/22 43/65/22 44/66/22
f 12/67/23 45/68/23 13/69/23
f 12/70/24 44/71/24 45/72/24
f 13/73/25 46/74/25 14/75/25
f 13/76/26 45/77/26 46/78/26
f 14/79/27 47/80/27 15/81/27
f 14/82/28 46/83/28 47/84/28
f 15/85/29 48/86/29 16/87/29
f 15/88/30 47/89/30 48/90/30
f 16/91/31 49/92/31 17/93/31
f 16/94/32 48/95/32 49/96/32
f 17/97/33 50/98/33 18/99/33
f 17/100/34 49/101/34 50/102/34
f 18/103/35 51/104/35 19/105/35
f 18/106/36 50/107/36 51/108/36
f 19/109/37 52/110/37 20/111/37
f 19/112/38 51/113/38 52/114/38
f 20/115/39 53/116/39 21/117/39
f 20/118/40 52/119/40 53/120/40
f 21/121/41 54/122/41 22/123/41
f 21/124/42 53/125/42 54/126/42
f 22/127/43 55/128/43 23/129/43
f 22/130/44 54/131/44 55/132/44
f 23/133/45 56/134/45 24/135/45
f 23/136/46 55/137/46 56/138/46
f 24/139/47 57/140/47 25/141/47
f 24/142/48 56/143/48 57/144/48
f 25/145/49 58/146/49 26/147/49
f 25/148/50 57/149/50 58/150/50
f 26/151/51 59/152/51 27/153/51
f 26/154/52 58/155/52 59/156/52
f 27/157/53 60/158/53 28/159/53
f 27/160/54 59/161/54 60/162/54
f 28/163/55 61/164/55 29/165/55
f 28/166/56 60/167/56 61/168/56
f 29/169/57 62/170/57 30/171/57
f 29/172/58 61/173/58 62/174/58
f 30/175/59 63/176/59 31/177/59
f 30/178/60 62/179/60 63/180/60
f 31/181/61 64/182/61 32/183/61
f 31/184/62 63/185/62 64/186/62
f 32/187/63 33/188/63 1/189/63
f 32/190/64 64/191/64 33/192/64
f 33/193/65 66/194/65 34/195/65
f 33/196/66 65/197/66 66/198/66
f 34/199/67 67/200/67 35/201/67
f 34/202/68 66/203/68 67/204/68
f 35/205/69 68/206/69 36/207/69
f 35/208/70 67/209/70 68/210/70
f 36/211/71 69/212/71 37/213/71
f 36/214/72 68/215/72 69/216/72
f 37/217/73 70/218/73 38/219/73
f 37/220/74 69/221/74 70/222/74
f 38/223/75 71/224/75 39/225/75
f 38/226/76 70/227/76 71/228/76
f 39/229/77 72/230/77 40/231/77
f 39/232/78 71/233/78 72/234/78
f 40/235/79 73/236/79 41/237/79
f 40/238/80 72/239/80 73/240/80
f 41/241/81 74/242/81 42/243/81
f 41/244/82 73/245/82 74/246/82
f 42/247/83 75/248/83 43/249/83
f 42/250/84 74/251/84 75/252/84
f 43/253/85 76/254/85 44/255/85
f 43/256/86 75/257/86 76/258/86
f 44/259/87 77/260/87 45/261/87
f 44/262/88 76/263/88 77/264/88
f 45/265/89 78/266/89 46/267/89
f 45/268/90 77/269/90 78/270/90
f 46/271/91 79/272/91 47/273/91
f 46/274/92 78/275/92 79/276/92
f 47/277/93 80/278/93 48/279/93
f 47/280/94 79/281/94 80/282/94
f 48/283/95 81/284/95 49/285/95
f 48/286/96 80/287/96 81/288/96
f 49/289/97 82/290/97 50/291/97
f 49/292/98 81/293/98 82/294/98
f 50/295/99 83/296/99 51/297/99
f 50/298/100 82/299/100 83/300/100
f 51/301/101 84/302/101 52/303/101
f 51/304/102 83/305/102 84/306/102
f 52/307/103 85/308/103 53/309/103
f 52/310/104 84/311/104 85/312/104
f 53/313/105 86/314/105 54/315/105
f 53/316/106 85/317/106 86/318/106
f 54/319/107 87/320/107 55/321/107
f 54/322/108 86/323/108 87/324/108
f 55/325/109 88/326/109 56/327/109
f 55/328/110 87/329/110 88/330/110
f 56/331/111 89/332/111 57/333/111
f 56/334/112 88/335/112 89/336/112
f 57/337/113 90/338/113 58/339/113
f 57/340/114 89/341/114 90/342/114
f 58/343/115 91/344/115 59/345/115
f 58/346/116 90/347/116 91/348/116
f 59/349/117 92/350/117 60/351/117
f 59/352/118 91/353/118 92/354/118
f 60/355/119 93/356/119 61/357/119
f 60/358/120 92/359/120 93/360/120
f 61/361/121 94/362/121 62/363/121
f 61/364/122 93/365/122 94/366/122
f 62/367/123 95/368/123 63/369/123
f 62/370/124 94/371/124 95/372/124
f 63/373/125 96/374/125 64/375/125
f 63/376/126 95/377/126 96/378/126
f 64/379/127 65/380/127 33/381/127
f 64/382/128 96/383/128 65/384/128
f 65/385/129 98/386/129 66/387/129
f 65/388/130 97/389/130 98/390/130
f 66/391/131 99/392/131 67/393/131
f 66/394/132 98/395/132 99/396/132
f 67/397/133 100/398/133 68/399/133
f 67/400/134 99/401/134 100/402/134
f 68/403/135 101/404/135 69/405/135
f 68/406/136 100/407/136 101/408/136
f 69/409/137 102/410/137 70/411/137
f 69/412/138 101/413/138 102/414/138
f 70/415/139 103/416/139 71/417/139
f 70/418/140 102/419/140 103/420/140
f 71/421/141 104/422/141 72/423/141
f 71/424/142 103/425/142 104/426/142
f 72/427/143 105/428/143 73/429/143
f 72/430/144 104/431/144 105/432/144
f 73/433/145 106/434/145 74/435/145
f 73/436/146 105/437/146 106/438/146
f 74/439/147 107/440/147 75/441/147
f 74/442/148 106/443/148 107/444/148
f 75/445/149 108/446/149 76/447/149
f 75/448/150 107/449/150 108/450/150
f 76/451/151 109/452/151 77/453/151
f 76/454/152 108/455/152 109/456/152
f 77/457/153 110/458/153 78/459/153
f 77/460/154 109/461/154 110/462/154
f 78/463/155 111/464/155 79/465/155
f 78/466/156 110/467/156 111/468/156
f 79/469/157 112/470/157 80/471/157
f 79/472/158 111/473/158 112/474/158
f 80/475/159 113/476/159 81/477/159
f 80/478/160 112/479/160 113/480/160
f 81/481/161 114/482/161 82/483/161
f 81/484/162 113/485/162 114/486/162
f 82/487/163 115/488/163 83/489/163
f 82/490/164 114/491/164 115/492/164
f 83/493/165 116/494/165 84/495/165
f 83/496/166 115/497/166 116/498/166
f 84/499/167 117/500/167 85/501/167
f 84/502/168 116/503/168 117/504/168
f 85/505/169 118/506/169 86/507/169
f 85/508/170 117/509/170 118/510/170
f 86/511/171 119/512/171 87/513/171
f 86/514/172 118/515/172 119/516/172
f 87/517/173 120/518/173 88/519/173
f 87/520/174 119/521/174 120/522/174
f 88/523/175 121/524/175 89/525/175
f 88/526/176 120/527/176 121/528/176
f 89/529/177 122/530/177 90/531/177
f 89/532/178 121/533/178 122/534/178
f 90/535/179 123/536/179 91/537/179
f 90/538/180 122/539/180 123/540/180
f 91/541/181 124/542/181 92/543/181
f 91/544/182 123/545/182 124/546/182
f 92/547/183 125/548/183 93/549/183
f 92/550/184 124/551/184 125/552/184
f 93/553/185 126/554/185 94/555/185
f 93/556/186 125/557/186 126/558/186
f 94/559/187 127/560/187 95/561/187
f 94/562/188 126/563/188 127/564/188
f 95/565/189 128/566/189 96/567/189
f 95/568/190 127/569/190 128/570/190
f 96/571/191 97/572/191 65/573/191
f 96/574/192 128/575/192 97/576/192
f 97/577/193 130/578/193 98/579/193
f 97/580/194 129/581/194 130/582/194
f 98/583/195 131/584/195 99/585/195
f 98/586/196 130/587/196 131/588/196
f 99/589/197 132/590/197 100/591/197
f 99/592/198 131/593/198 132/594/198
f 100/595/199 133/596/199 101/597/199
f 100/598/200 132/599/200 133/600/200
f 101/601/201 134/602/201 102/603/201
f 101/604/202 133/605/202 134/606/202
f 102/607/203 135/608/203 103/609/203
f 102/610/204 134/611/204 135/612/204
f 103/613/205 136/614/205 104/615/205
f 103/616/206 135/617/206 136/618/206
f 104/619/207 137/620/207 105/621/207
f 104/622/208 136/623/208 137/624/208
f 105/625/209 138/626/209 106/627/209
f 105/628/210 137/629/210 138/630/210
f 106/631/211 139/632/211 107/633/211
f 106/634/212 138/635/212 139/636/212
f 107/637/213 140/638/213 108/639/213
f 107/640/214 139/641/214 140/642/214
f 108/643/215 141/644/215 109/645/215
f 108/646/216 140/647/216 141/648/216
f 109/649/217 142/650/217 110/651/217
f 109/652/218 141/653/218 142/654/218
f 110/655/219 143/656/219 111/657/219
f 110/658/220 142/659/220 143/660/220
f 111/661/221 144/662/221 112/663/221
f 111/664/222 143/665/222 144/666/222
f 112/667/223 145/668/223 113/669/223
f 112/670/224 144/671/224 145/672/224
f 113/673/225 146/674/225 114/675/225
f 113/676/226 145/677/226 146/678/226
f 114/679/227 147/680/227 115/681/227
f 114/682/228 146/683/228 147/684/228
f 115/685/229 148/686/229 116/687/229
f 115/688/230 147/689/230 148/690/230
f 116/691/231 149/692/231 117/693/231
f 116/694/232 148/695/232 149/696/232
f 117/697/233 150/698/233 118/699/233
f 117/700/234 149/701/234 150/702/234
f 118/703/235 151/704/235 119/705/235
f 118/706/236 150/707/236 151/708/236
f 119/709/237 152/710/237 120/711/237
f 119/712/238 151/713/238 152/714/238
f 120/715/239 153/716/239 121/717/239
f 120/718/240 152/719/240 153/720/240
f 121/721/241 154/722/241 122/723/241
f 121/724/242 153/725/242 154/726/242
f 122/727/243 155/728/243 123/729/243
f 122/730/244 154/731/244 155/732/244
f 123/733/245 156/734/245 124/735/245
f 123/736/246 155/737/246 156/738/246
f 124/739/247 157/740/247 125/741/247
f 124/742/248 156/743/248 157/744/248
f 125/745/249 158/746/249 126/747/249
f 125/748/250 157/749/250 158/750/250
f 126/751/251 159/752/251 127/753/251
f 126/754/252 158/755/252 159/756/252
f 127/757/253 160/758/253 128/759/253
f 127/760/254 159/761/254 160/762/254
f 128/763/255 129/764/255 97/765/255
f 128/766/256 160/767/256 129/768/256
f 129/769/257 162/770/257 130/771/257
f 129/772/258 161/773/258 162/774/258
f 130/775/259 163/776/259 131/777/259
f 130/778/260 162/779/260 163/780/260
f 131/781/261 164/782/261 132/783/261
f 131/784/262 163/785/262 164/786/262
f 132/787/263 165/788/263 133/789/263
f 132/790/264 164/791/264 165/792/264
f 133/793/265 166/794/265 134/795/265
f 133/796/266 165/797/266 166/798/266
f 134/799/267 167/800/267 135/801/267
f 134/802/268 166/803/268 167/804/268
f 135/805/269 168/806/269 136/807/269
f 135/808/270 167/809/270 168/810/270
f 136/811/271 169/812/271 137/813/271
f 136/814/272 168/815/272 169/816/272
f 137/817/273 170/818/273 138/819/273
f 137/820/274 169/821/274 170/822/274
f 138/823/275 171/824/275 139/825/275
f 138/826/276 170/827/276 171/828/276
f 139/829/277 172/830/277 140/831/277
f 139/832/278 171/833/278 172/834/278
f 140/835/279 173/836/279 141/837/279
f 140/838/280 172/839/280 173/840/280
f 141/841/281 174/842/281 142/843/281
f 141/844/282 173/845/282 174/846/282
f 142/847/283 175/848/283 143/849/283
f 142/850/284 174/851/284 175/852/284
f 143/853/285 176/854/285 144/855/285
f 143/856/286 175/857/286 176/858/286
f 144/859/287 177/860/287 145/861/287
f 144/862/288 176/863/288 177/864/288
f 145/865/289 178/866/289 146/867/289
f 145/868/290 177/869/290 178/870/290
f 146/871/291 179/872/291 147/873/291
f 146/874/292 178/875/292 179/876/292
f 147/877/293 180/878/293 148/879/293
f 147/880/294 179/881/294 180/882/294
f 148/883/295 181/884/295 149/885/295
f 148/886/296 180/887/296 181/888/296
f 149/889/297 182/890/297 150/891/297
f 149/892/298 181/893/298 182/894/298
f 150/895/299 183/896/299 151/897/299
f 150/898/300 182/899/300 183/900/300
f 151/901/301 184/902/301 152/903/301
f 151/904/302 183/905/302 184/906/302
f 152/907/303 185/908/303 153/909/303
f 152/910/304 184/911/304 185/912/304
f 153/913/305 186/914/305 154/915/305
f 153/916/306 185/917/306 186/918/306
f 154/919/307 187/920/307 155/921/307
f 154/922/308 186/923/308 187/924/308
f 155/925/309 188/926/309 156/927/309
f 155/928/310 187/929/310 188/930/310
f 156/931/311 189/932/311 157/933/311
f 156/934/312 188/935/312 189/936/312
f 157/937/313 190/938/313 158/939/313
f 157/940/314 189/941/314 190/942/314
f 158/943/315 191/944/315 159/945/315
f 158/946/316 190/947/316 191/948/316
f 159/949/317 192/950/317 160/951/317
f 159/952/318 191/953/318 192/954/318
f 160/955/319 161/956/319 129/957/319
f 160/958/320 192/959/320 161/960/320
f 161/961/321 194/962/321 162/963/321
f 161/964/322 193/965/322 194/966/322
f 162/967/323 195/968/323 163/969/323
f 162/970/324 194/971/324 195/972/324
f 163/973/325 196/974/325 164/975/325
f 163/976/326 195/977/326 196/978/326
f 164/979/327 197/980/327 165/981/327
f 164/982/328 196/983/328 197/984/328
f 165/985/329 198/986/329 166/987/329
f 165/988/330 197/989/330 198/990/330
f 166/991/331 199/992/331 167/993/331
f 166/994/332 198/995/332 199/996/332
f 167/997/333 200/998/333 168/999/333
f 167/1000/334 199/1001/334 200/1002/334
f 168/1003/335 201/1004/335 169/1005/335
f 168/1006/336 200/1007/336 201/1008/336
f 169/1009/337 202/1010/337 170/1011/337
f 169/1012/338 201/1013/338 202/1014/338
f 170/1015/339 203/1016/339 171/1017/339
f 170/1018/340 202/1019/340 203/1020/340
f 171/1021/341 204/1022/341 172/1023/341
f 171/1024/342 203/1025/342 204/1026/342
f 172/1027/343 205/1028/343 173/1029/343
f 172/1030/344 204/1031/344 205/1032/344
f 173/1033/345 206/1034/345 174/1035/345
f 173/1036/346 205/1037/346 206/1038/346
f 174/1039/347 207/1040/347 175/1041/347
f 174/1042/348 206/1043/348 207/1044/348
f 175/1045/349 208/1046/349 176/1047/349
f 175/1048/350 207/1049/350 208/1050/350
f 176/1051/351 209/1052/351 177/1053/351
f 176/1054/352 208/1055/352 209/1056/352
f 177/1057/353 210/1058/353 178/1059/353
f 177/1060/354 209/1061/354 210/1062/354
f 178/1063/355 211/1064/355 179/1065/355
f 178/1066/356 210/1067/356 211/1068/356
f 179/1069/357 212/1070/357 180/1071/357
f 179/1072/358 211/1073/358 212/1074/358
f 180/1075/359 213/1076/359 181/1077/359
f 180/1078/360 212/1079/360 213/1080/360
f 181/1081/361 214/1082/361 182/1083/361
f 181/1084/362 213/1085/362 214/1086/362
f 182/1087/363 215/1088/363 183/1089/363
f 182/1090/364 214/1091/364 215/1092/364
f 183/1093/365 216/1094/365 184/1095/365
f 183/1096/366 215/1097/366 216/1098/366
f 184/1099/367 217/1100/367 185/1101/367
f 184/1102/368 216/1103/368 217/1104/368
f 185/1105/369 218/1106/369 186/1107/369
f 185/1108/370 217/1109/370 218/1110/370
f 186/1111/371 219/1112/371 187/1113/371
f 186/1114/372 218/1115/372 219/1116/372
f 187/1117/373 220/1118/373 188/1119/373
f 187/1120/374 219/1121/374 220/1122/374
f 188/1123/375 221/1124/375 189/1125/375
f 188/1126/376 220/1127/376 221/1128/376
f 189/1129/377 222/1130/377 190/1131/377
f 189/1132/378 221/1133/378 222/1134/378
f 190/1135/379 223/1136/379 191/1137/379
f 190/1138/380 222/1139/380 223/1140/380
f 191/1141/381 224/1142/381 192/1143/381
f 191/1144/382 223/1145/382 224/1146/382
f 192/1147/383 193/1148/383 161/1149/383
f 192/1150/384 224/1151/384 193/1152/384
f 193/1153/385 226/1154/385 194/1155/385
f 193/1156/386 225/1157/386 226/1158/386
f 194/1159/387 227/1160/387 195/1161/387
f 194/1162/388 226/1163/388 227/1164/388
f 195/1165/389 228/1166/389 196/1167/389
f 195/1168/390 227/1169/390 228/1170/390
f 196/1171/391 229/1172/391 197/1173/391
f 196/1174/392 228/1175/392 229/1176/392
f 197/1177/393 230/1178/393 198/1179/393
f 197/1180/394 229/1181/394 230/1182/394
f 198/1183/395 231/1184/395 199/1185/395
f 198/1186/396 230/1187/396 231/1188/396
f 199/1189/397 232/1190/397 200/1191/397
f 199/1192/398 231/1193/398 232/1194/398
f 200/1195/399 233/1196/399 201/1197/399
f 200/1198/400 232/1199/400 233/1200/400
f 201/1201/401 234/1202/401 202/1203/401
f 201/1204/402 233/1205/402 234/1206/402
f 202/1207/403 235/1208/403 203/1209/403
f 202/1210/404 234/1211/404 235/1212/404
f 203/1213/405 236/1214/405 204/1215/405
f 203/1216/406 235/1217/406 236/1218/406
f 204/1219/407 237/1220/407 205/1221/407
f 204/1222/408 236/1223/408 237/1224/408
f 205/1225/409 238/1226/409 206/1227/409
f 205/1228/410 237/1229/410 238/1230/410
f 206/1231/411 239/1232/411 207/1233/411
f 206/1234/412 238/1235/412 239/1236/412
f 207/1237/413 240/1238/413 208/1239/413
f 207/1240/414 239/1241/414 240/1242/414
f 208/1243/415 241/1244/415 209/1245/415
f 208/1246/416 240/1247/416 241/1248/416
f 209/1249/417 242/1250/417 210/1251/417
f 209/1252/418 241/1253/418 242/1254/418
f 210/1255/419 243/1256/419 211/1257/419
f 210/1258/420 242/1259/420 243/1260/420
f 211/1261/421 244/1262/421 212/1263/421
f 211/1264/422 243/1265/422 244/1266/422
f 212/1267/423 245/1268/423 213/1269/423
f 212/1270/424 244/1271/424 245/1272/424
f 213/1273/425 246/1274/425 214/1275/425
f 213/1276/426 245/1277/426 246/1278/426
f 214/1279/427 247/1280/427 215/1281/427
f 214/1282/428 246/1283/428 247/1284/428
f 215/1285/429 248/1286/429 216/1287/429
f 215/1288/430 247/1289/430 248/1290/430
f 216/1291/431 249/1292/431 217/1293/431
f 216/1294/432 248/1295/432 249/1296/432
f 217/1297/433 250/1298/433 218/1299/433
f 217/1300/434 249/1301/434 250/1302/434
f 218/1303/435 251/1304/435 219/1305/435
f 218/1306/436 250/1307/436 251/1308/436
f 219/1309/437 252/1310/437 220/1311/437
f 219/1312/438 251/1313/438 252/1314/438
f 220/1315/439 253/1316/439 221/1317/439
f 220/1318/440 252/1319/440 253/1320/440
f 221/1321/441 254/1322/441 222/1323/441
f 221/1324/442 253/1325/442 254/1326/442
f 222/1327/443 255/1328/443 223/1329/443
f 222/1330/444 254/1331/444 255/1332/444
f 223/1333/445 256/1334/445 224/1335/445
f 223/1336/446 255/1337/446 256/1338/446
f 224/1339/447 225/1340/447 193/1341/447
f 224/1342/448 256/1343/448 225/1344/448
f 257/1345/449 1/1346/449 2/1347/449
f 257/1348/450 2/1349/450 3/1350/450
f 257/1351/451 3/1352/451 4/1353/451
f 257/1354/452 4/1355/452 5/1356/452
f 257/1357/453 5/1358/453 6/1359/453
f 257/1360/454 6/1361/454 7/1362/454
f 257/1363/455 7/1364/455 8/1365/455
f 257/1366/456 8/1367/456 9/1368/456
f 257/1369/457 9/1370/457 10/1371/457
f 257/1372/458 10/1373/458 11/1374/458
f 257/1375/459 11/1376/459 12/1377/459
f 257/1378/460 12/1379/460 13/1380/460
f 257/1381/461 13/1382/461 14/1383/461
f 257/1384/462 14/1385/462 15/1386/462
f 257/1387/463 15/1388/463 16/1389/463
f 257/1390/464 16/1391/464 17/1392/464
f 257/1393/465 17/1394/465 18/1395/465
f 257/1396/466 18/1397/466 19/1398/466
f 257/1399/467 19/1400/467 20/1401/467
f 257/1402/468 20/1403/468 21/1404/468
f 257/1405/469 21/1406/469 22/1407/469
f 257/1408/470 22/1409/470 23/1410/470
f 257/1411/471 23/1412/471 24/1413/471
f 257/1414/472 24/1415/472 25/1416/472
f 257/1417/473 25/1418/473 26/1419/473
f 257/1420/474 26/1421/474 27/1422/474
f 257/1423/475 27/1424/475 28/1425/475
f 257/1426/476 28/1427/476 29/1428/476
f 257/1429/477 29/1430/477 30/1431/477
f 257/1432/478 30/1433/478 31/1434/478
f 257/1435/479 31/1436/479 32/1437/479
f 257/1438/480 32/1439/480 1/1440/480
f 258/1441/481 226/1442/481 225/1443/481
f 258/1444/482 227/1445/482 226/1446/482
f 258/1447/483 228/1448/483 227/1449/483
f 258/1450/484 229/1451/484 228/1452/484
f 258/1453/485 230/1454/485 229/1455/485
f 258/1456/486 231/1457/486 230/1458/486
f 258/1459/487 232/1460/487 231/1461/487
f 258/1462/488 233/1463/488 232/1464/488
f 258/1465/489 234/1466/489 233/1467/489
f 258/1468/490 235/1469/490 234/1470/490
f 258/1471/491 236/1472/491 235/1473/491
f 258/1474/492 237/1475/492 236/1476/492
f 258/1477/493 238/1478/493 237/1479/493
f 258/1480/494 239/1481/494 238/1482/494
f 258/1483/495 240/1484/495 239/1485/495
f 258/1486/496 241/1487/496 240/1488/496
f 258/1489/497 242/1490/497 241/1491/497
f 258/1492/498 243/1493/498 242/1494/498
f 258/1495/499 244/1496/499 243/1497/499
f 258/1498/500 245/1499/500 244/1500/500
f 258/1501/501 246/1502/501 245/1503/501
f 258/1504/502 247/1505/502 246/1506/502
f 258/1507/503 248/1508/503 247/1509/503
f 258/1510/504 249/1511/504 248/1512/504
f 258/1513/505 250/1514/505 249/1515/505
f 258/1516/506 251/1517/506 250/1518/506
f 258/1519/507 252/1520/507 251/1521/507
f 258/1522/508 253/1523/508 252/1524/508
f 258/1525/509 254/1526/509 253/1527/509
f 258/1528/510 255/1529/510 254/1530/510
f 258/1531/511 256/1532/511 255/1533/511
f 258/1534/512 225/1535/512 256/1536/512
