# Faceted flat-bottom gemstone for Tabletop Simulator
o 10_Princess_Cut_Topaz
v -0.230000 -0.180000 -0.217350
v -0.230000 -0.180000 0.217350
v -0.217350 -0.180000 0.230000
v 0.217350 -0.180000 0.230000
v 0.230000 -0.180000 0.217350
v 0.230000 -0.180000 -0.217350
v 0.217350 -0.180000 -0.230000
v -0.217350 -0.180000 -0.230000
v -0.540000 -0.065000 -0.510300
v -0.540000 -0.065000 0.510300
v -0.510300 -0.065000 0.540000
v 0.510300 -0.065000 0.540000
v 0.540000 -0.065000 0.510300
v 0.540000 -0.065000 -0.510300
v 0.510300 -0.065000 -0.540000
v -0.510300 -0.065000 -0.540000
v -0.780000 0.012000 -0.737100
v -0.780000 0.012000 0.737100
v -0.737100 0.012000 0.780000
v 0.737100 0.012000 0.780000
v 0.780000 0.012000 0.737100
v 0.780000 0.012000 -0.737100
v 0.737100 0.012000 -0.780000
v -0.737100 0.012000 -0.780000
v -1.000000 0.052000 -0.945000
v -1.000000 0.052000 0.945000
v -0.945000 0.052000 1.000000
v 0.945000 0.052000 1.000000
v 1.000000 0.052000 0.945000
v 1.000000 0.052000 -0.945000
v 0.945000 0.052000 -1.000000
v -0.945000 0.052000 -1.000000
v -1.000000 0.082000 -0.945000
v -1.000000 0.082000 0.945000
v -0.945000 0.082000 1.000000
v 0.945000 0.082000 1.000000
v 1.000000 0.082000 0.945000
v 1.000000 0.082000 -0.945000
v 0.945000 0.082000 -1.000000
v -0.945000 0.082000 -1.000000
v -0.790000 0.225000 -0.746550
v -0.790000 0.225000 0.746550
v -0.746550 0.225000 0.790000
v 0.746550 0.225000 0.790000
v 0.790000 0.225000 0.746550
v 0.790000 0.225000 -0.746550
v 0.746550 0.225000 -0.790000
v -0.746550 0.225000 -0.790000
v -0.490000 0.320000 -0.463050
v -0.490000 0.320000 0.463050
v -0.463050 0.320000 0.490000
v 0.463050 0.320000 0.490000
v 0.490000 0.320000 0.463050
v 0.490000 0.320000 -0.463050
v 0.463050 0.320000 -0.490000
v -0.463050 0.320000 -0.490000
v 0.000000 -0.180000 0.000000
v 0.000000 0.320000 0.000000
vt 0.521250 0.352500
vt 0.602500 0.350000
vt 0.562500 0.275000
vt 0.396250 0.977500
vt 0.477500 0.975000
vt 0.437500 0.900000
vt 0.146250 0.727500
vt 0.227500 0.725000
vt 0.187500 0.650000
vt 0.021250 0.352500
vt 0.102500 0.350000
vt 0.062500 0.275000
vt 0.771250 0.227500
vt 0.852500 0.225000
vt 0.812500 0.150000
vt 0.646250 0.852500
vt 0.727500 0.850000
vt 0.687500 0.775000
vt 0.396250 0.602500
vt 0.477500 0.600000
vt 0.437500 0.525000
vt 0.271250 0.227500
vt 0.352500 0.225000
vt 0.312500 0.150000
vt 0.021250 0.977500
vt 0.102500 0.975000
vt 0.062500 0.900000
vt 0.896250 0.727500
vt 0.977500 0.725000
vt 0.937500 0.650000
vt 0.646250 0.477500
vt 0.727500 0.475000
vt 0.687500 0.400000
vt 0.521250 0.102500
vt 0.602500 0.100000
vt 0.562500 0.025000
vt 0.271250 0.852500
vt 0.352500 0.850000
vt 0.312500 0.775000
vt 0.146250 0.477500
vt 0.227500 0.475000
vt 0.187500 0.400000
vt 0.896250 0.102500
vt 0.977500 0.100000
vt 0.937500 0.025000
vt 0.771250 0.602500
vt 0.852500 0.600000
vt 0.812500 0.525000
vt 0.646250 0.602500
vt 0.727500 0.600000
vt 0.687500 0.525000
vt 0.521250 0.227500
vt 0.602500 0.225000
vt 0.562500 0.150000
vt 0.271250 0.977500
vt 0.352500 0.975000
vt 0.312500 0.900000
vt 0.146250 0.602500
vt 0.227500 0.600000
vt 0.187500 0.525000
vt 0.896250 0.477500
vt 0.977500 0.475000
vt 0.937500 0.400000
vt 0.771250 0.102500
vt 0.852500 0.100000
vt 0.812500 0.025000
vt 0.521250 0.852500
vt 0.602500 0.850000
vt 0.562500 0.775000
vt 0.396250 0.477500
vt 0.477500 0.475000
vt 0.437500 0.400000
vt 0.146250 0.227500
vt 0.227500 0.225000
vt 0.187500 0.150000
vt 0.021250 0.852500
vt 0.102500 0.850000
vt 0.062500 0.775000
vt 0.771250 0.727500
vt 0.852500 0.725000
vt 0.812500 0.650000
vt 0.646250 0.352500
vt 0.727500 0.350000
vt 0.687500 0.275000
vt 0.396250 0.102500
vt 0.477500 0.100000
vt 0.437500 0.025000
vt 0.271250 0.727500
vt 0.352500 0.725000
vt 0.312500 0.650000
vt 0.021250 0.227500
vt 0.102500 0.225000
vt 0.062500 0.150000
vt 0.896250 0.852500
vt 0.977500 0.850000
vt 0.937500 0.775000
vt 0.771250 0.852500
vt 0.852500 0.850000
vt 0.812500 0.775000
vt 0.646250 0.477500
vt 0.727500 0.475000
vt 0.687500 0.400000
vt 0.396250 0.227500
vt 0.477500 0.225000
vt 0.437500 0.150000
vt 0.271250 0.852500
vt 0.352500 0.850000
vt 0.312500 0.775000
vt 0.021250 0.602500
vt 0.102500 0.600000
vt 0.062500 0.525000
vt 0.896250 0.352500
vt 0.977500 0.350000
vt 0.937500 0.275000
vt 0.646250 0.102500
vt 0.727500 0.100000
vt 0.687500 0.025000
vt 0.521250 0.727500
vt 0.602500 0.725000
vt 0.562500 0.650000
vt 0.271250 0.477500
vt 0.352500 0.475000
vt 0.312500 0.400000
vt 0.146250 0.102500
vt 0.227500 0.100000
vt 0.187500 0.025000
vt 0.896250 0.977500
vt 0.977500 0.975000
vt 0.937500 0.900000
vt 0.771250 0.602500
vt 0.852500 0.600000
vt 0.812500 0.525000
vt 0.521250 0.352500
vt 0.602500 0.350000
vt 0.562500 0.275000
vt 0.396250 0.977500
vt 0.477500 0.975000
vt 0.437500 0.900000
vt 0.146250 0.477500
vt 0.227500 0.475000
vt 0.187500 0.400000
vt 0.021250 0.977500
vt 0.102500 0.975000
vt 0.062500 0.900000
vt 0.896250 0.102500
vt 0.977500 0.100000
vt 0.937500 0.025000
vt 0.771250 0.727500
vt 0.852500 0.725000
vt 0.812500 0.650000
vt 0.521250 0.477500
vt 0.602500 0.475000
vt 0.562500 0.400000
vt 0.396250 0.102500
vt 0.477500 0.100000
vt 0.437500 0.025000
vt 0.146250 0.852500
vt 0.227500 0.850000
vt 0.187500 0.775000
vt 0.021250 0.477500
vt 0.102500 0.475000
vt 0.062500 0.400000
vt 0.771250 0.352500
vt 0.852500 0.350000
vt 0.812500 0.275000
vt 0.646250 0.977500
vt 0.727500 0.975000
vt 0.687500 0.900000
vt 0.396250 0.727500
vt 0.477500 0.725000
vt 0.437500 0.650000
vt 0.271250 0.352500
vt 0.352500 0.350000
vt 0.312500 0.275000
vt 0.021250 0.102500
vt 0.102500 0.100000
vt 0.062500 0.025000
vt 0.896250 0.852500
vt 0.977500 0.850000
vt 0.937500 0.775000
vt 0.646250 0.602500
vt 0.727500 0.600000
vt 0.687500 0.525000
vt 0.521250 0.227500
vt 0.602500 0.225000
vt 0.562500 0.150000
vt 0.271250 0.727500
vt 0.352500 0.725000
vt 0.312500 0.650000
vt 0.146250 0.227500
vt 0.227500 0.225000
vt 0.187500 0.150000
vt 0.021250 0.227500
vt 0.102500 0.225000
vt 0.062500 0.150000
vt 0.896250 0.977500
vt 0.977500 0.975000
vt 0.937500 0.900000
vt 0.646250 0.727500
vt 0.727500 0.725000
vt 0.687500 0.650000
vt 0.521250 0.352500
vt 0.602500 0.350000
vt 0.562500 0.275000
vt 0.271250 0.102500
vt 0.352500 0.100000
vt 0.312500 0.025000
vt 0.146250 0.727500
vt 0.227500 0.725000
vt 0.187500 0.650000
vt 0.896250 0.602500
vt 0.977500 0.600000
vt 0.937500 0.525000
vt 0.771250 0.227500
vt 0.852500 0.225000
vt 0.812500 0.150000
vt 0.521250 0.977500
vt 0.602500 0.975000
vt 0.562500 0.900000
vt 0.396250 0.602500
vt 0.477500 0.600000
vt 0.437500 0.525000
vt 0.146250 0.352500
vt 0.227500 0.350000
vt 0.187500 0.275000
vt 0.021250 0.977500
vt 0.102500 0.975000
vt 0.062500 0.900000
vt 0.771250 0.852500
vt 0.852500 0.850000
vt 0.812500 0.775000
vt 0.646250 0.477500
vt 0.727500 0.475000
vt 0.687500 0.400000
vt 0.396250 0.977500
vt 0.477500 0.975000
vt 0.437500 0.900000
vt 0.271250 0.477500
vt 0.352500 0.475000
vt 0.312500 0.400000
vt 0.146250 0.477500
vt 0.227500 0.475000
vt 0.187500 0.400000
vt 0.021250 0.102500
vt 0.102500 0.100000
vt 0.062500 0.025000
vt 0.771250 0.977500
vt 0.852500 0.975000
vt 0.812500 0.900000
vt 0.646250 0.602500
vt 0.727500 0.600000
vt 0.687500 0.525000
vt 0.396250 0.352500
vt 0.477500 0.350000
vt 0.437500 0.275000
vt 0.271250 0.977500
vt 0.352500 0.975000
vt 0.312500 0.900000
vt 0.021250 0.727500
vt 0.102500 0.725000
vt 0.062500 0.650000
vt 0.896250 0.477500
vt 0.977500 0.475000
vt 0.937500 0.400000
vt 0.646250 0.227500
vt 0.727500 0.225000
vt 0.687500 0.150000
vt 0.521250 0.852500
vt 0.602500 0.850000
vt 0.562500 0.775000
vt 0.271250 0.602500
vt 0.352500 0.600000
vt 0.312500 0.525000
vt 0.146250 0.227500
vt 0.227500 0.225000
vt 0.187500 0.150000
vt 0.896250 0.102500
vt 0.977500 0.100000
vt 0.937500 0.025000
vt 0.771250 0.727500
vt 0.852500 0.725000
vt 0.812500 0.650000
vt 0.521250 0.227500
vt 0.602500 0.225000
vt 0.562500 0.150000
vt 0.396250 0.727500
vt 0.477500 0.725000
vt 0.437500 0.650000
vt 0.396250 0.602500
vt 0.477500 0.600000
vt 0.437500 0.525000
vt 0.146250 0.102500
vt 0.227500 0.100000
vt 0.187500 0.025000
vt 0.896250 0.727500
vt 0.977500 0.725000
vt 0.937500 0.650000
vt 0.646250 0.227500
vt 0.727500 0.225000
vt 0.687500 0.150000
vt 0.396250 0.727500
vt 0.477500 0.725000
vt 0.437500 0.650000
vt 0.146250 0.227500
vt 0.227500 0.225000
vt 0.187500 0.150000
vt 0.896250 0.852500
vt 0.977500 0.850000
vt 0.937500 0.775000
vt 0.646250 0.977500
vt 0.727500 0.975000
vt 0.687500 0.900000
vt 0.521250 0.102500
vt 0.602500 0.100000
vt 0.562500 0.025000
vt 0.271250 0.602500
vt 0.352500 0.600000
vt 0.312500 0.525000
vt 0.021250 0.102500
vt 0.102500 0.100000
vt 0.062500 0.025000
vt 0.771250 0.727500
vt 0.852500 0.725000
vt 0.812500 0.650000
vt 0.521250 0.227500
vt 0.602500 0.225000
vt 0.562500 0.150000
vt 0.271250 0.727500
vt 0.352500 0.725000
vt 0.312500 0.650000
vt 0.021250 0.227500
vt 0.102500 0.225000
vt 0.062500 0.150000
vt 0.771250 0.977500
vt 0.852500 0.975000
vt 0.812500 0.900000
vn -0.347807 -0.937566 0.000000
vn -0.347807 -0.937566 0.000000
vn -0.184148 -0.965494 0.184148
vn -0.184148 -0.965494 0.184148
vn 0.000000 -0.937566 0.347807
vn 0.000000 -0.937566 0.347807
vn 0.184148 -0.965494 0.184148
vn 0.184148 -0.965494 0.184148
vn 0.347807 -0.937566 0.000000
vn 0.347807 -0.937566 0.000000
vn 0.184148 -0.965494 -0.184148
vn 0.184148 -0.965494 -0.184148
vn -0.000000 -0.937566 -0.347807
vn 0.000000 -0.937566 -0.347807
vn -0.184148 -0.965494 -0.184148
vn -0.184148 -0.965494 -0.184148
vn -0.305495 -0.952194 0.000000
vn -0.305495 -0.952194 0.000000
vn -0.160640 -0.973853 0.160640
vn -0.160640 -0.973853 0.160640
vn 0.000000 -0.952194 0.305495
vn 0.000000 -0.952194 0.305495
vn 0.160640 -0.973853 0.160640
vn 0.160640 -0.973853 0.160640
vn 0.305495 -0.952194 0.000000
vn 0.305495 -0.952194 0.000000
vn 0.160640 -0.973853 -0.160640
vn 0.160640 -0.973853 -0.160640
vn -0.000000 -0.952194 -0.305495
vn 0.000000 -0.952194 -0.305495
vn -0.160640 -0.973853 -0.160640
vn -0.160640 -0.973853 -0.160640
vn -0.178885 -0.983870 0.000000
vn -0.178885 -0.983870 0.000000
vn -0.092673 -0.991374 0.092673
vn -0.092673 -0.991374 0.092673
vn 0.000000 -0.983870 0.178885
vn 0.000000 -0.983870 0.178885
vn 0.092673 -0.991374 0.092673
vn 0.092673 -0.991374 0.092673
vn 0.178885 -0.983870 0.000000
vn 0.178885 -0.983870 0.000000
vn 0.092673 -0.991374 -0.092673
vn 0.092673 -0.991374 -0.092673
vn -0.000000 -0.983870 -0.178885
vn 0.000000 -0.983870 -0.178885
vn -0.092673 -0.991374 -0.092673
vn -0.092673 -0.991374 -0.092673
vn -1.000000 0.000000 0.000000
vn -1.000000 0.000000 0.000000
vn -0.707107 0.000000 0.707107
vn -0.707107 0.000000 0.707107
vn 0.000000 0.000000 1.000000
vn 0.000000 0.000000 1.000000
vn 0.707107 0.000000 0.707107
vn 0.707107 -0.000000 0.707107
vn 1.000000 0.000000 0.000000
vn 1.000000 -0.000000 0.000000
vn 0.707107 0.000000 -0.707107
vn 0.707107 0.000000 -0.707107
vn 0.000000 0.000000 -1.000000
vn 0.000000 0.000000 -1.000000
vn -0.707107 0.000000 -0.707107
vn -0.707107 0.000000 -0.707107
vn -0.562848 0.826560 0.000000
vn -0.562848 0.826560 0.000000
vn -0.313752 0.896169 0.313752
vn -0.313752 0.896169 0.313752
vn -0.000000 0.826560 0.562848
vn 0.000000 0.826560 0.562848
vn 0.313752 0.896169 0.313752
vn 0.313752 0.896169 0.313752
vn 0.562848 0.826560 0.000000
vn 0.562848 0.826560 0.000000
vn 0.313752 0.896169 -0.313752
vn 0.313752 0.896169 -0.313752
vn 0.000000 0.826560 -0.562848
vn 0.000000 0.826560 -0.562848
vn -0.313752 0.896169 -0.313752
vn -0.313752 0.896169 -0.313752
vn -0.301892 0.953342 0.000000
vn -0.301892 0.953342 0.000000
vn -0.158659 0.974502 0.158659
vn -0.158659 0.974502 0.158659
vn -0.000000 0.953342 0.301892
vn 0.000000 0.953342 0.301892
vn 0.158659 0.974502 0.158659
vn 0.158659 0.974502 0.158659
vn 0.301892 0.953342 0.000000
vn 0.301892 0.953342 0.000000
vn 0.158659 0.974502 -0.158659
vn 0.158659 0.974502 -0.158659
vn 0.000000 0.953342 -0.301892
vn 0.000000 0.953342 -0.301892
vn -0.158659 0.974502 -0.158659
vn -0.158659 0.974502 -0.158659
vn -0.000000 -1.000000 0.000000
vn 0.000000 -1.000000 0.000000
vn 0.000000 -1.000000 0.000000
vn 0.000000 -1.000000 0.000000
vn 0.000000 -1.000000 0.000000
vn 0.000000 -1.000000 0.000000
vn 0.000000 -1.000000 -0.000000
vn 0.000000 -1.000000 0.000000
vn 0.000000 1.000000 0.000000
vn 0.000000 1.000000 0.000000
vn 0.000000 1.000000 -0.000000
vn 0.000000 1.000000 0.000000
vn -0.000000 1.000000 0.000000
vn 0.000000 1.000000 0.000000
vn 0.000000 1.000000 0.000000
vn 0.000000 1.000000 0.000000
f 1/1/1 2/2/1 10/3/1
f 1/4/2 10/5/2 9/6/2
f 2/7/3 3/8/3 11/9/3
f 2/10/4 11/11/4 10/12/4
f 3/13/5 4/14/5 12/15/5
f 3/16/6 12/17/6 11/18/6
f 4/19/7 5/20/7 13/21/7
f 4/22/8 13/23/8 12/24/8
f 5/25/9 6/26/9 14/27/9
f 5/28/10 14/29/10 13/30/10
f 6/31/11 7/32/11 15/33/11
f 6/34/12 15/35/12 14/36/12
f 7/37/13 8/38/13 16/39/13
f 7/40/14 16/41/14 15/42/14
f 8/43/15 1/44/15 9/45/15
f 8/46/16 9/47/16 16/48/16
f 9/49/17 10/50/17 18/51/17
f 9/52/18 18/53/18 17/54/18
f 10/55/19 11/56/19 19/57/19
f 10/58/20 19/59/20 18/60/20
f 11/61/21 12/62/21 20/63/21
f 11/64/22 20/65/22 19/66/22
f 12/67/23 13/68/23 21/69/23
f 12/70/24 21/71/24 20/72/24
f 13/73/25 14/74/25 22/75/25
f 13/76/26 22/77/26 21/78/26
f 14/79/27 15/80/27 23/81/27
f 14/82/28 23/83/28 22/84/28
f 15/85/29 16/86/29 24/87/29
f 15/88/30 24/89/30 23/90/30
f 16/91/31 9/92/31 17/93/31
f 16/94/32 17/95/32 24/96/32
f 17/97/33 18/98/33 26/99/33
f 17/100/34 26/101/34 25/102/34
f 18/103/35 19/104/35 27/105/35
f 18/106/36 27/107/36 26/108/36
f 19/109/37 20/110/37 28/111/37
f 19/112/38 28/113/38 27/114/38
f 20/115/39 21/116/39 29/117/39
f 20/118/40 29/119/40 28/120/40
f 21/121/41 22/122/41 30/123/41
f 21/124/42 30/125/42 29/126/42
f 22/127/43 23/128/43 31/129/43
f 22/130/44 31/131/44 30/132/44
f 23/133/45 24/134/45 32/135/45
f 23/136/46 32/137/46 31/138/46
f 24/139/47 17/140/47 25/141/47
f 24/142/48 25/143/48 32/144/48
f 25/145/49 26/146/49 34/147/49
f 25/148/50 34/149/50 33/150/50
f 26/151/51 27/152/51 35/153/51
f 26/154/52 35/155/52 34/156/52
f 27/157/53 28/158/53 36/159/53
f 27/160/54 36/161/54 35/162/54
f 28/163/55 29/164/55 37/165/55
f 28/166/56 37/167/56 36/168/56
f 29/169/57 30/170/57 38/171/57
f 29/172/58 38/173/58 37/174/58
f 30/175/59 31/176/59 39/177/59
f 30/178/60 39/179/60 38/180/60
f 31/181/61 32/182/61 40/183/61
f 31/184/62 40/185/62 39/186/62
f 32/187/63 25/188/63 33/189/63
f 32/190/64 33/191/64 40/192/64
f 33/193/65 34/194/65 42/195/65
f 33/196/66 42/197/66 41/198/66
f 34/199/67 35/200/67 43/201/67
f 34/202/68 43/203/68 42/204/68
f 35/205/69 36/206/69 44/207/69
f 35/208/70 44/209/70 43/210/70
f 36/211/71 37/212/71 45/213/71
f 36/214/72 45/215/72 44/216/72
f 37/217/73 38/218/73 46/219/73
f 37/220/74 46/221/74 45/222/74
f 38/223/75 39/224/75 47/225/75
f 38/226/76 47/227/76 46/228/76
f 39/229/77 40/230/77 48/231/77
f 39/232/78 48/233/78 47/234/78
f 40/235/79 33/236/79 41/237/79
f 40/238/80 41/239/80 48/240/80
f 41/241/81 42/242/81 50/243/81
f 41/244/82 50/245/82 49/246/82
f 42/247/83 43/248/83 51/249/83
f 42/250/84 51/251/84 50/252/84
f 43/253/85 44/254/85 52/255/85
f 43/256/86 52/257/86 51/258/86
f 44/259/87 45/260/87 53/261/87
f 44/262/88 53/263/88 52/264/88
f 45/265/89 46/266/89 54/267/89
f 45/268/90 54/269/90 53/270/90
f 46/271/91 47/272/91 55/273/91
f 46/274/92 55/275/92 54/276/92
f 47/277/93 48/278/93 56/279/93
f 47/280/94 56/281/94 55/282/94
f 48/283/95 41/284/95 49/285/95
f 48/286/96 49/287/96 56/288/96
f 57/289/97 2/290/97 1/291/97
f 57/292/98 3/293/98 2/294/98
f 57/295/99 4/296/99 3/297/99
f 57/298/100 5/299/100 4/300/100
f 57/301/101 6/302/101 5/303/101
f 57/304/102 7/305/102 6/306/102
f 57/307/103 8/308/103 7/309/103
f 57/310/104 1/311/104 8/312/104
f 58/313/105 49/314/105 50/315/105
f 58/316/106 50/317/106 51/318/106
f 58/319/107 51/320/107 52/321/107
f 58/322/108 52/323/108 53/324/108
f 58/325/109 53/326/109 54/327/109
f 58/328/110 54/329/110 55/330/110
f 58/331/111 55/332/111 56/333/111
f 58/334/112 56/335/112 49/336/112
