# Faceted flat-bottom gemstone for Tabletop Simulator
o 15_Asscher_Cut_Topaz
v -0.240000 -0.180000 -0.165600
v -0.240000 -0.180000 0.165600
v -0.165600 -0.180000 0.240000
v 0.165600 -0.180000 0.240000
v 0.240000 -0.180000 0.165600
v 0.240000 -0.180000 -0.165600
v 0.165600 -0.180000 -0.240000
v -0.165600 -0.180000 -0.240000
v -0.440000 -0.080000 -0.303600
v -0.440000 -0.080000 0.303600
v -0.303600 -0.080000 0.440000
v 0.303600 -0.080000 0.440000
v 0.440000 -0.080000 0.303600
v 0.440000 -0.080000 -0.303600
v 0.303600 -0.080000 -0.440000
v -0.303600 -0.080000 -0.440000
v -0.660000 0.012000 -0.455400
v -0.660000 0.012000 0.455400
v -0.455400 0.012000 0.660000
v 0.455400 0.012000 0.660000
v 0.660000 0.012000 0.455400
v 0.660000 0.012000 -0.455400
v 0.455400 0.012000 -0.660000
v -0.455400 0.012000 -0.660000
v -1.000000 0.052000 -0.690000
v -1.000000 0.052000 0.690000
v -0.690000 0.052000 1.000000
v 0.690000 0.052000 1.000000
v 1.000000 0.052000 0.690000
v 1.000000 0.052000 -0.690000
v 0.690000 0.052000 -1.000000
v -0.690000 0.052000 -1.000000
v -1.000000 0.090000 -0.690000
v -1.000000 0.090000 0.690000
v -0.690000 0.090000 1.000000
v 0.690000 0.090000 1.000000
v 1.000000 0.090000 0.690000
v 1.000000 0.090000 -0.690000
v 0.690000 0.090000 -1.000000
v -0.690000 0.090000 -1.000000
v -0.810000 0.205000 -0.558900
v -0.810000 0.205000 0.558900
v -0.558900 0.205000 0.810000
v 0.558900 0.205000 0.810000
v 0.810000 0.205000 0.558900
v 0.810000 0.205000 -0.558900
v 0.558900 0.205000 -0.810000
v -0.558900 0.205000 -0.810000
v -0.640000 0.285000 -0.441600
v -0.640000 0.285000 0.441600
v -0.441600 0.285000 0.640000
v 0.441600 0.285000 0.640000
v 0.640000 0.285000 0.441600
v 0.640000 0.285000 -0.441600
v 0.441600 0.285000 -0.640000
v -0.441600 0.285000 -0.640000
v -0.480000 0.320000 -0.331200
v -0.480000 0.320000 0.331200
v -0.331200 0.320000 0.480000
v 0.331200 0.320000 0.480000
v 0.480000 0.320000 0.331200
v 0.480000 0.320000 -0.331200
v 0.331200 0.320000 -0.480000
v -0.331200 0.320000 -0.480000
v 0.000000 -0.180000 0.000000
v 0.000000 0.320000 0.000000
vt 0.396250 0.352500
vt 0.477500 0.350000
vt 0.437500 0.275000
vt 0.271250 0.977500
vt 0.352500 0.975000
vt 0.312500 0.900000
vt 0.021250 0.727500
vt 0.102500 0.725000
vt 0.062500 0.650000
vt 0.896250 0.477500
vt 0.977500 0.475000
vt 0.937500 0.400000
vt 0.646250 0.227500
vt 0.727500 0.225000
vt 0.687500 0.150000
vt 0.521250 0.852500
vt 0.602500 0.850000
vt 0.562500 0.775000
vt 0.271250 0.602500
vt 0.352500 0.600000
vt 0.312500 0.525000
vt 0.146250 0.227500
vt 0.227500 0.225000
vt 0.187500 0.150000
vt 0.896250 0.102500
vt 0.977500 0.100000
vt 0.937500 0.025000
vt 0.771250 0.727500
vt 0.852500 0.725000
vt 0.812500 0.650000
vt 0.521250 0.477500
vt 0.602500 0.475000
vt 0.562500 0.400000
vt 0.396250 0.102500
vt 0.477500 0.100000
vt 0.437500 0.025000
vt 0.146250 0.852500
vt 0.227500 0.850000
vt 0.187500 0.775000
vt 0.021250 0.477500
vt 0.102500 0.475000
vt 0.062500 0.400000
vt 0.771250 0.102500
vt 0.852500 0.100000
vt 0.812500 0.025000
vt 0.646250 0.602500
vt 0.727500 0.600000
vt 0.687500 0.525000
vt 0.521250 0.602500
vt 0.602500 0.600000
vt 0.562500 0.525000
vt 0.396250 0.227500
vt 0.477500 0.225000
vt 0.437500 0.150000
vt 0.146250 0.977500
vt 0.227500 0.975000
vt 0.187500 0.900000
vt 0.021250 0.602500
vt 0.102500 0.600000
vt 0.062500 0.525000
vt 0.771250 0.477500
vt 0.852500 0.475000
vt 0.812500 0.400000
vt 0.646250 0.102500
vt 0.727500 0.100000
vt 0.687500 0.025000
vt 0.396250 0.852500
vt 0.477500 0.850000
vt 0.437500 0.775000
vt 0.271250 0.477500
vt 0.352500 0.475000
vt 0.312500 0.400000
vt 0.021250 0.227500
vt 0.102500 0.225000
vt 0.062500 0.150000
vt 0.896250 0.977500
vt 0.977500 0.975000
vt 0.937500 0.900000
vt 0.646250 0.727500
vt 0.727500 0.725000
vt 0.687500 0.650000
vt 0.521250 0.352500
vt 0.602500 0.350000
vt 0.562500 0.275000
vt 0.271250 0.102500
vt 0.352500 0.100000
vt 0.312500 0.025000
vt 0.146250 0.727500
vt 0.227500 0.725000
vt 0.187500 0.650000
vt 0.896250 0.352500
vt 0.977500 0.350000
vt 0.937500 0.275000
vt 0.771250 0.852500
vt 0.852500 0.850000
vt 0.812500 0.775000
vt 0.646250 0.852500
vt 0.727500 0.850000
vt 0.687500 0.775000
vt 0.521250 0.477500
vt 0.602500 0.475000
vt 0.562500 0.400000
vt 0.271250 0.227500
vt 0.352500 0.225000
vt 0.312500 0.150000
vt 0.146250 0.852500
vt 0.227500 0.850000
vt 0.187500 0.775000
vt 0.896250 0.727500
vt 0.977500 0.725000
vt 0.937500 0.650000
vt 0.771250 0.352500
vt 0.852500 0.350000
vt 0.812500 0.275000
vt 0.521250 0.102500
vt 0.602500 0.100000
vt 0.562500 0.025000
vt 0.396250 0.727500
vt 0.477500 0.725000
vt 0.437500 0.650000
vt 0.146250 0.477500
vt 0.227500 0.475000
vt 0.187500 0.400000
vt 0.021250 0.102500
vt 0.102500 0.100000
vt 0.062500 0.025000
vt 0.771250 0.977500
vt 0.852500 0.975000
vt 0.812500 0.900000
vt 0.646250 0.602500
vt 0.727500 0.600000
vt 0.687500 0.525000
vt 0.396250 0.352500
vt 0.477500 0.350000
vt 0.437500 0.275000
vt 0.271250 0.977500
vt 0.352500 0.975000
vt 0.312500 0.900000
vt 0.021250 0.477500
vt 0.102500 0.475000
vt 0.062500 0.400000
vt 0.896250 0.102500
vt 0.977500 0.100000
vt 0.937500 0.025000
vt 0.771250 0.102500
vt 0.852500 0.100000
vt 0.812500 0.025000
vt 0.646250 0.727500
vt 0.727500 0.725000
vt 0.687500 0.650000
vt 0.396250 0.477500
vt 0.477500 0.475000
vt 0.437500 0.400000
vt 0.271250 0.102500
vt 0.352500 0.100000
vt 0.312500 0.025000
vt 0.021250 0.852500
vt 0.102500 0.850000
vt 0.062500 0.775000
vt 0.896250 0.602500
vt 0.977500 0.600000
vt 0.937500 0.525000
vt 0.646250 0.352500
vt 0.727500 0.350000
vt 0.687500 0.275000
vt 0.521250 0.977500
vt 0.602500 0.975000
vt 0.562500 0.900000
vt 0.271250 0.727500
vt 0.352500 0.725000
vt 0.312500 0.650000
vt 0.146250 0.352500
vt 0.227500 0.350000
vt 0.187500 0.275000
vt 0.896250 0.227500
vt 0.977500 0.225000
vt 0.937500 0.150000
vt 0.771250 0.852500
vt 0.852500 0.850000
vt 0.812500 0.775000
vt 0.521250 0.602500
vt 0.602500 0.600000
vt 0.562500 0.525000
vt 0.396250 0.227500
vt 0.477500 0.225000
vt 0.437500 0.150000
vt 0.146250 0.727500
vt 0.227500 0.725000
vt 0.187500 0.650000
vt 0.021250 0.227500
vt 0.102500 0.225000
vt 0.062500 0.150000
vt 0.896250 0.352500
vt 0.977500 0.350000
vt 0.937500 0.275000
vt 0.771250 0.977500
vt 0.852500 0.975000
vt 0.812500 0.900000
vt 0.521250 0.727500
vt 0.602500 0.725000
vt 0.562500 0.650000
vt 0.396250 0.352500
vt 0.477500 0.350000
vt 0.437500 0.275000
vt 0.146250 0.102500
vt 0.227500 0.100000
vt 0.187500 0.025000
vt 0.021250 0.727500
vt 0.102500 0.725000
vt 0.062500 0.650000
vt 0.771250 0.602500
vt 0.852500 0.600000
vt 0.812500 0.525000
vt 0.646250 0.227500
vt 0.727500 0.225000
vt 0.687500 0.150000
vt 0.396250 0.977500
vt 0.477500 0.975000
vt 0.437500 0.900000
vt 0.271250 0.602500
vt 0.352500 0.600000
vt 0.312500 0.525000
vt 0.021250 0.352500
vt 0.102500 0.350000
vt 0.062500 0.275000
vt 0.896250 0.102500
vt 0.977500 0.100000
vt 0.937500 0.025000
vt 0.646250 0.852500
vt 0.727500 0.850000
vt 0.687500 0.775000
vt 0.521250 0.477500
vt 0.602500 0.475000
vt 0.562500 0.400000
vt 0.271250 0.977500
vt 0.352500 0.975000
vt 0.312500 0.900000
vt 0.146250 0.477500
vt 0.227500 0.475000
vt 0.187500 0.400000
vt 0.021250 0.477500
vt 0.102500 0.475000
vt 0.062500 0.400000
vt 0.896250 0.227500
vt 0.977500 0.225000
vt 0.937500 0.150000
vt 0.646250 0.977500
vt 0.727500 0.975000
vt 0.687500 0.900000
vt 0.521250 0.602500
vt 0.602500 0.600000
vt 0.562500 0.525000
vt 0.271250 0.352500
vt 0.352500 0.350000
vt 0.312500 0.275000
vt 0.146250 0.977500
vt 0.227500 0.975000
vt 0.187500 0.900000
vt 0.896250 0.852500
vt 0.977500 0.850000
vt 0.937500 0.775000
vt 0.771250 0.477500
vt 0.852500 0.475000
vt 0.812500 0.400000
vt 0.521250 0.227500
vt 0.602500 0.225000
vt 0.562500 0.150000
vt 0.396250 0.852500
vt 0.477500 0.850000
vt 0.437500 0.775000
vt 0.146250 0.602500
vt 0.227500 0.600000
vt 0.187500 0.525000
vt 0.021250 0.227500
vt 0.102500 0.225000
vt 0.062500 0.150000
vt 0.771250 0.102500
vt 0.852500 0.100000
vt 0.812500 0.025000
vt 0.646250 0.727500
vt 0.727500 0.725000
vt 0.687500 0.650000
vt 0.396250 0.227500
vt 0.477500 0.225000
vt 0.437500 0.150000
vt 0.271250 0.727500
vt 0.352500 0.725000
vt 0.312500 0.650000
vt 0.146250 0.727500
vt 0.227500 0.725000
vt 0.187500 0.650000
vt 0.021250 0.352500
vt 0.102500 0.350000
vt 0.062500 0.275000
vt 0.771250 0.227500
vt 0.852500 0.225000
vt 0.812500 0.150000
vt 0.646250 0.852500
vt 0.727500 0.850000
vt 0.687500 0.775000
vt 0.396250 0.602500
vt 0.477500 0.600000
vt 0.437500 0.525000
vt 0.271250 0.227500
vt 0.352500 0.225000
vt 0.312500 0.150000
vt 0.021250 0.977500
vt 0.102500 0.975000
vt 0.062500 0.900000
vt 0.896250 0.727500
vt 0.977500 0.725000
vt 0.937500 0.650000
vt 0.646250 0.477500
vt 0.727500 0.475000
vt 0.687500 0.400000
vt 0.521250 0.102500
vt 0.602500 0.100000
vt 0.562500 0.025000
vt 0.271250 0.852500
vt 0.352500 0.850000
vt 0.312500 0.775000
vt 0.146250 0.477500
vt 0.227500 0.475000
vt 0.187500 0.400000
vt 0.896250 0.352500
vt 0.977500 0.350000
vt 0.937500 0.275000
vt 0.771250 0.977500
vt 0.852500 0.975000
vt 0.812500 0.900000
vt 0.521250 0.477500
vt 0.602500 0.475000
vt 0.562500 0.400000
vt 0.396250 0.977500
vt 0.477500 0.975000
vt 0.437500 0.900000
vt 0.271250 0.727500
vt 0.352500 0.725000
vt 0.312500 0.650000
vt 0.021250 0.227500
vt 0.102500 0.225000
vt 0.062500 0.150000
vt 0.771250 0.852500
vt 0.852500 0.850000
vt 0.812500 0.775000
vt 0.521250 0.352500
vt 0.602500 0.350000
vt 0.562500 0.275000
vt 0.271250 0.852500
vt 0.352500 0.850000
vt 0.312500 0.775000
vt 0.021250 0.352500
vt 0.102500 0.350000
vt 0.062500 0.275000
vt 0.771250 0.977500
vt 0.852500 0.975000
vt 0.812500 0.900000
vt 0.521250 0.102500
vt 0.602500 0.100000
vt 0.562500 0.025000
vt 0.396250 0.477500
vt 0.477500 0.475000
vt 0.437500 0.400000
vt 0.146250 0.977500
vt 0.227500 0.975000
vt 0.187500 0.900000
vt 0.896250 0.602500
vt 0.977500 0.600000
vt 0.937500 0.525000
vt 0.646250 0.102500
vt 0.727500 0.100000
vt 0.687500 0.025000
vt 0.396250 0.602500
vt 0.477500 0.600000
vt 0.437500 0.525000
vt 0.146250 0.102500
vt 0.227500 0.100000
vt 0.187500 0.025000
vt 0.896250 0.727500
vt 0.977500 0.725000
vt 0.937500 0.650000
vt 0.646250 0.352500
vt 0.727500 0.350000
vt 0.687500 0.275000
vn -0.447214 -0.894427 0.000000
vn -0.447214 -0.894427 0.000000
vn -0.272931 -0.922506 0.272931
vn -0.272931 -0.922506 0.272931
vn 0.000000 -0.894427 0.447214
vn 0.000000 -0.894427 0.447214
vn 0.272931 -0.922506 0.272931
vn 0.272931 -0.922506 0.272931
vn 0.447214 -0.894427 0.000000
vn 0.447214 -0.894427 0.000000
vn 0.272931 -0.922506 -0.272931
vn 0.272931 -0.922506 -0.272931
vn -0.000000 -0.894427 -0.447214
vn 0.000000 -0.894427 -0.447214
vn -0.272931 -0.922506 -0.272931
vn -0.272931 -0.922506 -0.272931
vn -0.385806 -0.922580 0.000000
vn -0.385806 -0.922580 0.000000
vn -0.233557 -0.943876 0.233557
vn -0.233557 -0.943876 0.233557
vn 0.000000 -0.922580 0.385806
vn 0.000000 -0.922580 0.385806
vn 0.233557 -0.943876 0.233557
vn 0.233557 -0.943876 0.233557
vn 0.385806 -0.922580 0.000000
vn 0.385806 -0.922580 0.000000
vn 0.233557 -0.943876 -0.233557
vn 0.233557 -0.943876 -0.233557
vn -0.000000 -0.922580 -0.385806
vn 0.000000 -0.922580 -0.385806
vn -0.233557 -0.943876 -0.233557
vn -0.233557 -0.943876 -0.233557
vn -0.116841 -0.993151 0.000000
vn -0.116841 -0.993151 0.000000
vn -0.069279 -0.995189 0.069279
vn -0.069279 -0.995189 0.069279
vn 0.000000 -0.993151 0.116841
vn 0.000000 -0.993151 0.116841
vn 0.069279 -0.995189 0.069279
vn 0.069279 -0.995189 0.069279
vn 0.116841 -0.993151 0.000000
vn 0.116841 -0.993151 0.000000
vn 0.069279 -0.995189 -0.069279
vn 0.069279 -0.995189 -0.069279
vn -0.000000 -0.993151 -0.116841
vn 0.000000 -0.993151 -0.116841
vn -0.069279 -0.995189 -0.069279
vn -0.069279 -0.995189 -0.069279
vn -1.000000 0.000000 0.000000
vn -1.000000 0.000000 0.000000
vn -0.707107 0.000000 0.707107
vn -0.707107 0.000000 0.707107
vn 0.000000 0.000000 1.000000
vn 0.000000 0.000000 1.000000
vn 0.707107 0.000000 0.707107
vn 0.707107 -0.000000 0.707107
vn 1.000000 0.000000 0.000000
vn 1.000000 -0.000000 0.000000
vn 0.707107 0.000000 -0.707107
vn 0.707107 0.000000 -0.707107
vn 0.000000 0.000000 -1.000000
vn 0.000000 0.000000 -1.000000
vn -0.707107 0.000000 -0.707107
vn -0.707107 0.000000 -0.707107
vn -0.517803 0.855500 0.000000
vn -0.517803 0.855500 0.000000
vn -0.319500 0.892099 0.319500
vn -0.319500 0.892099 0.319500
vn -0.000000 0.855500 0.517803
vn 0.000000 0.855500 0.517803
vn 0.319500 0.892099 0.319500
vn 0.319500 0.892099 0.319500
vn 0.517803 0.855500 0.000000
vn 0.517803 0.855500 0.000000
vn 0.319500 0.892099 -0.319500
vn 0.319500 0.892099 -0.319500
vn 0.000000 0.855500 -0.517803
vn 0.000000 0.855500 -0.517803
vn -0.319500 0.892099 -0.319500
vn -0.319500 0.892099 -0.319500
vn -0.425797 0.904819 0.000000
vn -0.425797 0.904819 0.000000
vn -0.259089 0.930454 0.259089
vn -0.259089 0.930454 0.259089
vn -0.000000 0.904819 0.425797
vn 0.000000 0.904819 0.425797
vn 0.259089 0.930454 0.259089
vn 0.259089 0.930454 0.259089
vn 0.425797 0.904819 0.000000
vn 0.425797 0.904819 0.000000
vn 0.259089 0.930454 -0.259089
vn 0.259089 0.930454 -0.259089
vn 0.000000 0.904819 -0.425797
vn 0.000000 0.904819 -0.425797
vn -0.259089 0.930454 -0.259089
vn -0.259089 0.930454 -0.259089
vn -0.213697 0.976900 0.000000
vn -0.213697 0.976900 0.000000
vn -0.127322 0.983655 0.127322
vn -0.127322 0.983655 0.127322
vn -0.000000 0.976900 0.213697
vn 0.000000 0.976900 0.213697
vn 0.127322 0.983655 0.127322
vn 0.127322 0.983655 0.127322
vn 0.213697 0.976900 0.000000
vn 0.213697 0.976900 0.000000
vn 0.127322 0.983655 -0.127322
vn 0.127322 0.983655 -0.127322
vn 0.000000 0.976900 -0.213697
vn 0.000000 0.976900 -0.213697
vn -0.127322 0.983655 -0.127322
vn -0.127322 0.983655 -0.127322
vn -0.000000 -1.000000 0.000000
vn 0.000000 -1.000000 0.000000
vn 0.000000 -1.000000 0.000000
vn 0.000000 -1.000000 0.000000
vn 0.000000 -1.000000 0.000000
vn 0.000000 -1.000000 0.000000
vn 0.000000 -1.000000 -0.000000
vn 0.000000 -1.000000 0.000000
vn 0.000000 1.000000 0.000000
vn 0.000000 1.000000 0.000000
vn 0.000000 1.000000 -0.000000
vn 0.000000 1.000000 0.000000
vn -0.000000 1.000000 0.000000
vn 0.000000 1.000000 0.000000
vn 0.000000 1.000000 0.000000
vn 0.000000 1.000000 0.000000
f 1/1/1 2/2/1 10/3/1
f 1/4/2 10/5/2 9/6/2
f 2/7/3 3/8/3 11/9/3
f 2/10/4 11/11/4 10/12/4
f 3/13/5 4/14/5 12/15/5
f 3/16/6 12/17/6 11/18/6
f 4/19/7 5/20/7 13/21/7
f 4/22/8 13/23/8 12/24/8
f 5/25/9 6/26/9 14/27/9
f 5/28/10 14/29/10 13/30/10
f 6/31/11 7/32/11 15/33/11
f 6/34/12 15/35/12 14/36/12
f 7/37/13 8/38/13 16/39/13
f 7/40/14 16/41/14 15/42/14
f 8/43/15 1/44/15 9/45/15
f 8/46/16 9/47/16 16/48/16
f 9/49/17 10/50/17 18/51/17
f 9/52/18 18/53/18 17/54/18
f 10/55/19 11/56/19 19/57/19
f 10/58/20 19/59/20 18/60/20
f 11/61/21 12/62/21 20/63/21
f 11/64/22 20/65/22 19/66/22
f 12/67/23 13/68/23 21/69/23
f 12/70/24 21/71/24 20/72/24
f 13/73/25 14/74/25 22/75/25
f 13/76/26 22/77/26 21/78/26
f 14/79/27 15/80/27 23/81/27
f 14/82/28 23/83/28 22/84/28
f 15/85/29 16/86/29 24/87/29
f 15/88/30 24/89/30 23/90/30
f 16/91/31 9/92/31 17/93/31
f 16/94/32 17/95/32 24/96/32
f 17/97/33 18/98/33 26/99/33
f 17/100/34 26/101/34 25/102/34
f 18/103/35 19/104/35 27/105/35
f 18/106/36 27/107/36 26/108/36
f 19/109/37 20/110/37 28/111/37
f 19/112/38 28/113/38 27/114/38
f 20/115/39 21/116/39 29/117/39
f 20/118/40 29/119/40 28/120/40
f 21/121/41 22/122/41 30/123/41
f 21/124/42 30/125/42 29/126/42
f 22/127/43 23/128/43 31/129/43
f 22/130/44 31/131/44 30/132/44
f 23/133/45 24/134/45 32/135/45
f 23/136/46 32/137/46 31/138/46
f 24/139/47 17/140/47 25/141/47
f 24/142/48 25/143/48 32/144/48
f 25/145/49 26/146/49 34/147/49
f 25/148/50 34/149/50 33/150/50
f 26/151/51 27/152/51 35/153/51
f 26/154/52 35/155/52 34/156/52
f 27/157/53 28/158/53 36/159/53
f 27/160/54 36/161/54 35/162/54
f 28/163/55 29/164/55 37/165/55
f 28/166/56 37/167/56 36/168/56
f 29/169/57 30/170/57 38/171/57
f 29/172/58 38/173/58 37/174/58
f 30/175/59 31/176/59 39/177/59
f 30/178/60 39/179/60 38/180/60
f 31/181/61 32/182/61 40/183/61
f 31/184/62 40/185/62 39/186/62
f 32/187/63 25/188/63 33/189/63
f 32/190/64 33/191/64 40/192/64
f 33/193/65 34/194/65 42/195/65
f 33/196/66 42/197/66 41/198/66
f 34/199/67 35/200/67 43/201/67
f 34/202/68 43/203/68 42/204/68
f 35/205/69 36/206/69 44/207/69
f 35/208/70 44/209/70 43/210/70
f 36/211/71 37/212/71 45/213/71
f 36/214/72 45/215/72 44/216/72
f 37/217/73 38/218/73 46/219/73
f 37/220/74 46/221/74 45/222/74
f 38/223/75 39/224/75 47/225/75
f 38/226/76 47/227/76 46/228/76
f 39/229/77 40/230/77 48/231/77
f 39/232/78 48/233/78 47/234/78
f 40/235/79 33/236/79 41/237/79
f 40/238/80 41/239/80 48/240/80
f 41/241/81 42/242/81 50/243/81
f 41/244/82 50/245/82 49/246/82
f 42/247/83 43/248/83 51/249/83
f 42/250/84 51/251/84 50/252/84
f 43/253/85 44/254/85 52/255/85
f 43/256/86 52/257/86 51/258/86
f 44/259/87 45/260/87 53/261/87
f 44/262/88 53/263/88 52/264/88
f 45/265/89 46/266/89 54/267/89
f 45/268/90 54/269/90 53/270/90
f 46/271/91 47/272/91 55/273/91
f 46/274/92 55/275/92 54/276/92
f 47/277/93 48/278/93 56/279/93
f 47/280/94 56/281/94 55/282/94
f 48/283/95 41/284/95 49/285/95
f 48/286/96 49/287/96 56/288/96
f 49/289/97 50/290/97 58/291/97
f 49/292/98 58/293/98 57/294/98
f 50/295/99 51/296/99 59/297/99
f 50/298/100 59/299/100 58/300/100
f 51/301/101 52/302/101 60/303/101
f 51/304/102 60/305/102 59/306/102
f 52/307/103 53/308/103 61/309/103
f 52/310/104 61/311/104 60/312/104
f 53/313/105 54/314/105 62/315/105
f 53/316/106 62/317/106 61/318/106
f 54/319/107 55/320/107 63/321/107
f 54/322/108 63/323/108 62/324/108
f 55/325/109 56/326/109 64/327/109
f 55/328/110 64/329/110 63/330/110
f 56/331/111 49/332/111 57/333/111
f 56/334/112 57/335/112 64/336/112
f 65/337/113 2/338/113 1/339/113
f 65/340/114 3/341/114 2/342/114
f 65/343/115 4/344/115 3/345/115
f 65/346/116 5/347/116 4/348/116
f 65/349/117 6/350/117 5/351/117
f 65/352/118 7/353/118 6/354/118
f 65/355/119 8/356/119 7/357/119
f 65/358/120 1/359/120 8/360/120
f 66/361/121 57/362/121 58/363/121
f 66/364/122 58/365/122 59/366/122
f 66/367/123 59/368/123 60/369/123
f 66/370/124 60/371/124 61/372/124
f 66/373/125 61/374/125 62/375/125
f 66/376/126 62/377/126 63/378/126
f 66/379/127 63/380/127 64/381/127
f 66/382/128 64/383/128 57/384/128
