# AuthorityGamer Casino custom model; units are TTS-scalable.
v 1.254000 0.085000 0.630800
v 1.253378 0.085000 0.643464
v 1.251517 0.085000 0.656006
v 1.248437 0.085000 0.668305
v 1.244165 0.085000 0.680243
v 1.238744 0.085000 0.691704
v 1.232226 0.085000 0.702580
v 1.224673 0.085000 0.712764
v 1.216158 0.085000 0.722158
v 1.206764 0.085000 0.730673
v 1.196580 0.085000 0.738226
v 1.185704 0.085000 0.744744
v 1.174243 0.085000 0.750165
v 1.162305 0.085000 0.754437
v 1.150006 0.085000 0.757517
v 1.137464 0.085000 0.759378
v 1.124800 0.085000 0.760000
v -1.124800 0.085000 0.760000
v -1.137464 0.085000 0.759378
v -1.150006 0.085000 0.757517
v -1.162305 0.085000 0.754437
v -1.174243 0.085000 0.750165
v -1.185704 0.085000 0.744744
v -1.196580 0.085000 0.738226
v -1.206764 0.085000 0.730673
v -1.216158 0.085000 0.722158
v -1.224673 0.085000 0.712764
v -1.232226 0.085000 0.702580
v -1.238744 0.085000 0.691704
v -1.244165 0.085000 0.680243
v -1.248437 0.085000 0.668305
v -1.251517 0.085000 0.656006
v -1.253378 0.085000 0.643464
v -1.254000 0.085000 0.630800
v -1.254000 0.085000 -0.630800
v -1.253378 0.085000 -0.643464
v -1.251517 0.085000 -0.656006
v -1.248437 0.085000 -0.668305
v -1.244165 0.085000 -0.680243
v -1.238744 0.085000 -0.691704
v -1.232226 0.085000 -0.702580
v -1.224673 0.085000 -0.712764
v -1.216158 0.085000 -0.722158
v -1.206764 0.085000 -0.730673
v -1.196580 0.085000 -0.738226
v -1.185704 0.085000 -0.744744
v -1.174243 0.085000 -0.750165
v -1.162305 0.085000 -0.754437
v -1.150006 0.085000 -0.757517
v -1.137464 0.085000 -0.759378
v -1.124800 0.085000 -0.760000
v 1.124800 0.085000 -0.760000
v 1.137464 0.085000 -0.759378
v 1.150006 0.085000 -0.757517
v 1.162305 0.085000 -0.754437
v 1.174243 0.085000 -0.750165
v 1.185704 0.085000 -0.744744
v 1.196580 0.085000 -0.738226
v 1.206764 0.085000 -0.730673
v 1.216158 0.085000 -0.722158
v 1.224673 0.085000 -0.712764
v 1.232226 0.085000 -0.702580
v 1.238744 0.085000 -0.691704
v 1.244165 0.085000 -0.680243
v 1.248437 0.085000 -0.668305
v 1.251517 0.085000 -0.656006
v 1.253378 0.085000 -0.643464
v 1.254000 0.085000 -0.630800
v 1.320000 0.120000 0.664000
v 1.319345 0.120000 0.677330
v 1.317387 0.120000 0.690532
v 1.314144 0.120000 0.703479
v 1.309648 0.120000 0.716045
v 1.303941 0.120000 0.728110
v 1.297080 0.120000 0.739558
v 1.289129 0.120000 0.750277
v 1.280167 0.120000 0.760167
v 1.270277 0.120000 0.769129
v 1.259558 0.120000 0.777080
v 1.248110 0.120000 0.783941
v 1.236045 0.120000 0.789648
v 1.223479 0.120000 0.794144
v 1.210532 0.120000 0.797387
v 1.197330 0.120000 0.799345
v 1.184000 0.120000 0.800000
v -1.184000 0.120000 0.800000
v -1.197330 0.120000 0.799345
v -1.210532 0.120000 0.797387
v -1.223479 0.120000 0.794144
v -1.236045 0.120000 0.789648
v -1.248110 0.120000 0.783941
v -1.259558 0.120000 0.777080
v -1.270277 0.120000 0.769129
v -1.280167 0.120000 0.760167
v -1.289129 0.120000 0.750277
v -1.297080 0.120000 0.739558
v -1.303941 0.120000 0.728110
v -1.309648 0.120000 0.716045
v -1.314144 0.120000 0.703479
v -1.317387 0.120000 0.690532
v -1.319345 0.120000 0.677330
v -1.320000 0.120000 0.664000
v -1.320000 0.120000 -0.664000
v -1.319345 0.120000 -0.677330
v -1.317387 0.120000 -0.690532
v -1.314144 0.120000 -0.703479
v -1.309648 0.120000 -0.716045
v -1.303941 0.120000 -0.728110
v -1.297080 0.120000 -0.739558
v -1.289129 0.120000 -0.750277
v -1.280167 0.120000 -0.760167
v -1.270277 0.120000 -0.769129
v -1.259558 0.120000 -0.777080
v -1.248110 0.120000 -0.783941
v -1.236045 0.120000 -0.789648
v -1.223479 0.120000 -0.794144
v -1.210532 0.120000 -0.797387
v -1.197330 0.120000 -0.799345
v -1.184000 0.120000 -0.800000
v 1.184000 0.120000 -0.800000
v 1.197330 0.120000 -0.799345
v 1.210532 0.120000 -0.797387
v 1.223479 0.120000 -0.794144
v 1.236045 0.120000 -0.789648
v 1.248110 0.120000 -0.783941
v 1.259558 0.120000 -0.777080
v 1.270277 0.120000 -0.769129
v 1.280167 0.120000 -0.760167
v 1.289129 0.120000 -0.750277
v 1.297080 0.120000 -0.739558
v 1.303941 0.120000 -0.728110
v 1.309648 0.120000 -0.716045
v 1.314144 0.120000 -0.703479
v 1.317387 0.120000 -0.690532
v 1.319345 0.120000 -0.677330
v 1.320000 0.120000 -0.664000
v 1.485000 0.120000 0.747000
v 1.484263 0.120000 0.761997
v 1.482060 0.120000 0.776849
v 1.478412 0.120000 0.791414
v 1.473354 0.120000 0.805551
v 1.466934 0.120000 0.819124
v 1.459215 0.120000 0.832002
v 1.450271 0.120000 0.844062
v 1.440187 0.120000 0.855187
v 1.429062 0.120000 0.865271
v 1.417002 0.120000 0.874215
v 1.404124 0.120000 0.881934
v 1.390551 0.120000 0.888354
v 1.376414 0.120000 0.893412
v 1.361849 0.120000 0.897060
v 1.346997 0.120000 0.899263
v 1.332000 0.120000 0.900000
v -1.332000 0.120000 0.900000
v -1.346997 0.120000 0.899263
v -1.361849 0.120000 0.897060
v -1.376414 0.120000 0.893412
v -1.390551 0.120000 0.888354
v -1.404124 0.120000 0.881934
v -1.417002 0.120000 0.874215
v -1.429062 0.120000 0.865271
v -1.440187 0.120000 0.855187
v -1.450271 0.120000 0.844062
v -1.459215 0.120000 0.832002
v -1.466934 0.120000 0.819124
v -1.473354 0.120000 0.805551
v -1.478412 0.120000 0.791414
v -1.482060 0.120000 0.776849
v -1.484263 0.120000 0.761997
v -1.485000 0.120000 0.747000
v -1.485000 0.120000 -0.747000
v -1.484263 0.120000 -0.761997
v -1.482060 0.120000 -0.776849
v -1.478412 0.120000 -0.791414
v -1.473354 0.120000 -0.805551
v -1.466934 0.120000 -0.819124
v -1.459215 0.120000 -0.832002
v -1.450271 0.120000 -0.844062
v -1.440187 0.120000 -0.855187
v -1.429062 0.120000 -0.865271
v -1.417002 0.120000 -0.874215
v -1.404124 0.120000 -0.881934
v -1.390551 0.120000 -0.888354
v -1.376414 0.120000 -0.893412
v -1.361849 0.120000 -0.897060
v -1.346997 0.120000 -0.899263
v -1.332000 0.120000 -0.900000
v 1.332000 0.120000 -0.900000
v 1.346997 0.120000 -0.899263
v 1.361849 0.120000 -0.897060
v 1.376414 0.120000 -0.893412
v 1.390551 0.120000 -0.888354
v 1.404124 0.120000 -0.881934
v 1.417002 0.120000 -0.874215
v 1.429062 0.120000 -0.865271
v 1.440187 0.120000 -0.855187
v 1.450271 0.120000 -0.844062
v 1.459215 0.120000 -0.832002
v 1.466934 0.120000 -0.819124
v 1.473354 0.120000 -0.805551
v 1.478412 0.120000 -0.791414
v 1.482060 0.120000 -0.776849
v 1.484263 0.120000 -0.761997
v 1.485000 0.120000 -0.747000
v 1.650000 0.070000 0.830000
v 1.649181 0.070000 0.846663
v 1.646733 0.070000 0.863165
v 1.642680 0.070000 0.879348
v 1.637060 0.070000 0.895056
v 1.629927 0.070000 0.910137
v 1.621350 0.070000 0.924447
v 1.611412 0.070000 0.937847
v 1.600208 0.070000 0.950208
v 1.587847 0.070000 0.961412
v 1.574447 0.070000 0.971350
v 1.560137 0.070000 0.979927
v 1.545056 0.070000 0.987060
v 1.529348 0.070000 0.992680
v 1.513165 0.070000 0.996733
v 1.496663 0.070000 0.999181
v 1.480000 0.070000 1.000000
v -1.480000 0.070000 1.000000
v -1.496663 0.070000 0.999181
v -1.513165 0.070000 0.996733
v -1.529348 0.070000 0.992680
v -1.545056 0.070000 0.987060
v -1.560137 0.070000 0.979927
v -1.574447 0.070000 0.971350
v -1.587847 0.070000 0.961412
v -1.600208 0.070000 0.950208
v -1.611412 0.070000 0.937847
v -1.621350 0.070000 0.924447
v -1.629927 0.070000 0.910137
v -1.637060 0.070000 0.895056
v -1.642680 0.070000 0.879348
v -1.646733 0.070000 0.863165
v -1.649181 0.070000 0.846663
v -1.650000 0.070000 0.830000
v -1.650000 0.070000 -0.830000
v -1.649181 0.070000 -0.846663
v -1.646733 0.070000 -0.863165
v -1.642680 0.070000 -0.879348
v -1.637060 0.070000 -0.895056
v -1.629927 0.070000 -0.910137
v -1.621350 0.070000 -0.924447
v -1.611412 0.070000 -0.937847
v -1.600208 0.070000 -0.950208
v -1.587847 0.070000 -0.961412
v -1.574447 0.070000 -0.971350
v -1.560137 0.070000 -0.979927
v -1.545056 0.070000 -0.987060
v -1.529348 0.070000 -0.992680
v -1.513165 0.070000 -0.996733
v -1.496663 0.070000 -0.999181
v -1.480000 0.070000 -1.000000
v 1.480000 0.070000 -1.000000
v 1.496663 0.070000 -0.999181
v 1.513165 0.070000 -0.996733
v 1.529348 0.070000 -0.992680
v 1.545056 0.070000 -0.987060
v 1.560137 0.070000 -0.979927
v 1.574447 0.070000 -0.971350
v 1.587847 0.070000 -0.961412
v 1.600208 0.070000 -0.950208
v 1.611412 0.070000 -0.937847
v 1.621350 0.070000 -0.924447
v 1.629927 0.070000 -0.910137
v 1.637060 0.070000 -0.895056
v 1.642680 0.070000 -0.879348
v 1.646733 0.070000 -0.863165
v 1.649181 0.070000 -0.846663
v 1.650000 0.070000 -0.830000
v 1.254000 -0.085000 0.630800
v 1.253378 -0.085000 0.643464
v 1.251517 -0.085000 0.656006
v 1.248437 -0.085000 0.668305
v 1.244165 -0.085000 0.680243
v 1.238744 -0.085000 0.691704
v 1.232226 -0.085000 0.702580
v 1.224673 -0.085000 0.712764
v 1.216158 -0.085000 0.722158
v 1.206764 -0.085000 0.730673
v 1.196580 -0.085000 0.738226
v 1.185704 -0.085000 0.744744
v 1.174243 -0.085000 0.750165
v 1.162305 -0.085000 0.754437
v 1.150006 -0.085000 0.757517
v 1.137464 -0.085000 0.759378
v 1.124800 -0.085000 0.760000
v -1.124800 -0.085000 0.760000
v -1.137464 -0.085000 0.759378
v -1.150006 -0.085000 0.757517
v -1.162305 -0.085000 0.754437
v -1.174243 -0.085000 0.750165
v -1.185704 -0.085000 0.744744
v -1.196580 -0.085000 0.738226
v -1.206764 -0.085000 0.730673
v -1.216158 -0.085000 0.722158
v -1.224673 -0.085000 0.712764
v -1.232226 -0.085000 0.702580
v -1.238744 -0.085000 0.691704
v -1.244165 -0.085000 0.680243
v -1.248437 -0.085000 0.668305
v -1.251517 -0.085000 0.656006
v -1.253378 -0.085000 0.643464
v -1.254000 -0.085000 0.630800
v -1.254000 -0.085000 -0.630800
v -1.253378 -0.085000 -0.643464
v -1.251517 -0.085000 -0.656006
v -1.248437 -0.085000 -0.668305
v -1.244165 -0.085000 -0.680243
v -1.238744 -0.085000 -0.691704
v -1.232226 -0.085000 -0.702580
v -1.224673 -0.085000 -0.712764
v -1.216158 -0.085000 -0.722158
v -1.206764 -0.085000 -0.730673
v -1.196580 -0.085000 -0.738226
v -1.185704 -0.085000 -0.744744
v -1.174243 -0.085000 -0.750165
v -1.162305 -0.085000 -0.754437
v -1.150006 -0.085000 -0.757517
v -1.137464 -0.085000 -0.759378
v -1.124800 -0.085000 -0.760000
v 1.124800 -0.085000 -0.760000
v 1.137464 -0.085000 -0.759378
v 1.150006 -0.085000 -0.757517
v 1.162305 -0.085000 -0.754437
v 1.174243 -0.085000 -0.750165
v 1.185704 -0.085000 -0.744744
v 1.196580 -0.085000 -0.738226
v 1.206764 -0.085000 -0.730673
v 1.216158 -0.085000 -0.722158
v 1.224673 -0.085000 -0.712764
v 1.232226 -0.085000 -0.702580
v 1.238744 -0.085000 -0.691704
v 1.244165 -0.085000 -0.680243
v 1.248437 -0.085000 -0.668305
v 1.251517 -0.085000 -0.656006
v 1.253378 -0.085000 -0.643464
v 1.254000 -0.085000 -0.630800
v 1.320000 -0.120000 0.664000
v 1.319345 -0.120000 0.677330
v 1.317387 -0.120000 0.690532
v 1.314144 -0.120000 0.703479
v 1.309648 -0.120000 0.716045
v 1.303941 -0.120000 0.728110
v 1.297080 -0.120000 0.739558
v 1.289129 -0.120000 0.750277
v 1.280167 -0.120000 0.760167
v 1.270277 -0.120000 0.769129
v 1.259558 -0.120000 0.777080
v 1.248110 -0.120000 0.783941
v 1.236045 -0.120000 0.789648
v 1.223479 -0.120000 0.794144
v 1.210532 -0.120000 0.797387
v 1.197330 -0.120000 0.799345
v 1.184000 -0.120000 0.800000
v -1.184000 -0.120000 0.800000
v -1.197330 -0.120000 0.799345
v -1.210532 -0.120000 0.797387
v -1.223479 -0.120000 0.794144
v -1.236045 -0.120000 0.789648
v -1.248110 -0.120000 0.783941
v -1.259558 -0.120000 0.777080
v -1.270277 -0.120000 0.769129
v -1.280167 -0.120000 0.760167
v -1.289129 -0.120000 0.750277
v -1.297080 -0.120000 0.739558
v -1.303941 -0.120000 0.728110
v -1.309648 -0.120000 0.716045
v -1.314144 -0.120000 0.703479
v -1.317387 -0.120000 0.690532
v -1.319345 -0.120000 0.677330
v -1.320000 -0.120000 0.664000
v -1.320000 -0.120000 -0.664000
v -1.319345 -0.120000 -0.677330
v -1.317387 -0.120000 -0.690532
v -1.314144 -0.120000 -0.703479
v -1.309648 -0.120000 -0.716045
v -1.303941 -0.120000 -0.728110
v -1.297080 -0.120000 -0.739558
v -1.289129 -0.120000 -0.750277
v -1.280167 -0.120000 -0.760167
v -1.270277 -0.120000 -0.769129
v -1.259558 -0.120000 -0.777080
v -1.248110 -0.120000 -0.783941
v -1.236045 -0.120000 -0.789648
v -1.223479 -0.120000 -0.794144
v -1.210532 -0.120000 -0.797387
v -1.197330 -0.120000 -0.799345
v -1.184000 -0.120000 -0.800000
v 1.184000 -0.120000 -0.800000
v 1.197330 -0.120000 -0.799345
v 1.210532 -0.120000 -0.797387
v 1.223479 -0.120000 -0.794144
v 1.236045 -0.120000 -0.789648
v 1.248110 -0.120000 -0.783941
v 1.259558 -0.120000 -0.777080
v 1.270277 -0.120000 -0.769129
v 1.280167 -0.120000 -0.760167
v 1.289129 -0.120000 -0.750277
v 1.297080 -0.120000 -0.739558
v 1.303941 -0.120000 -0.728110
v 1.309648 -0.120000 -0.716045
v 1.314144 -0.120000 -0.703479
v 1.317387 -0.120000 -0.690532
v 1.319345 -0.120000 -0.677330
v 1.320000 -0.120000 -0.664000
v 1.485000 -0.120000 0.747000
v 1.484263 -0.120000 0.761997
v 1.482060 -0.120000 0.776849
v 1.478412 -0.120000 0.791414
v 1.473354 -0.120000 0.805551
v 1.466934 -0.120000 0.819124
v 1.459215 -0.120000 0.832002
v 1.450271 -0.120000 0.844062
v 1.440187 -0.120000 0.855187
v 1.429062 -0.120000 0.865271
v 1.417002 -0.120000 0.874215
v 1.404124 -0.120000 0.881934
v 1.390551 -0.120000 0.888354
v 1.376414 -0.120000 0.893412
v 1.361849 -0.120000 0.897060
v 1.346997 -0.120000 0.899263
v 1.332000 -0.120000 0.900000
v -1.332000 -0.120000 0.900000
v -1.346997 -0.120000 0.899263
v -1.361849 -0.120000 0.897060
v -1.376414 -0.120000 0.893412
v -1.390551 -0.120000 0.888354
v -1.404124 -0.120000 0.881934
v -1.417002 -0.120000 0.874215
v -1.429062 -0.120000 0.865271
v -1.440187 -0.120000 0.855187
v -1.450271 -0.120000 0.844062
v -1.459215 -0.120000 0.832002
v -1.466934 -0.120000 0.819124
v -1.473354 -0.120000 0.805551
v -1.478412 -0.120000 0.791414
v -1.482060 -0.120000 0.776849
v -1.484263 -0.120000 0.761997
v -1.485000 -0.120000 0.747000
v -1.485000 -0.120000 -0.747000
v -1.484263 -0.120000 -0.761997
v -1.482060 -0.120000 -0.776849
v -1.478412 -0.120000 -0.791414
v -1.473354 -0.120000 -0.805551
v -1.466934 -0.120000 -0.819124
v -1.459215 -0.120000 -0.832002
v -1.450271 -0.120000 -0.844062
v -1.440187 -0.120000 -0.855187
v -1.429062 -0.120000 -0.865271
v -1.417002 -0.120000 -0.874215
v -1.404124 -0.120000 -0.881934
v -1.390551 -0.120000 -0.888354
v -1.376414 -0.120000 -0.893412
v -1.361849 -0.120000 -0.897060
v -1.346997 -0.120000 -0.899263
v -1.332000 -0.120000 -0.900000
v 1.332000 -0.120000 -0.900000
v 1.346997 -0.120000 -0.899263
v 1.361849 -0.120000 -0.897060
v 1.376414 -0.120000 -0.893412
v 1.390551 -0.120000 -0.888354
v 1.404124 -0.120000 -0.881934
v 1.417002 -0.120000 -0.874215
v 1.429062 -0.120000 -0.865271
v 1.440187 -0.120000 -0.855187
v 1.450271 -0.120000 -0.844062
v 1.459215 -0.120000 -0.832002
v 1.466934 -0.120000 -0.819124
v 1.473354 -0.120000 -0.805551
v 1.478412 -0.120000 -0.791414
v 1.482060 -0.120000 -0.776849
v 1.484263 -0.120000 -0.761997
v 1.485000 -0.120000 -0.747000
v 1.650000 -0.070000 0.830000
v 1.649181 -0.070000 0.846663
v 1.646733 -0.070000 0.863165
v 1.642680 -0.070000 0.879348
v 1.637060 -0.070000 0.895056
v 1.629927 -0.070000 0.910137
v 1.621350 -0.070000 0.924447
v 1.611412 -0.070000 0.937847
v 1.600208 -0.070000 0.950208
v 1.587847 -0.070000 0.961412
v 1.574447 -0.070000 0.971350
v 1.560137 -0.070000 0.979927
v 1.545056 -0.070000 0.987060
v 1.529348 -0.070000 0.992680
v 1.513165 -0.070000 0.996733
v 1.496663 -0.070000 0.999181
v 1.480000 -0.070000 1.000000
v -1.480000 -0.070000 1.000000
v -1.496663 -0.070000 0.999181
v -1.513165 -0.070000 0.996733
v -1.529348 -0.070000 0.992680
v -1.545056 -0.070000 0.987060
v -1.560137 -0.070000 0.979927
v -1.574447 -0.070000 0.971350
v -1.587847 -0.070000 0.961412
v -1.600208 -0.070000 0.950208
v -1.611412 -0.070000 0.937847
v -1.621350 -0.070000 0.924447
v -1.629927 -0.070000 0.910137
v -1.637060 -0.070000 0.895056
v -1.642680 -0.070000 0.879348
v -1.646733 -0.070000 0.863165
v -1.649181 -0.070000 0.846663
v -1.650000 -0.070000 0.830000
v -1.650000 -0.070000 -0.830000
v -1.649181 -0.070000 -0.846663
v -1.646733 -0.070000 -0.863165
v -1.642680 -0.070000 -0.879348
v -1.637060 -0.070000 -0.895056
v -1.629927 -0.070000 -0.910137
v -1.621350 -0.070000 -0.924447
v -1.611412 -0.070000 -0.937847
v -1.600208 -0.070000 -0.950208
v -1.587847 -0.070000 -0.961412
v -1.574447 -0.070000 -0.971350
v -1.560137 -0.070000 -0.979927
v -1.545056 -0.070000 -0.987060
v -1.529348 -0.070000 -0.992680
v -1.513165 -0.070000 -0.996733
v -1.496663 -0.070000 -0.999181
v -1.480000 -0.070000 -1.000000
v 1.480000 -0.070000 -1.000000
v 1.496663 -0.070000 -0.999181
v 1.513165 -0.070000 -0.996733
v 1.529348 -0.070000 -0.992680
v 1.545056 -0.070000 -0.987060
v 1.560137 -0.070000 -0.979927
v 1.574447 -0.070000 -0.971350
v 1.587847 -0.070000 -0.961412
v 1.600208 -0.070000 -0.950208
v 1.611412 -0.070000 -0.937847
v 1.621350 -0.070000 -0.924447
v 1.629927 -0.070000 -0.910137
v 1.637060 -0.070000 -0.895056
v 1.642680 -0.070000 -0.879348
v 1.646733 -0.070000 -0.863165
v 1.649181 -0.070000 -0.846663
v 1.650000 -0.070000 -0.830000
v 0.000000 0.085000 0.000000
v 0.000000 -0.085000 0.000000
v 1.650000 0.070000 0.830000
v 1.650000 -0.070000 0.830000
v 1.649181 0.070000 0.846663
v 1.649181 -0.070000 0.846663
v 1.646733 0.070000 0.863165
v 1.646733 -0.070000 0.863165
v 1.642680 0.070000 0.879348
v 1.642680 -0.070000 0.879348
v 1.637060 0.070000 0.895056
v 1.637060 -0.070000 0.895056
v 1.629927 0.070000 0.910137
v 1.629927 -0.070000 0.910137
v 1.621350 0.070000 0.924447
v 1.621350 -0.070000 0.924447
v 1.611412 0.070000 0.937847
v 1.611412 -0.070000 0.937847
v 1.600208 0.070000 0.950208
v 1.600208 -0.070000 0.950208
v 1.587847 0.070000 0.961412
v 1.587847 -0.070000 0.961412
v 1.574447 0.070000 0.971350
v 1.574447 -0.070000 0.971350
v 1.560137 0.070000 0.979927
v 1.560137 -0.070000 0.979927
v 1.545056 0.070000 0.987060
v 1.545056 -0.070000 0.987060
v 1.529348 0.070000 0.992680
v 1.529348 -0.070000 0.992680
v 1.513165 0.070000 0.996733
v 1.513165 -0.070000 0.996733
v 1.496663 0.070000 0.999181
v 1.496663 -0.070000 0.999181
v 1.480000 0.070000 1.000000
v 1.480000 -0.070000 1.000000
v -1.480000 0.070000 1.000000
v -1.480000 -0.070000 1.000000
v -1.496663 0.070000 0.999181
v -1.496663 -0.070000 0.999181
v -1.513165 0.070000 0.996733
v -1.513165 -0.070000 0.996733
v -1.529348 0.070000 0.992680
v -1.529348 -0.070000 0.992680
v -1.545056 0.070000 0.987060
v -1.545056 -0.070000 0.987060
v -1.560137 0.070000 0.979927
v -1.560137 -0.070000 0.979927
v -1.574447 0.070000 0.971350
v -1.574447 -0.070000 0.971350
v -1.587847 0.070000 0.961412
v -1.587847 -0.070000 0.961412
v -1.600208 0.070000 0.950208
v -1.600208 -0.070000 0.950208
v -1.611412 0.070000 0.937847
v -1.611412 -0.070000 0.937847
v -1.621350 0.070000 0.924447
v -1.621350 -0.070000 0.924447
v -1.629927 0.070000 0.910137
v -1.629927 -0.070000 0.910137
v -1.637060 0.070000 0.895056
v -1.637060 -0.070000 0.895056
v -1.642680 0.070000 0.879348
v -1.642680 -0.070000 0.879348
v -1.646733 0.070000 0.863165
v -1.646733 -0.070000 0.863165
v -1.649181 0.070000 0.846663
v -1.649181 -0.070000 0.846663
v -1.650000 0.070000 0.830000
v -1.650000 -0.070000 0.830000
v -1.650000 0.070000 -0.830000
v -1.650000 -0.070000 -0.830000
v -1.649181 0.070000 -0.846663
v -1.649181 -0.070000 -0.846663
v -1.646733 0.070000 -0.863165
v -1.646733 -0.070000 -0.863165
v -1.642680 0.070000 -0.879348
v -1.642680 -0.070000 -0.879348
v -1.637060 0.070000 -0.895056
v -1.637060 -0.070000 -0.895056
v -1.629927 0.070000 -0.910137
v -1.629927 -0.070000 -0.910137
v -1.621350 0.070000 -0.924447
v -1.621350 -0.070000 -0.924447
v -1.611412 0.070000 -0.937847
v -1.611412 -0.070000 -0.937847
v -1.600208 0.070000 -0.950208
v -1.600208 -0.070000 -0.950208
v -1.587847 0.070000 -0.961412
v -1.587847 -0.070000 -0.961412
v -1.574447 0.070000 -0.971350
v -1.574447 -0.070000 -0.971350
v -1.560137 0.070000 -0.979927
v -1.560137 -0.070000 -0.979927
v -1.545056 0.070000 -0.987060
v -1.545056 -0.070000 -0.987060
v -1.529348 0.070000 -0.992680
v -1.529348 -0.070000 -0.992680
v -1.513165 0.070000 -0.996733
v -1.513165 -0.070000 -0.996733
v -1.496663 0.070000 -0.999181
v -1.496663 -0.070000 -0.999181
v -1.480000 0.070000 -1.000000
v -1.480000 -0.070000 -1.000000
v 1.480000 0.070000 -1.000000
v 1.480000 -0.070000 -1.000000
v 1.496663 0.070000 -0.999181
v 1.496663 -0.070000 -0.999181
v 1.513165 0.070000 -0.996733
v 1.513165 -0.070000 -0.996733
v 1.529348 0.070000 -0.992680
v 1.529348 -0.070000 -0.992680
v 1.545056 0.070000 -0.987060
v 1.545056 -0.070000 -0.987060
v 1.560137 0.070000 -0.979927
v 1.560137 -0.070000 -0.979927
v 1.574447 0.070000 -0.971350
v 1.574447 -0.070000 -0.971350
v 1.587847 0.070000 -0.961412
v 1.587847 -0.070000 -0.961412
v 1.600208 0.070000 -0.950208
v 1.600208 -0.070000 -0.950208
v 1.611412 0.070000 -0.937847
v 1.611412 -0.070000 -0.937847
v 1.621350 0.070000 -0.924447
v 1.621350 -0.070000 -0.924447
v 1.629927 0.070000 -0.910137
v 1.629927 -0.070000 -0.910137
v 1.637060 0.070000 -0.895056
v 1.637060 -0.070000 -0.895056
v 1.642680 0.070000 -0.879348
v 1.642680 -0.070000 -0.879348
v 1.646733 0.070000 -0.863165
v 1.646733 -0.070000 -0.863165
v 1.649181 0.070000 -0.846663
v 1.649181 -0.070000 -0.846663
v 1.650000 0.070000 -0.830000
v 1.650000 -0.070000 -0.830000
v 1.650000 0.070000 0.830000
v 1.650000 -0.070000 0.830000
vt 0.071875 0.836242
vt 0.071963 0.837974
vt 0.072228 0.839688
vt 0.072665 0.841370
vt 0.073272 0.843002
vt 0.074042 0.844569
vt 0.074968 0.846056
vt 0.076041 0.847448
vt 0.077250 0.848733
vt 0.078585 0.849897
vt 0.080031 0.850929
vt 0.081576 0.851820
vt 0.083204 0.852562
vt 0.084900 0.853146
vt 0.086647 0.853567
vt 0.088428 0.853821
vt 0.090227 0.853906
vt 0.409773 0.853906
vt 0.411572 0.853821
vt 0.413353 0.853567
vt 0.415100 0.853146
vt 0.416796 0.852562
vt 0.418424 0.851820
vt 0.419969 0.850929
vt 0.421415 0.849897
vt 0.422750 0.848733
vt 0.423959 0.847448
vt 0.425032 0.846056
vt 0.425958 0.844569
vt 0.426728 0.843002
vt 0.427335 0.841370
vt 0.427772 0.839688
vt 0.428037 0.837974
vt 0.428125 0.836242
vt 0.428125 0.663758
vt 0.428037 0.662026
vt 0.427772 0.660312
vt 0.427335 0.658630
vt 0.426728 0.656998
vt 0.425958 0.655431
vt 0.425032 0.653944
vt 0.423959 0.652552
vt 0.422750 0.651267
vt 0.421415 0.650103
vt 0.419969 0.649071
vt 0.418424 0.648180
vt 0.416796 0.647438
vt 0.415100 0.646854
vt 0.413353 0.646433
vt 0.411572 0.646179
vt 0.409773 0.646094
vt 0.090227 0.646094
vt 0.088428 0.646179
vt 0.086647 0.646433
vt 0.084900 0.646854
vt 0.083204 0.647438
vt 0.081576 0.648180
vt 0.080031 0.649071
vt 0.078585 0.650103
vt 0.077250 0.651267
vt 0.076041 0.652552
vt 0.074968 0.653944
vt 0.074042 0.655431
vt 0.073272 0.656998
vt 0.072665 0.658630
vt 0.072228 0.660312
vt 0.071963 0.662026
vt 0.071875 0.663758
vt 0.062500 0.840781
vt 0.062593 0.842604
vt 0.062871 0.844409
vt 0.063332 0.846179
vt 0.063971 0.847897
vt 0.064781 0.849546
vt 0.065756 0.851111
vt 0.066885 0.852577
vt 0.068158 0.853929
vt 0.069563 0.855154
vt 0.071086 0.856241
vt 0.072712 0.857179
vt 0.074425 0.857960
vt 0.076210 0.858574
vt 0.078049 0.859018
vt 0.079925 0.859285
vt 0.081818 0.859375
vt 0.418182 0.859375
vt 0.420075 0.859285
vt 0.421951 0.859018
vt 0.423790 0.858574
vt 0.425575 0.857960
vt 0.427288 0.857179
vt 0.428914 0.856241
vt 0.430437 0.855154
vt 0.431842 0.853929
vt 0.433115 0.852577
vt 0.434244 0.851111
vt 0.435219 0.849546
vt 0.436029 0.847897
vt 0.436668 0.846179
vt 0.437129 0.844409
vt 0.437407 0.842604
vt 0.437500 0.840781
vt 0.437500 0.659219
vt 0.437407 0.657396
vt 0.437129 0.655591
vt 0.436668 0.653821
vt 0.436029 0.652103
vt 0.435219 0.650454
vt 0.434244 0.648889
vt 0.433115 0.647423
vt 0.431842 0.646071
vt 0.430437 0.644846
vt 0.428914 0.643759
vt 0.427288 0.642821
vt 0.425575 0.642040
vt 0.423790 0.641426
vt 0.421951 0.640982
vt 0.420075 0.640715
vt 0.418182 0.640625
vt 0.081818 0.640625
vt 0.079925 0.640715
vt 0.078049 0.640982
vt 0.076210 0.641426
vt 0.074425 0.642040
vt 0.072712 0.642821
vt 0.071086 0.643759
vt 0.069563 0.644846
vt 0.068158 0.646071
vt 0.066885 0.647423
vt 0.065756 0.648889
vt 0.064781 0.650454
vt 0.063971 0.652103
vt 0.063332 0.653821
vt 0.062871 0.655591
vt 0.062593 0.657396
vt 0.062500 0.659219
vt 0.039062 0.852129
vt 0.039167 0.854179
vt 0.039480 0.856210
vt 0.039998 0.858201
vt 0.040717 0.860134
vt 0.041629 0.861990
vt 0.042725 0.863750
vt 0.043996 0.865399
vt 0.045428 0.866920
vt 0.047008 0.868299
vt 0.048721 0.869522
vt 0.050551 0.870577
vt 0.052479 0.871455
vt 0.054487 0.872146
vt 0.056556 0.872645
vt 0.058665 0.872946
vt 0.060795 0.873047
vt 0.439205 0.873047
vt 0.441335 0.872946
vt 0.443444 0.872645
vt 0.445513 0.872146
vt 0.447521 0.871455
vt 0.449449 0.870577
vt 0.451279 0.869522
vt 0.452992 0.868299
vt 0.454572 0.866920
vt 0.456004 0.865399
vt 0.457275 0.863750
vt 0.458371 0.861990
vt 0.459283 0.860134
vt 0.460002 0.858201
vt 0.460520 0.856210
vt 0.460833 0.854179
vt 0.460938 0.852129
vt 0.460938 0.647871
vt 0.460833 0.645821
vt 0.460520 0.643790
vt 0.460002 0.641799
vt 0.459283 0.639866
vt 0.458371 0.638010
vt 0.457275 0.636250
vt 0.456004 0.634601
vt 0.454572 0.633080
vt 0.452992 0.631701
vt 0.451279 0.630478
vt 0.449449 0.629423
vt 0.447521 0.628545
vt 0.445513 0.627854
vt 0.443444 0.627355
vt 0.441335 0.627054
vt 0.439205 0.626953
vt 0.060795 0.626953
vt 0.058665 0.627054
vt 0.056556 0.627355
vt 0.054487 0.627854
vt 0.052479 0.628545
vt 0.050551 0.629423
vt 0.048721 0.630478
vt 0.047008 0.631701
vt 0.045428 0.633080
vt 0.043996 0.634601
vt 0.042725 0.636250
vt 0.041629 0.638010
vt 0.040717 0.639866
vt 0.039998 0.641799
vt 0.039480 0.643790
vt 0.039167 0.645821
vt 0.039062 0.647871
vt 0.015625 0.863477
vt 0.015741 0.865755
vt 0.016089 0.868011
vt 0.016665 0.870223
vt 0.017463 0.872371
vt 0.018476 0.874433
vt 0.019695 0.876389
vt 0.021106 0.878221
vt 0.022698 0.879911
vt 0.024454 0.881443
vt 0.026357 0.882802
vt 0.028390 0.883974
vt 0.030532 0.884950
vt 0.032763 0.885718
vt 0.035062 0.886272
vt 0.037406 0.886607
vt 0.039773 0.886719
vt 0.460227 0.886719
vt 0.462594 0.886607
vt 0.464938 0.886272
vt 0.467237 0.885718
vt 0.469468 0.884950
vt 0.471610 0.883974
vt 0.473643 0.882802
vt 0.475546 0.881443
vt 0.477302 0.879911
vt 0.478894 0.878221
vt 0.480305 0.876389
vt 0.481524 0.874433
vt 0.482537 0.872371
vt 0.483335 0.870223
vt 0.483911 0.868011
vt 0.484259 0.865755
vt 0.484375 0.863477
vt 0.484375 0.636523
vt 0.484259 0.634245
vt 0.483911 0.631989
vt 0.483335 0.629777
vt 0.482537 0.627629
vt 0.481524 0.625567
vt 0.480305 0.623611
vt 0.478894 0.621779
vt 0.477302 0.620089
vt 0.475546 0.618557
vt 0.473643 0.617198
vt 0.471610 0.616026
vt 0.469468 0.615050
vt 0.467237 0.614282
vt 0.464938 0.613728
vt 0.462594 0.613393
vt 0.460227 0.613281
vt 0.039773 0.613281
vt 0.037406 0.613393
vt 0.035062 0.613728
vt 0.032763 0.614282
vt 0.030532 0.615050
vt 0.028390 0.616026
vt 0.026357 0.617198
vt 0.024454 0.618557
vt 0.022698 0.620089
vt 0.021106 0.621779
vt 0.019695 0.623611
vt 0.018476 0.625567
vt 0.017463 0.627629
vt 0.016665 0.629777
vt 0.016089 0.631989
vt 0.015741 0.634245
vt 0.015625 0.636523
vt 0.928125 0.836242
vt 0.928037 0.837974
vt 0.927772 0.839688
vt 0.927335 0.841370
vt 0.926728 0.843002
vt 0.925958 0.844569
vt 0.925032 0.846056
vt 0.923959 0.847448
vt 0.922750 0.848733
vt 0.921415 0.849897
vt 0.919969 0.850929
vt 0.918424 0.851820
vt 0.916796 0.852562
vt 0.915100 0.853146
vt 0.913353 0.853567
vt 0.911572 0.853821
vt 0.909773 0.853906
vt 0.590227 0.853906
vt 0.588428 0.853821
vt 0.586647 0.853567
vt 0.584900 0.853146
vt 0.583204 0.852562
vt 0.581576 0.851820
vt 0.580031 0.850929
vt 0.578585 0.849897
vt 0.577250 0.848733
vt 0.576041 0.847448
vt 0.574968 0.846056
vt 0.574042 0.844569
vt 0.573272 0.843002
vt 0.572665 0.841370
vt 0.572228 0.839688
vt 0.571963 0.837974
vt 0.571875 0.836242
vt 0.571875 0.663758
vt 0.571963 0.662026
vt 0.572228 0.660312
vt 0.572665 0.658630
vt 0.573272 0.656998
vt 0.574042 0.655431
vt 0.574968 0.653944
vt 0.576041 0.652552
vt 0.577250 0.651267
vt 0.578585 0.650103
vt 0.580031 0.649071
vt 0.581576 0.648180
vt 0.583204 0.647438
vt 0.584900 0.646854
vt 0.586647 0.646433
vt 0.588428 0.646179
vt 0.590227 0.646094
vt 0.909773 0.646094
vt 0.911572 0.646179
vt 0.913353 0.646433
vt 0.915100 0.646854
vt 0.916796 0.647438
vt 0.918424 0.648180
vt 0.919969 0.649071
vt 0.921415 0.650103
vt 0.922750 0.651267
vt 0.923959 0.652552
vt 0.925032 0.653944
vt 0.925958 0.655431
vt 0.926728 0.656998
vt 0.927335 0.658630
vt 0.927772 0.660312
vt 0.928037 0.662026
vt 0.928125 0.663758
vt 0.937500 0.840781
vt 0.937407 0.842604
vt 0.937129 0.844409
vt 0.936668 0.846179
vt 0.936029 0.847897
vt 0.935219 0.849546
vt 0.934244 0.851111
vt 0.933115 0.852577
vt 0.931842 0.853929
vt 0.930437 0.855154
vt 0.928914 0.856241
vt 0.927288 0.857179
vt 0.925575 0.857960
vt 0.923790 0.858574
vt 0.921951 0.859018
vt 0.920075 0.859285
vt 0.918182 0.859375
vt 0.581818 0.859375
vt 0.579925 0.859285
vt 0.578049 0.859018
vt 0.576210 0.858574
vt 0.574425 0.857960
vt 0.572712 0.857179
vt 0.571086 0.856241
vt 0.569563 0.855154
vt 0.568158 0.853929
vt 0.566885 0.852577
vt 0.565756 0.851111
vt 0.564781 0.849546
vt 0.563971 0.847897
vt 0.563332 0.846179
vt 0.562871 0.844409
vt 0.562593 0.842604
vt 0.562500 0.840781
vt 0.562500 0.659219
vt 0.562593 0.657396
vt 0.562871 0.655591
vt 0.563332 0.653821
vt 0.563971 0.652103
vt 0.564781 0.650454
vt 0.565756 0.648889
vt 0.566885 0.647423
vt 0.568158 0.646071
vt 0.569563 0.644846
vt 0.571086 0.643759
vt 0.572712 0.642821
vt 0.574425 0.642040
vt 0.576210 0.641426
vt 0.578049 0.640982
vt 0.579925 0.640715
vt 0.581818 0.640625
vt 0.918182 0.640625
vt 0.920075 0.640715
vt 0.921951 0.640982
vt 0.923790 0.641426
vt 0.925575 0.642040
vt 0.927288 0.642821
vt 0.928914 0.643759
vt 0.930437 0.644846
vt 0.931842 0.646071
vt 0.933115 0.647423
vt 0.934244 0.648889
vt 0.935219 0.650454
vt 0.936029 0.652103
vt 0.936668 0.653821
vt 0.937129 0.655591
vt 0.937407 0.657396
vt 0.937500 0.659219
vt 0.960938 0.852129
vt 0.960833 0.854179
vt 0.960520 0.856210
vt 0.960002 0.858201
vt 0.959283 0.860134
vt 0.958371 0.861990
vt 0.957275 0.863750
vt 0.956004 0.865399
vt 0.954572 0.866920
vt 0.952992 0.868299
vt 0.951279 0.869522
vt 0.949449 0.870577
vt 0.947521 0.871455
vt 0.945513 0.872146
vt 0.943444 0.872645
vt 0.941335 0.872946
vt 0.939205 0.873047
vt 0.560795 0.873047
vt 0.558665 0.872946
vt 0.556556 0.872645
vt 0.554487 0.872146
vt 0.552479 0.871455
vt 0.550551 0.870577
vt 0.548721 0.869522
vt 0.547008 0.868299
vt 0.545428 0.866920
vt 0.543996 0.865399
vt 0.542725 0.863750
vt 0.541629 0.861990
vt 0.540717 0.860134
vt 0.539998 0.858201
vt 0.539480 0.856210
vt 0.539167 0.854179
vt 0.539062 0.852129
vt 0.539062 0.647871
vt 0.539167 0.645821
vt 0.539480 0.643790
vt 0.539998 0.641799
vt 0.540717 0.639866
vt 0.541629 0.638010
vt 0.542725 0.636250
vt 0.543996 0.634601
vt 0.545428 0.633080
vt 0.547008 0.631701
vt 0.548721 0.630478
vt 0.550551 0.629423
vt 0.552479 0.628545
vt 0.554487 0.627854
vt 0.556556 0.627355
vt 0.558665 0.627054
vt 0.560795 0.626953
vt 0.939205 0.626953
vt 0.941335 0.627054
vt 0.943444 0.627355
vt 0.945513 0.627854
vt 0.947521 0.628545
vt 0.949449 0.629423
vt 0.951279 0.630478
vt 0.952992 0.631701
vt 0.954572 0.633080
vt 0.956004 0.634601
vt 0.957275 0.636250
vt 0.958371 0.638010
vt 0.959283 0.639866
vt 0.960002 0.641799
vt 0.960520 0.643790
vt 0.960833 0.645821
vt 0.960938 0.647871
vt 0.984375 0.863477
vt 0.984259 0.865755
vt 0.983911 0.868011
vt 0.983335 0.870223
vt 0.982537 0.872371
vt 0.981524 0.874433
vt 0.980305 0.876389
vt 0.978894 0.878221
vt 0.977302 0.879911
vt 0.975546 0.881443
vt 0.973643 0.882802
vt 0.971610 0.883974
vt 0.969468 0.884950
vt 0.967237 0.885718
vt 0.964938 0.886272
vt 0.962594 0.886607
vt 0.960227 0.886719
vt 0.539773 0.886719
vt 0.537406 0.886607
vt 0.535062 0.886272
vt 0.532763 0.885718
vt 0.530532 0.884950
vt 0.528390 0.883974
vt 0.526357 0.882802
vt 0.524454 0.881443
vt 0.522698 0.879911
vt 0.521106 0.878221
vt 0.519695 0.876389
vt 0.518476 0.874433
vt 0.517463 0.872371
vt 0.516665 0.870223
vt 0.516089 0.868011
vt 0.515741 0.865755
vt 0.515625 0.863477
vt 0.515625 0.636523
vt 0.515741 0.634245
vt 0.516089 0.631989
vt 0.516665 0.629777
vt 0.517463 0.627629
vt 0.518476 0.625567
vt 0.519695 0.623611
vt 0.521106 0.621779
vt 0.522698 0.620089
vt 0.524454 0.618557
vt 0.526357 0.617198
vt 0.528390 0.616026
vt 0.530532 0.615050
vt 0.532763 0.614282
vt 0.535062 0.613728
vt 0.537406 0.613393
vt 0.539773 0.613281
vt 0.960227 0.613281
vt 0.962594 0.613393
vt 0.964938 0.613728
vt 0.967237 0.614282
vt 0.969468 0.615050
vt 0.971610 0.616026
vt 0.973643 0.617198
vt 0.975546 0.618557
vt 0.977302 0.620089
vt 0.978894 0.621779
vt 0.980305 0.623611
vt 0.981524 0.625567
vt 0.982537 0.627629
vt 0.983335 0.629777
vt 0.983911 0.631989
vt 0.984259 0.634245
vt 0.984375 0.636523
vt 0.250000 0.750000
vt 0.750000 0.750000
vt 0.000000 0.395833
vt 0.000000 0.104167
vt 0.014706 0.395833
vt 0.014706 0.104167
vt 0.029412 0.395833
vt 0.029412 0.104167
vt 0.044118 0.395833
vt 0.044118 0.104167
vt 0.058824 0.395833
vt 0.058824 0.104167
vt 0.073529 0.395833
vt 0.073529 0.104167
vt 0.088235 0.395833
vt 0.088235 0.104167
vt 0.102941 0.395833
vt 0.102941 0.104167
vt 0.117647 0.395833
vt 0.117647 0.104167
vt 0.132353 0.395833
vt 0.132353 0.104167
vt 0.147059 0.395833
vt 0.147059 0.104167
vt 0.161765 0.395833
vt 0.161765 0.104167
vt 0.176471 0.395833
vt 0.176471 0.104167
vt 0.191176 0.395833
vt 0.191176 0.104167
vt 0.205882 0.395833
vt 0.205882 0.104167
vt 0.220588 0.395833
vt 0.220588 0.104167
vt 0.235294 0.395833
vt 0.235294 0.104167
vt 0.250000 0.395833
vt 0.250000 0.104167
vt 0.264706 0.395833
vt 0.264706 0.104167
vt 0.279412 0.395833
vt 0.279412 0.104167
vt 0.294118 0.395833
vt 0.294118 0.104167
vt 0.308824 0.395833
vt 0.308824 0.104167
vt 0.323529 0.395833
vt 0.323529 0.104167
vt 0.338235 0.395833
vt 0.338235 0.104167
vt 0.352941 0.395833
vt 0.352941 0.104167
vt 0.367647 0.395833
vt 0.367647 0.104167
vt 0.382353 0.395833
vt 0.382353 0.104167
vt 0.397059 0.395833
vt 0.397059 0.104167
vt 0.411765 0.395833
vt 0.411765 0.104167
vt 0.426471 0.395833
vt 0.426471 0.104167
vt 0.441176 0.395833
vt 0.441176 0.104167
vt 0.455882 0.395833
vt 0.455882 0.104167
vt 0.470588 0.395833
vt 0.470588 0.104167
vt 0.485294 0.395833
vt 0.485294 0.104167
vt 0.500000 0.395833
vt 0.500000 0.104167
vt 0.514706 0.395833
vt 0.514706 0.104167
vt 0.529412 0.395833
vt 0.529412 0.104167
vt 0.544118 0.395833
vt 0.544118 0.104167
vt 0.558824 0.395833
vt 0.558824 0.104167
vt 0.573529 0.395833
vt 0.573529 0.104167
vt 0.588235 0.395833
vt 0.588235 0.104167
vt 0.602941 0.395833
vt 0.602941 0.104167
vt 0.617647 0.395833
vt 0.617647 0.104167
vt 0.632353 0.395833
vt 0.632353 0.104167
vt 0.647059 0.395833
vt 0.647059 0.104167
vt 0.661765 0.395833
vt 0.661765 0.104167
vt 0.676471 0.395833
vt 0.676471 0.104167
vt 0.691176 0.395833
vt 0.691176 0.104167
vt 0.705882 0.395833
vt 0.705882 0.104167
vt 0.720588 0.395833
vt 0.720588 0.104167
vt 0.735294 0.395833
vt 0.735294 0.104167
vt 0.750000 0.395833
vt 0.750000 0.104167
vt 0.764706 0.395833
vt 0.764706 0.104167
vt 0.779412 0.395833
vt 0.779412 0.104167
vt 0.794118 0.395833
vt 0.794118 0.104167
vt 0.808824 0.395833
vt 0.808824 0.104167
vt 0.823529 0.395833
vt 0.823529 0.104167
vt 0.838235 0.395833
vt 0.838235 0.104167
vt 0.852941 0.395833
vt 0.852941 0.104167
vt 0.867647 0.395833
vt 0.867647 0.104167
vt 0.882353 0.395833
vt 0.882353 0.104167
vt 0.897059 0.395833
vt 0.897059 0.104167
vt 0.911765 0.395833
vt 0.911765 0.104167
vt 0.926471 0.395833
vt 0.926471 0.104167
vt 0.941176 0.395833
vt 0.941176 0.104167
vt 0.955882 0.395833
vt 0.955882 0.104167
vt 0.970588 0.395833
vt 0.970588 0.104167
vt 0.985294 0.395833
vt 0.985294 0.104167
vt 1.000000 0.395833
vt 1.000000 0.104167
f 545/545 2/2 1/1
f 546/546 273/273 274/274
f 1/1 2/2 70/70
f 1/1 70/70 69/69
f 273/273 341/341 342/342
f 273/273 342/342 274/274
f 69/69 70/70 138/138
f 69/69 138/138 137/137
f 341/341 409/409 410/410
f 341/341 410/410 342/342
f 137/137 138/138 206/206
f 137/137 206/206 205/205
f 409/409 477/477 478/478
f 409/409 478/478 410/410
f 545/545 3/3 2/2
f 546/546 274/274 275/275
f 2/2 3/3 71/71
f 2/2 71/71 70/70
f 274/274 342/342 343/343
f 274/274 343/343 275/275
f 70/70 71/71 139/139
f 70/70 139/139 138/138
f 342/342 410/410 411/411
f 342/342 411/411 343/343
f 138/138 139/139 207/207
f 138/138 207/207 206/206
f 410/410 478/478 479/479
f 410/410 479/479 411/411
f 545/545 4/4 3/3
f 546/546 275/275 276/276
f 3/3 4/4 72/72
f 3/3 72/72 71/71
f 275/275 343/343 344/344
f 275/275 344/344 276/276
f 71/71 72/72 140/140
f 71/71 140/140 139/139
f 343/343 411/411 412/412
f 343/343 412/412 344/344
f 139/139 140/140 208/208
f 139/139 208/208 207/207
f 411/411 479/479 480/480
f 411/411 480/480 412/412
f 545/545 5/5 4/4
f 546/546 276/276 277/277
f 4/4 5/5 73/73
f 4/4 73/73 72/72
f 276/276 344/344 345/345
f 276/276 345/345 277/277
f 72/72 73/73 141/141
f 72/72 141/141 140/140
f 344/344 412/412 413/413
f 344/344 413/413 345/345
f 140/140 141/141 209/209
f 140/140 209/209 208/208
f 412/412 480/480 481/481
f 412/412 481/481 413/413
f 545/545 6/6 5/5
f 546/546 277/277 278/278
f 5/5 6/6 74/74
f 5/5 74/74 73/73
f 277/277 345/345 346/346
f 277/277 346/346 278/278
f 73/73 74/74 142/142
f 73/73 142/142 141/141
f 345/345 413/413 414/414
f 345/345 414/414 346/346
f 141/141 142/142 210/210
f 141/141 210/210 209/209
f 413/413 481/481 482/482
f 413/413 482/482 414/414
f 545/545 7/7 6/6
f 546/546 278/278 279/279
f 6/6 7/7 75/75
f 6/6 75/75 74/74
f 278/278 346/346 347/347
f 278/278 347/347 279/279
f 74/74 75/75 143/143
f 74/74 143/143 142/142
f 346/346 414/414 415/415
f 346/346 415/415 347/347
f 142/142 143/143 211/211
f 142/142 211/211 210/210
f 414/414 482/482 483/483
f 414/414 483/483 415/415
f 545/545 8/8 7/7
f 546/546 279/279 280/280
f 7/7 8/8 76/76
f 7/7 76/76 75/75
f 279/279 347/347 348/348
f 279/279 348/348 280/280
f 75/75 76/76 144/144
f 75/75 144/144 143/143
f 347/347 415/415 416/416
f 347/347 416/416 348/348
f 143/143 144/144 212/212
f 143/143 212/212 211/211
f 415/415 483/483 484/484
f 415/415 484/484 416/416
f 545/545 9/9 8/8
f 546/546 280/280 281/281
f 8/8 9/9 77/77
f 8/8 77/77 76/76
f 280/280 348/348 349/349
f 280/280 349/349 281/281
f 76/76 77/77 145/145
f 76/76 145/145 144/144
f 348/348 416/416 417/417
f 348/348 417/417 349/349
f 144/144 145/145 213/213
f 144/144 213/213 212/212
f 416/416 484/484 485/485
f 416/416 485/485 417/417
f 545/545 10/10 9/9
f 546/546 281/281 282/282
f 9/9 10/10 78/78
f 9/9 78/78 77/77
f 281/281 349/349 350/350
f 281/281 350/350 282/282
f 77/77 78/78 146/146
f 77/77 146/146 145/145
f 349/349 417/417 418/418
f 349/349 418/418 350/350
f 145/145 146/146 214/214
f 145/145 214/214 213/213
f 417/417 485/485 486/486
f 417/417 486/486 418/418
f 545/545 11/11 10/10
f 546/546 282/282 283/283
f 10/10 11/11 79/79
f 10/10 79/79 78/78
f 282/282 350/350 351/351
f 282/282 351/351 283/283
f 78/78 79/79 147/147
f 78/78 147/147 146/146
f 350/350 418/418 419/419
f 350/350 419/419 351/351
f 146/146 147/147 215/215
f 146/146 215/215 214/214
f 418/418 486/486 487/487
f 418/418 487/487 419/419
f 545/545 12/12 11/11
f 546/546 283/283 284/284
f 11/11 12/12 80/80
f 11/11 80/80 79/79
f 283/283 351/351 352/352
f 283/283 352/352 284/284
f 79/79 80/80 148/148
f 79/79 148/148 147/147
f 351/351 419/419 420/420
f 351/351 420/420 352/352
f 147/147 148/148 216/216
f 147/147 216/216 215/215
f 419/419 487/487 488/488
f 419/419 488/488 420/420
f 545/545 13/13 12/12
f 546/546 284/284 285/285
f 12/12 13/13 81/81
f 12/12 81/81 80/80
f 284/284 352/352 353/353
f 284/284 353/353 285/285
f 80/80 81/81 149/149
f 80/80 149/149 148/148
f 352/352 420/420 421/421
f 352/352 421/421 353/353
f 148/148 149/149 217/217
f 148/148 217/217 216/216
f 420/420 488/488 489/489
f 420/420 489/489 421/421
f 545/545 14/14 13/13
f 546/546 285/285 286/286
f 13/13 14/14 82/82
f 13/13 82/82 81/81
f 285/285 353/353 354/354
f 285/285 354/354 286/286
f 81/81 82/82 150/150
f 81/81 150/150 149/149
f 353/353 421/421 422/422
f 353/353 422/422 354/354
f 149/149 150/150 218/218
f 149/149 218/218 217/217
f 421/421 489/489 490/490
f 421/421 490/490 422/422
f 545/545 15/15 14/14
f 546/546 286/286 287/287
f 14/14 15/15 83/83
f 14/14 83/83 82/82
f 286/286 354/354 355/355
f 286/286 355/355 287/287
f 82/82 83/83 151/151
f 82/82 151/151 150/150
f 354/354 422/422 423/423
f 354/354 423/423 355/355
f 150/150 151/151 219/219
f 150/150 219/219 218/218
f 422/422 490/490 491/491
f 422/422 491/491 423/423
f 545/545 16/16 15/15
f 546/546 287/287 288/288
f 15/15 16/16 84/84
f 15/15 84/84 83/83
f 287/287 355/355 356/356
f 287/287 356/356 288/288
f 83/83 84/84 152/152
f 83/83 152/152 151/151
f 355/355 423/423 424/424
f 355/355 424/424 356/356
f 151/151 152/152 220/220
f 151/151 220/220 219/219
f 423/423 491/491 492/492
f 423/423 492/492 424/424
f 545/545 17/17 16/16
f 546/546 288/288 289/289
f 16/16 17/17 85/85
f 16/16 85/85 84/84
f 288/288 356/356 357/357
f 288/288 357/357 289/289
f 84/84 85/85 153/153
f 84/84 153/153 152/152
f 356/356 424/424 425/425
f 356/356 425/425 357/357
f 152/152 153/153 221/221
f 152/152 221/221 220/220
f 424/424 492/492 493/493
f 424/424 493/493 425/425
f 545/545 18/18 17/17
f 546/546 289/289 290/290
f 17/17 18/18 86/86
f 17/17 86/86 85/85
f 289/289 357/357 358/358
f 289/289 358/358 290/290
f 85/85 86/86 154/154
f 85/85 154/154 153/153
f 357/357 425/425 426/426
f 357/357 426/426 358/358
f 153/153 154/154 222/222
f 153/153 222/222 221/221
f 425/425 493/493 494/494
f 425/425 494/494 426/426
f 545/545 19/19 18/18
f 546/546 290/290 291/291
f 18/18 19/19 87/87
f 18/18 87/87 86/86
f 290/290 358/358 359/359
f 290/290 359/359 291/291
f 86/86 87/87 155/155
f 86/86 155/155 154/154
f 358/358 426/426 427/427
f 358/358 427/427 359/359
f 154/154 155/155 223/223
f 154/154 223/223 222/222
f 426/426 494/494 495/495
f 426/426 495/495 427/427
f 545/545 20/20 19/19
f 546/546 291/291 292/292
f 19/19 20/20 88/88
f 19/19 88/88 87/87
f 291/291 359/359 360/360
f 291/291 360/360 292/292
f 87/87 88/88 156/156
f 87/87 156/156 155/155
f 359/359 427/427 428/428
f 359/359 428/428 360/360
f 155/155 156/156 224/224
f 155/155 224/224 223/223
f 427/427 495/495 496/496
f 427/427 496/496 428/428
f 545/545 21/21 20/20
f 546/546 292/292 293/293
f 20/20 21/21 89/89
f 20/20 89/89 88/88
f 292/292 360/360 361/361
f 292/292 361/361 293/293
f 88/88 89/89 157/157
f 88/88 157/157 156/156
f 360/360 428/428 429/429
f 360/360 429/429 361/361
f 156/156 157/157 225/225
f 156/156 225/225 224/224
f 428/428 496/496 497/497
f 428/428 497/497 429/429
f 545/545 22/22 21/21
f 546/546 293/293 294/294
f 21/21 22/22 90/90
f 21/21 90/90 89/89
f 293/293 361/361 362/362
f 293/293 362/362 294/294
f 89/89 90/90 158/158
f 89/89 158/158 157/157
f 361/361 429/429 430/430
f 361/361 430/430 362/362
f 157/157 158/158 226/226
f 157/157 226/226 225/225
f 429/429 497/497 498/498
f 429/429 498/498 430/430
f 545/545 23/23 22/22
f 546/546 294/294 295/295
f 22/22 23/23 91/91
f 22/22 91/91 90/90
f 294/294 362/362 363/363
f 294/294 363/363 295/295
f 90/90 91/91 159/159
f 90/90 159/159 158/158
f 362/362 430/430 431/431
f 362/362 431/431 363/363
f 158/158 159/159 227/227
f 158/158 227/227 226/226
f 430/430 498/498 499/499
f 430/430 499/499 431/431
f 545/545 24/24 23/23
f 546/546 295/295 296/296
f 23/23 24/24 92/92
f 23/23 92/92 91/91
f 295/295 363/363 364/364
f 295/295 364/364 296/296
f 91/91 92/92 160/160
f 91/91 160/160 159/159
f 363/363 431/431 432/432
f 363/363 432/432 364/364
f 159/159 160/160 228/228
f 159/159 228/228 227/227
f 431/431 499/499 500/500
f 431/431 500/500 432/432
f 545/545 25/25 24/24
f 546/546 296/296 297/297
f 24/24 25/25 93/93
f 24/24 93/93 92/92
f 296/296 364/364 365/365
f 296/296 365/365 297/297
f 92/92 93/93 161/161
f 92/92 161/161 160/160
f 364/364 432/432 433/433
f 364/364 433/433 365/365
f 160/160 161/161 229/229
f 160/160 229/229 228/228
f 432/432 500/500 501/501
f 432/432 501/501 433/433
f 545/545 26/26 25/25
f 546/546 297/297 298/298
f 25/25 26/26 94/94
f 25/25 94/94 93/93
f 297/297 365/365 366/366
f 297/297 366/366 298/298
f 93/93 94/94 162/162
f 93/93 162/162 161/161
f 365/365 433/433 434/434
f 365/365 434/434 366/366
f 161/161 162/162 230/230
f 161/161 230/230 229/229
f 433/433 501/501 502/502
f 433/433 502/502 434/434
f 545/545 27/27 26/26
f 546/546 298/298 299/299
f 26/26 27/27 95/95
f 26/26 95/95 94/94
f 298/298 366/366 367/367
f 298/298 367/367 299/299
f 94/94 95/95 163/163
f 94/94 163/163 162/162
f 366/366 434/434 435/435
f 366/366 435/435 367/367
f 162/162 163/163 231/231
f 162/162 231/231 230/230
f 434/434 502/502 503/503
f 434/434 503/503 435/435
f 545/545 28/28 27/27
f 546/546 299/299 300/300
f 27/27 28/28 96/96
f 27/27 96/96 95/95
f 299/299 367/367 368/368
f 299/299 368/368 300/300
f 95/95 96/96 164/164
f 95/95 164/164 163/163
f 367/367 435/435 436/436
f 367/367 436/436 368/368
f 163/163 164/164 232/232
f 163/163 232/232 231/231
f 435/435 503/503 504/504
f 435/435 504/504 436/436
f 545/545 29/29 28/28
f 546/546 300/300 301/301
f 28/28 29/29 97/97
f 28/28 97/97 96/96
f 300/300 368/368 369/369
f 300/300 369/369 301/301
f 96/96 97/97 165/165
f 96/96 165/165 164/164
f 368/368 436/436 437/437
f 368/368 437/437 369/369
f 164/164 165/165 233/233
f 164/164 233/233 232/232
f 436/436 504/504 505/505
f 436/436 505/505 437/437
f 545/545 30/30 29/29
f 546/546 301/301 302/302
f 29/29 30/30 98/98
f 29/29 98/98 97/97
f 301/301 369/369 370/370
f 301/301 370/370 302/302
f 97/97 98/98 166/166
f 97/97 166/166 165/165
f 369/369 437/437 438/438
f 369/369 438/438 370/370
f 165/165 166/166 234/234
f 165/165 234/234 233/233
f 437/437 505/505 506/506
f 437/437 506/506 438/438
f 545/545 31/31 30/30
f 546/546 302/302 303/303
f 30/30 31/31 99/99
f 30/30 99/99 98/98
f 302/302 370/370 371/371
f 302/302 371/371 303/303
f 98/98 99/99 167/167
f 98/98 167/167 166/166
f 370/370 438/438 439/439
f 370/370 439/439 371/371
f 166/166 167/167 235/235
f 166/166 235/235 234/234
f 438/438 506/506 507/507
f 438/438 507/507 439/439
f 545/545 32/32 31/31
f 546/546 303/303 304/304
f 31/31 32/32 100/100
f 31/31 100/100 99/99
f 303/303 371/371 372/372
f 303/303 372/372 304/304
f 99/99 100/100 168/168
f 99/99 168/168 167/167
f 371/371 439/439 440/440
f 371/371 440/440 372/372
f 167/167 168/168 236/236
f 167/167 236/236 235/235
f 439/439 507/507 508/508
f 439/439 508/508 440/440
f 545/545 33/33 32/32
f 546/546 304/304 305/305
f 32/32 33/33 101/101
f 32/32 101/101 100/100
f 304/304 372/372 373/373
f 304/304 373/373 305/305
f 100/100 101/101 169/169
f 100/100 169/169 168/168
f 372/372 440/440 441/441
f 372/372 441/441 373/373
f 168/168 169/169 237/237
f 168/168 237/237 236/236
f 440/440 508/508 509/509
f 440/440 509/509 441/441
f 545/545 34/34 33/33
f 546/546 305/305 306/306
f 33/33 34/34 102/102
f 33/33 102/102 101/101
f 305/305 373/373 374/374
f 305/305 374/374 306/306
f 101/101 102/102 170/170
f 101/101 170/170 169/169
f 373/373 441/441 442/442
f 373/373 442/442 374/374
f 169/169 170/170 238/238
f 169/169 238/238 237/237
f 441/441 509/509 510/510
f 441/441 510/510 442/442
f 545/545 35/35 34/34
f 546/546 306/306 307/307
f 34/34 35/35 103/103
f 34/34 103/103 102/102
f 306/306 374/374 375/375
f 306/306 375/375 307/307
f 102/102 103/103 171/171
f 102/102 171/171 170/170
f 374/374 442/442 443/443
f 374/374 443/443 375/375
f 170/170 171/171 239/239
f 170/170 239/239 238/238
f 442/442 510/510 511/511
f 442/442 511/511 443/443
f 545/545 36/36 35/35
f 546/546 307/307 308/308
f 35/35 36/36 104/104
f 35/35 104/104 103/103
f 307/307 375/375 376/376
f 307/307 376/376 308/308
f 103/103 104/104 172/172
f 103/103 172/172 171/171
f 375/375 443/443 444/444
f 375/375 444/444 376/376
f 171/171 172/172 240/240
f 171/171 240/240 239/239
f 443/443 511/511 512/512
f 443/443 512/512 444/444
f 545/545 37/37 36/36
f 546/546 308/308 309/309
f 36/36 37/37 105/105
f 36/36 105/105 104/104
f 308/308 376/376 377/377
f 308/308 377/377 309/309
f 104/104 105/105 173/173
f 104/104 173/173 172/172
f 376/376 444/444 445/445
f 376/376 445/445 377/377
f 172/172 173/173 241/241
f 172/172 241/241 240/240
f 444/444 512/512 513/513
f 444/444 513/513 445/445
f 545/545 38/38 37/37
f 546/546 309/309 310/310
f 37/37 38/38 106/106
f 37/37 106/106 105/105
f 309/309 377/377 378/378
f 309/309 378/378 310/310
f 105/105 106/106 174/174
f 105/105 174/174 173/173
f 377/377 445/445 446/446
f 377/377 446/446 378/378
f 173/173 174/174 242/242
f 173/173 242/242 241/241
f 445/445 513/513 514/514
f 445/445 514/514 446/446
f 545/545 39/39 38/38
f 546/546 310/310 311/311
f 38/38 39/39 107/107
f 38/38 107/107 106/106
f 310/310 378/378 379/379
f 310/310 379/379 311/311
f 106/106 107/107 175/175
f 106/106 175/175 174/174
f 378/378 446/446 447/447
f 378/378 447/447 379/379
f 174/174 175/175 243/243
f 174/174 243/243 242/242
f 446/446 514/514 515/515
f 446/446 515/515 447/447
f 545/545 40/40 39/39
f 546/546 311/311 312/312
f 39/39 40/40 108/108
f 39/39 108/108 107/107
f 311/311 379/379 380/380
f 311/311 380/380 312/312
f 107/107 108/108 176/176
f 107/107 176/176 175/175
f 379/379 447/447 448/448
f 379/379 448/448 380/380
f 175/175 176/176 244/244
f 175/175 244/244 243/243
f 447/447 515/515 516/516
f 447/447 516/516 448/448
f 545/545 41/41 40/40
f 546/546 312/312 313/313
f 40/40 41/41 109/109
f 40/40 109/109 108/108
f 312/312 380/380 381/381
f 312/312 381/381 313/313
f 108/108 109/109 177/177
f 108/108 177/177 176/176
f 380/380 448/448 449/449
f 380/380 449/449 381/381
f 176/176 177/177 245/245
f 176/176 245/245 244/244
f 448/448 516/516 517/517
f 448/448 517/517 449/449
f 545/545 42/42 41/41
f 546/546 313/313 314/314
f 41/41 42/42 110/110
f 41/41 110/110 109/109
f 313/313 381/381 382/382
f 313/313 382/382 314/314
f 109/109 110/110 178/178
f 109/109 178/178 177/177
f 381/381 449/449 450/450
f 381/381 450/450 382/382
f 177/177 178/178 246/246
f 177/177 246/246 245/245
f 449/449 517/517 518/518
f 449/449 518/518 450/450
f 545/545 43/43 42/42
f 546/546 314/314 315/315
f 42/42 43/43 111/111
f 42/42 111/111 110/110
f 314/314 382/382 383/383
f 314/314 383/383 315/315
f 110/110 111/111 179/179
f 110/110 179/179 178/178
f 382/382 450/450 451/451
f 382/382 451/451 383/383
f 178/178 179/179 247/247
f 178/178 247/247 246/246
f 450/450 518/518 519/519
f 450/450 519/519 451/451
f 545/545 44/44 43/43
f 546/546 315/315 316/316
f 43/43 44/44 112/112
f 43/43 112/112 111/111
f 315/315 383/383 384/384
f 315/315 384/384 316/316
f 111/111 112/112 180/180
f 111/111 180/180 179/179
f 383/383 451/451 452/452
f 383/383 452/452 384/384
f 179/179 180/180 248/248
f 179/179 248/248 247/247
f 451/451 519/519 520/520
f 451/451 520/520 452/452
f 545/545 45/45 44/44
f 546/546 316/316 317/317
f 44/44 45/45 113/113
f 44/44 113/113 112/112
f 316/316 384/384 385/385
f 316/316 385/385 317/317
f 112/112 113/113 181/181
f 112/112 181/181 180/180
f 384/384 452/452 453/453
f 384/384 453/453 385/385
f 180/180 181/181 249/249
f 180/180 249/249 248/248
f 452/452 520/520 521/521
f 452/452 521/521 453/453
f 545/545 46/46 45/45
f 546/546 317/317 318/318
f 45/45 46/46 114/114
f 45/45 114/114 113/113
f 317/317 385/385 386/386
f 317/317 386/386 318/318
f 113/113 114/114 182/182
f 113/113 182/182 181/181
f 385/385 453/453 454/454
f 385/385 454/454 386/386
f 181/181 182/182 250/250
f 181/181 250/250 249/249
f 453/453 521/521 522/522
f 453/453 522/522 454/454
f 545/545 47/47 46/46
f 546/546 318/318 319/319
f 46/46 47/47 115/115
f 46/46 115/115 114/114
f 318/318 386/386 387/387
f 318/318 387/387 319/319
f 114/114 115/115 183/183
f 114/114 183/183 182/182
f 386/386 454/454 455/455
f 386/386 455/455 387/387
f 182/182 183/183 251/251
f 182/182 251/251 250/250
f 454/454 522/522 523/523
f 454/454 523/523 455/455
f 545/545 48/48 47/47
f 546/546 319/319 320/320
f 47/47 48/48 116/116
f 47/47 116/116 115/115
f 319/319 387/387 388/388
f 319/319 388/388 320/320
f 115/115 116/116 184/184
f 115/115 184/184 183/183
f 387/387 455/455 456/456
f 387/387 456/456 388/388
f 183/183 184/184 252/252
f 183/183 252/252 251/251
f 455/455 523/523 524/524
f 455/455 524/524 456/456
f 545/545 49/49 48/48
f 546/546 320/320 321/321
f 48/48 49/49 117/117
f 48/48 117/117 116/116
f 320/320 388/388 389/389
f 320/320 389/389 321/321
f 116/116 117/117 185/185
f 116/116 185/185 184/184
f 388/388 456/456 457/457
f 388/388 457/457 389/389
f 184/184 185/185 253/253
f 184/184 253/253 252/252
f 456/456 524/524 525/525
f 456/456 525/525 457/457
f 545/545 50/50 49/49
f 546/546 321/321 322/322
f 49/49 50/50 118/118
f 49/49 118/118 117/117
f 321/321 389/389 390/390
f 321/321 390/390 322/322
f 117/117 118/118 186/186
f 117/117 186/186 185/185
f 389/389 457/457 458/458
f 389/389 458/458 390/390
f 185/185 186/186 254/254
f 185/185 254/254 253/253
f 457/457 525/525 526/526
f 457/457 526/526 458/458
f 545/545 51/51 50/50
f 546/546 322/322 323/323
f 50/50 51/51 119/119
f 50/50 119/119 118/118
f 322/322 390/390 391/391
f 322/322 391/391 323/323
f 118/118 119/119 187/187
f 118/118 187/187 186/186
f 390/390 458/458 459/459
f 390/390 459/459 391/391
f 186/186 187/187 255/255
f 186/186 255/255 254/254
f 458/458 526/526 527/527
f 458/458 527/527 459/459
f 545/545 52/52 51/51
f 546/546 323/323 324/324
f 51/51 52/52 120/120
f 51/51 120/120 119/119
f 323/323 391/391 392/392
f 323/323 392/392 324/324
f 119/119 120/120 188/188
f 119/119 188/188 187/187
f 391/391 459/459 460/460
f 391/391 460/460 392/392
f 187/187 188/188 256/256
f 187/187 256/256 255/255
f 459/459 527/527 528/528
f 459/459 528/528 460/460
f 545/545 53/53 52/52
f 546/546 324/324 325/325
f 52/52 53/53 121/121
f 52/52 121/121 120/120
f 324/324 392/392 393/393
f 324/324 393/393 325/325
f 120/120 121/121 189/189
f 120/120 189/189 188/188
f 392/392 460/460 461/461
f 392/392 461/461 393/393
f 188/188 189/189 257/257
f 188/188 257/257 256/256
f 460/460 528/528 529/529
f 460/460 529/529 461/461
f 545/545 54/54 53/53
f 546/546 325/325 326/326
f 53/53 54/54 122/122
f 53/53 122/122 121/121
f 325/325 393/393 394/394
f 325/325 394/394 326/326
f 121/121 122/122 190/190
f 121/121 190/190 189/189
f 393/393 461/461 462/462
f 393/393 462/462 394/394
f 189/189 190/190 258/258
f 189/189 258/258 257/257
f 461/461 529/529 530/530
f 461/461 530/530 462/462
f 545/545 55/55 54/54
f 546/546 326/326 327/327
f 54/54 55/55 123/123
f 54/54 123/123 122/122
f 326/326 394/394 395/395
f 326/326 395/395 327/327
f 122/122 123/123 191/191
f 122/122 191/191 190/190
f 394/394 462/462 463/463
f 394/394 463/463 395/395
f 190/190 191/191 259/259
f 190/190 259/259 258/258
f 462/462 530/530 531/531
f 462/462 531/531 463/463
f 545/545 56/56 55/55
f 546/546 327/327 328/328
f 55/55 56/56 124/124
f 55/55 124/124 123/123
f 327/327 395/395 396/396
f 327/327 396/396 328/328
f 123/123 124/124 192/192
f 123/123 192/192 191/191
f 395/395 463/463 464/464
f 395/395 464/464 396/396
f 191/191 192/192 260/260
f 191/191 260/260 259/259
f 463/463 531/531 532/532
f 463/463 532/532 464/464
f 545/545 57/57 56/56
f 546/546 328/328 329/329
f 56/56 57/57 125/125
f 56/56 125/125 124/124
f 328/328 396/396 397/397
f 328/328 397/397 329/329
f 124/124 125/125 193/193
f 124/124 193/193 192/192
f 396/396 464/464 465/465
f 396/396 465/465 397/397
f 192/192 193/193 261/261
f 192/192 261/261 260/260
f 464/464 532/532 533/533
f 464/464 533/533 465/465
f 545/545 58/58 57/57
f 546/546 329/329 330/330
f 57/57 58/58 126/126
f 57/57 126/126 125/125
f 329/329 397/397 398/398
f 329/329 398/398 330/330
f 125/125 126/126 194/194
f 125/125 194/194 193/193
f 397/397 465/465 466/466
f 397/397 466/466 398/398
f 193/193 194/194 262/262
f 193/193 262/262 261/261
f 465/465 533/533 534/534
f 465/465 534/534 466/466
f 545/545 59/59 58/58
f 546/546 330/330 331/331
f 58/58 59/59 127/127
f 58/58 127/127 126/126
f 330/330 398/398 399/399
f 330/330 399/399 331/331
f 126/126 127/127 195/195
f 126/126 195/195 194/194
f 398/398 466/466 467/467
f 398/398 467/467 399/399
f 194/194 195/195 263/263
f 194/194 263/263 262/262
f 466/466 534/534 535/535
f 466/466 535/535 467/467
f 545/545 60/60 59/59
f 546/546 331/331 332/332
f 59/59 60/60 128/128
f 59/59 128/128 127/127
f 331/331 399/399 400/400
f 331/331 400/400 332/332
f 127/127 128/128 196/196
f 127/127 196/196 195/195
f 399/399 467/467 468/468
f 399/399 468/468 400/400
f 195/195 196/196 264/264
f 195/195 264/264 263/263
f 467/467 535/535 536/536
f 467/467 536/536 468/468
f 545/545 61/61 60/60
f 546/546 332/332 333/333
f 60/60 61/61 129/129
f 60/60 129/129 128/128
f 332/332 400/400 401/401
f 332/332 401/401 333/333
f 128/128 129/129 197/197
f 128/128 197/197 196/196
f 400/400 468/468 469/469
f 400/400 469/469 401/401
f 196/196 197/197 265/265
f 196/196 265/265 264/264
f 468/468 536/536 537/537
f 468/468 537/537 469/469
f 545/545 62/62 61/61
f 546/546 333/333 334/334
f 61/61 62/62 130/130
f 61/61 130/130 129/129
f 333/333 401/401 402/402
f 333/333 402/402 334/334
f 129/129 130/130 198/198
f 129/129 198/198 197/197
f 401/401 469/469 470/470
f 401/401 470/470 402/402
f 197/197 198/198 266/266
f 197/197 266/266 265/265
f 469/469 537/537 538/538
f 469/469 538/538 470/470
f 545/545 63/63 62/62
f 546/546 334/334 335/335
f 62/62 63/63 131/131
f 62/62 131/131 130/130
f 334/334 402/402 403/403
f 334/334 403/403 335/335
f 130/130 131/131 199/199
f 130/130 199/199 198/198
f 402/402 470/470 471/471
f 402/402 471/471 403/403
f 198/198 199/199 267/267
f 198/198 267/267 266/266
f 470/470 538/538 539/539
f 470/470 539/539 471/471
f 545/545 64/64 63/63
f 546/546 335/335 336/336
f 63/63 64/64 132/132
f 63/63 132/132 131/131
f 335/335 403/403 404/404
f 335/335 404/404 336/336
f 131/131 132/132 200/200
f 131/131 200/200 199/199
f 403/403 471/471 472/472
f 403/403 472/472 404/404
f 199/199 200/200 268/268
f 199/199 268/268 267/267
f 471/471 539/539 540/540
f 471/471 540/540 472/472
f 545/545 65/65 64/64
f 546/546 336/336 337/337
f 64/64 65/65 133/133
f 64/64 133/133 132/132
f 336/336 404/404 405/405
f 336/336 405/405 337/337
f 132/132 133/133 201/201
f 132/132 201/201 200/200
f 404/404 472/472 473/473
f 404/404 473/473 405/405
f 200/200 201/201 269/269
f 200/200 269/269 268/268
f 472/472 540/540 541/541
f 472/472 541/541 473/473
f 545/545 66/66 65/65
f 546/546 337/337 338/338
f 65/65 66/66 134/134
f 65/65 134/134 133/133
f 337/337 405/405 406/406
f 337/337 406/406 338/338
f 133/133 134/134 202/202
f 133/133 202/202 201/201
f 405/405 473/473 474/474
f 405/405 474/474 406/406
f 201/201 202/202 270/270
f 201/201 270/270 269/269
f 473/473 541/541 542/542
f 473/473 542/542 474/474
f 545/545 67/67 66/66
f 546/546 338/338 339/339
f 66/66 67/67 135/135
f 66/66 135/135 134/134
f 338/338 406/406 407/407
f 338/338 407/407 339/339
f 134/134 135/135 203/203
f 134/134 203/203 202/202
f 406/406 474/474 475/475
f 406/406 475/475 407/407
f 202/202 203/203 271/271
f 202/202 271/271 270/270
f 474/474 542/542 543/543
f 474/474 543/543 475/475
f 545/545 68/68 67/67
f 546/546 339/339 340/340
f 67/67 68/68 136/136
f 67/67 136/136 135/135
f 339/339 407/407 408/408
f 339/339 408/408 340/340
f 135/135 136/136 204/204
f 135/135 204/204 203/203
f 407/407 475/475 476/476
f 407/407 476/476 408/408
f 203/203 204/204 272/272
f 203/203 272/272 271/271
f 475/475 543/543 544/544
f 475/475 544/544 476/476
f 545/545 1/1 68/68
f 546/546 340/340 273/273
f 68/68 1/1 69/69
f 68/68 69/69 136/136
f 340/340 408/408 341/341
f 340/340 341/341 273/273
f 136/136 69/69 137/137
f 136/136 137/137 204/204
f 408/408 476/476 409/409
f 408/408 409/409 341/341
f 204/204 137/137 205/205
f 204/204 205/205 272/272
f 476/476 544/544 477/477
f 476/476 477/477 409/409
f 547/547 549/549 550/550
f 547/547 550/550 548/548
f 549/549 551/551 552/552
f 549/549 552/552 550/550
f 551/551 553/553 554/554
f 551/551 554/554 552/552
f 553/553 555/555 556/556
f 553/553 556/556 554/554
f 555/555 557/557 558/558
f 555/555 558/558 556/556
f 557/557 559/559 560/560
f 557/557 560/560 558/558
f 559/559 561/561 562/562
f 559/559 562/562 560/560
f 561/561 563/563 564/564
f 561/561 564/564 562/562
f 563/563 565/565 566/566
f 563/563 566/566 564/564
f 565/565 567/567 568/568
f 565/565 568/568 566/566
f 567/567 569/569 570/570
f 567/567 570/570 568/568
f 569/569 571/571 572/572
f 569/569 572/572 570/570
f 571/571 573/573 574/574
f 571/571 574/574 572/572
f 573/573 575/575 576/576
f 573/573 576/576 574/574
f 575/575 577/577 578/578
f 575/575 578/578 576/576
f 577/577 579/579 580/580
f 577/577 580/580 578/578
f 579/579 581/581 582/582
f 579/579 582/582 580/580
f 581/581 583/583 584/584
f 581/581 584/584 582/582
f 583/583 585/585 586/586
f 583/583 586/586 584/584
f 585/585 587/587 588/588
f 585/585 588/588 586/586
f 587/587 589/589 590/590
f 587/587 590/590 588/588
f 589/589 591/591 592/592
f 589/589 592/592 590/590
f 591/591 593/593 594/594
f 591/591 594/594 592/592
f 593/593 595/595 596/596
f 593/593 596/596 594/594
f 595/595 597/597 598/598
f 595/595 598/598 596/596
f 597/597 599/599 600/600
f 597/597 600/600 598/598
f 599/599 601/601 602/602
f 599/599 602/602 600/600
f 601/601 603/603 604/604
f 601/601 604/604 602/602
f 603/603 605/605 606/606
f 603/603 606/606 604/604
f 605/605 607/607 608/608
f 605/605 608/608 606/606
f 607/607 609/609 610/610
f 607/607 610/610 608/608
f 609/609 611/611 612/612
f 609/609 612/612 610/610
f 611/611 613/613 614/614
f 611/611 614/614 612/612
f 613/613 615/615 616/616
f 613/613 616/616 614/614
f 615/615 617/617 618/618
f 615/615 618/618 616/616
f 617/617 619/619 620/620
f 617/617 620/620 618/618
f 619/619 621/621 622/622
f 619/619 622/622 620/620
f 621/621 623/623 624/624
f 621/621 624/624 622/622
f 623/623 625/625 626/626
f 623/623 626/626 624/624
f 625/625 627/627 628/628
f 625/625 628/628 626/626
f 627/627 629/629 630/630
f 627/627 630/630 628/628
f 629/629 631/631 632/632
f 629/629 632/632 630/630
f 631/631 633/633 634/634
f 631/631 634/634 632/632
f 633/633 635/635 636/636
f 633/633 636/636 634/634
f 635/635 637/637 638/638
f 635/635 638/638 636/636
f 637/637 639/639 640/640
f 637/637 640/640 638/638
f 639/639 641/641 642/642
f 639/639 642/642 640/640
f 641/641 643/643 644/644
f 641/641 644/644 642/642
f 643/643 645/645 646/646
f 643/643 646/646 644/644
f 645/645 647/647 648/648
f 645/645 648/648 646/646
f 647/647 649/649 650/650
f 647/647 650/650 648/648
f 649/649 651/651 652/652
f 649/649 652/652 650/650
f 651/651 653/653 654/654
f 651/651 654/654 652/652
f 653/653 655/655 656/656
f 653/653 656/656 654/654
f 655/655 657/657 658/658
f 655/655 658/658 656/656
f 657/657 659/659 660/660
f 657/657 660/660 658/658
f 659/659 661/661 662/662
f 659/659 662/662 660/660
f 661/661 663/663 664/664
f 661/661 664/664 662/662
f 663/663 665/665 666/666
f 663/663 666/666 664/664
f 665/665 667/667 668/668
f 665/665 668/668 666/666
f 667/667 669/669 670/670
f 667/667 670/670 668/668
f 669/669 671/671 672/672
f 669/669 672/672 670/670
f 671/671 673/673 674/674
f 671/671 674/674 672/672
f 673/673 675/675 676/676
f 673/673 676/676 674/674
f 675/675 677/677 678/678
f 675/675 678/678 676/676
f 677/677 679/679 680/680
f 677/677 680/680 678/678
f 679/679 681/681 682/682
f 679/679 682/682 680/680
f 681/681 683/683 684/684
f 681/681 684/684 682/682
