# AuthorityGamer Casino custom model; units are TTS-scalable.
v 0.760000 0.085000 0.000000
v 0.758373 0.085000 0.049706
v 0.753498 0.085000 0.099200
v 0.745397 0.085000 0.148269
v 0.734104 0.085000 0.196702
v 0.719667 0.085000 0.244294
v 0.702148 0.085000 0.290839
v 0.681623 0.085000 0.336139
v 0.658179 0.085000 0.380000
v 0.631917 0.085000 0.422233
v 0.602949 0.085000 0.462659
v 0.571398 0.085000 0.501103
v 0.537401 0.085000 0.537401
v 0.501103 0.085000 0.571398
v 0.462659 0.085000 0.602949
v 0.422233 0.085000 0.631917
v 0.380000 0.085000 0.658179
v 0.336139 0.085000 0.681623
v 0.290839 0.085000 0.702148
v 0.244294 0.085000 0.719667
v 0.196702 0.085000 0.734104
v 0.148269 0.085000 0.745397
v 0.099200 0.085000 0.753498
v 0.049706 0.085000 0.758373
v 0.000000 0.085000 0.760000
v -0.049706 0.085000 0.758373
v -0.099200 0.085000 0.753498
v -0.148269 0.085000 0.745397
v -0.196702 0.085000 0.734104
v -0.244294 0.085000 0.719667
v -0.290839 0.085000 0.702148
v -0.336139 0.085000 0.681623
v -0.380000 0.085000 0.658179
v -0.422233 0.085000 0.631917
v -0.462659 0.085000 0.602949
v -0.501103 0.085000 0.571398
v -0.537401 0.085000 0.537401
v -0.571398 0.085000 0.501103
v -0.602949 0.085000 0.462659
v -0.631917 0.085000 0.422233
v -0.658179 0.085000 0.380000
v -0.681623 0.085000 0.336139
v -0.702148 0.085000 0.290839
v -0.719667 0.085000 0.244294
v -0.734104 0.085000 0.196702
v -0.745397 0.085000 0.148269
v -0.753498 0.085000 0.099200
v -0.758373 0.085000 0.049706
v -0.760000 0.085000 0.000000
v -0.758373 0.085000 -0.049706
v -0.753498 0.085000 -0.099200
v -0.745397 0.085000 -0.148269
v -0.734104 0.085000 -0.196702
v -0.719667 0.085000 -0.244294
v -0.702148 0.085000 -0.290839
v -0.681623 0.085000 -0.336139
v -0.658179 0.085000 -0.380000
v -0.631917 0.085000 -0.422233
v -0.602949 0.085000 -0.462659
v -0.571398 0.085000 -0.501103
v -0.537401 0.085000 -0.537401
v -0.501103 0.085000 -0.571398
v -0.462659 0.085000 -0.602949
v -0.422233 0.085000 -0.631917
v -0.380000 0.085000 -0.658179
v -0.336139 0.085000 -0.681623
v -0.290839 0.085000 -0.702148
v -0.244294 0.085000 -0.719667
v -0.196702 0.085000 -0.734104
v -0.148269 0.085000 -0.745397
v -0.099200 0.085000 -0.753498
v -0.049706 0.085000 -0.758373
v -0.000000 0.085000 -0.760000
v 0.049706 0.085000 -0.758373
v 0.099200 0.085000 -0.753498
v 0.148269 0.085000 -0.745397
v 0.196702 0.085000 -0.734104
v 0.244294 0.085000 -0.719667
v 0.290839 0.085000 -0.702148
v 0.336139 0.085000 -0.681623
v 0.380000 0.085000 -0.658179
v 0.422233 0.085000 -0.631917
v 0.462659 0.085000 -0.602949
v 0.501103 0.085000 -0.571398
v 0.537401 0.085000 -0.537401
v 0.571398 0.085000 -0.501103
v 0.602949 0.085000 -0.462659
v 0.631917 0.085000 -0.422233
v 0.658179 0.085000 -0.380000
v 0.681623 0.085000 -0.336139
v 0.702148 0.085000 -0.290839
v 0.719667 0.085000 -0.244294
v 0.734104 0.085000 -0.196702
v 0.745397 0.085000 -0.148269
v 0.753498 0.085000 -0.099200
v 0.758373 0.085000 -0.049706
v 0.800000 0.120000 0.000000
v 0.798287 0.120000 0.052323
v 0.793156 0.120000 0.104421
v 0.784628 0.120000 0.156072
v 0.772741 0.120000 0.207055
v 0.757544 0.120000 0.257152
v 0.739104 0.120000 0.306147
v 0.717498 0.120000 0.353831
v 0.692820 0.120000 0.400000
v 0.665176 0.120000 0.444456
v 0.634683 0.120000 0.487009
v 0.601472 0.120000 0.527477
v 0.565685 0.120000 0.565685
v 0.527477 0.120000 0.601472
v 0.487009 0.120000 0.634683
v 0.444456 0.120000 0.665176
v 0.400000 0.120000 0.692820
v 0.353831 0.120000 0.717498
v 0.306147 0.120000 0.739104
v 0.257152 0.120000 0.757544
v 0.207055 0.120000 0.772741
v 0.156072 0.120000 0.784628
v 0.104421 0.120000 0.793156
v 0.052323 0.120000 0.798287
v 0.000000 0.120000 0.800000
v -0.052323 0.120000 0.798287
v -0.104421 0.120000 0.793156
v -0.156072 0.120000 0.784628
v -0.207055 0.120000 0.772741
v -0.257152 0.120000 0.757544
v -0.306147 0.120000 0.739104
v -0.353831 0.120000 0.717498
v -0.400000 0.120000 0.692820
v -0.444456 0.120000 0.665176
v -0.487009 0.120000 0.634683
v -0.527477 0.120000 0.601472
v -0.565685 0.120000 0.565685
v -0.601472 0.120000 0.527477
v -0.634683 0.120000 0.487009
v -0.665176 0.120000 0.444456
v -0.692820 0.120000 0.400000
v -0.717498 0.120000 0.353831
v -0.739104 0.120000 0.306147
v -0.757544 0.120000 0.257152
v -0.772741 0.120000 0.207055
v -0.784628 0.120000 0.156072
v -0.793156 0.120000 0.104421
v -0.798287 0.120000 0.052323
v -0.800000 0.120000 0.000000
v -0.798287 0.120000 -0.052323
v -0.793156 0.120000 -0.104421
v -0.784628 0.120000 -0.156072
v -0.772741 0.120000 -0.207055
v -0.757544 0.120000 -0.257152
v -0.739104 0.120000 -0.306147
v -0.717498 0.120000 -0.353831
v -0.692820 0.120000 -0.400000
v -0.665176 0.120000 -0.444456
v -0.634683 0.120000 -0.487009
v -0.601472 0.120000 -0.527477
v -0.565685 0.120000 -0.565685
v -0.527477 0.120000 -0.601472
v -0.487009 0.120000 -0.634683
v -0.444456 0.120000 -0.665176
v -0.400000 0.120000 -0.692820
v -0.353831 0.120000 -0.717498
v -0.306147 0.120000 -0.739104
v -0.257152 0.120000 -0.757544
v -0.207055 0.120000 -0.772741
v -0.156072 0.120000 -0.784628
v -0.104421 0.120000 -0.793156
v -0.052323 0.120000 -0.798287
v -0.000000 0.120000 -0.800000
v 0.052323 0.120000 -0.798287
v 0.104421 0.120000 -0.793156
v 0.156072 0.120000 -0.784628
v 0.207055 0.120000 -0.772741
v 0.257152 0.120000 -0.757544
v 0.306147 0.120000 -0.739104
v 0.353831 0.120000 -0.717498
v 0.400000 0.120000 -0.692820
v 0.444456 0.120000 -0.665176
v 0.487009 0.120000 -0.634683
v 0.527477 0.120000 -0.601472
v 0.565685 0.120000 -0.565685
v 0.601472 0.120000 -0.527477
v 0.634683 0.120000 -0.487009
v 0.665176 0.120000 -0.444456
v 0.692820 0.120000 -0.400000
v 0.717498 0.120000 -0.353831
v 0.739104 0.120000 -0.306147
v 0.757544 0.120000 -0.257152
v 0.772741 0.120000 -0.207055
v 0.784628 0.120000 -0.156072
v 0.793156 0.120000 -0.104421
v 0.798287 0.120000 -0.052323
v 0.900000 0.120000 0.000000
v 0.898073 0.120000 0.058863
v 0.892300 0.120000 0.117474
v 0.882707 0.120000 0.175581
v 0.869333 0.120000 0.232937
v 0.852237 0.120000 0.289296
v 0.831492 0.120000 0.344415
v 0.807185 0.120000 0.398060
v 0.779423 0.120000 0.450000
v 0.748323 0.120000 0.500013
v 0.714018 0.120000 0.547885
v 0.676656 0.120000 0.593411
v 0.636396 0.120000 0.636396
v 0.593411 0.120000 0.676656
v 0.547885 0.120000 0.714018
v 0.500013 0.120000 0.748323
v 0.450000 0.120000 0.779423
v 0.398060 0.120000 0.807185
v 0.344415 0.120000 0.831492
v 0.289296 0.120000 0.852237
v 0.232937 0.120000 0.869333
v 0.175581 0.120000 0.882707
v 0.117474 0.120000 0.892300
v 0.058863 0.120000 0.898073
v 0.000000 0.120000 0.900000
v -0.058863 0.120000 0.898073
v -0.117474 0.120000 0.892300
v -0.175581 0.120000 0.882707
v -0.232937 0.120000 0.869333
v -0.289296 0.120000 0.852237
v -0.344415 0.120000 0.831492
v -0.398060 0.120000 0.807185
v -0.450000 0.120000 0.779423
v -0.500013 0.120000 0.748323
v -0.547885 0.120000 0.714018
v -0.593411 0.120000 0.676656
v -0.636396 0.120000 0.636396
v -0.676656 0.120000 0.593411
v -0.714018 0.120000 0.547885
v -0.748323 0.120000 0.500013
v -0.779423 0.120000 0.450000
v -0.807185 0.120000 0.398060
v -0.831492 0.120000 0.344415
v -0.852237 0.120000 0.289296
v -0.869333 0.120000 0.232937
v -0.882707 0.120000 0.175581
v -0.892300 0.120000 0.117474
v -0.898073 0.120000 0.058863
v -0.900000 0.120000 0.000000
v -0.898073 0.120000 -0.058863
v -0.892300 0.120000 -0.117474
v -0.882707 0.120000 -0.175581
v -0.869333 0.120000 -0.232937
v -0.852237 0.120000 -0.289296
v -0.831492 0.120000 -0.344415
v -0.807185 0.120000 -0.398060
v -0.779423 0.120000 -0.450000
v -0.748323 0.120000 -0.500013
v -0.714018 0.120000 -0.547885
v -0.676656 0.120000 -0.593411
v -0.636396 0.120000 -0.636396
v -0.593411 0.120000 -0.676656
v -0.547885 0.120000 -0.714018
v -0.500013 0.120000 -0.748323
v -0.450000 0.120000 -0.779423
v -0.398060 0.120000 -0.807185
v -0.344415 0.120000 -0.831492
v -0.289296 0.120000 -0.852237
v -0.232937 0.120000 -0.869333
v -0.175581 0.120000 -0.882707
v -0.117474 0.120000 -0.892300
v -0.058863 0.120000 -0.898073
v -0.000000 0.120000 -0.900000
v 0.058863 0.120000 -0.898073
v 0.117474 0.120000 -0.892300
v 0.175581 0.120000 -0.882707
v 0.232937 0.120000 -0.869333
v 0.289296 0.120000 -0.852237
v 0.344415 0.120000 -0.831492
v 0.398060 0.120000 -0.807185
v 0.450000 0.120000 -0.779423
v 0.500013 0.120000 -0.748323
v 0.547885 0.120000 -0.714018
v 0.593411 0.120000 -0.676656
v 0.636396 0.120000 -0.636396
v 0.676656 0.120000 -0.593411
v 0.714018 0.120000 -0.547885
v 0.748323 0.120000 -0.500013
v 0.779423 0.120000 -0.450000
v 0.807185 0.120000 -0.398060
v 0.831492 0.120000 -0.344415
v 0.852237 0.120000 -0.289296
v 0.869333 0.120000 -0.232937
v 0.882707 0.120000 -0.175581
v 0.892300 0.120000 -0.117474
v 0.898073 0.120000 -0.058863
v 1.000000 0.070000 0.000000
v 0.997859 0.070000 0.065403
v 0.991445 0.070000 0.130526
v 0.980785 0.070000 0.195090
v 0.965926 0.070000 0.258819
v 0.946930 0.070000 0.321439
v 0.923880 0.070000 0.382683
v 0.896873 0.070000 0.442289
v 0.866025 0.070000 0.500000
v 0.831470 0.070000 0.555570
v 0.793353 0.070000 0.608761
v 0.751840 0.070000 0.659346
v 0.707107 0.070000 0.707107
v 0.659346 0.070000 0.751840
v 0.608761 0.070000 0.793353
v 0.555570 0.070000 0.831470
v 0.500000 0.070000 0.866025
v 0.442289 0.070000 0.896873
v 0.382683 0.070000 0.923880
v 0.321439 0.070000 0.946930
v 0.258819 0.070000 0.965926
v 0.195090 0.070000 0.980785
v 0.130526 0.070000 0.991445
v 0.065403 0.070000 0.997859
v 0.000000 0.070000 1.000000
v -0.065403 0.070000 0.997859
v -0.130526 0.070000 0.991445
v -0.195090 0.070000 0.980785
v -0.258819 0.070000 0.965926
v -0.321439 0.070000 0.946930
v -0.382683 0.070000 0.923880
v -0.442289 0.070000 0.896873
v -0.500000 0.070000 0.866025
v -0.555570 0.070000 0.831470
v -0.608761 0.070000 0.793353
v -0.659346 0.070000 0.751840
v -0.707107 0.070000 0.707107
v -0.751840 0.070000 0.659346
v -0.793353 0.070000 0.608761
v -0.831470 0.070000 0.555570
v -0.866025 0.070000 0.500000
v -0.896873 0.070000 0.442289
v -0.923880 0.070000 0.382683
v -0.946930 0.070000 0.321439
v -0.965926 0.070000 0.258819
v -0.980785 0.070000 0.195090
v -0.991445 0.070000 0.130526
v -0.997859 0.070000 0.065403
v -1.000000 0.070000 0.000000
v -0.997859 0.070000 -0.065403
v -0.991445 0.070000 -0.130526
v -0.980785 0.070000 -0.195090
v -0.965926 0.070000 -0.258819
v -0.946930 0.070000 -0.321439
v -0.923880 0.070000 -0.382683
v -0.896873 0.070000 -0.442289
v -0.866025 0.070000 -0.500000
v -0.831470 0.070000 -0.555570
v -0.793353 0.070000 -0.608761
v -0.751840 0.070000 -0.659346
v -0.707107 0.070000 -0.707107
v -0.659346 0.070000 -0.751840
v -0.608761 0.070000 -0.793353
v -0.555570 0.070000 -0.831470
v -0.500000 0.070000 -0.866025
v -0.442289 0.070000 -0.896873
v -0.382683 0.070000 -0.923880
v -0.321439 0.070000 -0.946930
v -0.258819 0.070000 -0.965926
v -0.195090 0.070000 -0.980785
v -0.130526 0.070000 -0.991445
v -0.065403 0.070000 -0.997859
v -0.000000 0.070000 -1.000000
v 0.065403 0.070000 -0.997859
v 0.130526 0.070000 -0.991445
v 0.195090 0.070000 -0.980785
v 0.258819 0.070000 -0.965926
v 0.321439 0.070000 -0.946930
v 0.382683 0.070000 -0.923880
v 0.442289 0.070000 -0.896873
v 0.500000 0.070000 -0.866025
v 0.555570 0.070000 -0.831470
v 0.608761 0.070000 -0.793353
v 0.659346 0.070000 -0.751840
v 0.707107 0.070000 -0.707107
v 0.751840 0.070000 -0.659346
v 0.793353 0.070000 -0.608761
v 0.831470 0.070000 -0.555570
v 0.866025 0.070000 -0.500000
v 0.896873 0.070000 -0.442289
v 0.923880 0.070000 -0.382683
v 0.946930 0.070000 -0.321439
v 0.965926 0.070000 -0.258819
v 0.980785 0.070000 -0.195090
v 0.991445 0.070000 -0.130526
v 0.997859 0.070000 -0.065403
v 0.760000 -0.085000 0.000000
v 0.758373 -0.085000 0.049706
v 0.753498 -0.085000 0.099200
v 0.745397 -0.085000 0.148269
v 0.734104 -0.085000 0.196702
v 0.719667 -0.085000 0.244294
v 0.702148 -0.085000 0.290839
v 0.681623 -0.085000 0.336139
v 0.658179 -0.085000 0.380000
v 0.631917 -0.085000 0.422233
v 0.602949 -0.085000 0.462659
v 0.571398 -0.085000 0.501103
v 0.537401 -0.085000 0.537401
v 0.501103 -0.085000 0.571398
v 0.462659 -0.085000 0.602949
v 0.422233 -0.085000 0.631917
v 0.380000 -0.085000 0.658179
v 0.336139 -0.085000 0.681623
v 0.290839 -0.085000 0.702148
v 0.244294 -0.085000 0.719667
v 0.196702 -0.085000 0.734104
v 0.148269 -0.085000 0.745397
v 0.099200 -0.085000 0.753498
v 0.049706 -0.085000 0.758373
v 0.000000 -0.085000 0.760000
v -0.049706 -0.085000 0.758373
v -0.099200 -0.085000 0.753498
v -0.148269 -0.085000 0.745397
v -0.196702 -0.085000 0.734104
v -0.244294 -0.085000 0.719667
v -0.290839 -0.085000 0.702148
v -0.336139 -0.085000 0.681623
v -0.380000 -0.085000 0.658179
v -0.422233 -0.085000 0.631917
v -0.462659 -0.085000 0.602949
v -0.501103 -0.085000 0.571398
v -0.537401 -0.085000 0.537401
v -0.571398 -0.085000 0.501103
v -0.602949 -0.085000 0.462659
v -0.631917 -0.085000 0.422233
v -0.658179 -0.085000 0.380000
v -0.681623 -0.085000 0.336139
v -0.702148 -0.085000 0.290839
v -0.719667 -0.085000 0.244294
v -0.734104 -0.085000 0.196702
v -0.745397 -0.085000 0.148269
v -0.753498 -0.085000 0.099200
v -0.758373 -0.085000 0.049706
v -0.760000 -0.085000 0.000000
v -0.758373 -0.085000 -0.049706
v -0.753498 -0.085000 -0.099200
v -0.745397 -0.085000 -0.148269
v -0.734104 -0.085000 -0.196702
v -0.719667 -0.085000 -0.244294
v -0.702148 -0.085000 -0.290839
v -0.681623 -0.085000 -0.336139
v -0.658179 -0.085000 -0.380000
v -0.631917 -0.085000 -0.422233
v -0.602949 -0.085000 -0.462659
v -0.571398 -0.085000 -0.501103
v -0.537401 -0.085000 -0.537401
v -0.501103 -0.085000 -0.571398
v -0.462659 -0.085000 -0.602949
v -0.422233 -0.085000 -0.631917
v -0.380000 -0.085000 -0.658179
v -0.336139 -0.085000 -0.681623
v -0.290839 -0.085000 -0.702148
v -0.244294 -0.085000 -0.719667
v -0.196702 -0.085000 -0.734104
v -0.148269 -0.085000 -0.745397
v -0.099200 -0.085000 -0.753498
v -0.049706 -0.085000 -0.758373
v -0.000000 -0.085000 -0.760000
v 0.049706 -0.085000 -0.758373
v 0.099200 -0.085000 -0.753498
v 0.148269 -0.085000 -0.745397
v 0.196702 -0.085000 -0.734104
v 0.244294 -0.085000 -0.719667
v 0.290839 -0.085000 -0.702148
v 0.336139 -0.085000 -0.681623
v 0.380000 -0.085000 -0.658179
v 0.422233 -0.085000 -0.631917
v 0.462659 -0.085000 -0.602949
v 0.501103 -0.085000 -0.571398
v 0.537401 -0.085000 -0.537401
v 0.571398 -0.085000 -0.501103
v 0.602949 -0.085000 -0.462659
v 0.631917 -0.085000 -0.422233
v 0.658179 -0.085000 -0.380000
v 0.681623 -0.085000 -0.336139
v 0.702148 -0.085000 -0.290839
v 0.719667 -0.085000 -0.244294
v 0.734104 -0.085000 -0.196702
v 0.745397 -0.085000 -0.148269
v 0.753498 -0.085000 -0.099200
v 0.758373 -0.085000 -0.049706
v 0.800000 -0.120000 0.000000
v 0.798287 -0.120000 0.052323
v 0.793156 -0.120000 0.104421
v 0.784628 -0.120000 0.156072
v 0.772741 -0.120000 0.207055
v 0.757544 -0.120000 0.257152
v 0.739104 -0.120000 0.306147
v 0.717498 -0.120000 0.353831
v 0.692820 -0.120000 0.400000
v 0.665176 -0.120000 0.444456
v 0.634683 -0.120000 0.487009
v 0.601472 -0.120000 0.527477
v 0.565685 -0.120000 0.565685
v 0.527477 -0.120000 0.601472
v 0.487009 -0.120000 0.634683
v 0.444456 -0.120000 0.665176
v 0.400000 -0.120000 0.692820
v 0.353831 -0.120000 0.717498
v 0.306147 -0.120000 0.739104
v 0.257152 -0.120000 0.757544
v 0.207055 -0.120000 0.772741
v 0.156072 -0.120000 0.784628
v 0.104421 -0.120000 0.793156
v 0.052323 -0.120000 0.798287
v 0.000000 -0.120000 0.800000
v -0.052323 -0.120000 0.798287
v -0.104421 -0.120000 0.793156
v -0.156072 -0.120000 0.784628
v -0.207055 -0.120000 0.772741
v -0.257152 -0.120000 0.757544
v -0.306147 -0.120000 0.739104
v -0.353831 -0.120000 0.717498
v -0.400000 -0.120000 0.692820
v -0.444456 -0.120000 0.665176
v -0.487009 -0.120000 0.634683
v -0.527477 -0.120000 0.601472
v -0.565685 -0.120000 0.565685
v -0.601472 -0.120000 0.527477
v -0.634683 -0.120000 0.487009
v -0.665176 -0.120000 0.444456
v -0.692820 -0.120000 0.400000
v -0.717498 -0.120000 0.353831
v -0.739104 -0.120000 0.306147
v -0.757544 -0.120000 0.257152
v -0.772741 -0.120000 0.207055
v -0.784628 -0.120000 0.156072
v -0.793156 -0.120000 0.104421
v -0.798287 -0.120000 0.052323
v -0.800000 -0.120000 0.000000
v -0.798287 -0.120000 -0.052323
v -0.793156 -0.120000 -0.104421
v -0.784628 -0.120000 -0.156072
v -0.772741 -0.120000 -0.207055
v -0.757544 -0.120000 -0.257152
v -0.739104 -0.120000 -0.306147
v -0.717498 -0.120000 -0.353831
v -0.692820 -0.120000 -0.400000
v -0.665176 -0.120000 -0.444456
v -0.634683 -0.120000 -0.487009
v -0.601472 -0.120000 -0.527477
v -0.565685 -0.120000 -0.565685
v -0.527477 -0.120000 -0.601472
v -0.487009 -0.120000 -0.634683
v -0.444456 -0.120000 -0.665176
v -0.400000 -0.120000 -0.692820
v -0.353831 -0.120000 -0.717498
v -0.306147 -0.120000 -0.739104
v -0.257152 -0.120000 -0.757544
v -0.207055 -0.120000 -0.772741
v -0.156072 -0.120000 -0.784628
v -0.104421 -0.120000 -0.793156
v -0.052323 -0.120000 -0.798287
v -0.000000 -0.120000 -0.800000
v 0.052323 -0.120000 -0.798287
v 0.104421 -0.120000 -0.793156
v 0.156072 -0.120000 -0.784628
v 0.207055 -0.120000 -0.772741
v 0.257152 -0.120000 -0.757544
v 0.306147 -0.120000 -0.739104
v 0.353831 -0.120000 -0.717498
v 0.400000 -0.120000 -0.692820
v 0.444456 -0.120000 -0.665176
v 0.487009 -0.120000 -0.634683
v 0.527477 -0.120000 -0.601472
v 0.565685 -0.120000 -0.565685
v 0.601472 -0.120000 -0.527477
v 0.634683 -0.120000 -0.487009
v 0.665176 -0.120000 -0.444456
v 0.692820 -0.120000 -0.400000
v 0.717498 -0.120000 -0.353831
v 0.739104 -0.120000 -0.306147
v 0.757544 -0.120000 -0.257152
v 0.772741 -0.120000 -0.207055
v 0.784628 -0.120000 -0.156072
v 0.793156 -0.120000 -0.104421
v 0.798287 -0.120000 -0.052323
v 0.900000 -0.120000 0.000000
v 0.898073 -0.120000 0.058863
v 0.892300 -0.120000 0.117474
v 0.882707 -0.120000 0.175581
v 0.869333 -0.120000 0.232937
v 0.852237 -0.120000 0.289296
v 0.831492 -0.120000 0.344415
v 0.807185 -0.120000 0.398060
v 0.779423 -0.120000 0.450000
v 0.748323 -0.120000 0.500013
v 0.714018 -0.120000 0.547885
v 0.676656 -0.120000 0.593411
v 0.636396 -0.120000 0.636396
v 0.593411 -0.120000 0.676656
v 0.547885 -0.120000 0.714018
v 0.500013 -0.120000 0.748323
v 0.450000 -0.120000 0.779423
v 0.398060 -0.120000 0.807185
v 0.344415 -0.120000 0.831492
v 0.289296 -0.120000 0.852237
v 0.232937 -0.120000 0.869333
v 0.175581 -0.120000 0.882707
v 0.117474 -0.120000 0.892300
v 0.058863 -0.120000 0.898073
v 0.000000 -0.120000 0.900000
v -0.058863 -0.120000 0.898073
v -0.117474 -0.120000 0.892300
v -0.175581 -0.120000 0.882707
v -0.232937 -0.120000 0.869333
v -0.289296 -0.120000 0.852237
v -0.344415 -0.120000 0.831492
v -0.398060 -0.120000 0.807185
v -0.450000 -0.120000 0.779423
v -0.500013 -0.120000 0.748323
v -0.547885 -0.120000 0.714018
v -0.593411 -0.120000 0.676656
v -0.636396 -0.120000 0.636396
v -0.676656 -0.120000 0.593411
v -0.714018 -0.120000 0.547885
v -0.748323 -0.120000 0.500013
v -0.779423 -0.120000 0.450000
v -0.807185 -0.120000 0.398060
v -0.831492 -0.120000 0.344415
v -0.852237 -0.120000 0.289296
v -0.869333 -0.120000 0.232937
v -0.882707 -0.120000 0.175581
v -0.892300 -0.120000 0.117474
v -0.898073 -0.120000 0.058863
v -0.900000 -0.120000 0.000000
v -0.898073 -0.120000 -0.058863
v -0.892300 -0.120000 -0.117474
v -0.882707 -0.120000 -0.175581
v -0.869333 -0.120000 -0.232937
v -0.852237 -0.120000 -0.289296
v -0.831492 -0.120000 -0.344415
v -0.807185 -0.120000 -0.398060
v -0.779423 -0.120000 -0.450000
v -0.748323 -0.120000 -0.500013
v -0.714018 -0.120000 -0.547885
v -0.676656 -0.120000 -0.593411
v -0.636396 -0.120000 -0.636396
v -0.593411 -0.120000 -0.676656
v -0.547885 -0.120000 -0.714018
v -0.500013 -0.120000 -0.748323
v -0.450000 -0.120000 -0.779423
v -0.398060 -0.120000 -0.807185
v -0.344415 -0.120000 -0.831492
v -0.289296 -0.120000 -0.852237
v -0.232937 -0.120000 -0.869333
v -0.175581 -0.120000 -0.882707
v -0.117474 -0.120000 -0.892300
v -0.058863 -0.120000 -0.898073
v -0.000000 -0.120000 -0.900000
v 0.058863 -0.120000 -0.898073
v 0.117474 -0.120000 -0.892300
v 0.175581 -0.120000 -0.882707
v 0.232937 -0.120000 -0.869333
v 0.289296 -0.120000 -0.852237
v 0.344415 -0.120000 -0.831492
v 0.398060 -0.120000 -0.807185
v 0.450000 -0.120000 -0.779423
v 0.500013 -0.120000 -0.748323
v 0.547885 -0.120000 -0.714018
v 0.593411 -0.120000 -0.676656
v 0.636396 -0.120000 -0.636396
v 0.676656 -0.120000 -0.593411
v 0.714018 -0.120000 -0.547885
v 0.748323 -0.120000 -0.500013
v 0.779423 -0.120000 -0.450000
v 0.807185 -0.120000 -0.398060
v 0.831492 -0.120000 -0.344415
v 0.852237 -0.120000 -0.289296
v 0.869333 -0.120000 -0.232937
v 0.882707 -0.120000 -0.175581
v 0.892300 -0.120000 -0.117474
v 0.898073 -0.120000 -0.058863
v 1.000000 -0.070000 0.000000
v 0.997859 -0.070000 0.065403
v 0.991445 -0.070000 0.130526
v 0.980785 -0.070000 0.195090
v 0.965926 -0.070000 0.258819
v 0.946930 -0.070000 0.321439
v 0.923880 -0.070000 0.382683
v 0.896873 -0.070000 0.442289
v 0.866025 -0.070000 0.500000
v 0.831470 -0.070000 0.555570
v 0.793353 -0.070000 0.608761
v 0.751840 -0.070000 0.659346
v 0.707107 -0.070000 0.707107
v 0.659346 -0.070000 0.751840
v 0.608761 -0.070000 0.793353
v 0.555570 -0.070000 0.831470
v 0.500000 -0.070000 0.866025
v 0.442289 -0.070000 0.896873
v 0.382683 -0.070000 0.923880
v 0.321439 -0.070000 0.946930
v 0.258819 -0.070000 0.965926
v 0.195090 -0.070000 0.980785
v 0.130526 -0.070000 0.991445
v 0.065403 -0.070000 0.997859
v 0.000000 -0.070000 1.000000
v -0.065403 -0.070000 0.997859
v -0.130526 -0.070000 0.991445
v -0.195090 -0.070000 0.980785
v -0.258819 -0.070000 0.965926
v -0.321439 -0.070000 0.946930
v -0.382683 -0.070000 0.923880
v -0.442289 -0.070000 0.896873
v -0.500000 -0.070000 0.866025
v -0.555570 -0.070000 0.831470
v -0.608761 -0.070000 0.793353
v -0.659346 -0.070000 0.751840
v -0.707107 -0.070000 0.707107
v -0.751840 -0.070000 0.659346
v -0.793353 -0.070000 0.608761
v -0.831470 -0.070000 0.555570
v -0.866025 -0.070000 0.500000
v -0.896873 -0.070000 0.442289
v -0.923880 -0.070000 0.382683
v -0.946930 -0.070000 0.321439
v -0.965926 -0.070000 0.258819
v -0.980785 -0.070000 0.195090
v -0.991445 -0.070000 0.130526
v -0.997859 -0.070000 0.065403
v -1.000000 -0.070000 0.000000
v -0.997859 -0.070000 -0.065403
v -0.991445 -0.070000 -0.130526
v -0.980785 -0.070000 -0.195090
v -0.965926 -0.070000 -0.258819
v -0.946930 -0.070000 -0.321439
v -0.923880 -0.070000 -0.382683
v -0.896873 -0.070000 -0.442289
v -0.866025 -0.070000 -0.500000
v -0.831470 -0.070000 -0.555570
v -0.793353 -0.070000 -0.608761
v -0.751840 -0.070000 -0.659346
v -0.707107 -0.070000 -0.707107
v -0.659346 -0.070000 -0.751840
v -0.608761 -0.070000 -0.793353
v -0.555570 -0.070000 -0.831470
v -0.500000 -0.070000 -0.866025
v -0.442289 -0.070000 -0.896873
v -0.382683 -0.070000 -0.923880
v -0.321439 -0.070000 -0.946930
v -0.258819 -0.070000 -0.965926
v -0.195090 -0.070000 -0.980785
v -0.130526 -0.070000 -0.991445
v -0.065403 -0.070000 -0.997859
v -0.000000 -0.070000 -1.000000
v 0.065403 -0.070000 -0.997859
v 0.130526 -0.070000 -0.991445
v 0.195090 -0.070000 -0.980785
v 0.258819 -0.070000 -0.965926
v 0.321439 -0.070000 -0.946930
v 0.382683 -0.070000 -0.923880
v 0.442289 -0.070000 -0.896873
v 0.500000 -0.070000 -0.866025
v 0.555570 -0.070000 -0.831470
v 0.608761 -0.070000 -0.793353
v 0.659346 -0.070000 -0.751840
v 0.707107 -0.070000 -0.707107
v 0.751840 -0.070000 -0.659346
v 0.793353 -0.070000 -0.608761
v 0.831470 -0.070000 -0.555570
v 0.866025 -0.070000 -0.500000
v 0.896873 -0.070000 -0.442289
v 0.923880 -0.070000 -0.382683
v 0.946930 -0.070000 -0.321439
v 0.965926 -0.070000 -0.258819
v 0.980785 -0.070000 -0.195090
v 0.991445 -0.070000 -0.130526
v 0.997859 -0.070000 -0.065403
v 0.000000 0.085000 0.000000
v 0.000000 -0.085000 0.000000
v 1.000000 0.070000 0.000000
v 1.000000 -0.070000 0.000000
v 0.997859 0.070000 0.065403
v 0.997859 -0.070000 0.065403
v 0.991445 0.070000 0.130526
v 0.991445 -0.070000 0.130526
v 0.980785 0.070000 0.195090
v 0.980785 -0.070000 0.195090
v 0.965926 0.070000 0.258819
v 0.965926 -0.070000 0.258819
v 0.946930 0.070000 0.321439
v 0.946930 -0.070000 0.321439
v 0.923880 0.070000 0.382683
v 0.923880 -0.070000 0.382683
v 0.896873 0.070000 0.442289
v 0.896873 -0.070000 0.442289
v 0.866025 0.070000 0.500000
v 0.866025 -0.070000 0.500000
v 0.831470 0.070000 0.555570
v 0.831470 -0.070000 0.555570
v 0.793353 0.070000 0.608761
v 0.793353 -0.070000 0.608761
v 0.751840 0.070000 0.659346
v 0.751840 -0.070000 0.659346
v 0.707107 0.070000 0.707107
v 0.707107 -0.070000 0.707107
v 0.659346 0.070000 0.751840
v 0.659346 -0.070000 0.751840
v 0.608761 0.070000 0.793353
v 0.608761 -0.070000 0.793353
v 0.555570 0.070000 0.831470
v 0.555570 -0.070000 0.831470
v 0.500000 0.070000 0.866025
v 0.500000 -0.070000 0.866025
v 0.442289 0.070000 0.896873
v 0.442289 -0.070000 0.896873
v 0.382683 0.070000 0.923880
v 0.382683 -0.070000 0.923880
v 0.321439 0.070000 0.946930
v 0.321439 -0.070000 0.946930
v 0.258819 0.070000 0.965926
v 0.258819 -0.070000 0.965926
v 0.195090 0.070000 0.980785
v 0.195090 -0.070000 0.980785
v 0.130526 0.070000 0.991445
v 0.130526 -0.070000 0.991445
v 0.065403 0.070000 0.997859
v 0.065403 -0.070000 0.997859
v 0.000000 0.070000 1.000000
v 0.000000 -0.070000 1.000000
v -0.065403 0.070000 0.997859
v -0.065403 -0.070000 0.997859
v -0.130526 0.070000 0.991445
v -0.130526 -0.070000 0.991445
v -0.195090 0.070000 0.980785
v -0.195090 -0.070000 0.980785
v -0.258819 0.070000 0.965926
v -0.258819 -0.070000 0.965926
v -0.321439 0.070000 0.946930
v -0.321439 -0.070000 0.946930
v -0.382683 0.070000 0.923880
v -0.382683 -0.070000 0.923880
v -0.442289 0.070000 0.896873
v -0.442289 -0.070000 0.896873
v -0.500000 0.070000 0.866025
v -0.500000 -0.070000 0.866025
v -0.555570 0.070000 0.831470
v -0.555570 -0.070000 0.831470
v -0.608761 0.070000 0.793353
v -0.608761 -0.070000 0.793353
v -0.659346 0.070000 0.751840
v -0.659346 -0.070000 0.751840
v -0.707107 0.070000 0.707107
v -0.707107 -0.070000 0.707107
v -0.751840 0.070000 0.659346
v -0.751840 -0.070000 0.659346
v -0.793353 0.070000 0.608761
v -0.793353 -0.070000 0.608761
v -0.831470 0.070000 0.555570
v -0.831470 -0.070000 0.555570
v -0.866025 0.070000 0.500000
v -0.866025 -0.070000 0.500000
v -0.896873 0.070000 0.442289
v -0.896873 -0.070000 0.442289
v -0.923880 0.070000 0.382683
v -0.923880 -0.070000 0.382683
v -0.946930 0.070000 0.321439
v -0.946930 -0.070000 0.321439
v -0.965926 0.070000 0.258819
v -0.965926 -0.070000 0.258819
v -0.980785 0.070000 0.195090
v -0.980785 -0.070000 0.195090
v -0.991445 0.070000 0.130526
v -0.991445 -0.070000 0.130526
v -0.997859 0.070000 0.065403
v -0.997859 -0.070000 0.065403
v -1.000000 0.070000 0.000000
v -1.000000 -0.070000 0.000000
v -0.997859 0.070000 -0.065403
v -0.997859 -0.070000 -0.065403
v -0.991445 0.070000 -0.130526
v -0.991445 -0.070000 -0.130526
v -0.980785 0.070000 -0.195090
v -0.980785 -0.070000 -0.195090
v -0.965926 0.070000 -0.258819
v -0.965926 -0.070000 -0.258819
v -0.946930 0.070000 -0.321439
v -0.946930 -0.070000 -0.321439
v -0.923880 0.070000 -0.382683
v -0.923880 -0.070000 -0.382683
v -0.896873 0.070000 -0.442289
v -0.896873 -0.070000 -0.442289
v -0.866025 0.070000 -0.500000
v -0.866025 -0.070000 -0.500000
v -0.831470 0.070000 -0.555570
v -0.831470 -0.070000 -0.555570
v -0.793353 0.070000 -0.608761
v -0.793353 -0.070000 -0.608761
v -0.751840 0.070000 -0.659346
v -0.751840 -0.070000 -0.659346
v -0.707107 0.070000 -0.707107
v -0.707107 -0.070000 -0.707107
v -0.659346 0.070000 -0.751840
v -0.659346 -0.070000 -0.751840
v -0.608761 0.070000 -0.793353
v -0.608761 -0.070000 -0.793353
v -0.555570 0.070000 -0.831470
v -0.555570 -0.070000 -0.831470
v -0.500000 0.070000 -0.866025
v -0.500000 -0.070000 -0.866025
v -0.442289 0.070000 -0.896873
v -0.442289 -0.070000 -0.896873
v -0.382683 0.070000 -0.923880
v -0.382683 -0.070000 -0.923880
v -0.321439 0.070000 -0.946930
v -0.321439 -0.070000 -0.946930
v -0.258819 0.070000 -0.965926
v -0.258819 -0.070000 -0.965926
v -0.195090 0.070000 -0.980785
v -0.195090 -0.070000 -0.980785
v -0.130526 0.070000 -0.991445
v -0.130526 -0.070000 -0.991445
v -0.065403 0.070000 -0.997859
v -0.065403 -0.070000 -0.997859
v -0.000000 0.070000 -1.000000
v -0.000000 -0.070000 -1.000000
v 0.065403 0.070000 -0.997859
v 0.065403 -0.070000 -0.997859
v 0.130526 0.070000 -0.991445
v 0.130526 -0.070000 -0.991445
v 0.195090 0.070000 -0.980785
v 0.195090 -0.070000 -0.980785
v 0.258819 0.070000 -0.965926
v 0.258819 -0.070000 -0.965926
v 0.321439 0.070000 -0.946930
v 0.321439 -0.070000 -0.946930
v 0.382683 0.070000 -0.923880
v 0.382683 -0.070000 -0.923880
v 0.442289 0.070000 -0.896873
v 0.442289 -0.070000 -0.896873
v 0.500000 0.070000 -0.866025
v 0.500000 -0.070000 -0.866025
v 0.555570 0.070000 -0.831470
v 0.555570 -0.070000 -0.831470
v 0.608761 0.070000 -0.793353
v 0.608761 -0.070000 -0.793353
v 0.659346 0.070000 -0.751840
v 0.659346 -0.070000 -0.751840
v 0.707107 0.070000 -0.707107
v 0.707107 -0.070000 -0.707107
v 0.751840 0.070000 -0.659346
v 0.751840 -0.070000 -0.659346
v 0.793353 0.070000 -0.608761
v 0.793353 -0.070000 -0.608761
v 0.831470 0.070000 -0.555570
v 0.831470 -0.070000 -0.555570
v 0.866025 0.070000 -0.500000
v 0.866025 -0.070000 -0.500000
v 0.896873 0.070000 -0.442289
v 0.896873 -0.070000 -0.442289
v 0.923880 0.070000 -0.382683
v 0.923880 -0.070000 -0.382683
v 0.946930 0.070000 -0.321439
v 0.946930 -0.070000 -0.321439
v 0.965926 0.070000 -0.258819
v 0.965926 -0.070000 -0.258819
v 0.980785 0.070000 -0.195090
v 0.980785 -0.070000 -0.195090
v 0.991445 0.070000 -0.130526
v 0.991445 -0.070000 -0.130526
v 0.997859 0.070000 -0.065403
v 0.997859 -0.070000 -0.065403
v 1.000000 0.070000 0.000000
v 1.000000 -0.070000 0.000000
vt 0.071875 0.750000
vt 0.072256 0.761650
vt 0.073399 0.773250
vt 0.075298 0.784750
vt 0.077944 0.796102
vt 0.081328 0.807256
vt 0.085434 0.818165
vt 0.090245 0.828783
vt 0.095739 0.839063
vt 0.101894 0.848961
vt 0.108684 0.858436
vt 0.116079 0.867446
vt 0.124047 0.875953
vt 0.132554 0.883921
vt 0.141564 0.891316
vt 0.151039 0.898106
vt 0.160937 0.904261
vt 0.171217 0.909755
vt 0.181835 0.914566
vt 0.192744 0.918672
vt 0.203898 0.922056
vt 0.215250 0.924702
vt 0.226750 0.926601
vt 0.238350 0.927744
vt 0.250000 0.928125
vt 0.261650 0.927744
vt 0.273250 0.926601
vt 0.284750 0.924702
vt 0.296102 0.922056
vt 0.307256 0.918672
vt 0.318165 0.914566
vt 0.328783 0.909755
vt 0.339062 0.904261
vt 0.348961 0.898106
vt 0.358436 0.891316
vt 0.367446 0.883921
vt 0.375953 0.875953
vt 0.383921 0.867446
vt 0.391316 0.858436
vt 0.398106 0.848961
vt 0.404261 0.839063
vt 0.409755 0.828783
vt 0.414566 0.818165
vt 0.418672 0.807256
vt 0.422056 0.796102
vt 0.424702 0.784750
vt 0.426601 0.773250
vt 0.427744 0.761650
vt 0.428125 0.750000
vt 0.427744 0.738350
vt 0.426601 0.726750
vt 0.424702 0.715250
vt 0.422056 0.703898
vt 0.418672 0.692744
vt 0.414566 0.681835
vt 0.409755 0.671217
vt 0.404261 0.660938
vt 0.398106 0.651039
vt 0.391316 0.641564
vt 0.383921 0.632554
vt 0.375953 0.624047
vt 0.367446 0.616079
vt 0.358436 0.608684
vt 0.348961 0.601894
vt 0.339063 0.595739
vt 0.328783 0.590245
vt 0.318165 0.585434
vt 0.307256 0.581328
vt 0.296102 0.577944
vt 0.284750 0.575298
vt 0.273250 0.573399
vt 0.261650 0.572256
vt 0.250000 0.571875
vt 0.238350 0.572256
vt 0.226750 0.573399
vt 0.215250 0.575298
vt 0.203898 0.577944
vt 0.192744 0.581328
vt 0.181835 0.585434
vt 0.171217 0.590245
vt 0.160937 0.595739
vt 0.151039 0.601894
vt 0.141564 0.608684
vt 0.132554 0.616079
vt 0.124047 0.624047
vt 0.116079 0.632554
vt 0.108684 0.641564
vt 0.101894 0.651039
vt 0.095739 0.660937
vt 0.090245 0.671217
vt 0.085434 0.681835
vt 0.081328 0.692744
vt 0.077944 0.703898
vt 0.075298 0.715250
vt 0.073399 0.726750
vt 0.072256 0.738350
vt 0.062500 0.750000
vt 0.062901 0.762263
vt 0.064104 0.774474
vt 0.066103 0.786579
vt 0.068889 0.798529
vt 0.072451 0.810270
vt 0.076773 0.821753
vt 0.081836 0.832929
vt 0.087620 0.843750
vt 0.094099 0.854169
vt 0.101246 0.864143
vt 0.109030 0.873627
vt 0.117417 0.882583
vt 0.126373 0.890970
vt 0.135857 0.898754
vt 0.145831 0.905901
vt 0.156250 0.912380
vt 0.167071 0.918164
vt 0.178247 0.923227
vt 0.189730 0.927549
vt 0.201471 0.931111
vt 0.213421 0.933897
vt 0.225526 0.935896
vt 0.237737 0.937099
vt 0.250000 0.937500
vt 0.262263 0.937099
vt 0.274474 0.935896
vt 0.286579 0.933897
vt 0.298529 0.931111
vt 0.310270 0.927549
vt 0.321753 0.923227
vt 0.332929 0.918164
vt 0.343750 0.912380
vt 0.354169 0.905901
vt 0.364143 0.898754
vt 0.373627 0.890970
vt 0.382583 0.882583
vt 0.390970 0.873627
vt 0.398754 0.864143
vt 0.405901 0.854169
vt 0.412380 0.843750
vt 0.418164 0.832929
vt 0.423227 0.821753
vt 0.427549 0.810270
vt 0.431111 0.798529
vt 0.433897 0.786579
vt 0.435896 0.774474
vt 0.437099 0.762263
vt 0.437500 0.750000
vt 0.437099 0.737737
vt 0.435896 0.725526
vt 0.433897 0.713421
vt 0.431111 0.701471
vt 0.427549 0.689730
vt 0.423227 0.678247
vt 0.418164 0.667071
vt 0.412380 0.656250
vt 0.405901 0.645831
vt 0.398754 0.635857
vt 0.390970 0.626373
vt 0.382583 0.617417
vt 0.373627 0.609030
vt 0.364143 0.601246
vt 0.354169 0.594099
vt 0.343750 0.587620
vt 0.332929 0.581836
vt 0.321753 0.576773
vt 0.310270 0.572451
vt 0.298529 0.568889
vt 0.286579 0.566103
vt 0.274474 0.564104
vt 0.262263 0.562901
vt 0.250000 0.562500
vt 0.237737 0.562901
vt 0.225526 0.564104
vt 0.213421 0.566103
vt 0.201471 0.568889
vt 0.189730 0.572451
vt 0.178247 0.576773
vt 0.167071 0.581836
vt 0.156250 0.587620
vt 0.145831 0.594099
vt 0.135857 0.601246
vt 0.126373 0.609030
vt 0.117417 0.617417
vt 0.109030 0.626373
vt 0.101246 0.635857
vt 0.094099 0.645831
vt 0.087620 0.656250
vt 0.081836 0.667071
vt 0.076773 0.678247
vt 0.072451 0.689730
vt 0.068889 0.701471
vt 0.066103 0.713421
vt 0.064104 0.725526
vt 0.062901 0.737737
vt 0.039062 0.750000
vt 0.039514 0.763796
vt 0.040867 0.777533
vt 0.043116 0.791152
vt 0.046250 0.804595
vt 0.050257 0.817804
vt 0.055119 0.830722
vt 0.060816 0.843295
vt 0.067323 0.855469
vt 0.074612 0.867191
vt 0.082652 0.878411
vt 0.091409 0.889081
vt 0.100845 0.899155
vt 0.110919 0.908591
vt 0.121589 0.917348
vt 0.132809 0.925388
vt 0.144531 0.932677
vt 0.156705 0.939184
vt 0.169278 0.944881
vt 0.182196 0.949743
vt 0.195405 0.953750
vt 0.208848 0.956884
vt 0.222467 0.959133
vt 0.236204 0.960486
vt 0.250000 0.960938
vt 0.263796 0.960486
vt 0.277533 0.959133
vt 0.291152 0.956884
vt 0.304595 0.953750
vt 0.317804 0.949743
vt 0.330722 0.944881
vt 0.343295 0.939184
vt 0.355469 0.932677
vt 0.367191 0.925388
vt 0.378411 0.917348
vt 0.389081 0.908591
vt 0.399155 0.899155
vt 0.408591 0.889081
vt 0.417348 0.878411
vt 0.425388 0.867191
vt 0.432677 0.855469
vt 0.439184 0.843295
vt 0.444881 0.830722
vt 0.449743 0.817804
vt 0.453750 0.804595
vt 0.456884 0.791152
vt 0.459133 0.777533
vt 0.460486 0.763796
vt 0.460938 0.750000
vt 0.460486 0.736204
vt 0.459133 0.722467
vt 0.456884 0.708848
vt 0.453750 0.695405
vt 0.449743 0.682196
vt 0.444881 0.669278
vt 0.439184 0.656705
vt 0.432677 0.644531
vt 0.425388 0.632809
vt 0.417348 0.621589
vt 0.408591 0.610919
vt 0.399155 0.600845
vt 0.389081 0.591409
vt 0.378411 0.582652
vt 0.367191 0.574612
vt 0.355469 0.567323
vt 0.343295 0.560816
vt 0.330722 0.555119
vt 0.317804 0.550257
vt 0.304595 0.546250
vt 0.291152 0.543116
vt 0.277533 0.540867
vt 0.263796 0.539514
vt 0.250000 0.539062
vt 0.236204 0.539514
vt 0.222467 0.540867
vt 0.208848 0.543116
vt 0.195405 0.546250
vt 0.182196 0.550257
vt 0.169278 0.555119
vt 0.156705 0.560816
vt 0.144531 0.567323
vt 0.132809 0.574612
vt 0.121589 0.582652
vt 0.110919 0.591409
vt 0.100845 0.600845
vt 0.091409 0.610919
vt 0.082652 0.621589
vt 0.074612 0.632809
vt 0.067323 0.644531
vt 0.060816 0.656705
vt 0.055119 0.669278
vt 0.050257 0.682196
vt 0.046250 0.695405
vt 0.043116 0.708848
vt 0.040867 0.722467
vt 0.039514 0.736204
vt 0.015625 0.750000
vt 0.016127 0.765329
vt 0.017630 0.780592
vt 0.020128 0.795724
vt 0.023611 0.810661
vt 0.028063 0.825337
vt 0.033466 0.839691
vt 0.039795 0.853661
vt 0.047025 0.867188
vt 0.055124 0.880212
vt 0.064058 0.892678
vt 0.073788 0.904534
vt 0.084272 0.915728
vt 0.095466 0.926212
vt 0.107322 0.935942
vt 0.119788 0.944876
vt 0.132812 0.952975
vt 0.146339 0.960205
vt 0.160309 0.966534
vt 0.174663 0.971937
vt 0.189339 0.976389
vt 0.204276 0.979872
vt 0.219408 0.982370
vt 0.234671 0.983873
vt 0.250000 0.984375
vt 0.265329 0.983873
vt 0.280592 0.982370
vt 0.295724 0.979872
vt 0.310661 0.976389
vt 0.325337 0.971937
vt 0.339691 0.966534
vt 0.353661 0.960205
vt 0.367187 0.952975
vt 0.380212 0.944876
vt 0.392678 0.935942
vt 0.404534 0.926212
vt 0.415728 0.915728
vt 0.426212 0.904534
vt 0.435942 0.892678
vt 0.444876 0.880212
vt 0.452975 0.867188
vt 0.460205 0.853661
vt 0.466534 0.839691
vt 0.471937 0.825337
vt 0.476389 0.810661
vt 0.479872 0.795724
vt 0.482370 0.780592
vt 0.483873 0.765329
vt 0.484375 0.750000
vt 0.483873 0.734671
vt 0.482370 0.719408
vt 0.479872 0.704276
vt 0.476389 0.689339
vt 0.471937 0.674663
vt 0.466534 0.660309
vt 0.460205 0.646339
vt 0.452975 0.632812
vt 0.444876 0.619788
vt 0.435942 0.607322
vt 0.426212 0.595466
vt 0.415728 0.584272
vt 0.404534 0.573788
vt 0.392678 0.564058
vt 0.380212 0.555124
vt 0.367188 0.547025
vt 0.353661 0.539795
vt 0.339691 0.533466
vt 0.325337 0.528063
vt 0.310661 0.523611
vt 0.295724 0.520128
vt 0.280592 0.517630
vt 0.265329 0.516127
vt 0.250000 0.515625
vt 0.234671 0.516127
vt 0.219408 0.517630
vt 0.204276 0.520128
vt 0.189339 0.523611
vt 0.174663 0.528063
vt 0.160309 0.533466
vt 0.146339 0.539795
vt 0.132812 0.547025
vt 0.119788 0.555124
vt 0.107322 0.564058
vt 0.095466 0.573788
vt 0.084272 0.584272
vt 0.073788 0.595466
vt 0.064058 0.607322
vt 0.055124 0.619788
vt 0.047025 0.632812
vt 0.039795 0.646339
vt 0.033466 0.660309
vt 0.028063 0.674663
vt 0.023611 0.689339
vt 0.020128 0.704276
vt 0.017630 0.719408
vt 0.016127 0.734671
vt 0.928125 0.750000
vt 0.927744 0.761650
vt 0.926601 0.773250
vt 0.924702 0.784750
vt 0.922056 0.796102
vt 0.918672 0.807256
vt 0.914566 0.818165
vt 0.909755 0.828783
vt 0.904261 0.839063
vt 0.898106 0.848961
vt 0.891316 0.858436
vt 0.883921 0.867446
vt 0.875953 0.875953
vt 0.867446 0.883921
vt 0.858436 0.891316
vt 0.848961 0.898106
vt 0.839063 0.904261
vt 0.828783 0.909755
vt 0.818165 0.914566
vt 0.807256 0.918672
vt 0.796102 0.922056
vt 0.784750 0.924702
vt 0.773250 0.926601
vt 0.761650 0.927744
vt 0.750000 0.928125
vt 0.738350 0.927744
vt 0.726750 0.926601
vt 0.715250 0.924702
vt 0.703898 0.922056
vt 0.692744 0.918672
vt 0.681835 0.914566
vt 0.671217 0.909755
vt 0.660938 0.904261
vt 0.651039 0.898106
vt 0.641564 0.891316
vt 0.632554 0.883921
vt 0.624047 0.875953
vt 0.616079 0.867446
vt 0.608684 0.858436
vt 0.601894 0.848961
vt 0.595739 0.839063
vt 0.590245 0.828783
vt 0.585434 0.818165
vt 0.581328 0.807256
vt 0.577944 0.796102
vt 0.575298 0.784750
vt 0.573399 0.773250
vt 0.572256 0.761650
vt 0.571875 0.750000
vt 0.572256 0.738350
vt 0.573399 0.726750
vt 0.575298 0.715250
vt 0.577944 0.703898
vt 0.581328 0.692744
vt 0.585434 0.681835
vt 0.590245 0.671217
vt 0.595739 0.660938
vt 0.601894 0.651039
vt 0.608684 0.641564
vt 0.616079 0.632554
vt 0.624047 0.624047
vt 0.632554 0.616079
vt 0.641564 0.608684
vt 0.651039 0.601894
vt 0.660937 0.595739
vt 0.671217 0.590245
vt 0.681835 0.585434
vt 0.692744 0.581328
vt 0.703898 0.577944
vt 0.715250 0.575298
vt 0.726750 0.573399
vt 0.738350 0.572256
vt 0.750000 0.571875
vt 0.761650 0.572256
vt 0.773250 0.573399
vt 0.784750 0.575298
vt 0.796102 0.577944
vt 0.807256 0.581328
vt 0.818165 0.585434
vt 0.828783 0.590245
vt 0.839063 0.595739
vt 0.848961 0.601894
vt 0.858436 0.608684
vt 0.867446 0.616079
vt 0.875953 0.624047
vt 0.883921 0.632554
vt 0.891316 0.641564
vt 0.898106 0.651039
vt 0.904261 0.660937
vt 0.909755 0.671217
vt 0.914566 0.681835
vt 0.918672 0.692744
vt 0.922056 0.703898
vt 0.924702 0.715250
vt 0.926601 0.726750
vt 0.927744 0.738350
vt 0.937500 0.750000
vt 0.937099 0.762263
vt 0.935896 0.774474
vt 0.933897 0.786579
vt 0.931111 0.798529
vt 0.927549 0.810270
vt 0.923227 0.821753
vt 0.918164 0.832929
vt 0.912380 0.843750
vt 0.905901 0.854169
vt 0.898754 0.864143
vt 0.890970 0.873627
vt 0.882583 0.882583
vt 0.873627 0.890970
vt 0.864143 0.898754
vt 0.854169 0.905901
vt 0.843750 0.912380
vt 0.832929 0.918164
vt 0.821753 0.923227
vt 0.810270 0.927549
vt 0.798529 0.931111
vt 0.786579 0.933897
vt 0.774474 0.935896
vt 0.762263 0.937099
vt 0.750000 0.937500
vt 0.737737 0.937099
vt 0.725526 0.935896
vt 0.713421 0.933897
vt 0.701471 0.931111
vt 0.689730 0.927549
vt 0.678247 0.923227
vt 0.667071 0.918164
vt 0.656250 0.912380
vt 0.645831 0.905901
vt 0.635857 0.898754
vt 0.626373 0.890970
vt 0.617417 0.882583
vt 0.609030 0.873627
vt 0.601246 0.864143
vt 0.594099 0.854169
vt 0.587620 0.843750
vt 0.581836 0.832929
vt 0.576773 0.821753
vt 0.572451 0.810270
vt 0.568889 0.798529
vt 0.566103 0.786579
vt 0.564104 0.774474
vt 0.562901 0.762263
vt 0.562500 0.750000
vt 0.562901 0.737737
vt 0.564104 0.725526
vt 0.566103 0.713421
vt 0.568889 0.701471
vt 0.572451 0.689730
vt 0.576773 0.678247
vt 0.581836 0.667071
vt 0.587620 0.656250
vt 0.594099 0.645831
vt 0.601246 0.635857
vt 0.609030 0.626373
vt 0.617417 0.617417
vt 0.626373 0.609030
vt 0.635857 0.601246
vt 0.645831 0.594099
vt 0.656250 0.587620
vt 0.667071 0.581836
vt 0.678247 0.576773
vt 0.689730 0.572451
vt 0.701471 0.568889
vt 0.713421 0.566103
vt 0.725526 0.564104
vt 0.737737 0.562901
vt 0.750000 0.562500
vt 0.762263 0.562901
vt 0.774474 0.564104
vt 0.786579 0.566103
vt 0.798529 0.568889
vt 0.810270 0.572451
vt 0.821753 0.576773
vt 0.832929 0.581836
vt 0.843750 0.587620
vt 0.854169 0.594099
vt 0.864143 0.601246
vt 0.873627 0.609030
vt 0.882583 0.617417
vt 0.890970 0.626373
vt 0.898754 0.635857
vt 0.905901 0.645831
vt 0.912380 0.656250
vt 0.918164 0.667071
vt 0.923227 0.678247
vt 0.927549 0.689730
vt 0.931111 0.701471
vt 0.933897 0.713421
vt 0.935896 0.725526
vt 0.937099 0.737737
vt 0.960938 0.750000
vt 0.960486 0.763796
vt 0.959133 0.777533
vt 0.956884 0.791152
vt 0.953750 0.804595
vt 0.949743 0.817804
vt 0.944881 0.830722
vt 0.939184 0.843295
vt 0.932677 0.855469
vt 0.925388 0.867191
vt 0.917348 0.878411
vt 0.908591 0.889081
vt 0.899155 0.899155
vt 0.889081 0.908591
vt 0.878411 0.917348
vt 0.867191 0.925388
vt 0.855469 0.932677
vt 0.843295 0.939184
vt 0.830722 0.944881
vt 0.817804 0.949743
vt 0.804595 0.953750
vt 0.791152 0.956884
vt 0.777533 0.959133
vt 0.763796 0.960486
vt 0.750000 0.960938
vt 0.736204 0.960486
vt 0.722467 0.959133
vt 0.708848 0.956884
vt 0.695405 0.953750
vt 0.682196 0.949743
vt 0.669278 0.944881
vt 0.656705 0.939184
vt 0.644531 0.932677
vt 0.632809 0.925388
vt 0.621589 0.917348
vt 0.610919 0.908591
vt 0.600845 0.899155
vt 0.591409 0.889081
vt 0.582652 0.878411
vt 0.574612 0.867191
vt 0.567323 0.855469
vt 0.560816 0.843295
vt 0.555119 0.830722
vt 0.550257 0.817804
vt 0.546250 0.804595
vt 0.543116 0.791152
vt 0.540867 0.777533
vt 0.539514 0.763796
vt 0.539062 0.750000
vt 0.539514 0.736204
vt 0.540867 0.722467
vt 0.543116 0.708848
vt 0.546250 0.695405
vt 0.550257 0.682196
vt 0.555119 0.669278
vt 0.560816 0.656705
vt 0.567323 0.644531
vt 0.574612 0.632809
vt 0.582652 0.621589
vt 0.591409 0.610919
vt 0.600845 0.600845
vt 0.610919 0.591409
vt 0.621589 0.582652
vt 0.632809 0.574612
vt 0.644531 0.567323
vt 0.656705 0.560816
vt 0.669278 0.555119
vt 0.682196 0.550257
vt 0.695405 0.546250
vt 0.708848 0.543116
vt 0.722467 0.540867
vt 0.736204 0.539514
vt 0.750000 0.539062
vt 0.763796 0.539514
vt 0.777533 0.540867
vt 0.791152 0.543116
vt 0.804595 0.546250
vt 0.817804 0.550257
vt 0.830722 0.555119
vt 0.843295 0.560816
vt 0.855469 0.567323
vt 0.867191 0.574612
vt 0.878411 0.582652
vt 0.889081 0.591409
vt 0.899155 0.600845
vt 0.908591 0.610919
vt 0.917348 0.621589
vt 0.925388 0.632809
vt 0.932677 0.644531
vt 0.939184 0.656705
vt 0.944881 0.669278
vt 0.949743 0.682196
vt 0.953750 0.695405
vt 0.956884 0.708848
vt 0.959133 0.722467
vt 0.960486 0.736204
vt 0.984375 0.750000
vt 0.983873 0.765329
vt 0.982370 0.780592
vt 0.979872 0.795724
vt 0.976389 0.810661
vt 0.971937 0.825337
vt 0.966534 0.839691
vt 0.960205 0.853661
vt 0.952975 0.867188
vt 0.944876 0.880212
vt 0.935942 0.892678
vt 0.926212 0.904534
vt 0.915728 0.915728
vt 0.904534 0.926212
vt 0.892678 0.935942
vt 0.880212 0.944876
vt 0.867188 0.952975
vt 0.853661 0.960205
vt 0.839691 0.966534
vt 0.825337 0.971937
vt 0.810661 0.976389
vt 0.795724 0.979872
vt 0.780592 0.982370
vt 0.765329 0.983873
vt 0.750000 0.984375
vt 0.734671 0.983873
vt 0.719408 0.982370
vt 0.704276 0.979872
vt 0.689339 0.976389
vt 0.674663 0.971937
vt 0.660309 0.966534
vt 0.646339 0.960205
vt 0.632812 0.952975
vt 0.619788 0.944876
vt 0.607322 0.935942
vt 0.595466 0.926212
vt 0.584272 0.915728
vt 0.573788 0.904534
vt 0.564058 0.892678
vt 0.555124 0.880212
vt 0.547025 0.867188
vt 0.539795 0.853661
vt 0.533466 0.839691
vt 0.528063 0.825337
vt 0.523611 0.810661
vt 0.520128 0.795724
vt 0.517630 0.780592
vt 0.516127 0.765329
vt 0.515625 0.750000
vt 0.516127 0.734671
vt 0.517630 0.719408
vt 0.520128 0.704276
vt 0.523611 0.689339
vt 0.528063 0.674663
vt 0.533466 0.660309
vt 0.539795 0.646339
vt 0.547025 0.632812
vt 0.555124 0.619788
vt 0.564058 0.607322
vt 0.573788 0.595466
vt 0.584272 0.584272
vt 0.595466 0.573788
vt 0.607322 0.564058
vt 0.619788 0.555124
vt 0.632812 0.547025
vt 0.646339 0.539795
vt 0.660309 0.533466
vt 0.674663 0.528063
vt 0.689339 0.523611
vt 0.704276 0.520128
vt 0.719408 0.517630
vt 0.734671 0.516127
vt 0.750000 0.515625
vt 0.765329 0.516127
vt 0.780592 0.517630
vt 0.795724 0.520128
vt 0.810661 0.523611
vt 0.825337 0.528063
vt 0.839691 0.533466
vt 0.853661 0.539795
vt 0.867188 0.547025
vt 0.880212 0.555124
vt 0.892678 0.564058
vt 0.904534 0.573788
vt 0.915728 0.584272
vt 0.926212 0.595466
vt 0.935942 0.607322
vt 0.944876 0.619788
vt 0.952975 0.632812
vt 0.960205 0.646339
vt 0.966534 0.660309
vt 0.971937 0.674663
vt 0.976389 0.689339
vt 0.979872 0.704276
vt 0.982370 0.719408
vt 0.983873 0.734671
vt 0.250000 0.750000
vt 0.750000 0.750000
vt 0.000000 0.395833
vt 0.000000 0.104167
vt 0.010417 0.395833
vt 0.010417 0.104167
vt 0.020833 0.395833
vt 0.020833 0.104167
vt 0.031250 0.395833
vt 0.031250 0.104167
vt 0.041667 0.395833
vt 0.041667 0.104167
vt 0.052083 0.395833
vt 0.052083 0.104167
vt 0.062500 0.395833
vt 0.062500 0.104167
vt 0.072917 0.395833
vt 0.072917 0.104167
vt 0.083333 0.395833
vt 0.083333 0.104167
vt 0.093750 0.395833
vt 0.093750 0.104167
vt 0.104167 0.395833
vt 0.104167 0.104167
vt 0.114583 0.395833
vt 0.114583 0.104167
vt 0.125000 0.395833
vt 0.125000 0.104167
vt 0.135417 0.395833
vt 0.135417 0.104167
vt 0.145833 0.395833
vt 0.145833 0.104167
vt 0.156250 0.395833
vt 0.156250 0.104167
vt 0.166667 0.395833
vt 0.166667 0.104167
vt 0.177083 0.395833
vt 0.177083 0.104167
vt 0.187500 0.395833
vt 0.187500 0.104167
vt 0.197917 0.395833
vt 0.197917 0.104167
vt 0.208333 0.395833
vt 0.208333 0.104167
vt 0.218750 0.395833
vt 0.218750 0.104167
vt 0.229167 0.395833
vt 0.229167 0.104167
vt 0.239583 0.395833
vt 0.239583 0.104167
vt 0.250000 0.395833
vt 0.250000 0.104167
vt 0.260417 0.395833
vt 0.260417 0.104167
vt 0.270833 0.395833
vt 0.270833 0.104167
vt 0.281250 0.395833
vt 0.281250 0.104167
vt 0.291667 0.395833
vt 0.291667 0.104167
vt 0.302083 0.395833
vt 0.302083 0.104167
vt 0.312500 0.395833
vt 0.312500 0.104167
vt 0.322917 0.395833
vt 0.322917 0.104167
vt 0.333333 0.395833
vt 0.333333 0.104167
vt 0.343750 0.395833
vt 0.343750 0.104167
vt 0.354167 0.395833
vt 0.354167 0.104167
vt 0.364583 0.395833
vt 0.364583 0.104167
vt 0.375000 0.395833
vt 0.375000 0.104167
vt 0.385417 0.395833
vt 0.385417 0.104167
vt 0.395833 0.395833
vt 0.395833 0.104167
vt 0.406250 0.395833
vt 0.406250 0.104167
vt 0.416667 0.395833
vt 0.416667 0.104167
vt 0.427083 0.395833
vt 0.427083 0.104167
vt 0.437500 0.395833
vt 0.437500 0.104167
vt 0.447917 0.395833
vt 0.447917 0.104167
vt 0.458333 0.395833
vt 0.458333 0.104167
vt 0.468750 0.395833
vt 0.468750 0.104167
vt 0.479167 0.395833
vt 0.479167 0.104167
vt 0.489583 0.395833
vt 0.489583 0.104167
vt 0.500000 0.395833
vt 0.500000 0.104167
vt 0.510417 0.395833
vt 0.510417 0.104167
vt 0.520833 0.395833
vt 0.520833 0.104167
vt 0.531250 0.395833
vt 0.531250 0.104167
vt 0.541667 0.395833
vt 0.541667 0.104167
vt 0.552083 0.395833
vt 0.552083 0.104167
vt 0.562500 0.395833
vt 0.562500 0.104167
vt 0.572917 0.395833
vt 0.572917 0.104167
vt 0.583333 0.395833
vt 0.583333 0.104167
vt 0.593750 0.395833
vt 0.593750 0.104167
vt 0.604167 0.395833
vt 0.604167 0.104167
vt 0.614583 0.395833
vt 0.614583 0.104167
vt 0.625000 0.395833
vt 0.625000 0.104167
vt 0.635417 0.395833
vt 0.635417 0.104167
vt 0.645833 0.395833
vt 0.645833 0.104167
vt 0.656250 0.395833
vt 0.656250 0.104167
vt 0.666667 0.395833
vt 0.666667 0.104167
vt 0.677083 0.395833
vt 0.677083 0.104167
vt 0.687500 0.395833
vt 0.687500 0.104167
vt 0.697917 0.395833
vt 0.697917 0.104167
vt 0.708333 0.395833
vt 0.708333 0.104167
vt 0.718750 0.395833
vt 0.718750 0.104167
vt 0.729167 0.395833
vt 0.729167 0.104167
vt 0.739583 0.395833
vt 0.739583 0.104167
vt 0.750000 0.395833
vt 0.750000 0.104167
vt 0.760417 0.395833
vt 0.760417 0.104167
vt 0.770833 0.395833
vt 0.770833 0.104167
vt 0.781250 0.395833
vt 0.781250 0.104167
vt 0.791667 0.395833
vt 0.791667 0.104167
vt 0.802083 0.395833
vt 0.802083 0.104167
vt 0.812500 0.395833
vt 0.812500 0.104167
vt 0.822917 0.395833
vt 0.822917 0.104167
vt 0.833333 0.395833
vt 0.833333 0.104167
vt 0.843750 0.395833
vt 0.843750 0.104167
vt 0.854167 0.395833
vt 0.854167 0.104167
vt 0.864583 0.395833
vt 0.864583 0.104167
vt 0.875000 0.395833
vt 0.875000 0.104167
vt 0.885417 0.395833
vt 0.885417 0.104167
vt 0.895833 0.395833
vt 0.895833 0.104167
vt 0.906250 0.395833
vt 0.906250 0.104167
vt 0.916667 0.395833
vt 0.916667 0.104167
vt 0.927083 0.395833
vt 0.927083 0.104167
vt 0.937500 0.395833
vt 0.937500 0.104167
vt 0.947917 0.395833
vt 0.947917 0.104167
vt 0.958333 0.395833
vt 0.958333 0.104167
vt 0.968750 0.395833
vt 0.968750 0.104167
vt 0.979167 0.395833
vt 0.979167 0.104167
vt 0.989583 0.395833
vt 0.989583 0.104167
vt 1.000000 0.395833
vt 1.000000 0.104167
f 769/769 2/2 1/1
f 770/770 385/385 386/386
f 1/1 2/2 98/98
f 1/1 98/98 97/97
f 385/385 481/481 482/482
f 385/385 482/482 386/386
f 97/97 98/98 194/194
f 97/97 194/194 193/193
f 481/481 577/577 578/578
f 481/481 578/578 482/482
f 193/193 194/194 290/290
f 193/193 290/290 289/289
f 577/577 673/673 674/674
f 577/577 674/674 578/578
f 769/769 3/3 2/2
f 770/770 386/386 387/387
f 2/2 3/3 99/99
f 2/2 99/99 98/98
f 386/386 482/482 483/483
f 386/386 483/483 387/387
f 98/98 99/99 195/195
f 98/98 195/195 194/194
f 482/482 578/578 579/579
f 482/482 579/579 483/483
f 194/194 195/195 291/291
f 194/194 291/291 290/290
f 578/578 674/674 675/675
f 578/578 675/675 579/579
f 769/769 4/4 3/3
f 770/770 387/387 388/388
f 3/3 4/4 100/100
f 3/3 100/100 99/99
f 387/387 483/483 484/484
f 387/387 484/484 388/388
f 99/99 100/100 196/196
f 99/99 196/196 195/195
f 483/483 579/579 580/580
f 483/483 580/580 484/484
f 195/195 196/196 292/292
f 195/195 292/292 291/291
f 579/579 675/675 676/676
f 579/579 676/676 580/580
f 769/769 5/5 4/4
f 770/770 388/388 389/389
f 4/4 5/5 101/101
f 4/4 101/101 100/100
f 388/388 484/484 485/485
f 388/388 485/485 389/389
f 100/100 101/101 197/197
f 100/100 197/197 196/196
f 484/484 580/580 581/581
f 484/484 581/581 485/485
f 196/196 197/197 293/293
f 196/196 293/293 292/292
f 580/580 676/676 677/677
f 580/580 677/677 581/581
f 769/769 6/6 5/5
f 770/770 389/389 390/390
f 5/5 6/6 102/102
f 5/5 102/102 101/101
f 389/389 485/485 486/486
f 389/389 486/486 390/390
f 101/101 102/102 198/198
f 101/101 198/198 197/197
f 485/485 581/581 582/582
f 485/485 582/582 486/486
f 197/197 198/198 294/294
f 197/197 294/294 293/293
f 581/581 677/677 678/678
f 581/581 678/678 582/582
f 769/769 7/7 6/6
f 770/770 390/390 391/391
f 6/6 7/7 103/103
f 6/6 103/103 102/102
f 390/390 486/486 487/487
f 390/390 487/487 391/391
f 102/102 103/103 199/199
f 102/102 199/199 198/198
f 486/486 582/582 583/583
f 486/486 583/583 487/487
f 198/198 199/199 295/295
f 198/198 295/295 294/294
f 582/582 678/678 679/679
f 582/582 679/679 583/583
f 769/769 8/8 7/7
f 770/770 391/391 392/392
f 7/7 8/8 104/104
f 7/7 104/104 103/103
f 391/391 487/487 488/488
f 391/391 488/488 392/392
f 103/103 104/104 200/200
f 103/103 200/200 199/199
f 487/487 583/583 584/584
f 487/487 584/584 488/488
f 199/199 200/200 296/296
f 199/199 296/296 295/295
f 583/583 679/679 680/680
f 583/583 680/680 584/584
f 769/769 9/9 8/8
f 770/770 392/392 393/393
f 8/8 9/9 105/105
f 8/8 105/105 104/104
f 392/392 488/488 489/489
f 392/392 489/489 393/393
f 104/104 105/105 201/201
f 104/104 201/201 200/200
f 488/488 584/584 585/585
f 488/488 585/585 489/489
f 200/200 201/201 297/297
f 200/200 297/297 296/296
f 584/584 680/680 681/681
f 584/584 681/681 585/585
f 769/769 10/10 9/9
f 770/770 393/393 394/394
f 9/9 10/10 106/106
f 9/9 106/106 105/105
f 393/393 489/489 490/490
f 393/393 490/490 394/394
f 105/105 106/106 202/202
f 105/105 202/202 201/201
f 489/489 585/585 586/586
f 489/489 586/586 490/490
f 201/201 202/202 298/298
f 201/201 298/298 297/297
f 585/585 681/681 682/682
f 585/585 682/682 586/586
f 769/769 11/11 10/10
f 770/770 394/394 395/395
f 10/10 11/11 107/107
f 10/10 107/107 106/106
f 394/394 490/490 491/491
f 394/394 491/491 395/395
f 106/106 107/107 203/203
f 106/106 203/203 202/202
f 490/490 586/586 587/587
f 490/490 587/587 491/491
f 202/202 203/203 299/299
f 202/202 299/299 298/298
f 586/586 682/682 683/683
f 586/586 683/683 587/587
f 769/769 12/12 11/11
f 770/770 395/395 396/396
f 11/11 12/12 108/108
f 11/11 108/108 107/107
f 395/395 491/491 492/492
f 395/395 492/492 396/396
f 107/107 108/108 204/204
f 107/107 204/204 203/203
f 491/491 587/587 588/588
f 491/491 588/588 492/492
f 203/203 204/204 300/300
f 203/203 300/300 299/299
f 587/587 683/683 684/684
f 587/587 684/684 588/588
f 769/769 13/13 12/12
f 770/770 396/396 397/397
f 12/12 13/13 109/109
f 12/12 109/109 108/108
f 396/396 492/492 493/493
f 396/396 493/493 397/397
f 108/108 109/109 205/205
f 108/108 205/205 204/204
f 492/492 588/588 589/589
f 492/492 589/589 493/493
f 204/204 205/205 301/301
f 204/204 301/301 300/300
f 588/588 684/684 685/685
f 588/588 685/685 589/589
f 769/769 14/14 13/13
f 770/770 397/397 398/398
f 13/13 14/14 110/110
f 13/13 110/110 109/109
f 397/397 493/493 494/494
f 397/397 494/494 398/398
f 109/109 110/110 206/206
f 109/109 206/206 205/205
f 493/493 589/589 590/590
f 493/493 590/590 494/494
f 205/205 206/206 302/302
f 205/205 302/302 301/301
f 589/589 685/685 686/686
f 589/589 686/686 590/590
f 769/769 15/15 14/14
f 770/770 398/398 399/399
f 14/14 15/15 111/111
f 14/14 111/111 110/110
f 398/398 494/494 495/495
f 398/398 495/495 399/399
f 110/110 111/111 207/207
f 110/110 207/207 206/206
f 494/494 590/590 591/591
f 494/494 591/591 495/495
f 206/206 207/207 303/303
f 206/206 303/303 302/302
f 590/590 686/686 687/687
f 590/590 687/687 591/591
f 769/769 16/16 15/15
f 770/770 399/399 400/400
f 15/15 16/16 112/112
f 15/15 112/112 111/111
f 399/399 495/495 496/496
f 399/399 496/496 400/400
f 111/111 112/112 208/208
f 111/111 208/208 207/207
f 495/495 591/591 592/592
f 495/495 592/592 496/496
f 207/207 208/208 304/304
f 207/207 304/304 303/303
f 591/591 687/687 688/688
f 591/591 688/688 592/592
f 769/769 17/17 16/16
f 770/770 400/400 401/401
f 16/16 17/17 113/113
f 16/16 113/113 112/112
f 400/400 496/496 497/497
f 400/400 497/497 401/401
f 112/112 113/113 209/209
f 112/112 209/209 208/208
f 496/496 592/592 593/593
f 496/496 593/593 497/497
f 208/208 209/209 305/305
f 208/208 305/305 304/304
f 592/592 688/688 689/689
f 592/592 689/689 593/593
f 769/769 18/18 17/17
f 770/770 401/401 402/402
f 17/17 18/18 114/114
f 17/17 114/114 113/113
f 401/401 497/497 498/498
f 401/401 498/498 402/402
f 113/113 114/114 210/210
f 113/113 210/210 209/209
f 497/497 593/593 594/594
f 497/497 594/594 498/498
f 209/209 210/210 306/306
f 209/209 306/306 305/305
f 593/593 689/689 690/690
f 593/593 690/690 594/594
f 769/769 19/19 18/18
f 770/770 402/402 403/403
f 18/18 19/19 115/115
f 18/18 115/115 114/114
f 402/402 498/498 499/499
f 402/402 499/499 403/403
f 114/114 115/115 211/211
f 114/114 211/211 210/210
f 498/498 594/594 595/595
f 498/498 595/595 499/499
f 210/210 211/211 307/307
f 210/210 307/307 306/306
f 594/594 690/690 691/691
f 594/594 691/691 595/595
f 769/769 20/20 19/19
f 770/770 403/403 404/404
f 19/19 20/20 116/116
f 19/19 116/116 115/115
f 403/403 499/499 500/500
f 403/403 500/500 404/404
f 115/115 116/116 212/212
f 115/115 212/212 211/211
f 499/499 595/595 596/596
f 499/499 596/596 500/500
f 211/211 212/212 308/308
f 211/211 308/308 307/307
f 595/595 691/691 692/692
f 595/595 692/692 596/596
f 769/769 21/21 20/20
f 770/770 404/404 405/405
f 20/20 21/21 117/117
f 20/20 117/117 116/116
f 404/404 500/500 501/501
f 404/404 501/501 405/405
f 116/116 117/117 213/213
f 116/116 213/213 212/212
f 500/500 596/596 597/597
f 500/500 597/597 501/501
f 212/212 213/213 309/309
f 212/212 309/309 308/308
f 596/596 692/692 693/693
f 596/596 693/693 597/597
f 769/769 22/22 21/21
f 770/770 405/405 406/406
f 21/21 22/22 118/118
f 21/21 118/118 117/117
f 405/405 501/501 502/502
f 405/405 502/502 406/406
f 117/117 118/118 214/214
f 117/117 214/214 213/213
f 501/501 597/597 598/598
f 501/501 598/598 502/502
f 213/213 214/214 310/310
f 213/213 310/310 309/309
f 597/597 693/693 694/694
f 597/597 694/694 598/598
f 769/769 23/23 22/22
f 770/770 406/406 407/407
f 22/22 23/23 119/119
f 22/22 119/119 118/118
f 406/406 502/502 503/503
f 406/406 503/503 407/407
f 118/118 119/119 215/215
f 118/118 215/215 214/214
f 502/502 598/598 599/599
f 502/502 599/599 503/503
f 214/214 215/215 311/311
f 214/214 311/311 310/310
f 598/598 694/694 695/695
f 598/598 695/695 599/599
f 769/769 24/24 23/23
f 770/770 407/407 408/408
f 23/23 24/24 120/120
f 23/23 120/120 119/119
f 407/407 503/503 504/504
f 407/407 504/504 408/408
f 119/119 120/120 216/216
f 119/119 216/216 215/215
f 503/503 599/599 600/600
f 503/503 600/600 504/504
f 215/215 216/216 312/312
f 215/215 312/312 311/311
f 599/599 695/695 696/696
f 599/599 696/696 600/600
f 769/769 25/25 24/24
f 770/770 408/408 409/409
f 24/24 25/25 121/121
f 24/24 121/121 120/120
f 408/408 504/504 505/505
f 408/408 505/505 409/409
f 120/120 121/121 217/217
f 120/120 217/217 216/216
f 504/504 600/600 601/601
f 504/504 601/601 505/505
f 216/216 217/217 313/313
f 216/216 313/313 312/312
f 600/600 696/696 697/697
f 600/600 697/697 601/601
f 769/769 26/26 25/25
f 770/770 409/409 410/410
f 25/25 26/26 122/122
f 25/25 122/122 121/121
f 409/409 505/505 506/506
f 409/409 506/506 410/410
f 121/121 122/122 218/218
f 121/121 218/218 217/217
f 505/505 601/601 602/602
f 505/505 602/602 506/506
f 217/217 218/218 314/314
f 217/217 314/314 313/313
f 601/601 697/697 698/698
f 601/601 698/698 602/602
f 769/769 27/27 26/26
f 770/770 410/410 411/411
f 26/26 27/27 123/123
f 26/26 123/123 122/122
f 410/410 506/506 507/507
f 410/410 507/507 411/411
f 122/122 123/123 219/219
f 122/122 219/219 218/218
f 506/506 602/602 603/603
f 506/506 603/603 507/507
f 218/218 219/219 315/315
f 218/218 315/315 314/314
f 602/602 698/698 699/699
f 602/602 699/699 603/603
f 769/769 28/28 27/27
f 770/770 411/411 412/412
f 27/27 28/28 124/124
f 27/27 124/124 123/123
f 411/411 507/507 508/508
f 411/411 508/508 412/412
f 123/123 124/124 220/220
f 123/123 220/220 219/219
f 507/507 603/603 604/604
f 507/507 604/604 508/508
f 219/219 220/220 316/316
f 219/219 316/316 315/315
f 603/603 699/699 700/700
f 603/603 700/700 604/604
f 769/769 29/29 28/28
f 770/770 412/412 413/413
f 28/28 29/29 125/125
f 28/28 125/125 124/124
f 412/412 508/508 509/509
f 412/412 509/509 413/413
f 124/124 125/125 221/221
f 124/124 221/221 220/220
f 508/508 604/604 605/605
f 508/508 605/605 509/509
f 220/220 221/221 317/317
f 220/220 317/317 316/316
f 604/604 700/700 701/701
f 604/604 701/701 605/605
f 769/769 30/30 29/29
f 770/770 413/413 414/414
f 29/29 30/30 126/126
f 29/29 126/126 125/125
f 413/413 509/509 510/510
f 413/413 510/510 414/414
f 125/125 126/126 222/222
f 125/125 222/222 221/221
f 509/509 605/605 606/606
f 509/509 606/606 510/510
f 221/221 222/222 318/318
f 221/221 318/318 317/317
f 605/605 701/701 702/702
f 605/605 702/702 606/606
f 769/769 31/31 30/30
f 770/770 414/414 415/415
f 30/30 31/31 127/127
f 30/30 127/127 126/126
f 414/414 510/510 511/511
f 414/414 511/511 415/415
f 126/126 127/127 223/223
f 126/126 223/223 222/222
f 510/510 606/606 607/607
f 510/510 607/607 511/511
f 222/222 223/223 319/319
f 222/222 319/319 318/318
f 606/606 702/702 703/703
f 606/606 703/703 607/607
f 769/769 32/32 31/31
f 770/770 415/415 416/416
f 31/31 32/32 128/128
f 31/31 128/128 127/127
f 415/415 511/511 512/512
f 415/415 512/512 416/416
f 127/127 128/128 224/224
f 127/127 224/224 223/223
f 511/511 607/607 608/608
f 511/511 608/608 512/512
f 223/223 224/224 320/320
f 223/223 320/320 319/319
f 607/607 703/703 704/704
f 607/607 704/704 608/608
f 769/769 33/33 32/32
f 770/770 416/416 417/417
f 32/32 33/33 129/129
f 32/32 129/129 128/128
f 416/416 512/512 513/513
f 416/416 513/513 417/417
f 128/128 129/129 225/225
f 128/128 225/225 224/224
f 512/512 608/608 609/609
f 512/512 609/609 513/513
f 224/224 225/225 321/321
f 224/224 321/321 320/320
f 608/608 704/704 705/705
f 608/608 705/705 609/609
f 769/769 34/34 33/33
f 770/770 417/417 418/418
f 33/33 34/34 130/130
f 33/33 130/130 129/129
f 417/417 513/513 514/514
f 417/417 514/514 418/418
f 129/129 130/130 226/226
f 129/129 226/226 225/225
f 513/513 609/609 610/610
f 513/513 610/610 514/514
f 225/225 226/226 322/322
f 225/225 322/322 321/321
f 609/609 705/705 706/706
f 609/609 706/706 610/610
f 769/769 35/35 34/34
f 770/770 418/418 419/419
f 34/34 35/35 131/131
f 34/34 131/131 130/130
f 418/418 514/514 515/515
f 418/418 515/515 419/419
f 130/130 131/131 227/227
f 130/130 227/227 226/226
f 514/514 610/610 611/611
f 514/514 611/611 515/515
f 226/226 227/227 323/323
f 226/226 323/323 322/322
f 610/610 706/706 707/707
f 610/610 707/707 611/611
f 769/769 36/36 35/35
f 770/770 419/419 420/420
f 35/35 36/36 132/132
f 35/35 132/132 131/131
f 419/419 515/515 516/516
f 419/419 516/516 420/420
f 131/131 132/132 228/228
f 131/131 228/228 227/227
f 515/515 611/611 612/612
f 515/515 612/612 516/516
f 227/227 228/228 324/324
f 227/227 324/324 323/323
f 611/611 707/707 708/708
f 611/611 708/708 612/612
f 769/769 37/37 36/36
f 770/770 420/420 421/421
f 36/36 37/37 133/133
f 36/36 133/133 132/132
f 420/420 516/516 517/517
f 420/420 517/517 421/421
f 132/132 133/133 229/229
f 132/132 229/229 228/228
f 516/516 612/612 613/613
f 516/516 613/613 517/517
f 228/228 229/229 325/325
f 228/228 325/325 324/324
f 612/612 708/708 709/709
f 612/612 709/709 613/613
f 769/769 38/38 37/37
f 770/770 421/421 422/422
f 37/37 38/38 134/134
f 37/37 134/134 133/133
f 421/421 517/517 518/518
f 421/421 518/518 422/422
f 133/133 134/134 230/230
f 133/133 230/230 229/229
f 517/517 613/613 614/614
f 517/517 614/614 518/518
f 229/229 230/230 326/326
f 229/229 326/326 325/325
f 613/613 709/709 710/710
f 613/613 710/710 614/614
f 769/769 39/39 38/38
f 770/770 422/422 423/423
f 38/38 39/39 135/135
f 38/38 135/135 134/134
f 422/422 518/518 519/519
f 422/422 519/519 423/423
f 134/134 135/135 231/231
f 134/134 231/231 230/230
f 518/518 614/614 615/615
f 518/518 615/615 519/519
f 230/230 231/231 327/327
f 230/230 327/327 326/326
f 614/614 710/710 711/711
f 614/614 711/711 615/615
f 769/769 40/40 39/39
f 770/770 423/423 424/424
f 39/39 40/40 136/136
f 39/39 136/136 135/135
f 423/423 519/519 520/520
f 423/423 520/520 424/424
f 135/135 136/136 232/232
f 135/135 232/232 231/231
f 519/519 615/615 616/616
f 519/519 616/616 520/520
f 231/231 232/232 328/328
f 231/231 328/328 327/327
f 615/615 711/711 712/712
f 615/615 712/712 616/616
f 769/769 41/41 40/40
f 770/770 424/424 425/425
f 40/40 41/41 137/137
f 40/40 137/137 136/136
f 424/424 520/520 521/521
f 424/424 521/521 425/425
f 136/136 137/137 233/233
f 136/136 233/233 232/232
f 520/520 616/616 617/617
f 520/520 617/617 521/521
f 232/232 233/233 329/329
f 232/232 329/329 328/328
f 616/616 712/712 713/713
f 616/616 713/713 617/617
f 769/769 42/42 41/41
f 770/770 425/425 426/426
f 41/41 42/42 138/138
f 41/41 138/138 137/137
f 425/425 521/521 522/522
f 425/425 522/522 426/426
f 137/137 138/138 234/234
f 137/137 234/234 233/233
f 521/521 617/617 618/618
f 521/521 618/618 522/522
f 233/233 234/234 330/330
f 233/233 330/330 329/329
f 617/617 713/713 714/714
f 617/617 714/714 618/618
f 769/769 43/43 42/42
f 770/770 426/426 427/427
f 42/42 43/43 139/139
f 42/42 139/139 138/138
f 426/426 522/522 523/523
f 426/426 523/523 427/427
f 138/138 139/139 235/235
f 138/138 235/235 234/234
f 522/522 618/618 619/619
f 522/522 619/619 523/523
f 234/234 235/235 331/331
f 234/234 331/331 330/330
f 618/618 714/714 715/715
f 618/618 715/715 619/619
f 769/769 44/44 43/43
f 770/770 427/427 428/428
f 43/43 44/44 140/140
f 43/43 140/140 139/139
f 427/427 523/523 524/524
f 427/427 524/524 428/428
f 139/139 140/140 236/236
f 139/139 236/236 235/235
f 523/523 619/619 620/620
f 523/523 620/620 524/524
f 235/235 236/236 332/332
f 235/235 332/332 331/331
f 619/619 715/715 716/716
f 619/619 716/716 620/620
f 769/769 45/45 44/44
f 770/770 428/428 429/429
f 44/44 45/45 141/141
f 44/44 141/141 140/140
f 428/428 524/524 525/525
f 428/428 525/525 429/429
f 140/140 141/141 237/237
f 140/140 237/237 236/236
f 524/524 620/620 621/621
f 524/524 621/621 525/525
f 236/236 237/237 333/333
f 236/236 333/333 332/332
f 620/620 716/716 717/717
f 620/620 717/717 621/621
f 769/769 46/46 45/45
f 770/770 429/429 430/430
f 45/45 46/46 142/142
f 45/45 142/142 141/141
f 429/429 525/525 526/526
f 429/429 526/526 430/430
f 141/141 142/142 238/238
f 141/141 238/238 237/237
f 525/525 621/621 622/622
f 525/525 622/622 526/526
f 237/237 238/238 334/334
f 237/237 334/334 333/333
f 621/621 717/717 718/718
f 621/621 718/718 622/622
f 769/769 47/47 46/46
f 770/770 430/430 431/431
f 46/46 47/47 143/143
f 46/46 143/143 142/142
f 430/430 526/526 527/527
f 430/430 527/527 431/431
f 142/142 143/143 239/239
f 142/142 239/239 238/238
f 526/526 622/622 623/623
f 526/526 623/623 527/527
f 238/238 239/239 335/335
f 238/238 335/335 334/334
f 622/622 718/718 719/719
f 622/622 719/719 623/623
f 769/769 48/48 47/47
f 770/770 431/431 432/432
f 47/47 48/48 144/144
f 47/47 144/144 143/143
f 431/431 527/527 528/528
f 431/431 528/528 432/432
f 143/143 144/144 240/240
f 143/143 240/240 239/239
f 527/527 623/623 624/624
f 527/527 624/624 528/528
f 239/239 240/240 336/336
f 239/239 336/336 335/335
f 623/623 719/719 720/720
f 623/623 720/720 624/624
f 769/769 49/49 48/48
f 770/770 432/432 433/433
f 48/48 49/49 145/145
f 48/48 145/145 144/144
f 432/432 528/528 529/529
f 432/432 529/529 433/433
f 144/144 145/145 241/241
f 144/144 241/241 240/240
f 528/528 624/624 625/625
f 528/528 625/625 529/529
f 240/240 241/241 337/337
f 240/240 337/337 336/336
f 624/624 720/720 721/721
f 624/624 721/721 625/625
f 769/769 50/50 49/49
f 770/770 433/433 434/434
f 49/49 50/50 146/146
f 49/49 146/146 145/145
f 433/433 529/529 530/530
f 433/433 530/530 434/434
f 145/145 146/146 242/242
f 145/145 242/242 241/241
f 529/529 625/625 626/626
f 529/529 626/626 530/530
f 241/241 242/242 338/338
f 241/241 338/338 337/337
f 625/625 721/721 722/722
f 625/625 722/722 626/626
f 769/769 51/51 50/50
f 770/770 434/434 435/435
f 50/50 51/51 147/147
f 50/50 147/147 146/146
f 434/434 530/530 531/531
f 434/434 531/531 435/435
f 146/146 147/147 243/243
f 146/146 243/243 242/242
f 530/530 626/626 627/627
f 530/530 627/627 531/531
f 242/242 243/243 339/339
f 242/242 339/339 338/338
f 626/626 722/722 723/723
f 626/626 723/723 627/627
f 769/769 52/52 51/51
f 770/770 435/435 436/436
f 51/51 52/52 148/148
f 51/51 148/148 147/147
f 435/435 531/531 532/532
f 435/435 532/532 436/436
f 147/147 148/148 244/244
f 147/147 244/244 243/243
f 531/531 627/627 628/628
f 531/531 628/628 532/532
f 243/243 244/244 340/340
f 243/243 340/340 339/339
f 627/627 723/723 724/724
f 627/627 724/724 628/628
f 769/769 53/53 52/52
f 770/770 436/436 437/437
f 52/52 53/53 149/149
f 52/52 149/149 148/148
f 436/436 532/532 533/533
f 436/436 533/533 437/437
f 148/148 149/149 245/245
f 148/148 245/245 244/244
f 532/532 628/628 629/629
f 532/532 629/629 533/533
f 244/244 245/245 341/341
f 244/244 341/341 340/340
f 628/628 724/724 725/725
f 628/628 725/725 629/629
f 769/769 54/54 53/53
f 770/770 437/437 438/438
f 53/53 54/54 150/150
f 53/53 150/150 149/149
f 437/437 533/533 534/534
f 437/437 534/534 438/438
f 149/149 150/150 246/246
f 149/149 246/246 245/245
f 533/533 629/629 630/630
f 533/533 630/630 534/534
f 245/245 246/246 342/342
f 245/245 342/342 341/341
f 629/629 725/725 726/726
f 629/629 726/726 630/630
f 769/769 55/55 54/54
f 770/770 438/438 439/439
f 54/54 55/55 151/151
f 54/54 151/151 150/150
f 438/438 534/534 535/535
f 438/438 535/535 439/439
f 150/150 151/151 247/247
f 150/150 247/247 246/246
f 534/534 630/630 631/631
f 534/534 631/631 535/535
f 246/246 247/247 343/343
f 246/246 343/343 342/342
f 630/630 726/726 727/727
f 630/630 727/727 631/631
f 769/769 56/56 55/55
f 770/770 439/439 440/440
f 55/55 56/56 152/152
f 55/55 152/152 151/151
f 439/439 535/535 536/536
f 439/439 536/536 440/440
f 151/151 152/152 248/248
f 151/151 248/248 247/247
f 535/535 631/631 632/632
f 535/535 632/632 536/536
f 247/247 248/248 344/344
f 247/247 344/344 343/343
f 631/631 727/727 728/728
f 631/631 728/728 632/632
f 769/769 57/57 56/56
f 770/770 440/440 441/441
f 56/56 57/57 153/153
f 56/56 153/153 152/152
f 440/440 536/536 537/537
f 440/440 537/537 441/441
f 152/152 153/153 249/249
f 152/152 249/249 248/248
f 536/536 632/632 633/633
f 536/536 633/633 537/537
f 248/248 249/249 345/345
f 248/248 345/345 344/344
f 632/632 728/728 729/729
f 632/632 729/729 633/633
f 769/769 58/58 57/57
f 770/770 441/441 442/442
f 57/57 58/58 154/154
f 57/57 154/154 153/153
f 441/441 537/537 538/538
f 441/441 538/538 442/442
f 153/153 154/154 250/250
f 153/153 250/250 249/249
f 537/537 633/633 634/634
f 537/537 634/634 538/538
f 249/249 250/250 346/346
f 249/249 346/346 345/345
f 633/633 729/729 730/730
f 633/633 730/730 634/634
f 769/769 59/59 58/58
f 770/770 442/442 443/443
f 58/58 59/59 155/155
f 58/58 155/155 154/154
f 442/442 538/538 539/539
f 442/442 539/539 443/443
f 154/154 155/155 251/251
f 154/154 251/251 250/250
f 538/538 634/634 635/635
f 538/538 635/635 539/539
f 250/250 251/251 347/347
f 250/250 347/347 346/346
f 634/634 730/730 731/731
f 634/634 731/731 635/635
f 769/769 60/60 59/59
f 770/770 443/443 444/444
f 59/59 60/60 156/156
f 59/59 156/156 155/155
f 443/443 539/539 540/540
f 443/443 540/540 444/444
f 155/155 156/156 252/252
f 155/155 252/252 251/251
f 539/539 635/635 636/636
f 539/539 636/636 540/540
f 251/251 252/252 348/348
f 251/251 348/348 347/347
f 635/635 731/731 732/732
f 635/635 732/732 636/636
f 769/769 61/61 60/60
f 770/770 444/444 445/445
f 60/60 61/61 157/157
f 60/60 157/157 156/156
f 444/444 540/540 541/541
f 444/444 541/541 445/445
f 156/156 157/157 253/253
f 156/156 253/253 252/252
f 540/540 636/636 637/637
f 540/540 637/637 541/541
f 252/252 253/253 349/349
f 252/252 349/349 348/348
f 636/636 732/732 733/733
f 636/636 733/733 637/637
f 769/769 62/62 61/61
f 770/770 445/445 446/446
f 61/61 62/62 158/158
f 61/61 158/158 157/157
f 445/445 541/541 542/542
f 445/445 542/542 446/446
f 157/157 158/158 254/254
f 157/157 254/254 253/253
f 541/541 637/637 638/638
f 541/541 638/638 542/542
f 253/253 254/254 350/350
f 253/253 350/350 349/349
f 637/637 733/733 734/734
f 637/637 734/734 638/638
f 769/769 63/63 62/62
f 770/770 446/446 447/447
f 62/62 63/63 159/159
f 62/62 159/159 158/158
f 446/446 542/542 543/543
f 446/446 543/543 447/447
f 158/158 159/159 255/255
f 158/158 255/255 254/254
f 542/542 638/638 639/639
f 542/542 639/639 543/543
f 254/254 255/255 351/351
f 254/254 351/351 350/350
f 638/638 734/734 735/735
f 638/638 735/735 639/639
f 769/769 64/64 63/63
f 770/770 447/447 448/448
f 63/63 64/64 160/160
f 63/63 160/160 159/159
f 447/447 543/543 544/544
f 447/447 544/544 448/448
f 159/159 160/160 256/256
f 159/159 256/256 255/255
f 543/543 639/639 640/640
f 543/543 640/640 544/544
f 255/255 256/256 352/352
f 255/255 352/352 351/351
f 639/639 735/735 736/736
f 639/639 736/736 640/640
f 769/769 65/65 64/64
f 770/770 448/448 449/449
f 64/64 65/65 161/161
f 64/64 161/161 160/160
f 448/448 544/544 545/545
f 448/448 545/545 449/449
f 160/160 161/161 257/257
f 160/160 257/257 256/256
f 544/544 640/640 641/641
f 544/544 641/641 545/545
f 256/256 257/257 353/353
f 256/256 353/353 352/352
f 640/640 736/736 737/737
f 640/640 737/737 641/641
f 769/769 66/66 65/65
f 770/770 449/449 450/450
f 65/65 66/66 162/162
f 65/65 162/162 161/161
f 449/449 545/545 546/546
f 449/449 546/546 450/450
f 161/161 162/162 258/258
f 161/161 258/258 257/257
f 545/545 641/641 642/642
f 545/545 642/642 546/546
f 257/257 258/258 354/354
f 257/257 354/354 353/353
f 641/641 737/737 738/738
f 641/641 738/738 642/642
f 769/769 67/67 66/66
f 770/770 450/450 451/451
f 66/66 67/67 163/163
f 66/66 163/163 162/162
f 450/450 546/546 547/547
f 450/450 547/547 451/451
f 162/162 163/163 259/259
f 162/162 259/259 258/258
f 546/546 642/642 643/643
f 546/546 643/643 547/547
f 258/258 259/259 355/355
f 258/258 355/355 354/354
f 642/642 738/738 739/739
f 642/642 739/739 643/643
f 769/769 68/68 67/67
f 770/770 451/451 452/452
f 67/67 68/68 164/164
f 67/67 164/164 163/163
f 451/451 547/547 548/548
f 451/451 548/548 452/452
f 163/163 164/164 260/260
f 163/163 260/260 259/259
f 547/547 643/643 644/644
f 547/547 644/644 548/548
f 259/259 260/260 356/356
f 259/259 356/356 355/355
f 643/643 739/739 740/740
f 643/643 740/740 644/644
f 769/769 69/69 68/68
f 770/770 452/452 453/453
f 68/68 69/69 165/165
f 68/68 165/165 164/164
f 452/452 548/548 549/549
f 452/452 549/549 453/453
f 164/164 165/165 261/261
f 164/164 261/261 260/260
f 548/548 644/644 645/645
f 548/548 645/645 549/549
f 260/260 261/261 357/357
f 260/260 357/357 356/356
f 644/644 740/740 741/741
f 644/644 741/741 645/645
f 769/769 70/70 69/69
f 770/770 453/453 454/454
f 69/69 70/70 166/166
f 69/69 166/166 165/165
f 453/453 549/549 550/550
f 453/453 550/550 454/454
f 165/165 166/166 262/262
f 165/165 262/262 261/261
f 549/549 645/645 646/646
f 549/549 646/646 550/550
f 261/261 262/262 358/358
f 261/261 358/358 357/357
f 645/645 741/741 742/742
f 645/645 742/742 646/646
f 769/769 71/71 70/70
f 770/770 454/454 455/455
f 70/70 71/71 167/167
f 70/70 167/167 166/166
f 454/454 550/550 551/551
f 454/454 551/551 455/455
f 166/166 167/167 263/263
f 166/166 263/263 262/262
f 550/550 646/646 647/647
f 550/550 647/647 551/551
f 262/262 263/263 359/359
f 262/262 359/359 358/358
f 646/646 742/742 743/743
f 646/646 743/743 647/647
f 769/769 72/72 71/71
f 770/770 455/455 456/456
f 71/71 72/72 168/168
f 71/71 168/168 167/167
f 455/455 551/551 552/552
f 455/455 552/552 456/456
f 167/167 168/168 264/264
f 167/167 264/264 263/263
f 551/551 647/647 648/648
f 551/551 648/648 552/552
f 263/263 264/264 360/360
f 263/263 360/360 359/359
f 647/647 743/743 744/744
f 647/647 744/744 648/648
f 769/769 73/73 72/72
f 770/770 456/456 457/457
f 72/72 73/73 169/169
f 72/72 169/169 168/168
f 456/456 552/552 553/553
f 456/456 553/553 457/457
f 168/168 169/169 265/265
f 168/168 265/265 264/264
f 552/552 648/648 649/649
f 552/552 649/649 553/553
f 264/264 265/265 361/361
f 264/264 361/361 360/360
f 648/648 744/744 745/745
f 648/648 745/745 649/649
f 769/769 74/74 73/73
f 770/770 457/457 458/458
f 73/73 74/74 170/170
f 73/73 170/170 169/169
f 457/457 553/553 554/554
f 457/457 554/554 458/458
f 169/169 170/170 266/266
f 169/169 266/266 265/265
f 553/553 649/649 650/650
f 553/553 650/650 554/554
f 265/265 266/266 362/362
f 265/265 362/362 361/361
f 649/649 745/745 746/746
f 649/649 746/746 650/650
f 769/769 75/75 74/74
f 770/770 458/458 459/459
f 74/74 75/75 171/171
f 74/74 171/171 170/170
f 458/458 554/554 555/555
f 458/458 555/555 459/459
f 170/170 171/171 267/267
f 170/170 267/267 266/266
f 554/554 650/650 651/651
f 554/554 651/651 555/555
f 266/266 267/267 363/363
f 266/266 363/363 362/362
f 650/650 746/746 747/747
f 650/650 747/747 651/651
f 769/769 76/76 75/75
f 770/770 459/459 460/460
f 75/75 76/76 172/172
f 75/75 172/172 171/171
f 459/459 555/555 556/556
f 459/459 556/556 460/460
f 171/171 172/172 268/268
f 171/171 268/268 267/267
f 555/555 651/651 652/652
f 555/555 652/652 556/556
f 267/267 268/268 364/364
f 267/267 364/364 363/363
f 651/651 747/747 748/748
f 651/651 748/748 652/652
f 769/769 77/77 76/76
f 770/770 460/460 461/461
f 76/76 77/77 173/173
f 76/76 173/173 172/172
f 460/460 556/556 557/557
f 460/460 557/557 461/461
f 172/172 173/173 269/269
f 172/172 269/269 268/268
f 556/556 652/652 653/653
f 556/556 653/653 557/557
f 268/268 269/269 365/365
f 268/268 365/365 364/364
f 652/652 748/748 749/749
f 652/652 749/749 653/653
f 769/769 78/78 77/77
f 770/770 461/461 462/462
f 77/77 78/78 174/174
f 77/77 174/174 173/173
f 461/461 557/557 558/558
f 461/461 558/558 462/462
f 173/173 174/174 270/270
f 173/173 270/270 269/269
f 557/557 653/653 654/654
f 557/557 654/654 558/558
f 269/269 270/270 366/366
f 269/269 366/366 365/365
f 653/653 749/749 750/750
f 653/653 750/750 654/654
f 769/769 79/79 78/78
f 770/770 462/462 463/463
f 78/78 79/79 175/175
f 78/78 175/175 174/174
f 462/462 558/558 559/559
f 462/462 559/559 463/463
f 174/174 175/175 271/271
f 174/174 271/271 270/270
f 558/558 654/654 655/655
f 558/558 655/655 559/559
f 270/270 271/271 367/367
f 270/270 367/367 366/366
f 654/654 750/750 751/751
f 654/654 751/751 655/655
f 769/769 80/80 79/79
f 770/770 463/463 464/464
f 79/79 80/80 176/176
f 79/79 176/176 175/175
f 463/463 559/559 560/560
f 463/463 560/560 464/464
f 175/175 176/176 272/272
f 175/175 272/272 271/271
f 559/559 655/655 656/656
f 559/559 656/656 560/560
f 271/271 272/272 368/368
f 271/271 368/368 367/367
f 655/655 751/751 752/752
f 655/655 752/752 656/656
f 769/769 81/81 80/80
f 770/770 464/464 465/465
f 80/80 81/81 177/177
f 80/80 177/177 176/176
f 464/464 560/560 561/561
f 464/464 561/561 465/465
f 176/176 177/177 273/273
f 176/176 273/273 272/272
f 560/560 656/656 657/657
f 560/560 657/657 561/561
f 272/272 273/273 369/369
f 272/272 369/369 368/368
f 656/656 752/752 753/753
f 656/656 753/753 657/657
f 769/769 82/82 81/81
f 770/770 465/465 466/466
f 81/81 82/82 178/178
f 81/81 178/178 177/177
f 465/465 561/561 562/562
f 465/465 562/562 466/466
f 177/177 178/178 274/274
f 177/177 274/274 273/273
f 561/561 657/657 658/658
f 561/561 658/658 562/562
f 273/273 274/274 370/370
f 273/273 370/370 369/369
f 657/657 753/753 754/754
f 657/657 754/754 658/658
f 769/769 83/83 82/82
f 770/770 466/466 467/467
f 82/82 83/83 179/179
f 82/82 179/179 178/178
f 466/466 562/562 563/563
f 466/466 563/563 467/467
f 178/178 179/179 275/275
f 178/178 275/275 274/274
f 562/562 658/658 659/659
f 562/562 659/659 563/563
f 274/274 275/275 371/371
f 274/274 371/371 370/370
f 658/658 754/754 755/755
f 658/658 755/755 659/659
f 769/769 84/84 83/83
f 770/770 467/467 468/468
f 83/83 84/84 180/180
f 83/83 180/180 179/179
f 467/467 563/563 564/564
f 467/467 564/564 468/468
f 179/179 180/180 276/276
f 179/179 276/276 275/275
f 563/563 659/659 660/660
f 563/563 660/660 564/564
f 275/275 276/276 372/372
f 275/275 372/372 371/371
f 659/659 755/755 756/756
f 659/659 756/756 660/660
f 769/769 85/85 84/84
f 770/770 468/468 469/469
f 84/84 85/85 181/181
f 84/84 181/181 180/180
f 468/468 564/564 565/565
f 468/468 565/565 469/469
f 180/180 181/181 277/277
f 180/180 277/277 276/276
f 564/564 660/660 661/661
f 564/564 661/661 565/565
f 276/276 277/277 373/373
f 276/276 373/373 372/372
f 660/660 756/756 757/757
f 660/660 757/757 661/661
f 769/769 86/86 85/85
f 770/770 469/469 470/470
f 85/85 86/86 182/182
f 85/85 182/182 181/181
f 469/469 565/565 566/566
f 469/469 566/566 470/470
f 181/181 182/182 278/278
f 181/181 278/278 277/277
f 565/565 661/661 662/662
f 565/565 662/662 566/566
f 277/277 278/278 374/374
f 277/277 374/374 373/373
f 661/661 757/757 758/758
f 661/661 758/758 662/662
f 769/769 87/87 86/86
f 770/770 470/470 471/471
f 86/86 87/87 183/183
f 86/86 183/183 182/182
f 470/470 566/566 567/567
f 470/470 567/567 471/471
f 182/182 183/183 279/279
f 182/182 279/279 278/278
f 566/566 662/662 663/663
f 566/566 663/663 567/567
f 278/278 279/279 375/375
f 278/278 375/375 374/374
f 662/662 758/758 759/759
f 662/662 759/759 663/663
f 769/769 88/88 87/87
f 770/770 471/471 472/472
f 87/87 88/88 184/184
f 87/87 184/184 183/183
f 471/471 567/567 568/568
f 471/471 568/568 472/472
f 183/183 184/184 280/280
f 183/183 280/280 279/279
f 567/567 663/663 664/664
f 567/567 664/664 568/568
f 279/279 280/280 376/376
f 279/279 376/376 375/375
f 663/663 759/759 760/760
f 663/663 760/760 664/664
f 769/769 89/89 88/88
f 770/770 472/472 473/473
f 88/88 89/89 185/185
f 88/88 185/185 184/184
f 472/472 568/568 569/569
f 472/472 569/569 473/473
f 184/184 185/185 281/281
f 184/184 281/281 280/280
f 568/568 664/664 665/665
f 568/568 665/665 569/569
f 280/280 281/281 377/377
f 280/280 377/377 376/376
f 664/664 760/760 761/761
f 664/664 761/761 665/665
f 769/769 90/90 89/89
f 770/770 473/473 474/474
f 89/89 90/90 186/186
f 89/89 186/186 185/185
f 473/473 569/569 570/570
f 473/473 570/570 474/474
f 185/185 186/186 282/282
f 185/185 282/282 281/281
f 569/569 665/665 666/666
f 569/569 666/666 570/570
f 281/281 282/282 378/378
f 281/281 378/378 377/377
f 665/665 761/761 762/762
f 665/665 762/762 666/666
f 769/769 91/91 90/90
f 770/770 474/474 475/475
f 90/90 91/91 187/187
f 90/90 187/187 186/186
f 474/474 570/570 571/571
f 474/474 571/571 475/475
f 186/186 187/187 283/283
f 186/186 283/283 282/282
f 570/570 666/666 667/667
f 570/570 667/667 571/571
f 282/282 283/283 379/379
f 282/282 379/379 378/378
f 666/666 762/762 763/763
f 666/666 763/763 667/667
f 769/769 92/92 91/91
f 770/770 475/475 476/476
f 91/91 92/92 188/188
f 91/91 188/188 187/187
f 475/475 571/571 572/572
f 475/475 572/572 476/476
f 187/187 188/188 284/284
f 187/187 284/284 283/283
f 571/571 667/667 668/668
f 571/571 668/668 572/572
f 283/283 284/284 380/380
f 283/283 380/380 379/379
f 667/667 763/763 764/764
f 667/667 764/764 668/668
f 769/769 93/93 92/92
f 770/770 476/476 477/477
f 92/92 93/93 189/189
f 92/92 189/189 188/188
f 476/476 572/572 573/573
f 476/476 573/573 477/477
f 188/188 189/189 285/285
f 188/188 285/285 284/284
f 572/572 668/668 669/669
f 572/572 669/669 573/573
f 284/284 285/285 381/381
f 284/284 381/381 380/380
f 668/668 764/764 765/765
f 668/668 765/765 669/669
f 769/769 94/94 93/93
f 770/770 477/477 478/478
f 93/93 94/94 190/190
f 93/93 190/190 189/189
f 477/477 573/573 574/574
f 477/477 574/574 478/478
f 189/189 190/190 286/286
f 189/189 286/286 285/285
f 573/573 669/669 670/670
f 573/573 670/670 574/574
f 285/285 286/286 382/382
f 285/285 382/382 381/381
f 669/669 765/765 766/766
f 669/669 766/766 670/670
f 769/769 95/95 94/94
f 770/770 478/478 479/479
f 94/94 95/95 191/191
f 94/94 191/191 190/190
f 478/478 574/574 575/575
f 478/478 575/575 479/479
f 190/190 191/191 287/287
f 190/190 287/287 286/286
f 574/574 670/670 671/671
f 574/574 671/671 575/575
f 286/286 287/287 383/383
f 286/286 383/383 382/382
f 670/670 766/766 767/767
f 670/670 767/767 671/671
f 769/769 96/96 95/95
f 770/770 479/479 480/480
f 95/95 96/96 192/192
f 95/95 192/192 191/191
f 479/479 575/575 576/576
f 479/479 576/576 480/480
f 191/191 192/192 288/288
f 191/191 288/288 287/287
f 575/575 671/671 672/672
f 575/575 672/672 576/576
f 287/287 288/288 384/384
f 287/287 384/384 383/383
f 671/671 767/767 768/768
f 671/671 768/768 672/672
f 769/769 1/1 96/96
f 770/770 480/480 385/385
f 96/96 1/1 97/97
f 96/96 97/97 192/192
f 480/480 576/576 481/481
f 480/480 481/481 385/385
f 192/192 97/97 193/193
f 192/192 193/193 288/288
f 576/576 672/672 577/577
f 576/576 577/577 481/481
f 288/288 193/193 289/289
f 288/288 289/289 384/384
f 672/672 768/768 673/673
f 672/672 673/673 577/577
f 771/771 773/773 774/774
f 771/771 774/774 772/772
f 773/773 775/775 776/776
f 773/773 776/776 774/774
f 775/775 777/777 778/778
f 775/775 778/778 776/776
f 777/777 779/779 780/780
f 777/777 780/780 778/778
f 779/779 781/781 782/782
f 779/779 782/782 780/780
f 781/781 783/783 784/784
f 781/781 784/784 782/782
f 783/783 785/785 786/786
f 783/783 786/786 784/784
f 785/785 787/787 788/788
f 785/785 788/788 786/786
f 787/787 789/789 790/790
f 787/787 790/790 788/788
f 789/789 791/791 792/792
f 789/789 792/792 790/790
f 791/791 793/793 794/794
f 791/791 794/794 792/792
f 793/793 795/795 796/796
f 793/793 796/796 794/794
f 795/795 797/797 798/798
f 795/795 798/798 796/796
f 797/797 799/799 800/800
f 797/797 800/800 798/798
f 799/799 801/801 802/802
f 799/799 802/802 800/800
f 801/801 803/803 804/804
f 801/801 804/804 802/802
f 803/803 805/805 806/806
f 803/803 806/806 804/804
f 805/805 807/807 808/808
f 805/805 808/808 806/806
f 807/807 809/809 810/810
f 807/807 810/810 808/808
f 809/809 811/811 812/812
f 809/809 812/812 810/810
f 811/811 813/813 814/814
f 811/811 814/814 812/812
f 813/813 815/815 816/816
f 813/813 816/816 814/814
f 815/815 817/817 818/818
f 815/815 818/818 816/816
f 817/817 819/819 820/820
f 817/817 820/820 818/818
f 819/819 821/821 822/822
f 819/819 822/822 820/820
f 821/821 823/823 824/824
f 821/821 824/824 822/822
f 823/823 825/825 826/826
f 823/823 826/826 824/824
f 825/825 827/827 828/828
f 825/825 828/828 826/826
f 827/827 829/829 830/830
f 827/827 830/830 828/828
f 829/829 831/831 832/832
f 829/829 832/832 830/830
f 831/831 833/833 834/834
f 831/831 834/834 832/832
f 833/833 835/835 836/836
f 833/833 836/836 834/834
f 835/835 837/837 838/838
f 835/835 838/838 836/836
f 837/837 839/839 840/840
f 837/837 840/840 838/838
f 839/839 841/841 842/842
f 839/839 842/842 840/840
f 841/841 843/843 844/844
f 841/841 844/844 842/842
f 843/843 845/845 846/846
f 843/843 846/846 844/844
f 845/845 847/847 848/848
f 845/845 848/848 846/846
f 847/847 849/849 850/850
f 847/847 850/850 848/848
f 849/849 851/851 852/852
f 849/849 852/852 850/850
f 851/851 853/853 854/854
f 851/851 854/854 852/852
f 853/853 855/855 856/856
f 853/853 856/856 854/854
f 855/855 857/857 858/858
f 855/855 858/858 856/856
f 857/857 859/859 860/860
f 857/857 860/860 858/858
f 859/859 861/861 862/862
f 859/859 862/862 860/860
f 861/861 863/863 864/864
f 861/861 864/864 862/862
f 863/863 865/865 866/866
f 863/863 866/866 864/864
f 865/865 867/867 868/868
f 865/865 868/868 866/866
f 867/867 869/869 870/870
f 867/867 870/870 868/868
f 869/869 871/871 872/872
f 869/869 872/872 870/870
f 871/871 873/873 874/874
f 871/871 874/874 872/872
f 873/873 875/875 876/876
f 873/873 876/876 874/874
f 875/875 877/877 878/878
f 875/875 878/878 876/876
f 877/877 879/879 880/880
f 877/877 880/880 878/878
f 879/879 881/881 882/882
f 879/879 882/882 880/880
f 881/881 883/883 884/884
f 881/881 884/884 882/882
f 883/883 885/885 886/886
f 883/883 886/886 884/884
f 885/885 887/887 888/888
f 885/885 888/888 886/886
f 887/887 889/889 890/890
f 887/887 890/890 888/888
f 889/889 891/891 892/892
f 889/889 892/892 890/890
f 891/891 893/893 894/894
f 891/891 894/894 892/892
f 893/893 895/895 896/896
f 893/893 896/896 894/894
f 895/895 897/897 898/898
f 895/895 898/898 896/896
f 897/897 899/899 900/900
f 897/897 900/900 898/898
f 899/899 901/901 902/902
f 899/899 902/902 900/900
f 901/901 903/903 904/904
f 901/901 904/904 902/902
f 903/903 905/905 906/906
f 903/903 906/906 904/904
f 905/905 907/907 908/908
f 905/905 908/908 906/906
f 907/907 909/909 910/910
f 907/907 910/910 908/908
f 909/909 911/911 912/912
f 909/909 912/912 910/910
f 911/911 913/913 914/914
f 911/911 914/914 912/912
f 913/913 915/915 916/916
f 913/913 916/916 914/914
f 915/915 917/917 918/918
f 915/915 918/918 916/916
f 917/917 919/919 920/920
f 917/917 920/920 918/918
f 919/919 921/921 922/922
f 919/919 922/922 920/920
f 921/921 923/923 924/924
f 921/921 924/924 922/922
f 923/923 925/925 926/926
f 923/923 926/926 924/924
f 925/925 927/927 928/928
f 925/925 928/928 926/926
f 927/927 929/929 930/930
f 927/927 930/930 928/928
f 929/929 931/931 932/932
f 929/929 932/932 930/930
f 931/931 933/933 934/934
f 931/931 934/934 932/932
f 933/933 935/935 936/936
f 933/933 936/936 934/934
f 935/935 937/937 938/938
f 935/935 938/938 936/936
f 937/937 939/939 940/940
f 937/937 940/940 938/938
f 939/939 941/941 942/942
f 939/939 942/942 940/940
f 941/941 943/943 944/944
f 941/941 944/944 942/942
f 943/943 945/945 946/946
f 943/943 946/946 944/944
f 945/945 947/947 948/948
f 945/945 948/948 946/946
f 947/947 949/949 950/950
f 947/947 950/950 948/948
f 949/949 951/951 952/952
f 949/949 952/952 950/950
f 951/951 953/953 954/954
f 951/951 954/954 952/952
f 953/953 955/955 956/956
f 953/953 956/956 954/954
f 955/955 957/957 958/958
f 955/955 958/958 956/956
f 957/957 959/959 960/960
f 957/957 960/960 958/958
f 959/959 961/961 962/962
f 959/959 962/962 960/960
f 961/961 963/963 964/964
f 961/961 964/964 962/962
