# Simplified compound collider: base + convex arched lid
v -1.540000 0.205000 -0.960000
v 1.540000 0.205000 -0.960000
v 1.540000 -0.795000 -0.960000
v -1.540000 -0.795000 -0.960000
v 1.540000 0.205000 0.960000
v -1.540000 0.205000 0.960000
v -1.540000 -0.795000 0.960000
v 1.540000 -0.795000 0.960000
v -1.540000 0.205000 0.960000
v -1.540000 0.205000 -0.960000
v -1.540000 -0.795000 -0.960000
v -1.540000 -0.795000 0.960000
v 1.540000 0.205000 -0.960000
v 1.540000 0.205000 0.960000
v 1.540000 -0.795000 0.960000
v 1.540000 -0.795000 -0.960000
v -1.540000 0.205000 0.960000
v 1.540000 0.205000 0.960000
v 1.540000 0.205000 -0.960000
v -1.540000 0.205000 -0.960000
v -1.540000 -0.795000 -0.960000
v 1.540000 -0.795000 -0.960000
v 1.540000 -0.795000 0.960000
v -1.540000 -0.795000 0.960000
v -1.580000 0.295000 -0.970000
v -1.580000 0.190000 -0.970000
v -1.580000 0.275000 0.000000
v -1.580000 0.666208 -0.727500
v -1.580000 0.295000 -0.970000
v -1.580000 0.275000 0.000000
v -1.580000 0.783456 -0.485000
v -1.580000 0.666208 -0.727500
v -1.580000 0.275000 0.000000
v -1.580000 0.841869 -0.242500
v -1.580000 0.783456 -0.485000
v -1.580000 0.275000 0.000000
v -1.580000 0.860000 0.000000
v -1.580000 0.841869 -0.242500
v -1.580000 0.275000 0.000000
v -1.580000 0.841869 0.242500
v -1.580000 0.860000 0.000000
v -1.580000 0.275000 0.000000
v -1.580000 0.783456 0.485000
v -1.580000 0.841869 0.242500
v -1.580000 0.275000 0.000000
v -1.580000 0.666208 0.727500
v -1.580000 0.783456 0.485000
v -1.580000 0.275000 0.000000
v -1.580000 0.295000 0.970000
v -1.580000 0.666208 0.727500
v -1.580000 0.275000 0.000000
v -1.580000 0.190000 0.970000
v -1.580000 0.295000 0.970000
v -1.580000 0.275000 0.000000
v -1.580000 0.190000 -0.970000
v -1.580000 0.190000 0.970000
v -1.580000 0.275000 0.000000
v 1.580000 0.275000 0.000000
v 1.580000 0.190000 -0.970000
v 1.580000 0.295000 -0.970000
v 1.580000 0.275000 0.000000
v 1.580000 0.295000 -0.970000
v 1.580000 0.666208 -0.727500
v 1.580000 0.275000 0.000000
v 1.580000 0.666208 -0.727500
v 1.580000 0.783456 -0.485000
v 1.580000 0.275000 0.000000
v 1.580000 0.783456 -0.485000
v 1.580000 0.841869 -0.242500
v 1.580000 0.275000 0.000000
v 1.580000 0.841869 -0.242500
v 1.580000 0.860000 0.000000
v 1.580000 0.275000 0.000000
v 1.580000 0.860000 0.000000
v 1.580000 0.841869 0.242500
v 1.580000 0.275000 0.000000
v 1.580000 0.841869 0.242500
v 1.580000 0.783456 0.485000
v 1.580000 0.275000 0.000000
v 1.580000 0.783456 0.485000
v 1.580000 0.666208 0.727500
v 1.580000 0.275000 0.000000
v 1.580000 0.666208 0.727500
v 1.580000 0.295000 0.970000
v 1.580000 0.275000 0.000000
v 1.580000 0.295000 0.970000
v 1.580000 0.190000 0.970000
v 1.580000 0.275000 0.000000
v 1.580000 0.190000 0.970000
v 1.580000 0.190000 -0.970000
v -1.580000 0.295000 -0.970000
v 1.580000 0.295000 -0.970000
v 1.580000 0.190000 -0.970000
v -1.580000 0.190000 -0.970000
v -1.580000 0.666208 -0.727500
v 1.580000 0.666208 -0.727500
v 1.580000 0.295000 -0.970000
v -1.580000 0.295000 -0.970000
v -1.580000 0.783456 -0.485000
v 1.580000 0.783456 -0.485000
v 1.580000 0.666208 -0.727500
v -1.580000 0.666208 -0.727500
v -1.580000 0.841869 -0.242500
v 1.580000 0.841869 -0.242500
v 1.580000 0.783456 -0.485000
v -1.580000 0.783456 -0.485000
v -1.580000 0.860000 0.000000
v 1.580000 0.860000 0.000000
v 1.580000 0.841869 -0.242500
v -1.580000 0.841869 -0.242500
v -1.580000 0.841869 0.242500
v 1.580000 0.841869 0.242500
v 1.580000 0.860000 0.000000
v -1.580000 0.860000 0.000000
v -1.580000 0.783456 0.485000
v 1.580000 0.783456 0.485000
v 1.580000 0.841869 0.242500
v -1.580000 0.841869 0.242500
v -1.580000 0.666208 0.727500
v 1.580000 0.666208 0.727500
v 1.580000 0.783456 0.485000
v -1.580000 0.783456 0.485000
v -1.580000 0.295000 0.970000
v 1.580000 0.295000 0.970000
v 1.580000 0.666208 0.727500
v -1.580000 0.666208 0.727500
v -1.580000 0.190000 0.970000
v 1.580000 0.190000 0.970000
v 1.580000 0.295000 0.970000
v -1.580000 0.295000 0.970000
v -1.580000 0.190000 -0.970000
v 1.580000 0.190000 -0.970000
v 1.580000 0.190000 0.970000
v -1.580000 0.190000 0.970000
f 1 2 3
f 1 3 4
f 5 6 7
f 5 7 8
f 9 10 11
f 9 11 12
f 13 14 15
f 13 15 16
f 17 18 19
f 17 19 20
f 21 22 23
f 21 23 24
f 25 26 27
f 28 29 30
f 31 32 33
f 34 35 36
f 37 38 39
f 40 41 42
f 43 44 45
f 46 47 48
f 49 50 51
f 52 53 54
f 55 56 57
f 58 59 60
f 61 62 63
f 64 65 66
f 67 68 69
f 70 71 72
f 73 74 75
f 76 77 78
f 79 80 81
f 82 83 84
f 85 86 87
f 88 89 90
f 91 92 93
f 91 93 94
f 95 96 97
f 95 97 98
f 99 100 101
f 99 101 102
f 103 104 105
f 103 105 106
f 107 108 109
f 107 109 110
f 111 112 113
f 111 113 114
f 115 116 117
f 115 117 118
f 119 120 121
f 119 121 122
f 123 124 125
f 123 125 126
f 127 128 129
f 127 129 130
f 131 132 133
f 131 133 134
