# AuthorityGamer Casino dice tower + connected tray
# Y up; negative Z is the tray/player side.
v -2.30000 0.00000 -4.55000
v -2.30000 0.22000 -4.55000
v 2.30000 0.22000 -4.55000
v 2.30000 0.00000 -4.55000
v -2.30000 0.00000 1.25000
v 2.30000 0.00000 1.25000
v 2.30000 0.22000 1.25000
v -2.30000 0.22000 1.25000
v -2.30000 0.00000 -4.55000
v 2.30000 0.00000 -4.55000
v 2.30000 0.00000 1.25000
v -2.30000 0.00000 1.25000
v -2.30000 0.22000 -4.55000
v -2.30000 0.22000 1.25000
v 2.30000 0.22000 1.25000
v 2.30000 0.22000 -4.55000
v -2.30000 0.00000 -4.55000
v -2.30000 0.00000 1.25000
v -2.30000 0.22000 1.25000
v -2.30000 0.22000 -4.55000
v 2.30000 0.00000 -4.55000
v 2.30000 0.22000 -4.55000
v 2.30000 0.22000 1.25000
v 2.30000 0.00000 1.25000
v -2.30000 0.22000 -4.29000
v -2.30000 0.62000 -4.29000
v -2.06000 0.62000 -4.29000
v -2.06000 0.22000 -4.29000
v -2.30000 0.22000 1.03000
v -2.06000 0.22000 1.03000
v -2.06000 0.62000 1.03000
v -2.30000 0.62000 1.03000
v -2.30000 0.22000 -4.29000
v -2.06000 0.22000 -4.29000
v -2.06000 0.22000 1.03000
v -2.30000 0.22000 1.03000
v -2.30000 0.62000 -4.29000
v -2.30000 0.62000 1.03000
v -2.06000 0.62000 1.03000
v -2.06000 0.62000 -4.29000
v -2.30000 0.22000 -4.29000
v -2.30000 0.22000 1.03000
v -2.30000 0.62000 1.03000
v -2.30000 0.62000 -4.29000
v -2.06000 0.22000 -4.29000
v -2.06000 0.62000 -4.29000
v -2.06000 0.62000 1.03000
v -2.06000 0.22000 1.03000
v 2.06000 0.22000 -4.29000
v 2.06000 0.62000 -4.29000
v 2.30000 0.62000 -4.29000
v 2.30000 0.22000 -4.29000
v 2.06000 0.22000 1.03000
v 2.30000 0.22000 1.03000
v 2.30000 0.62000 1.03000
v 2.06000 0.62000 1.03000
v 2.06000 0.22000 -4.29000
v 2.30000 0.22000 -4.29000
v 2.30000 0.22000 1.03000
v 2.06000 0.22000 1.03000
v 2.06000 0.62000 -4.29000
v 2.06000 0.62000 1.03000
v 2.30000 0.62000 1.03000
v 2.30000 0.62000 -4.29000
v 2.06000 0.22000 -4.29000
v 2.06000 0.22000 1.03000
v 2.06000 0.62000 1.03000
v 2.06000 0.62000 -4.29000
v 2.30000 0.22000 -4.29000
v 2.30000 0.62000 -4.29000
v 2.30000 0.62000 1.03000
v 2.30000 0.22000 1.03000
v -2.30000 0.22000 -4.55000
v -2.30000 0.62000 -4.55000
v 2.30000 0.62000 -4.55000
v 2.30000 0.22000 -4.55000
v -2.30000 0.22000 -4.29000
v 2.30000 0.22000 -4.29000
v 2.30000 0.62000 -4.29000
v -2.30000 0.62000 -4.29000
v -2.30000 0.22000 -4.55000
v 2.30000 0.22000 -4.55000
v 2.30000 0.22000 -4.29000
v -2.30000 0.22000 -4.29000
v -2.30000 0.62000 -4.55000
v -2.30000 0.62000 -4.29000
v 2.30000 0.62000 -4.29000
v 2.30000 0.62000 -4.55000
v -2.30000 0.22000 -4.55000
v -2.30000 0.22000 -4.29000
v -2.30000 0.62000 -4.29000
v -2.30000 0.62000 -4.55000
v 2.30000 0.22000 -4.55000
v 2.30000 0.62000 -4.55000
v 2.30000 0.62000 -4.29000
v 2.30000 0.22000 -4.29000
v -2.30000 0.22000 1.03000
v -2.30000 0.56000 1.03000
v -1.02000 0.56000 1.03000
v -1.02000 0.22000 1.03000
v -2.30000 0.22000 1.25000
v -1.02000 0.22000 1.25000
v -1.02000 0.56000 1.25000
v -2.30000 0.56000 1.25000
v -2.30000 0.22000 1.03000
v -1.02000 0.22000 1.03000
v -1.02000 0.22000 1.25000
v -2.30000 0.22000 1.25000
v -2.30000 0.56000 1.03000
v -2.30000 0.56000 1.25000
v -1.02000 0.56000 1.25000
v -1.02000 0.56000 1.03000
v -2.30000 0.22000 1.03000
v -2.30000 0.22000 1.25000
v -2.30000 0.56000 1.25000
v -2.30000 0.56000 1.03000
v -1.02000 0.22000 1.03000
v -1.02000 0.56000 1.03000
v -1.02000 0.56000 1.25000
v -1.02000 0.22000 1.25000
v 1.02000 0.22000 1.03000
v 1.02000 0.56000 1.03000
v 2.30000 0.56000 1.03000
v 2.30000 0.22000 1.03000
v 1.02000 0.22000 1.25000
v 2.30000 0.22000 1.25000
v 2.30000 0.56000 1.25000
v 1.02000 0.56000 1.25000
v 1.02000 0.22000 1.03000
v 2.30000 0.22000 1.03000
v 2.30000 0.22000 1.25000
v 1.02000 0.22000 1.25000
v 1.02000 0.56000 1.03000
v 1.02000 0.56000 1.25000
v 2.30000 0.56000 1.25000
v 2.30000 0.56000 1.03000
v 1.02000 0.22000 1.03000
v 1.02000 0.22000 1.25000
v 1.02000 0.56000 1.25000
v 1.02000 0.56000 1.03000
v 2.30000 0.22000 1.03000
v 2.30000 0.56000 1.03000
v 2.30000 0.56000 1.25000
v 2.30000 0.22000 1.25000
v -1.08000 0.22000 1.04000
v -1.08000 5.55000 1.04000
v -0.82000 5.55000 1.04000
v -0.82000 0.22000 1.04000
v -1.08000 0.22000 2.96000
v -0.82000 0.22000 2.96000
v -0.82000 5.55000 2.96000
v -1.08000 5.55000 2.96000
v -1.08000 0.22000 1.04000
v -0.82000 0.22000 1.04000
v -0.82000 0.22000 2.96000
v -1.08000 0.22000 2.96000
v -1.08000 5.55000 1.04000
v -1.08000 5.55000 2.96000
v -0.82000 5.55000 2.96000
v -0.82000 5.55000 1.04000
v -1.08000 0.22000 1.04000
v -1.08000 0.22000 2.96000
v -1.08000 5.55000 2.96000
v -1.08000 5.55000 1.04000
v -0.82000 0.22000 1.04000
v -0.82000 5.55000 1.04000
v -0.82000 5.55000 2.96000
v -0.82000 0.22000 2.96000
v 0.82000 0.22000 1.04000
v 0.82000 5.55000 1.04000
v 1.08000 5.55000 1.04000
v 1.08000 0.22000 1.04000
v 0.82000 0.22000 2.96000
v 1.08000 0.22000 2.96000
v 1.08000 5.55000 2.96000
v 0.82000 5.55000 2.96000
v 0.82000 0.22000 1.04000
v 1.08000 0.22000 1.04000
v 1.08000 0.22000 2.96000
v 0.82000 0.22000 2.96000
v 0.82000 5.55000 1.04000
v 0.82000 5.55000 2.96000
v 1.08000 5.55000 2.96000
v 1.08000 5.55000 1.04000
v 0.82000 0.22000 1.04000
v 0.82000 0.22000 2.96000
v 0.82000 5.55000 2.96000
v 0.82000 5.55000 1.04000
v 1.08000 0.22000 1.04000
v 1.08000 5.55000 1.04000
v 1.08000 5.55000 2.96000
v 1.08000 0.22000 2.96000
v -0.82000 0.22000 2.74000
v -0.82000 5.55000 2.74000
v 0.82000 5.55000 2.74000
v 0.82000 0.22000 2.74000
v -0.82000 0.22000 2.96000
v 0.82000 0.22000 2.96000
v 0.82000 5.55000 2.96000
v -0.82000 5.55000 2.96000
v -0.82000 0.22000 2.74000
v 0.82000 0.22000 2.74000
v 0.82000 0.22000 2.96000
v -0.82000 0.22000 2.96000
v -0.82000 5.55000 2.74000
v -0.82000 5.55000 2.96000
v 0.82000 5.55000 2.96000
v 0.82000 5.55000 2.74000
v -0.82000 0.22000 2.74000
v -0.82000 0.22000 2.96000
v -0.82000 5.55000 2.96000
v -0.82000 5.55000 2.74000
v 0.82000 0.22000 2.74000
v 0.82000 5.55000 2.74000
v 0.82000 5.55000 2.96000
v 0.82000 0.22000 2.96000
v -0.82000 4.43000 1.04000
v -0.82000 5.55000 1.04000
v 0.82000 5.55000 1.04000
v 0.82000 4.43000 1.04000
v -0.82000 4.43000 1.28000
v 0.82000 4.43000 1.28000
v 0.82000 5.55000 1.28000
v -0.82000 5.55000 1.28000
v -0.82000 4.43000 1.04000
v 0.82000 4.43000 1.04000
v 0.82000 4.43000 1.28000
v -0.82000 4.43000 1.28000
v -0.82000 5.55000 1.04000
v -0.82000 5.55000 1.28000
v 0.82000 5.55000 1.28000
v 0.82000 5.55000 1.04000
v -0.82000 4.43000 1.04000
v -0.82000 4.43000 1.28000
v -0.82000 5.55000 1.28000
v -0.82000 5.55000 1.04000
v 0.82000 4.43000 1.04000
v 0.82000 5.55000 1.04000
v 0.82000 5.55000 1.28000
v 0.82000 4.43000 1.28000
v -0.82000 1.55000 1.04000
v -0.82000 4.43000 1.04000
v 0.82000 4.43000 1.04000
v 0.82000 1.55000 1.04000
v -0.82000 1.55000 1.10000
v 0.82000 1.55000 1.10000
v 0.82000 4.43000 1.10000
v -0.82000 4.43000 1.10000
v -0.82000 1.55000 1.04000
v 0.82000 1.55000 1.04000
v 0.82000 1.55000 1.10000
v -0.82000 1.55000 1.10000
v -0.82000 4.43000 1.04000
v -0.82000 4.43000 1.10000
v 0.82000 4.43000 1.10000
v 0.82000 4.43000 1.04000
v -0.82000 1.55000 1.04000
v -0.82000 1.55000 1.10000
v -0.82000 4.43000 1.10000
v -0.82000 4.43000 1.04000
v 0.82000 1.55000 1.04000
v 0.82000 4.43000 1.04000
v 0.82000 4.43000 1.10000
v 0.82000 1.55000 1.10000
v -0.81000 3.95000 1.94000
v -0.81000 4.70000 2.74000
v 0.81000 4.70000 2.74000
v 0.81000 3.95000 1.94000
v -0.81000 3.85000 1.94000
v 0.81000 3.85000 1.94000
v 0.81000 4.60000 2.74000
v -0.81000 4.60000 2.74000
v -0.81000 3.95000 1.94000
v 0.81000 3.95000 1.94000
v 0.81000 3.85000 1.94000
v -0.81000 3.85000 1.94000
v -0.81000 4.70000 2.74000
v -0.81000 4.60000 2.74000
v 0.81000 4.60000 2.74000
v 0.81000 4.70000 2.74000
v -0.81000 3.95000 1.94000
v -0.81000 3.85000 1.94000
v -0.81000 4.60000 2.74000
v -0.81000 4.70000 2.74000
v 0.81000 3.95000 1.94000
v 0.81000 4.70000 2.74000
v 0.81000 4.60000 2.74000
v 0.81000 3.85000 1.94000
v -0.81000 3.25000 1.16000
v -0.81000 2.48000 2.10000
v 0.81000 2.48000 2.10000
v 0.81000 3.25000 1.16000
v -0.81000 3.15000 1.16000
v 0.81000 3.15000 1.16000
v 0.81000 2.38000 2.10000
v -0.81000 2.38000 2.10000
v -0.81000 3.25000 1.16000
v 0.81000 3.25000 1.16000
v 0.81000 3.15000 1.16000
v -0.81000 3.15000 1.16000
v -0.81000 2.48000 2.10000
v -0.81000 2.38000 2.10000
v 0.81000 2.38000 2.10000
v 0.81000 2.48000 2.10000
v -0.81000 3.25000 1.16000
v -0.81000 3.15000 1.16000
v -0.81000 2.38000 2.10000
v -0.81000 2.48000 2.10000
v 0.81000 3.25000 1.16000
v 0.81000 2.48000 2.10000
v 0.81000 2.38000 2.10000
v 0.81000 3.15000 1.16000
v -0.81000 1.05000 1.50000
v -0.81000 1.85000 2.74000
v 0.81000 1.85000 2.74000
v 0.81000 1.05000 1.50000
v -0.81000 0.95000 1.50000
v 0.81000 0.95000 1.50000
v 0.81000 1.75000 2.74000
v -0.81000 1.75000 2.74000
v -0.81000 1.05000 1.50000
v 0.81000 1.05000 1.50000
v 0.81000 0.95000 1.50000
v -0.81000 0.95000 1.50000
v -0.81000 1.85000 2.74000
v -0.81000 1.75000 2.74000
v 0.81000 1.75000 2.74000
v 0.81000 1.85000 2.74000
v -0.81000 1.05000 1.50000
v -0.81000 0.95000 1.50000
v -0.81000 1.75000 2.74000
v -0.81000 1.85000 2.74000
v 0.81000 1.05000 1.50000
v 0.81000 1.85000 2.74000
v 0.81000 1.75000 2.74000
v 0.81000 0.95000 1.50000
v -0.81000 0.25000 0.48000
v -0.81000 1.05000 1.50000
v 0.81000 1.05000 1.50000
v 0.81000 0.25000 0.48000
v -0.81000 0.17000 0.48000
v 0.81000 0.17000 0.48000
v 0.81000 0.97000 1.50000
v -0.81000 0.97000 1.50000
v -0.81000 0.25000 0.48000
v 0.81000 0.25000 0.48000
v 0.81000 0.17000 0.48000
v -0.81000 0.17000 0.48000
v -0.81000 1.05000 1.50000
v -0.81000 0.97000 1.50000
v 0.81000 0.97000 1.50000
v 0.81000 1.05000 1.50000
v -0.81000 0.25000 0.48000
v -0.81000 0.17000 0.48000
v -0.81000 0.97000 1.50000
v -0.81000 1.05000 1.50000
v 0.81000 0.25000 0.48000
v 0.81000 1.05000 1.50000
v 0.81000 0.97000 1.50000
v 0.81000 0.17000 0.48000
o C01_tray_floor
f 1 2 3
f 1 3 4
f 5 6 7
f 5 7 8
f 9 10 11
f 9 11 12
f 13 14 15
f 13 15 16
f 17 18 19
f 17 19 20
f 21 22 23
f 21 23 24
o C02_tray_left
f 25 26 27
f 25 27 28
f 29 30 31
f 29 31 32
f 33 34 35
f 33 35 36
f 37 38 39
f 37 39 40
f 41 42 43
f 41 43 44
f 45 46 47
f 45 47 48
o C03_tray_right
f 49 50 51
f 49 51 52
f 53 54 55
f 53 55 56
f 57 58 59
f 57 59 60
f 61 62 63
f 61 63 64
f 65 66 67
f 65 67 68
f 69 70 71
f 69 71 72
o C04_tray_front
f 73 74 75
f 73 75 76
f 77 78 79
f 77 79 80
f 81 82 83
f 81 83 84
f 85 86 87
f 85 87 88
f 89 90 91
f 89 91 92
f 93 94 95
f 93 95 96
o C04a_tray_rear_left
f 97 98 99
f 97 99 100
f 101 102 103
f 101 103 104
f 105 106 107
f 105 107 108
f 109 110 111
f 109 111 112
f 113 114 115
f 113 115 116
f 117 118 119
f 117 119 120
o C04b_tray_rear_right
f 121 122 123
f 121 123 124
f 125 126 127
f 125 127 128
f 129 130 131
f 129 131 132
f 133 134 135
f 133 135 136
f 137 138 139
f 137 139 140
f 141 142 143
f 141 143 144
o C05_tower_left
f 145 146 147
f 145 147 148
f 149 150 151
f 149 151 152
f 153 154 155
f 153 155 156
f 157 158 159
f 157 159 160
f 161 162 163
f 161 163 164
f 165 166 167
f 165 167 168
o C06_tower_right
f 169 170 171
f 169 171 172
f 173 174 175
f 173 175 176
f 177 178 179
f 177 179 180
f 181 182 183
f 181 183 184
f 185 186 187
f 185 187 188
f 189 190 191
f 189 191 192
o C07_tower_back
f 193 194 195
f 193 195 196
f 197 198 199
f 197 199 200
f 201 202 203
f 201 203 204
f 205 206 207
f 205 207 208
f 209 210 211
f 209 211 212
f 213 214 215
f 213 215 216
o C08_tower_front_header
f 217 218 219
f 217 219 220
f 221 222 223
f 221 223 224
f 225 226 227
f 225 227 228
f 229 230 231
f 229 231 232
f 233 234 235
f 233 235 236
f 237 238 239
f 237 239 240
o C09_clear_front_glass
f 241 242 243
f 241 243 244
f 245 246 247
f 245 247 248
f 249 250 251
f 249 251 252
f 253 254 255
f 253 255 256
f 257 258 259
f 257 259 260
f 261 262 263
f 261 263 264
o C10_upper_deflector
f 265 266 267
f 265 267 268
f 269 270 271
f 269 271 272
f 273 274 275
f 273 275 276
f 277 278 279
f 277 279 280
f 281 282 283
f 281 283 284
f 285 286 287
f 285 287 288
o C11_middle_deflector
f 289 290 291
f 289 291 292
f 293 294 295
f 293 295 296
f 297 298 299
f 297 299 300
f 301 302 303
f 301 303 304
f 305 306 307
f 305 307 308
f 309 310 311
f 309 311 312
o C12_lower_deflector
f 313 314 315
f 313 315 316
f 317 318 319
f 317 319 320
f 321 322 323
f 321 323 324
f 325 326 327
f 325 327 328
f 329 330 331
f 329 331 332
f 333 334 335
f 333 335 336
o C13_outlet
f 337 338 339
f 337 339 340
f 341 342 343
f 341 343 344
f 345 346 347
f 345 347 348
f 349 350 351
f 349 351 352
f 353 354 355
f 353 355 356
f 357 358 359
f 357 359 360
