# AuthorityGamer number-free raffle ticket for Tabletop Simulator
o AuthorityGamer_Raffle_Ticket
v -1.610000 0.025000 0.775000
v 1.610000 0.025000 0.775000
v 1.628274 0.025000 0.773802
v 1.646235 0.025000 0.770230
v 1.663576 0.025000 0.764343
v 1.680000 0.025000 0.756244
v 1.695227 0.025000 0.746069
v 1.708995 0.025000 0.733995
v 1.721069 0.025000 0.720227
v 1.731244 0.025000 0.705000
v 1.739343 0.025000 0.688576
v 1.745230 0.025000 0.671235
v 1.748802 0.025000 0.653274
v 1.750000 0.025000 0.635000
v 1.750000 0.025000 -0.635000
v 1.748802 0.025000 -0.653274
v 1.745230 0.025000 -0.671235
v 1.739343 0.025000 -0.688576
v 1.731244 0.025000 -0.705000
v 1.721069 0.025000 -0.720227
v 1.708995 0.025000 -0.733995
v 1.695227 0.025000 -0.746069
v 1.680000 0.025000 -0.756244
v 1.663576 0.025000 -0.764343
v 1.646235 0.025000 -0.770230
v 1.628274 0.025000 -0.773802
v 1.610000 0.025000 -0.775000
v -1.610000 0.025000 -0.775000
v -1.628274 0.025000 -0.773802
v -1.646235 0.025000 -0.770230
v -1.663576 0.025000 -0.764343
v -1.680000 0.025000 -0.756244
v -1.695227 0.025000 -0.746069
v -1.708995 0.025000 -0.733995
v -1.721069 0.025000 -0.720227
v -1.731244 0.025000 -0.705000
v -1.739343 0.025000 -0.688576
v -1.745230 0.025000 -0.671235
v -1.748802 0.025000 -0.653274
v -1.750000 0.025000 -0.635000
v -1.750000 0.025000 0.635000
v -1.748802 0.025000 0.653274
v -1.745230 0.025000 0.671235
v -1.739343 0.025000 0.688576
v -1.731244 0.025000 0.705000
v -1.721069 0.025000 0.720227
v -1.708995 0.025000 0.733995
v -1.695227 0.025000 0.746069
v -1.680000 0.025000 0.756244
v -1.663576 0.025000 0.764343
v -1.646235 0.025000 0.770230
v -1.628274 0.025000 0.773802
v -1.610000 -0.025000 0.775000
v 1.610000 -0.025000 0.775000
v 1.628274 -0.025000 0.773802
v 1.646235 -0.025000 0.770230
v 1.663576 -0.025000 0.764343
v 1.680000 -0.025000 0.756244
v 1.695227 -0.025000 0.746069
v 1.708995 -0.025000 0.733995
v 1.721069 -0.025000 0.720227
v 1.731244 -0.025000 0.705000
v 1.739343 -0.025000 0.688576
v 1.745230 -0.025000 0.671235
v 1.748802 -0.025000 0.653274
v 1.750000 -0.025000 0.635000
v 1.750000 -0.025000 -0.635000
v 1.748802 -0.025000 -0.653274
v 1.745230 -0.025000 -0.671235
v 1.739343 -0.025000 -0.688576
v 1.731244 -0.025000 -0.705000
v 1.721069 -0.025000 -0.720227
v 1.708995 -0.025000 -0.733995
v 1.695227 -0.025000 -0.746069
v 1.680000 -0.025000 -0.756244
v 1.663576 -0.025000 -0.764343
v 1.646235 -0.025000 -0.770230
v 1.628274 -0.025000 -0.773802
v 1.610000 -0.025000 -0.775000
v -1.610000 -0.025000 -0.775000
v -1.628274 -0.025000 -0.773802
v -1.646235 -0.025000 -0.770230
v -1.663576 -0.025000 -0.764343
v -1.680000 -0.025000 -0.756244
v -1.695227 -0.025000 -0.746069
v -1.708995 -0.025000 -0.733995
v -1.721069 -0.025000 -0.720227
v -1.731244 -0.025000 -0.705000
v -1.739343 -0.025000 -0.688576
v -1.745230 -0.025000 -0.671235
v -1.748802 -0.025000 -0.653274
v -1.750000 -0.025000 -0.635000
v -1.750000 -0.025000 0.635000
v -1.748802 -0.025000 0.653274
v -1.745230 -0.025000 0.671235
v -1.739343 -0.025000 0.688576
v -1.731244 -0.025000 0.705000
v -1.721069 -0.025000 0.720227
v -1.708995 -0.025000 0.733995
v -1.695227 -0.025000 0.746069
v -1.680000 -0.025000 0.756244
v -1.663576 -0.025000 0.764343
v -1.646235 -0.025000 0.770230
v -1.628274 -0.025000 0.773802
v -1.610000 0.025000 0.775000
v 1.610000 0.025000 0.775000
v 1.628274 0.025000 0.773802
v 1.646235 0.025000 0.770230
v 1.663576 0.025000 0.764343
v 1.680000 0.025000 0.756244
v 1.695227 0.025000 0.746069
v 1.708995 0.025000 0.733995
v 1.721069 0.025000 0.720227
v 1.731244 0.025000 0.705000
v 1.739343 0.025000 0.688576
v 1.745230 0.025000 0.671235
v 1.748802 0.025000 0.653274
v 1.750000 0.025000 0.635000
v 1.750000 0.025000 -0.635000
v 1.748802 0.025000 -0.653274
v 1.745230 0.025000 -0.671235
v 1.739343 0.025000 -0.688576
v 1.731244 0.025000 -0.705000
v 1.721069 0.025000 -0.720227
v 1.708995 0.025000 -0.733995
v 1.695227 0.025000 -0.746069
v 1.680000 0.025000 -0.756244
v 1.663576 0.025000 -0.764343
v 1.646235 0.025000 -0.770230
v 1.628274 0.025000 -0.773802
v 1.610000 0.025000 -0.775000
v -1.610000 0.025000 -0.775000
v -1.628274 0.025000 -0.773802
v -1.646235 0.025000 -0.770230
v -1.663576 0.025000 -0.764343
v -1.680000 0.025000 -0.756244
v -1.695227 0.025000 -0.746069
v -1.708995 0.025000 -0.733995
v -1.721069 0.025000 -0.720227
v -1.731244 0.025000 -0.705000
v -1.739343 0.025000 -0.688576
v -1.745230 0.025000 -0.671235
v -1.748802 0.025000 -0.653274
v -1.750000 0.025000 -0.635000
v -1.750000 0.025000 0.635000
v -1.748802 0.025000 0.653274
v -1.745230 0.025000 0.671235
v -1.739343 0.025000 0.688576
v -1.731244 0.025000 0.705000
v -1.721069 0.025000 0.720227
v -1.708995 0.025000 0.733995
v -1.695227 0.025000 0.746069
v -1.680000 0.025000 0.756244
v -1.663576 0.025000 0.764343
v -1.646235 0.025000 0.770230
v -1.628274 0.025000 0.773802
v -1.610000 -0.025000 0.775000
v 1.610000 -0.025000 0.775000
v 1.628274 -0.025000 0.773802
v 1.646235 -0.025000 0.770230
v 1.663576 -0.025000 0.764343
v 1.680000 -0.025000 0.756244
v 1.695227 -0.025000 0.746069
v 1.708995 -0.025000 0.733995
v 1.721069 -0.025000 0.720227
v 1.731244 -0.025000 0.705000
v 1.739343 -0.025000 0.688576
v 1.745230 -0.025000 0.671235
v 1.748802 -0.025000 0.653274
v 1.750000 -0.025000 0.635000
v 1.750000 -0.025000 -0.635000
v 1.748802 -0.025000 -0.653274
v 1.745230 -0.025000 -0.671235
v 1.739343 -0.025000 -0.688576
v 1.731244 -0.025000 -0.705000
v 1.721069 -0.025000 -0.720227
v 1.708995 -0.025000 -0.733995
v 1.695227 -0.025000 -0.746069
v 1.680000 -0.025000 -0.756244
v 1.663576 -0.025000 -0.764343
v 1.646235 -0.025000 -0.770230
v 1.628274 -0.025000 -0.773802
v 1.610000 -0.025000 -0.775000
v -1.610000 -0.025000 -0.775000
v -1.628274 -0.025000 -0.773802
v -1.646235 -0.025000 -0.770230
v -1.663576 -0.025000 -0.764343
v -1.680000 -0.025000 -0.756244
v -1.695227 -0.025000 -0.746069
v -1.708995 -0.025000 -0.733995
v -1.721069 -0.025000 -0.720227
v -1.731244 -0.025000 -0.705000
v -1.739343 -0.025000 -0.688576
v -1.745230 -0.025000 -0.671235
v -1.748802 -0.025000 -0.653274
v -1.750000 -0.025000 -0.635000
v -1.750000 -0.025000 0.635000
v -1.748802 -0.025000 0.653274
v -1.745230 -0.025000 0.671235
v -1.739343 -0.025000 0.688576
v -1.731244 -0.025000 0.705000
v -1.721069 -0.025000 0.720227
v -1.708995 -0.025000 0.733995
v -1.695227 -0.025000 0.746069
v -1.680000 -0.025000 0.756244
v -1.663576 -0.025000 0.764343
v -1.646235 -0.025000 0.770230
v -1.628274 -0.025000 0.773802
vt 0.482611 0.999660
vt 0.480000 1.000000
vt 0.020000 1.000000
vt 0.517389 0.999660
vt 0.980000 1.000000
vt 0.520000 1.000000
vt 0.482611 0.999660
vt 0.020000 1.000000
vt 0.017389 0.999660
vt 0.517389 0.999660
vt 0.982611 0.999660
vt 0.980000 1.000000
vt 0.482611 0.999660
vt 0.017389 0.999660
vt 0.014824 0.998648
vt 0.517389 0.999660
vt 0.985176 0.998648
vt 0.982611 0.999660
vt 0.482611 0.999660
vt 0.014824 0.998648
vt 0.012346 0.996979
vt 0.517389 0.999660
vt 0.987654 0.996979
vt 0.985176 0.998648
vt 0.482611 0.999660
vt 0.012346 0.996979
vt 0.010000 0.994682
vt 0.517389 0.999660
vt 0.990000 0.994682
vt 0.987654 0.996979
vt 0.482611 0.999660
vt 0.010000 0.994682
vt 0.007825 0.991798
vt 0.517389 0.999660
vt 0.992175 0.991798
vt 0.990000 0.994682
vt 0.482611 0.999660
vt 0.007825 0.991798
vt 0.005858 0.988374
vt 0.517389 0.999660
vt 0.994142 0.988374
vt 0.992175 0.991798
vt 0.482611 0.999660
vt 0.005858 0.988374
vt 0.004133 0.984471
vt 0.517389 0.999660
vt 0.995867 0.984471
vt 0.994142 0.988374
vt 0.482611 0.999660
vt 0.004133 0.984471
vt 0.002679 0.980154
vt 0.517389 0.999660
vt 0.997321 0.980154
vt 0.995867 0.984471
vt 0.482611 0.999660
vt 0.002679 0.980154
vt 0.001522 0.975497
vt 0.517389 0.999660
vt 0.998478 0.975497
vt 0.997321 0.980154
vt 0.482611 0.999660
vt 0.001522 0.975497
vt 0.000681 0.970581
vt 0.517389 0.999660
vt 0.999319 0.970581
vt 0.998478 0.975497
vt 0.482611 0.999660
vt 0.000681 0.970581
vt 0.000171 0.965488
vt 0.517389 0.999660
vt 0.999829 0.965488
vt 0.999319 0.970581
vt 0.482611 0.999660
vt 0.000171 0.965488
vt 0.000100 0.960307
vt 0.517389 0.999660
vt 0.999900 0.960307
vt 0.999829 0.965488
vt 0.482611 0.999660
vt 0.000100 0.960307
vt 0.000100 0.600239
vt 0.517389 0.999660
vt 0.999900 0.600239
vt 0.999900 0.960307
vt 0.482611 0.999660
vt 0.000100 0.600239
vt 0.000171 0.595058
vt 0.517389 0.999660
vt 0.999829 0.595058
vt 0.999900 0.600239
vt 0.482611 0.999660
vt 0.000171 0.595058
vt 0.000681 0.589966
vt 0.517389 0.999660
vt 0.999319 0.589966
vt 0.999829 0.595058
vt 0.482611 0.999660
vt 0.000681 0.589966
vt 0.001522 0.585050
vt 0.517389 0.999660
vt 0.998478 0.585050
vt 0.999319 0.589966
vt 0.482611 0.999660
vt 0.001522 0.585050
vt 0.002679 0.580393
vt 0.517389 0.999660
vt 0.997321 0.580393
vt 0.998478 0.585050
vt 0.482611 0.999660
vt 0.002679 0.580393
vt 0.004133 0.576076
vt 0.517389 0.999660
vt 0.995867 0.576076
vt 0.997321 0.580393
vt 0.482611 0.999660
vt 0.004133 0.576076
vt 0.005858 0.572173
vt 0.517389 0.999660
vt 0.994142 0.572173
vt 0.995867 0.576076
vt 0.482611 0.999660
vt 0.005858 0.572173
vt 0.007825 0.568749
vt 0.517389 0.999660
vt 0.992175 0.568749
vt 0.994142 0.572173
vt 0.482611 0.999660
vt 0.007825 0.568749
vt 0.010000 0.565865
vt 0.517389 0.999660
vt 0.990000 0.565865
vt 0.992175 0.568749
vt 0.482611 0.999660
vt 0.010000 0.565865
vt 0.012346 0.563568
vt 0.517389 0.999660
vt 0.987654 0.563568
vt 0.990000 0.565865
vt 0.482611 0.999660
vt 0.012346 0.563568
vt 0.014824 0.561899
vt 0.517389 0.999660
vt 0.985176 0.561899
vt 0.987654 0.563568
vt 0.482611 0.999660
vt 0.014824 0.561899
vt 0.017389 0.560886
vt 0.517389 0.999660
vt 0.982611 0.560886
vt 0.985176 0.561899
vt 0.482611 0.999660
vt 0.017389 0.560886
vt 0.020000 0.560547
vt 0.517389 0.999660
vt 0.980000 0.560547
vt 0.982611 0.560886
vt 0.482611 0.999660
vt 0.020000 0.560547
vt 0.480000 0.560547
vt 0.517389 0.999660
vt 0.520000 0.560547
vt 0.980000 0.560547
vt 0.482611 0.999660
vt 0.480000 0.560547
vt 0.482611 0.560886
vt 0.517389 0.999660
vt 0.517389 0.560886
vt 0.520000 0.560547
vt 0.482611 0.999660
vt 0.482611 0.560886
vt 0.485176 0.561899
vt 0.517389 0.999660
vt 0.514824 0.561899
vt 0.517389 0.560886
vt 0.482611 0.999660
vt 0.485176 0.561899
vt 0.487654 0.563568
vt 0.517389 0.999660
vt 0.512346 0.563568
vt 0.514824 0.561899
vt 0.482611 0.999660
vt 0.487654 0.563568
vt 0.490000 0.565865
vt 0.517389 0.999660
vt 0.510000 0.565865
vt 0.512346 0.563568
vt 0.482611 0.999660
vt 0.490000 0.565865
vt 0.492175 0.568749
vt 0.517389 0.999660
vt 0.507825 0.568749
vt 0.510000 0.565865
vt 0.482611 0.999660
vt 0.492175 0.568749
vt 0.494142 0.572173
vt 0.517389 0.999660
vt 0.505858 0.572173
vt 0.507825 0.568749
vt 0.482611 0.999660
vt 0.494142 0.572173
vt 0.495867 0.576076
vt 0.517389 0.999660
vt 0.504133 0.576076
vt 0.505858 0.572173
vt 0.482611 0.999660
vt 0.495867 0.576076
vt 0.497321 0.580393
vt 0.517389 0.999660
vt 0.502679 0.580393
vt 0.504133 0.576076
vt 0.482611 0.999660
vt 0.497321 0.580393
vt 0.498478 0.585050
vt 0.517389 0.999660
vt 0.501522 0.585050
vt 0.502679 0.580393
vt 0.482611 0.999660
vt 0.498478 0.585050
vt 0.499319 0.589966
vt 0.517389 0.999660
vt 0.500681 0.589966
vt 0.501522 0.585050
vt 0.482611 0.999660
vt 0.499319 0.589966
vt 0.499829 0.595058
vt 0.517389 0.999660
vt 0.500171 0.595058
vt 0.500681 0.589966
vt 0.482611 0.999660
vt 0.499829 0.595058
vt 0.500000 0.600239
vt 0.517389 0.999660
vt 0.500000 0.600239
vt 0.500171 0.595058
vt 0.482611 0.999660
vt 0.500000 0.600239
vt 0.500000 0.960307
vt 0.517389 0.999660
vt 0.500000 0.960307
vt 0.500000 0.600239
vt 0.482611 0.999660
vt 0.500000 0.960307
vt 0.499829 0.965488
vt 0.517389 0.999660
vt 0.500171 0.965488
vt 0.500000 0.960307
vt 0.482611 0.999660
vt 0.499829 0.965488
vt 0.499319 0.970581
vt 0.517389 0.999660
vt 0.500681 0.970581
vt 0.500171 0.965488
vt 0.482611 0.999660
vt 0.499319 0.970581
vt 0.498478 0.975497
vt 0.517389 0.999660
vt 0.501522 0.975497
vt 0.500681 0.970581
vt 0.482611 0.999660
vt 0.498478 0.975497
vt 0.497321 0.980154
vt 0.517389 0.999660
vt 0.502679 0.980154
vt 0.501522 0.975497
vt 0.482611 0.999660
vt 0.497321 0.980154
vt 0.495867 0.984471
vt 0.517389 0.999660
vt 0.504133 0.984471
vt 0.502679 0.980154
vt 0.482611 0.999660
vt 0.495867 0.984471
vt 0.494142 0.988374
vt 0.517389 0.999660
vt 0.505858 0.988374
vt 0.504133 0.984471
vt 0.482611 0.999660
vt 0.494142 0.988374
vt 0.492175 0.991798
vt 0.517389 0.999660
vt 0.507825 0.991798
vt 0.505858 0.988374
vt 0.482611 0.999660
vt 0.492175 0.991798
vt 0.490000 0.994682
vt 0.517389 0.999660
vt 0.510000 0.994682
vt 0.507825 0.991798
vt 0.482611 0.999660
vt 0.490000 0.994682
vt 0.487654 0.996979
vt 0.517389 0.999660
vt 0.512346 0.996979
vt 0.510000 0.994682
vt 0.487654 0.996979
vt 0.485176 0.998648
vt 0.482611 0.999660
vt 0.512346 0.996979
vt 0.517389 0.999660
vt 0.514824 0.998648
vt 0.000000 0.497070
vt 0.326605 0.052734
vt 0.326605 0.497070
vt 0.000000 0.497070
vt 0.000000 0.052734
vt 0.326605 0.052734
vt 0.326605 0.497070
vt 0.328462 0.052734
vt 0.328462 0.497070
vt 0.326605 0.497070
vt 0.326605 0.052734
vt 0.328462 0.052734
vt 0.328462 0.497070
vt 0.330319 0.052734
vt 0.330319 0.497070
vt 0.328462 0.497070
vt 0.328462 0.052734
vt 0.330319 0.052734
vt 0.330319 0.497070
vt 0.332177 0.052734
vt 0.332177 0.497070
vt 0.330319 0.497070
vt 0.330319 0.052734
vt 0.332177 0.052734
vt 0.332177 0.497070
vt 0.334034 0.052734
vt 0.334034 0.497070
vt 0.332177 0.497070
vt 0.332177 0.052734
vt 0.334034 0.052734
vt 0.334034 0.497070
vt 0.335892 0.052734
vt 0.335892 0.497070
vt 0.334034 0.497070
vt 0.334034 0.052734
vt 0.335892 0.052734
vt 0.335892 0.497070
vt 0.337749 0.052734
vt 0.337749 0.497070
vt 0.335892 0.497070
vt 0.335892 0.052734
vt 0.337749 0.052734
vt 0.337749 0.497070
vt 0.339607 0.052734
vt 0.339607 0.497070
vt 0.337749 0.497070
vt 0.337749 0.052734
vt 0.339607 0.052734
vt 0.339607 0.497070
vt 0.341464 0.052734
vt 0.341464 0.497070
vt 0.339607 0.497070
vt 0.339607 0.052734
vt 0.341464 0.052734
vt 0.341464 0.497070
vt 0.343322 0.052734
vt 0.343322 0.497070
vt 0.341464 0.497070
vt 0.341464 0.052734
vt 0.343322 0.052734
vt 0.343322 0.497070
vt 0.345179 0.052734
vt 0.345179 0.497070
vt 0.343322 0.497070
vt 0.343322 0.052734
vt 0.345179 0.052734
vt 0.345179 0.497070
vt 0.347037 0.052734
vt 0.347037 0.497070
vt 0.345179 0.497070
vt 0.345179 0.052734
vt 0.347037 0.052734
vt 0.347037 0.497070
vt 0.348894 0.052734
vt 0.348894 0.497070
vt 0.347037 0.497070
vt 0.347037 0.052734
vt 0.348894 0.052734
vt 0.348894 0.497070
vt 0.477710 0.052734
vt 0.477710 0.497070
vt 0.348894 0.497070
vt 0.348894 0.052734
vt 0.477710 0.052734
vt 0.477710 0.497070
vt 0.479568 0.052734
vt 0.479568 0.497070
vt 0.477710 0.497070
vt 0.477710 0.052734
vt 0.479568 0.052734
vt 0.479568 0.497070
vt 0.481425 0.052734
vt 0.481425 0.497070
vt 0.479568 0.497070
vt 0.479568 0.052734
vt 0.481425 0.052734
vt 0.481425 0.497070
vt 0.483283 0.052734
vt 0.483283 0.497070
vt 0.481425 0.497070
vt 0.481425 0.052734
vt 0.483283 0.052734
vt 0.483283 0.497070
vt 0.485140 0.052734
vt 0.485140 0.497070
vt 0.483283 0.497070
vt 0.483283 0.052734
vt 0.485140 0.052734
vt 0.485140 0.497070
vt 0.486998 0.052734
vt 0.486998 0.497070
vt 0.485140 0.497070
vt 0.485140 0.052734
vt 0.486998 0.052734
vt 0.486998 0.497070
vt 0.488855 0.052734
vt 0.488855 0.497070
vt 0.486998 0.497070
vt 0.486998 0.052734
vt 0.488855 0.052734
vt 0.488855 0.497070
vt 0.490713 0.052734
vt 0.490713 0.497070
vt 0.488855 0.497070
vt 0.488855 0.052734
vt 0.490713 0.052734
vt 0.490713 0.497070
vt 0.492570 0.052734
vt 0.492570 0.497070
vt 0.490713 0.497070
vt 0.490713 0.052734
vt 0.492570 0.052734
vt 0.492570 0.497070
vt 0.494428 0.052734
vt 0.494428 0.497070
vt 0.492570 0.497070
vt 0.492570 0.052734
vt 0.494428 0.052734
vt 0.494428 0.497070
vt 0.496285 0.052734
vt 0.496285 0.497070
vt 0.494428 0.497070
vt 0.494428 0.052734
vt 0.496285 0.052734
vt 0.496285 0.497070
vt 0.498143 0.052734
vt 0.498143 0.497070
vt 0.496285 0.497070
vt 0.496285 0.052734
vt 0.498143 0.052734
vt 0.498143 0.497070
vt 0.500000 0.052734
vt 0.500000 0.497070
vt 0.498143 0.497070
vt 0.498143 0.052734
vt 0.500000 0.052734
vt 0.500000 0.497070
vt 0.826605 0.052734
vt 0.826605 0.497070
vt 0.500000 0.497070
vt 0.500000 0.052734
vt 0.826605 0.052734
vt 0.826605 0.497070
vt 0.828462 0.052734
vt 0.828462 0.497070
vt 0.826605 0.497070
vt 0.826605 0.052734
vt 0.828462 0.052734
vt 0.828462 0.497070
vt 0.830319 0.052734
vt 0.830319 0.497070
vt 0.828462 0.497070
vt 0.828462 0.052734
vt 0.830319 0.052734
vt 0.830319 0.497070
vt 0.832177 0.052734
vt 0.832177 0.497070
vt 0.830319 0.497070
vt 0.830319 0.052734
vt 0.832177 0.052734
vt 0.832177 0.497070
vt 0.834034 0.052734
vt 0.834034 0.497070
vt 0.832177 0.497070
vt 0.832177 0.052734
vt 0.834034 0.052734
vt 0.834034 0.497070
vt 0.835892 0.052734
vt 0.835892 0.497070
vt 0.834034 0.497070
vt 0.834034 0.052734
vt 0.835892 0.052734
vt 0.835892 0.497070
vt 0.837749 0.052734
vt 0.837749 0.497070
vt 0.835892 0.497070
vt 0.835892 0.052734
vt 0.837749 0.052734
vt 0.837749 0.497070
vt 0.839607 0.052734
vt 0.839607 0.497070
vt 0.837749 0.497070
vt 0.837749 0.052734
vt 0.839607 0.052734
vt 0.839607 0.497070
vt 0.841464 0.052734
vt 0.841464 0.497070
vt 0.839607 0.497070
vt 0.839607 0.052734
vt 0.841464 0.052734
vt 0.841464 0.497070
vt 0.843322 0.052734
vt 0.843322 0.497070
vt 0.841464 0.497070
vt 0.841464 0.052734
vt 0.843322 0.052734
vt 0.843322 0.497070
vt 0.845179 0.052734
vt 0.845179 0.497070
vt 0.843322 0.497070
vt 0.843322 0.052734
vt 0.845179 0.052734
vt 0.845179 0.497070
vt 0.847037 0.052734
vt 0.847037 0.497070
vt 0.845179 0.497070
vt 0.845179 0.052734
vt 0.847037 0.052734
vt 0.847037 0.497070
vt 0.848894 0.052734
vt 0.848894 0.497070
vt 0.847037 0.497070
vt 0.847037 0.052734
vt 0.848894 0.052734
vt 0.848894 0.497070
vt 0.977710 0.052734
vt 0.977710 0.497070
vt 0.848894 0.497070
vt 0.848894 0.052734
vt 0.977710 0.052734
vt 0.977710 0.497070
vt 0.979568 0.052734
vt 0.979568 0.497070
vt 0.977710 0.497070
vt 0.977710 0.052734
vt 0.979568 0.052734
vt 0.979568 0.497070
vt 0.981425 0.052734
vt 0.981425 0.497070
vt 0.979568 0.497070
vt 0.979568 0.052734
vt 0.981425 0.052734
vt 0.981425 0.497070
vt 0.983283 0.052734
vt 0.983283 0.497070
vt 0.981425 0.497070
vt 0.981425 0.052734
vt 0.983283 0.052734
vt 0.983283 0.497070
vt 0.985140 0.052734
vt 0.985140 0.497070
vt 0.983283 0.497070
vt 0.983283 0.052734
vt 0.985140 0.052734
vt 0.985140 0.497070
vt 0.986998 0.052734
vt 0.986998 0.497070
vt 0.985140 0.497070
vt 0.985140 0.052734
vt 0.986998 0.052734
vt 0.986998 0.497070
vt 0.988855 0.052734
vt 0.988855 0.497070
vt 0.986998 0.497070
vt 0.986998 0.052734
vt 0.988855 0.052734
vt 0.988855 0.497070
vt 0.990713 0.052734
vt 0.990713 0.497070
vt 0.988855 0.497070
vt 0.988855 0.052734
vt 0.990713 0.052734
vt 0.990713 0.497070
vt 0.992570 0.052734
vt 0.992570 0.497070
vt 0.990713 0.497070
vt 0.990713 0.052734
vt 0.992570 0.052734
vt 0.992570 0.497070
vt 0.994428 0.052734
vt 0.994428 0.497070
vt 0.992570 0.497070
vt 0.992570 0.052734
vt 0.994428 0.052734
vt 0.994428 0.497070
vt 0.996285 0.052734
vt 0.996285 0.497070
vt 0.994428 0.497070
vt 0.994428 0.052734
vt 0.996285 0.052734
vt 0.996285 0.497070
vt 0.998143 0.052734
vt 0.998143 0.497070
vt 0.996285 0.497070
vt 0.996285 0.052734
vt 0.998143 0.052734
vt 0.998143 0.497070
vt 1.000000 0.052734
vt 1.000000 0.497070
vt 0.998143 0.497070
vt 0.998143 0.052734
vt 1.000000 0.052734
vn 0.000000 1.000000 0.000000
vn 0.000000 -1.000000 0.000000
vn 0.000000 1.000000 0.000000
vn 0.000000 -1.000000 0.000000
vn -0.000000 1.000000 0.000000
vn 0.000000 -1.000000 0.000000
vn 0.000000 1.000000 0.000000
vn 0.000000 -1.000000 0.000000
vn 0.000000 1.000000 0.000000
vn 0.000000 -1.000000 0.000000
vn 0.000000 1.000000 0.000000
vn 0.000000 -1.000000 0.000000
vn 0.000000 1.000000 0.000000
vn 0.000000 -1.000000 0.000000
vn 0.000000 1.000000 0.000000
vn 0.000000 -1.000000 0.000000
vn 0.000000 1.000000 0.000000
vn 0.000000 -1.000000 0.000000
vn 0.000000 1.000000 0.000000
vn 0.000000 -1.000000 0.000000
vn 0.000000 1.000000 0.000000
vn 0.000000 -1.000000 0.000000
vn 0.000000 1.000000 0.000000
vn 0.000000 -1.000000 0.000000
vn 0.000000 1.000000 0.000000
vn 0.000000 -1.000000 0.000000
vn 0.000000 1.000000 0.000000
vn 0.000000 -1.000000 0.000000
vn 0.000000 1.000000 0.000000
vn 0.000000 -1.000000 0.000000
vn 0.000000 1.000000 0.000000
vn 0.000000 -1.000000 0.000000
vn 0.000000 1.000000 0.000000
vn 0.000000 -1.000000 0.000000
vn 0.000000 1.000000 0.000000
vn 0.000000 -1.000000 0.000000
vn 0.000000 1.000000 0.000000
vn 0.000000 -1.000000 0.000000
vn 0.000000 1.000000 0.000000
vn 0.000000 -1.000000 0.000000
vn 0.000000 1.000000 0.000000
vn 0.000000 -1.000000 0.000000
vn 0.000000 1.000000 0.000000
vn 0.000000 -1.000000 0.000000
vn 0.000000 1.000000 0.000000
vn 0.000000 -1.000000 0.000000
vn 0.000000 1.000000 0.000000
vn 0.000000 -1.000000 0.000000
vn 0.000000 1.000000 0.000000
vn 0.000000 -1.000000 0.000000
vn 0.000000 1.000000 0.000000
vn 0.000000 -1.000000 0.000000
vn 0.000000 1.000000 0.000000
vn 0.000000 -1.000000 0.000000
vn 0.000000 1.000000 0.000000
vn 0.000000 -1.000000 0.000000
vn 0.000000 1.000000 0.000000
vn 0.000000 -1.000000 -0.000000
vn 0.000000 1.000000 0.000000
vn 0.000000 -1.000000 0.000000
vn 0.000000 1.000000 0.000000
vn 0.000000 -1.000000 0.000000
vn 0.000000 1.000000 0.000000
vn 0.000000 -1.000000 0.000000
vn 0.000000 1.000000 0.000000
vn 0.000000 -1.000000 0.000000
vn 0.000000 1.000000 0.000000
vn 0.000000 -1.000000 0.000000
vn 0.000000 1.000000 0.000000
vn 0.000000 -1.000000 0.000000
vn 0.000000 1.000000 0.000000
vn 0.000000 -1.000000 0.000000
vn 0.000000 1.000000 0.000000
vn 0.000000 -1.000000 0.000000
vn 0.000000 1.000000 0.000000
vn 0.000000 -1.000000 0.000000
vn 0.000000 1.000000 0.000000
vn 0.000000 -1.000000 0.000000
vn 0.000000 1.000000 0.000000
vn 0.000000 -1.000000 0.000000
vn 0.000000 1.000000 0.000000
vn 0.000000 -1.000000 0.000000
vn 0.000000 1.000000 0.000000
vn 0.000000 -1.000000 0.000000
vn 0.000000 1.000000 0.000000
vn 0.000000 -1.000000 0.000000
vn 0.000000 1.000000 0.000000
vn 0.000000 -1.000000 0.000000
vn 0.000000 1.000000 0.000000
vn 0.000000 -1.000000 0.000000
vn 0.000000 1.000000 0.000000
vn 0.000000 -1.000000 0.000000
vn 0.000000 1.000000 0.000000
vn 0.000000 -1.000000 0.000000
vn 0.000000 1.000000 0.000000
vn 0.000000 -1.000000 0.000000
vn 0.000000 1.000000 0.000000
vn 0.000000 -1.000000 0.000000
vn 0.000000 1.000000 0.000000
vn 0.000000 -1.000000 0.000000
vn -0.000000 0.000000 1.000000
vn 0.000000 0.000000 1.000000
vn 0.065403 0.000000 0.997859
vn 0.065403 0.000000 0.997859
vn 0.195090 0.000000 0.980785
vn 0.195090 0.000000 0.980785
vn 0.321439 0.000000 0.946930
vn 0.321439 0.000000 0.946930
vn 0.442289 0.000000 0.896873
vn 0.442289 0.000000 0.896873
vn 0.555570 0.000000 0.831470
vn 0.555570 0.000000 0.831470
vn 0.659346 0.000000 0.751840
vn 0.659346 0.000000 0.751840
vn 0.751840 0.000000 0.659346
vn 0.751840 0.000000 0.659346
vn 0.831470 0.000000 0.555570
vn 0.831470 0.000000 0.555570
vn 0.896873 0.000000 0.442289
vn 0.896873 0.000000 0.442289
vn 0.946930 0.000000 0.321439
vn 0.946930 0.000000 0.321439
vn 0.980785 0.000000 0.195090
vn 0.980785 0.000000 0.195090
vn 0.997859 0.000000 0.065403
vn 0.997859 0.000000 0.065403
vn 1.000000 0.000000 0.000000
vn 1.000000 0.000000 0.000000
vn 0.997859 0.000000 -0.065403
vn 0.997859 0.000000 -0.065403
vn 0.980785 0.000000 -0.195090
vn 0.980785 0.000000 -0.195090
vn 0.946930 0.000000 -0.321439
vn 0.946930 0.000000 -0.321439
vn 0.896873 0.000000 -0.442289
vn 0.896873 0.000000 -0.442289
vn 0.831470 0.000000 -0.555570
vn 0.831470 0.000000 -0.555570
vn 0.751840 0.000000 -0.659346
vn 0.751840 0.000000 -0.659346
vn 0.659346 0.000000 -0.751840
vn 0.659346 0.000000 -0.751840
vn 0.555570 0.000000 -0.831470
vn 0.555570 0.000000 -0.831470
vn 0.442289 0.000000 -0.896873
vn 0.442289 0.000000 -0.896873
vn 0.321439 0.000000 -0.946930
vn 0.321439 0.000000 -0.946930
vn 0.195090 0.000000 -0.980785
vn 0.195090 0.000000 -0.980785
vn 0.065403 0.000000 -0.997859
vn 0.065403 0.000000 -0.997859
vn -0.000000 0.000000 -1.000000
vn 0.000000 -0.000000 -1.000000
vn -0.065403 0.000000 -0.997859
vn -0.065403 -0.000000 -0.997859
vn -0.195090 0.000000 -0.980785
vn -0.195090 -0.000000 -0.980785
vn -0.321439 0.000000 -0.946930
vn -0.321439 -0.000000 -0.946930
vn -0.442289 0.000000 -0.896873
vn -0.442289 -0.000000 -0.896873
vn -0.555570 0.000000 -0.831470
vn -0.555570 -0.000000 -0.831470
vn -0.659346 0.000000 -0.751840
vn -0.659346 -0.000000 -0.751840
vn -0.751840 0.000000 -0.659346
vn -0.751840 -0.000000 -0.659346
vn -0.831470 0.000000 -0.555570
vn -0.831470 -0.000000 -0.555570
vn -0.896873 0.000000 -0.442289
vn -0.896873 -0.000000 -0.442289
vn -0.946930 0.000000 -0.321439
vn -0.946930 -0.000000 -0.321439
vn -0.980785 0.000000 -0.195090
vn -0.980785 -0.000000 -0.195090
vn -0.997859 0.000000 -0.065403
vn -0.997859 -0.000000 -0.065403
vn -1.000000 0.000000 0.000000
vn -1.000000 0.000000 0.000000
vn -0.997859 0.000000 0.065403
vn -0.997859 0.000000 0.065403
vn -0.980785 0.000000 0.195090
vn -0.980785 0.000000 0.195090
vn -0.946930 0.000000 0.321439
vn -0.946930 0.000000 0.321439
vn -0.896873 0.000000 0.442289
vn -0.896873 0.000000 0.442289
vn -0.831470 0.000000 0.555570
vn -0.831470 0.000000 0.555570
vn -0.751840 0.000000 0.659346
vn -0.751840 0.000000 0.659346
vn -0.659346 0.000000 0.751840
vn -0.659346 0.000000 0.751840
vn -0.555570 0.000000 0.831470
vn -0.555570 0.000000 0.831470
vn -0.442289 0.000000 0.896873
vn -0.442289 0.000000 0.896873
vn -0.321439 0.000000 0.946930
vn -0.321439 0.000000 0.946930
vn -0.195090 0.000000 0.980785
vn -0.195090 0.000000 0.980785
vn -0.065403 0.000000 0.997859
vn -0.065403 0.000000 0.997859
f 52/1/1 1/2/1 2/3/1
f 104/4/2 54/5/2 53/6/2
f 52/7/3 2/8/3 3/9/3
f 104/10/4 55/11/4 54/12/4
f 52/13/5 3/14/5 4/15/5
f 104/16/6 56/17/6 55/18/6
f 52/19/7 4/20/7 5/21/7
f 104/22/8 57/23/8 56/24/8
f 52/25/9 5/26/9 6/27/9
f 104/28/10 58/29/10 57/30/10
f 52/31/11 6/32/11 7/33/11
f 104/34/12 59/35/12 58/36/12
f 52/37/13 7/38/13 8/39/13
f 104/40/14 60/41/14 59/42/14
f 52/43/15 8/44/15 9/45/15
f 104/46/16 61/47/16 60/48/16
f 52/49/17 9/50/17 10/51/17
f 104/52/18 62/53/18 61/54/18
f 52/55/19 10/56/19 11/57/19
f 104/58/20 63/59/20 62/60/20
f 52/61/21 11/62/21 12/63/21
f 104/64/22 64/65/22 63/66/22
f 52/67/23 12/68/23 13/69/23
f 104/70/24 65/71/24 64/72/24
f 52/73/25 13/74/25 14/75/25
f 104/76/26 66/77/26 65/78/26
f 52/79/27 14/80/27 15/81/27
f 104/82/28 67/83/28 66/84/28
f 52/85/29 15/86/29 16/87/29
f 104/88/30 68/89/30 67/90/30
f 52/91/31 16/92/31 17/93/31
f 104/94/32 69/95/32 68/96/32
f 52/97/33 17/98/33 18/99/33
f 104/100/34 70/101/34 69/102/34
f 52/103/35 18/104/35 19/105/35
f 104/106/36 71/107/36 70/108/36
f 52/109/37 19/110/37 20/111/37
f 104/112/38 72/113/38 71/114/38
f 52/115/39 20/116/39 21/117/39
f 104/118/40 73/119/40 72/120/40
f 52/121/41 21/122/41 22/123/41
f 104/124/42 74/125/42 73/126/42
f 52/127/43 22/128/43 23/129/43
f 104/130/44 75/131/44 74/132/44
f 52/133/45 23/134/45 24/135/45
f 104/136/46 76/137/46 75/138/46
f 52/139/47 24/140/47 25/141/47
f 104/142/48 77/143/48 76/144/48
f 52/145/49 25/146/49 26/147/49
f 104/148/50 78/149/50 77/150/50
f 52/151/51 26/152/51 27/153/51
f 104/154/52 79/155/52 78/156/52
f 52/157/53 27/158/53 28/159/53
f 104/160/54 80/161/54 79/162/54
f 52/163/55 28/164/55 29/165/55
f 104/166/56 81/167/56 80/168/56
f 52/169/57 29/170/57 30/171/57
f 104/172/58 82/173/58 81/174/58
f 52/175/59 30/176/59 31/177/59
f 104/178/60 83/179/60 82/180/60
f 52/181/61 31/182/61 32/183/61
f 104/184/62 84/185/62 83/186/62
f 52/187/63 32/188/63 33/189/63
f 104/190/64 85/191/64 84/192/64
f 52/193/65 33/194/65 34/195/65
f 104/196/66 86/197/66 85/198/66
f 52/199/67 34/200/67 35/201/67
f 104/202/68 87/203/68 86/204/68
f 52/205/69 35/206/69 36/207/69
f 104/208/70 88/209/70 87/210/70
f 52/211/71 36/212/71 37/213/71
f 104/214/72 89/215/72 88/216/72
f 52/217/73 37/218/73 38/219/73
f 104/220/74 90/221/74 89/222/74
f 52/223/75 38/224/75 39/225/75
f 104/226/76 91/227/76 90/228/76
f 52/229/77 39/230/77 40/231/77
f 104/232/78 92/233/78 91/234/78
f 52/235/79 40/236/79 41/237/79
f 104/238/80 93/239/80 92/240/80
f 52/241/81 41/242/81 42/243/81
f 104/244/82 94/245/82 93/246/82
f 52/247/83 42/248/83 43/249/83
f 104/250/84 95/251/84 94/252/84
f 52/253/85 43/254/85 44/255/85
f 104/256/86 96/257/86 95/258/86
f 52/259/87 44/260/87 45/261/87
f 104/262/88 97/263/88 96/264/88
f 52/265/89 45/266/89 46/267/89
f 104/268/90 98/269/90 97/270/90
f 52/271/91 46/272/91 47/273/91
f 104/274/92 99/275/92 98/276/92
f 52/277/93 47/278/93 48/279/93
f 104/280/94 100/281/94 99/282/94
f 52/283/95 48/284/95 49/285/95
f 104/286/96 101/287/96 100/288/96
f 52/289/97 49/290/97 50/291/97
f 104/292/98 102/293/98 101/294/98
f 50/295/99 51/296/99 52/297/99
f 102/298/100 104/299/100 103/300/100
f 105/301/101 158/302/101 106/303/101
f 105/304/102 157/305/102 158/306/102
f 106/307/103 159/308/103 107/309/103
f 106/310/104 158/311/104 159/312/104
f 107/313/105 160/314/105 108/315/105
f 107/316/106 159/317/106 160/318/106
f 108/319/107 161/320/107 109/321/107
f 108/322/108 160/323/108 161/324/108
f 109/325/109 162/326/109 110/327/109
f 109/328/110 161/329/110 162/330/110
f 110/331/111 163/332/111 111/333/111
f 110/334/112 162/335/112 163/336/112
f 111/337/113 164/338/113 112/339/113
f 111/340/114 163/341/114 164/342/114
f 112/343/115 165/344/115 113/345/115
f 112/346/116 164/347/116 165/348/116
f 113/349/117 166/350/117 114/351/117
f 113/352/118 165/353/118 166/354/118
f 114/355/119 167/356/119 115/357/119
f 114/358/120 166/359/120 167/360/120
f 115/361/121 168/362/121 116/363/121
f 115/364/122 167/365/122 168/366/122
f 116/367/123 169/368/123 117/369/123
f 116/370/124 168/371/124 169/372/124
f 117/373/125 170/374/125 118/375/125
f 117/376/126 169/377/126 170/378/126
f 118/379/127 171/380/127 119/381/127
f 118/382/128 170/383/128 171/384/128
f 119/385/129 172/386/129 120/387/129
f 119/388/130 171/389/130 172/390/130
f 120/391/131 173/392/131 121/393/131
f 120/394/132 172/395/132 173/396/132
f 121/397/133 174/398/133 122/399/133
f 121/400/134 173/401/134 174/402/134
f 122/403/135 175/404/135 123/405/135
f 122/406/136 174/407/136 175/408/136
f 123/409/137 176/410/137 124/411/137
f 123/412/138 175/413/138 176/414/138
f 124/415/139 177/416/139 125/417/139
f 124/418/140 176/419/140 177/420/140
f 125/421/141 178/422/141 126/423/141
f 125/424/142 177/425/142 178/426/142
f 126/427/143 179/428/143 127/429/143
f 126/430/144 178/431/144 179/432/144
f 127/433/145 180/434/145 128/435/145
f 127/436/146 179/437/146 180/438/146
f 128/439/147 181/440/147 129/441/147
f 128/442/148 180/443/148 181/444/148
f 129/445/149 182/446/149 130/447/149
f 129/448/150 181/449/150 182/450/150
f 130/451/151 183/452/151 131/453/151
f 130/454/152 182/455/152 183/456/152
f 131/457/153 184/458/153 132/459/153
f 131/460/154 183/461/154 184/462/154
f 132/463/155 185/464/155 133/465/155
f 132/466/156 184/467/156 185/468/156
f 133/469/157 186/470/157 134/471/157
f 133/472/158 185/473/158 186/474/158
f 134/475/159 187/476/159 135/477/159
f 134/478/160 186/479/160 187/480/160
f 135/481/161 188/482/161 136/483/161
f 135/484/162 187/485/162 188/486/162
f 136/487/163 189/488/163 137/489/163
f 136/490/164 188/491/164 189/492/164
f 137/493/165 190/494/165 138/495/165
f 137/496/166 189/497/166 190/498/166
f 138/499/167 191/500/167 139/501/167
f 138/502/168 190/503/168 191/504/168
f 139/505/169 192/506/169 140/507/169
f 139/508/170 191/509/170 192/510/170
f 140/511/171 193/512/171 141/513/171
f 140/514/172 192/515/172 193/516/172
f 141/517/173 194/518/173 142/519/173
f 141/520/174 193/521/174 194/522/174
f 142/523/175 195/524/175 143/525/175
f 142/526/176 194/527/176 195/528/176
f 143/529/177 196/530/177 144/531/177
f 143/532/178 195/533/178 196/534/178
f 144/535/179 197/536/179 145/537/179
f 144/538/180 196/539/180 197/540/180
f 145/541/181 198/542/181 146/543/181
f 145/544/182 197/545/182 198/546/182
f 146/547/183 199/548/183 147/549/183
f 146/550/184 198/551/184 199/552/184
f 147/553/185 200/554/185 148/555/185
f 147/556/186 199/557/186 200/558/186
f 148/559/187 201/560/187 149/561/187
f 148/562/188 200/563/188 201/564/188
f 149/565/189 202/566/189 150/567/189
f 149/568/190 201/569/190 202/570/190
f 150/571/191 203/572/191 151/573/191
f 150/574/192 202/575/192 203/576/192
f 151/577/193 204/578/193 152/579/193
f 151/580/194 203/581/194 204/582/194
f 152/583/195 205/584/195 153/585/195
f 152/586/196 204/587/196 205/588/196
f 153/589/197 206/590/197 154/591/197
f 153/592/198 205/593/198 206/594/198
f 154/595/199 207/596/199 155/597/199
f 154/598/200 206/599/200 207/600/200
f 155/601/201 208/602/201 156/603/201
f 155/604/202 207/605/202 208/606/202
f 156/607/203 157/608/203 105/609/203
f 156/610/204 208/611/204 157/612/204
